<?xml version="1.0" encoding="utf-8" standalone="no"?>
<!DOCTYPE svg PUBLIC "-//W3C//DTD SVG 1.1//EN"
  "http://www.w3.org/Graphics/SVG/1.1/DTD/svg11.dtd">
<!-- Created with matplotlib (https://matplotlib.org/) -->
<svg height="144pt" version="1.1" viewBox="0 0 216 144" width="216pt" xmlns="http://www.w3.org/2000/svg" xmlns:xlink="http://www.w3.org/1999/xlink">
 <defs>
  <style type="text/css">
*{stroke-linecap:butt;stroke-linejoin:round;}
  </style>
 </defs>
 <g id="figure_1">
  <g id="patch_1">
   <path d="M 0 144 
L 216 144 
L 216 0 
L 0 0 
z
" style="fill:#ffffff;"/>
  </g>
  <g id="patch_2">
   <path d="M 10.8 133.2 
L 205.2 133.2 
L 205.2 10.8 
L 10.8 10.8 
z
" style="fill:#ffffff;"/>
  </g>
  <g id="pane3d_1">
   <g id="patch_3">
    <path d="M 36.570724 106.153914 
L 92.209021 76.144207 
L 91.282702 18.800583 
L 32.542206 45.763687 
" style="fill:#f2f2f2;opacity:0.5;stroke:#f2f2f2;stroke-linejoin:miter;"/>
   </g>
  </g>
  <g id="pane3d_2">
   <g id="patch_4">
    <path d="M 92.209021 76.144207 
L 182.337831 92.92157 
L 186.108713 33.848772 
L 91.282702 18.800583 
" style="fill:#e6e6e6;opacity:0.5;stroke:#e6e6e6;stroke-linejoin:miter;"/>
   </g>
  </g>
  <g id="pane3d_3">
   <g id="patch_5">
    <path d="M 36.570724 106.153914 
L 131.398411 125.693886 
L 182.337831 92.92157 
L 92.209021 76.144207 
" style="fill:#ececec;opacity:0.5;stroke:#ececec;stroke-linejoin:miter;"/>
   </g>
  </g>
  <g id="axis3d_1">
   <g id="line2d_1">
    <path d="M 36.570724 106.153914 
L 131.398411 125.693886 
" style="fill:none;stroke:#000000;stroke-linecap:square;stroke-width:0.8;"/>
   </g>
   <g id="Line3DCollection_1">
    <path d="M 42.352032 107.345197 
L 97.721186 77.170289 
L 97.070293 19.719031 
" style="fill:none;stroke:#b0b0b0;stroke-width:0.8;"/>
    <path d="M 60.176387 111.018042 
L 114.701544 80.331161 
L 114.908793 22.54987 
" style="fill:none;stroke:#b0b0b0;stroke-width:0.8;"/>
    <path d="M 78.316002 114.755849 
L 131.96025 83.543847 
L 133.054712 25.429493 
" style="fill:none;stroke:#b0b0b0;stroke-width:0.8;"/>
    <path d="M 96.779317 118.560356 
L 149.504207 86.809632 
L 151.516063 28.359174 
" style="fill:none;stroke:#b0b0b0;stroke-width:0.8;"/>
    <path d="M 115.575075 122.433366 
L 167.340544 90.129844 
L 170.301146 31.340228 
" style="fill:none;stroke:#b0b0b0;stroke-width:0.8;"/>
   </g>
   <g id="xtick_1">
    <g id="line2d_2">
     <path d="M 42.829066 107.085224 
L 41.396185 107.866111 
" style="fill:none;stroke:#000000;stroke-linecap:square;stroke-width:0.8;"/>
    </g>
    <g id="text_1">
     <!-- 0 -->
     <defs>
      <path d="M 31.78125 66.40625 
Q 24.171875 66.40625 20.328125 58.90625 
Q 16.5 51.421875 16.5 36.375 
Q 16.5 21.390625 20.328125 13.890625 
Q 24.171875 6.390625 31.78125 6.390625 
Q 39.453125 6.390625 43.28125 13.890625 
Q 47.125 21.390625 47.125 36.375 
Q 47.125 51.421875 43.28125 58.90625 
Q 39.453125 66.40625 31.78125 66.40625 
z
M 31.78125 74.21875 
Q 44.046875 74.21875 50.515625 64.515625 
Q 56.984375 54.828125 56.984375 36.375 
Q 56.984375 17.96875 50.515625 8.265625 
Q 44.046875 -1.421875 31.78125 -1.421875 
Q 19.53125 -1.421875 13.0625 8.265625 
Q 6.59375 17.96875 6.59375 36.375 
Q 6.59375 54.828125 13.0625 64.515625 
Q 19.53125 74.21875 31.78125 74.21875 
z
" id="DejaVuSans-48"/>
     </defs>
     <g transform="translate(31.317754 127.519522)scale(0.1 -0.1)">
      <use xlink:href="#DejaVuSans-48"/>
     </g>
    </g>
   </g>
   <g id="xtick_2">
    <g id="line2d_3">
     <path d="M 60.646443 110.753493 
L 59.234506 111.548134 
" style="fill:none;stroke:#000000;stroke-linecap:square;stroke-width:0.8;"/>
    </g>
    <g id="text_2">
     <!-- 2 -->
     <defs>
      <path d="M 19.1875 8.296875 
L 53.609375 8.296875 
L 53.609375 0 
L 7.328125 0 
L 7.328125 8.296875 
Q 12.9375 14.109375 22.625 23.890625 
Q 32.328125 33.6875 34.8125 36.53125 
Q 39.546875 41.84375 41.421875 45.53125 
Q 43.3125 49.21875 43.3125 52.78125 
Q 43.3125 58.59375 39.234375 62.25 
Q 35.15625 65.921875 28.609375 65.921875 
Q 23.96875 65.921875 18.8125 64.3125 
Q 13.671875 62.703125 7.8125 59.421875 
L 7.8125 69.390625 
Q 13.765625 71.78125 18.9375 73 
Q 24.125 74.21875 28.421875 74.21875 
Q 39.75 74.21875 46.484375 68.546875 
Q 53.21875 62.890625 53.21875 53.421875 
Q 53.21875 48.921875 51.53125 44.890625 
Q 49.859375 40.875 45.40625 35.40625 
Q 44.1875 33.984375 37.640625 27.21875 
Q 31.109375 20.453125 19.1875 8.296875 
z
" id="DejaVuSans-50"/>
     </defs>
     <g transform="translate(49.138093 131.316419)scale(0.1 -0.1)">
      <use xlink:href="#DejaVuSans-50"/>
     </g>
    </g>
   </g>
   <g id="xtick_3">
    <g id="line2d_4">
     <path d="M 78.778759 114.486601 
L 77.388733 115.295365 
" style="fill:none;stroke:#000000;stroke-linecap:square;stroke-width:0.8;"/>
    </g>
    <g id="text_3">
     <!-- 4 -->
     <defs>
      <path d="M 37.796875 64.3125 
L 12.890625 25.390625 
L 37.796875 25.390625 
z
M 35.203125 72.90625 
L 47.609375 72.90625 
L 47.609375 25.390625 
L 58.015625 25.390625 
L 58.015625 17.1875 
L 47.609375 17.1875 
L 47.609375 0 
L 37.796875 0 
L 37.796875 17.1875 
L 4.890625 17.1875 
L 4.890625 26.703125 
z
" id="DejaVuSans-52"/>
     </defs>
     <g transform="translate(67.274783 135.18072)scale(0.1 -0.1)">
      <use xlink:href="#DejaVuSans-52"/>
     </g>
    </g>
   </g>
   <g id="xtick_4">
    <g id="line2d_5">
     <path d="M 97.234438 118.286285 
L 95.867334 119.109549 
" style="fill:none;stroke:#000000;stroke-linecap:square;stroke-width:0.8;"/>
    </g>
    <g id="text_4">
     <!-- 6 -->
     <defs>
      <path d="M 33.015625 40.375 
Q 26.375 40.375 22.484375 35.828125 
Q 18.609375 31.296875 18.609375 23.390625 
Q 18.609375 15.53125 22.484375 10.953125 
Q 26.375 6.390625 33.015625 6.390625 
Q 39.65625 6.390625 43.53125 10.953125 
Q 47.40625 15.53125 47.40625 23.390625 
Q 47.40625 31.296875 43.53125 35.828125 
Q 39.65625 40.375 33.015625 40.375 
z
M 52.59375 71.296875 
L 52.59375 62.3125 
Q 48.875 64.0625 45.09375 64.984375 
Q 41.3125 65.921875 37.59375 65.921875 
Q 27.828125 65.921875 22.671875 59.328125 
Q 17.53125 52.734375 16.796875 39.40625 
Q 19.671875 43.65625 24.015625 45.921875 
Q 28.375 48.1875 33.59375 48.1875 
Q 44.578125 48.1875 50.953125 41.515625 
Q 57.328125 34.859375 57.328125 23.390625 
Q 57.328125 12.15625 50.6875 5.359375 
Q 44.046875 -1.421875 33.015625 -1.421875 
Q 20.359375 -1.421875 13.671875 8.265625 
Q 6.984375 17.96875 6.984375 36.375 
Q 6.984375 53.65625 15.1875 63.9375 
Q 23.390625 74.21875 37.203125 74.21875 
Q 40.921875 74.21875 44.703125 73.484375 
Q 48.484375 72.75 52.59375 71.296875 
z
" id="DejaVuSans-54"/>
     </defs>
     <g transform="translate(85.736323 139.114235)scale(0.1 -0.1)">
      <use xlink:href="#DejaVuSans-54"/>
     </g>
    </g>
   </g>
   <g id="xtick_5">
    <g id="line2d_6">
     <path d="M 116.022207 122.154339 
L 114.679081 122.992499 
" style="fill:none;stroke:#000000;stroke-linecap:square;stroke-width:0.8;"/>
    </g>
    <g id="text_5">
     <!-- 8 -->
     <defs>
      <path d="M 31.78125 34.625 
Q 24.75 34.625 20.71875 30.859375 
Q 16.703125 27.09375 16.703125 20.515625 
Q 16.703125 13.921875 20.71875 10.15625 
Q 24.75 6.390625 31.78125 6.390625 
Q 38.8125 6.390625 42.859375 10.171875 
Q 46.921875 13.96875 46.921875 20.515625 
Q 46.921875 27.09375 42.890625 30.859375 
Q 38.875 34.625 31.78125 34.625 
z
M 21.921875 38.8125 
Q 15.578125 40.375 12.03125 44.71875 
Q 8.5 49.078125 8.5 55.328125 
Q 8.5 64.0625 14.71875 69.140625 
Q 20.953125 74.21875 31.78125 74.21875 
Q 42.671875 74.21875 48.875 69.140625 
Q 55.078125 64.0625 55.078125 55.328125 
Q 55.078125 49.078125 51.53125 44.71875 
Q 48 40.375 41.703125 38.8125 
Q 48.828125 37.15625 52.796875 32.3125 
Q 56.78125 27.484375 56.78125 20.515625 
Q 56.78125 9.90625 50.3125 4.234375 
Q 43.84375 -1.421875 31.78125 -1.421875 
Q 19.734375 -1.421875 13.25 4.234375 
Q 6.78125 9.90625 6.78125 20.515625 
Q 6.78125 27.484375 10.78125 32.3125 
Q 14.796875 37.15625 21.921875 38.8125 
z
M 18.3125 54.390625 
Q 18.3125 48.734375 21.84375 45.5625 
Q 25.390625 42.390625 31.78125 42.390625 
Q 38.140625 42.390625 41.71875 45.5625 
Q 45.3125 48.734375 45.3125 54.390625 
Q 45.3125 60.0625 41.71875 63.234375 
Q 38.140625 66.40625 31.78125 66.40625 
Q 25.390625 66.40625 21.84375 63.234375 
Q 18.3125 60.0625 18.3125 54.390625 
z
" id="DejaVuSans-56"/>
     </defs>
     <g transform="translate(104.531519 143.11884)scale(0.1 -0.1)">
      <use xlink:href="#DejaVuSans-56"/>
     </g>
    </g>
   </g>
  </g>
  <g id="axis3d_2">
   <g id="line2d_7">
    <path d="M 182.337831 92.92157 
L 131.398411 125.693886 
" style="fill:none;stroke:#000000;stroke-linecap:square;stroke-width:0.8;"/>
   </g>
   <g id="Line3DCollection_2">
    <path d="M 36.564365 43.917433 
L 40.366648 104.106501 
L 134.88463 123.450997 
" style="fill:none;stroke:#b0b0b0;stroke-width:0.8;"/>
    <path d="M 48.570044 38.406578 
L 51.70909 97.988712 
L 145.292142 116.755234 
" style="fill:none;stroke:#b0b0b0;stroke-width:0.8;"/>
    <path d="M 60.209248 33.063942 
L 62.722561 92.04836 
L 155.384181 110.262433 
" style="fill:none;stroke:#b0b0b0;stroke-width:0.8;"/>
    <path d="M 71.498505 27.88194 
L 73.421169 86.277837 
L 165.174876 103.963505 
" style="fill:none;stroke:#b0b0b0;stroke-width:0.8;"/>
    <path d="M 82.453363 22.853433 
L 83.818227 80.669962 
L 174.677526 97.849893 
" style="fill:none;stroke:#b0b0b0;stroke-width:0.8;"/>
   </g>
   <g id="xtick_6">
    <g id="line2d_8">
     <path d="M 134.093598 123.2891 
L 136.468463 123.775151 
" style="fill:none;stroke:#000000;stroke-linecap:square;stroke-width:0.8;"/>
    </g>
    <g id="text_6">
     <!-- 0 -->
     <g transform="translate(145.296339 142.045096)scale(0.1 -0.1)">
      <use xlink:href="#DejaVuSans-48"/>
     </g>
    </g>
   </g>
   <g id="xtick_7">
    <g id="line2d_9">
     <path d="M 144.509466 116.598281 
L 146.859218 117.069485 
" style="fill:none;stroke:#000000;stroke-linecap:square;stroke-width:0.8;"/>
    </g>
    <g id="text_7">
     <!-- 2 -->
     <g transform="translate(155.4846 135.186893)scale(0.1 -0.1)">
      <use xlink:href="#DejaVuSans-50"/>
     </g>
    </g>
   </g>
   <g id="xtick_8">
    <g id="line2d_10">
     <path d="M 154.609721 110.110201 
L 156.934779 110.567227 
" style="fill:none;stroke:#000000;stroke-linecap:square;stroke-width:0.8;"/>
    </g>
    <g id="text_8">
     <!-- 4 -->
     <g transform="translate(165.364333 128.536375)scale(0.1 -0.1)">
      <use xlink:href="#DejaVuSans-52"/>
     </g>
    </g>
   </g>
   <g id="xtick_9">
    <g id="line2d_11">
     <path d="M 164.408495 103.815784 
L 166.709275 104.259263 
" style="fill:none;stroke:#000000;stroke-linecap:square;stroke-width:0.8;"/>
    </g>
    <g id="text_9">
     <!-- 6 -->
     <g transform="translate(174.949345 122.084248)scale(0.1 -0.1)">
      <use xlink:href="#DejaVuSans-54"/>
     </g>
    </g>
   </g>
   <g id="xtick_10">
    <g id="line2d_12">
     <path d="M 173.919086 97.706485 
L 176.196001 98.137011 
" style="fill:none;stroke:#000000;stroke-linecap:square;stroke-width:0.8;"/>
    </g>
    <g id="text_10">
     <!-- 8 -->
     <g transform="translate(184.252629 115.821765)scale(0.1 -0.1)">
      <use xlink:href="#DejaVuSans-56"/>
     </g>
    </g>
   </g>
  </g>
  <g id="axis3d_3">
   <g id="line2d_13">
    <path d="M 182.337831 92.92157 
L 186.108713 33.848772 
" style="fill:none;stroke:#000000;stroke-linecap:square;stroke-width:0.8;"/>
   </g>
   <g id="Line3DCollection_3">
    <path d="M 183.088255 81.165797 
L 92.024357 64.712624 
L 35.770134 94.152529 
" style="fill:none;stroke:#b0b0b0;stroke-width:0.8;"/>
    <path d="M 183.801822 69.987403 
L 91.848912 53.851692 
L 35.008356 82.73296 
" style="fill:none;stroke:#b0b0b0;stroke-width:0.8;"/>
    <path d="M 184.529583 58.586659 
L 91.670125 42.783947 
L 34.230915 71.07858 
" style="fill:none;stroke:#b0b0b0;stroke-width:0.8;"/>
    <path d="M 185.271965 46.956865 
L 91.487902 31.503423 
L 33.437321 59.182072 
" style="fill:none;stroke:#b0b0b0;stroke-width:0.8;"/>
    <path d="M 186.029413 35.091048 
L 91.302141 20.003926 
L 32.627067 47.03581 
" style="fill:none;stroke:#b0b0b0;stroke-width:0.8;"/>
   </g>
   <g id="xtick_11">
    <g id="line2d_14">
     <path d="M 182.328161 81.028465 
L 184.610039 81.440749 
" style="fill:none;stroke:#000000;stroke-linecap:square;stroke-width:0.8;"/>
    </g>
    <g id="text_11">
     <!-- 0.00 -->
     <defs>
      <path d="M 10.6875 12.40625 
L 21 12.40625 
L 21 0 
L 10.6875 0 
z
" id="DejaVuSans-46"/>
     </defs>
     <g transform="translate(191.745217 87.01968)scale(0.1 -0.1)">
      <use xlink:href="#DejaVuSans-48"/>
      <use x="63.623047" xlink:href="#DejaVuSans-46"/>
      <use x="95.410156" xlink:href="#DejaVuSans-48"/>
      <use x="159.033203" xlink:href="#DejaVuSans-48"/>
     </g>
    </g>
   </g>
   <g id="xtick_12">
    <g id="line2d_15">
     <path d="M 183.033994 69.852666 
L 185.339107 70.257163 
" style="fill:none;stroke:#000000;stroke-linecap:square;stroke-width:0.8;"/>
    </g>
    <g id="text_12">
     <!-- 0.25 -->
     <defs>
      <path d="M 10.796875 72.90625 
L 49.515625 72.90625 
L 49.515625 64.59375 
L 19.828125 64.59375 
L 19.828125 46.734375 
Q 21.96875 47.46875 24.109375 47.828125 
Q 26.265625 48.1875 28.421875 48.1875 
Q 40.625 48.1875 47.75 41.5 
Q 54.890625 34.8125 54.890625 23.390625 
Q 54.890625 11.625 47.5625 5.09375 
Q 40.234375 -1.421875 26.90625 -1.421875 
Q 22.3125 -1.421875 17.546875 -0.640625 
Q 12.796875 0.140625 7.71875 1.703125 
L 7.71875 11.625 
Q 12.109375 9.234375 16.796875 8.0625 
Q 21.484375 6.890625 26.703125 6.890625 
Q 35.15625 6.890625 40.078125 11.328125 
Q 45.015625 15.765625 45.015625 23.390625 
Q 45.015625 31 40.078125 35.4375 
Q 35.15625 39.890625 26.703125 39.890625 
Q 22.75 39.890625 18.8125 39.015625 
Q 14.890625 38.140625 10.796875 36.28125 
z
" id="DejaVuSans-53"/>
     </defs>
     <g transform="translate(192.649591 75.874316)scale(0.1 -0.1)">
      <use xlink:href="#DejaVuSans-48"/>
      <use x="63.623047" xlink:href="#DejaVuSans-46"/>
      <use x="95.410156" xlink:href="#DejaVuSans-50"/>
      <use x="159.033203" xlink:href="#DejaVuSans-53"/>
     </g>
    </g>
   </g>
   <g id="xtick_13">
    <g id="line2d_16">
     <path d="M 183.753861 58.454648 
L 186.082687 58.850965 
" style="fill:none;stroke:#000000;stroke-linecap:square;stroke-width:0.8;"/>
    </g>
    <g id="text_13">
     <!-- 0.50 -->
     <g transform="translate(193.571873 64.508264)scale(0.1 -0.1)">
      <use xlink:href="#DejaVuSans-48"/>
      <use x="63.623047" xlink:href="#DejaVuSans-46"/>
      <use x="95.410156" xlink:href="#DejaVuSans-53"/>
      <use x="159.033203" xlink:href="#DejaVuSans-48"/>
     </g>
    </g>
   </g>
   <g id="xtick_14">
    <g id="line2d_17">
     <path d="M 184.488186 46.827717 
L 186.841217 47.215442 
" style="fill:none;stroke:#000000;stroke-linecap:square;stroke-width:0.8;"/>
    </g>
    <g id="text_14">
     <!-- 0.75 -->
     <defs>
      <path d="M 8.203125 72.90625 
L 55.078125 72.90625 
L 55.078125 68.703125 
L 28.609375 0 
L 18.3125 0 
L 43.21875 64.59375 
L 8.203125 64.59375 
z
" id="DejaVuSans-55"/>
     </defs>
     <g transform="translate(194.512599 52.914902)scale(0.1 -0.1)">
      <use xlink:href="#DejaVuSans-48"/>
      <use x="63.623047" xlink:href="#DejaVuSans-46"/>
      <use x="95.410156" xlink:href="#DejaVuSans-55"/>
      <use x="159.033203" xlink:href="#DejaVuSans-53"/>
     </g>
    </g>
   </g>
   <g id="xtick_15">
    <g id="line2d_18">
     <path d="M 185.237409 34.964906 
L 187.615152 35.343607 
" style="fill:none;stroke:#000000;stroke-linecap:square;stroke-width:0.8;"/>
    </g>
    <g id="text_15">
     <!-- 1.00 -->
     <defs>
      <path d="M 12.40625 8.296875 
L 28.515625 8.296875 
L 28.515625 63.921875 
L 10.984375 60.40625 
L 10.984375 69.390625 
L 28.421875 72.90625 
L 38.28125 72.90625 
L 38.28125 8.296875 
L 54.390625 8.296875 
L 54.390625 0 
L 12.40625 0 
z
" id="DejaVuSans-49"/>
     </defs>
     <g transform="translate(195.472328 41.087344)scale(0.1 -0.1)">
      <use xlink:href="#DejaVuSans-49"/>
      <use x="63.623047" xlink:href="#DejaVuSans-46"/>
      <use x="95.410156" xlink:href="#DejaVuSans-48"/>
      <use x="159.033203" xlink:href="#DejaVuSans-48"/>
     </g>
    </g>
   </g>
  </g>
  <g id="axes_1">
   <g id="Poly3DCollection_1">
    <path clip-path="url(#p9e96f16618)" d="M 97.847142 79.215462 
L 106.480395 83.846535 
L 111.472645 76.896853 
L 102.854403 71.188942 
z
" style="fill:#f9f9f9;stroke:#000000;"/>
    <path clip-path="url(#p9e96f16618)" d="M 89.051589 64.59325 
L 97.847142 79.215462 
L 102.854403 71.188942 
L 94.082402 54.093186 
z
" style="fill:#a2a2a2;stroke:#000000;"/>
    <path clip-path="url(#p9e96f16618)" d="M 106.480395 83.846535 
L 115.163554 82.323349 
L 120.168308 74.354542 
L 111.472645 76.896853 
z
" style="fill:#f9f9f9;stroke:#000000;"/>
    <path clip-path="url(#p9e96f16618)" d="M 92.700077 80.00584 
L 101.38076 81.92602 
L 106.480395 83.846535 
L 97.847142 79.215462 
z
" style="fill:#ffffff;stroke:#000000;"/>
    <path clip-path="url(#p9e96f16618)" d="M 115.163554 82.323349 
L 123.893427 87.129837 
L 128.866394 80.111237 
L 120.168308 74.354542 
z
" style="fill:#f9f9f9;stroke:#000000;"/>
    <path clip-path="url(#p9e96f16618)" d="M 83.627687 58.413843 
L 92.700077 80.00584 
L 97.847142 79.215462 
L 89.051589 64.59325 
z
" style="fill:#a8a8a8;stroke:#000000;"/>
    <path clip-path="url(#p9e96f16618)" d="M 101.38076 81.92602 
L 110.127647 79.468197 
L 115.163554 82.323349 
L 106.480395 83.846535 
z
" style="fill:#f6f6f6;stroke:#000000;"/>
    <path clip-path="url(#p9e96f16618)" d="M 123.893427 87.129837 
L 132.773603 85.483937 
L 137.770935 77.572931 
L 128.866394 80.111237 
z
" style="fill:#f8f8f8;stroke:#000000;"/>
    <path clip-path="url(#p9e96f16618)" d="M 110.127647 79.468197 
L 118.951606 85.231027 
L 123.893427 87.129837 
L 115.163554 82.323349 
z
" style="fill:#f6f6f6;stroke:#000000;"/>
    <path clip-path="url(#p9e96f16618)" d="M 118.951606 85.231027 
L 127.969941 78.917759 
L 132.773603 85.483937 
L 123.893427 87.129837 
z
" style="fill:#ececec;stroke:#000000;"/>
    <path clip-path="url(#p9e96f16618)" d="M 87.046948 60.567271 
L 96.012776 68.140246 
L 101.38076 81.92602 
L 92.700077 80.00584 
z
" style="fill:#929292;stroke:#000000;"/>
    <path clip-path="url(#p9e96f16618)" d="M 132.773603 85.483937 
L 142.046108 74.178796 
L 147.183615 63.407448 
L 137.770935 77.572931 
z
" style="fill:#a1a1a1;stroke:#000000;"/>
    <path clip-path="url(#p9e96f16618)" d="M 150.670574 89.099602 
L 159.601503 93.86275 
L 164.531812 86.702247 
L 155.669567 80.845441 
z
" style="fill:#f9f9f9;stroke:#000000;"/>
    <path clip-path="url(#p9e96f16618)" d="M 142.046108 74.178796 
L 150.670574 89.099602 
L 155.669567 80.845441 
L 147.183615 63.407448 
z
" style="fill:#a2a2a2;stroke:#000000;"/>
    <path clip-path="url(#p9e96f16618)" d="M 96.012776 68.140246 
L 104.902741 63.765514 
L 110.127647 79.468197 
L 101.38076 81.92602 
z
" style="fill:#898989;stroke:#000000;"/>
    <path clip-path="url(#p9e96f16618)" d="M 159.601503 93.86275 
L 168.884094 92.371979 
L 173.871734 84.173448 
L 164.531812 86.702247 
z
" style="fill:#f9f9f9;stroke:#000000;"/>
    <path clip-path="url(#p9e96f16618)" d="M 76.927993 90.405516 
L 85.791326 95.457756 
L 90.993053 87.685868 
L 82.033851 78.031026 
z
" style="fill:#ececec;stroke:#000000;"/>
    <path clip-path="url(#p9e96f16618)" d="M 77.423516 30.081138 
L 87.046948 60.567271 
L 92.700077 80.00584 
L 83.627687 58.413843 
z
" style="fill:#121212;stroke:#000000;"/>
    <path clip-path="url(#p9e96f16618)" d="M 145.877426 90.000955 
L 154.993736 92.010408 
L 159.601503 93.86275 
L 150.670574 89.099602 
z
" style="fill:#ffffff;stroke:#000000;"/>
    <path clip-path="url(#p9e96f16618)" d="M 82.033851 78.031026 
L 90.993053 87.685868 
L 96.012776 68.140246 
L 87.046948 60.567271 
z
" style="fill:#808080;stroke:#000000;"/>
    <path clip-path="url(#p9e96f16618)" d="M 104.902741 63.765514 
L 113.928858 71.400512 
L 118.951606 85.231027 
L 110.127647 79.468197 
z
" style="fill:#898989;stroke:#000000;"/>
    <path clip-path="url(#p9e96f16618)" d="M 127.969941 78.917759 
L 137.298635 67.987258 
L 142.046108 74.178796 
L 132.773603 85.483937 
z
" style="fill:#959595;stroke:#000000;"/>
    <path clip-path="url(#p9e96f16618)" d="M 85.791326 95.457756 
L 94.583451 93.972473 
L 99.786547 85.237489 
L 90.993053 87.685868 
z
" style="fill:#f6f6f6;stroke:#000000;"/>
    <path clip-path="url(#p9e96f16618)" d="M 67.723624 75.705483 
L 76.927993 90.405516 
L 82.033851 78.031026 
L 72.87855 63.881276 
z
" style="fill:#959595;stroke:#000000;"/>
    <path clip-path="url(#p9e96f16618)" d="M 137.298635 67.987258 
L 145.877426 90.000955 
L 150.670574 89.099602 
L 142.046108 74.178796 
z
" style="fill:#a8a8a8;stroke:#000000;"/>
    <path clip-path="url(#p9e96f16618)" d="M 90.993053 87.685868 
L 99.786547 85.237489 
L 104.902741 63.765514 
L 96.012776 68.140246 
z
" style="fill:#898989;stroke:#000000;"/>
    <path clip-path="url(#p9e96f16618)" d="M 71.326614 88.22914 
L 80.312537 94.19996 
L 85.791326 95.457756 
L 76.927993 90.405516 
z
" style="fill:#f8f8f8;stroke:#000000;"/>
    <path clip-path="url(#p9e96f16618)" d="M 154.993736 92.010408 
L 164.396566 89.569989 
L 168.884094 92.371979 
L 159.601503 93.86275 
z
" style="fill:#f6f6f6;stroke:#000000;"/>
    <path clip-path="url(#p9e96f16618)" d="M 94.583451 93.972473 
L 103.543116 98.937528 
L 108.734721 91.088738 
L 99.786547 85.237489 
z
" style="fill:#f6f6f6;stroke:#000000;"/>
    <path clip-path="url(#p9e96f16618)" d="M 113.928858 71.400512 
L 123.068049 67.019196 
L 127.969941 78.917759 
L 118.951606 85.231027 
z
" style="fill:#808080;stroke:#000000;"/>
    <path clip-path="url(#p9e96f16618)" d="M 61.850433 70.532444 
L 71.326614 88.22914 
L 76.927993 90.405516 
L 67.723624 75.705483 
z
" style="fill:#a1a1a1;stroke:#000000;"/>
    <path clip-path="url(#p9e96f16618)" d="M 99.786547 85.237489 
L 108.734721 91.088738 
L 113.928858 71.400512 
L 104.902741 63.765514 
z
" style="fill:#898989;stroke:#000000;"/>
    <path clip-path="url(#p9e96f16618)" d="M 72.87855 63.881276 
L 82.033851 78.031026 
L 87.046948 60.567271 
L 77.423516 30.081138 
z
" style="stroke:#000000;"/>
    <path clip-path="url(#p9e96f16618)" d="M 80.312537 94.19996 
L 89.145432 91.684092 
L 94.583451 93.972473 
L 85.791326 95.457756 
z
" style="fill:#f9f9f9;stroke:#000000;"/>
    <path clip-path="url(#p9e96f16618)" d="M 103.543116 98.937528 
L 112.538599 97.599977 
L 117.721286 92.51785 
L 108.734721 91.088738 
z
" style="fill:#ffffff;stroke:#000000;"/>
    <path clip-path="url(#p9e96f16618)" d="M 66.01385 96.658202 
L 74.984442 101.522849 
L 80.312537 94.19996 
L 71.326614 88.22914 
z
" style="fill:#f9f9f9;stroke:#000000;"/>
    <path clip-path="url(#p9e96f16618)" d="M 108.734721 91.088738 
L 117.721286 92.51785 
L 123.068049 67.019196 
L 113.928858 71.400512 
z
" style="fill:#929292;stroke:#000000;"/>
    <path clip-path="url(#p9e96f16618)" d="M 89.145432 91.684092 
L 98.218226 97.70831 
L 103.543116 98.937528 
L 94.583451 93.972473 
z
" style="fill:#f9f9f9;stroke:#000000;"/>
    <path clip-path="url(#p9e96f16618)" d="M 56.580114 81.511442 
L 66.01385 96.658202 
L 71.326614 88.22914 
L 61.850433 70.532444 
z
" style="fill:#a2a2a2;stroke:#000000;"/>
    <path clip-path="url(#p9e96f16618)" d="M 74.984442 101.522849 
L 83.830151 100.059251 
L 89.145432 91.684092 
L 80.312537 94.19996 
z
" style="fill:#f9f9f9;stroke:#000000;"/>
    <path clip-path="url(#p9e96f16618)" d="M 98.218226 97.70831 
L 107.274849 95.199268 
L 112.538599 97.599977 
L 103.543116 98.937528 
z
" style="fill:#f9f9f9;stroke:#000000;"/>
    <path clip-path="url(#p9e96f16618)" d="M 141.550991 70.329771 
L 150.699954 78.091907 
L 154.993736 92.010408 
L 145.877426 90.000955 
z
" style="fill:#929292;stroke:#000000;"/>
    <path clip-path="url(#p9e96f16618)" d="M 60.336926 97.647475 
L 69.277993 99.726584 
L 74.984442 101.522849 
L 66.01385 96.658202 
z
" style="fill:#ffffff;stroke:#000000;"/>
    <path clip-path="url(#p9e96f16618)" d="M 83.830151 100.059251 
L 92.909237 105.107534 
L 98.218226 97.70831 
L 89.145432 91.684092 
z
" style="fill:#f9f9f9;stroke:#000000;"/>
    <path clip-path="url(#p9e96f16618)" d="M 112.538599 97.599977 
L 121.764588 85.873267 
L 127.080994 73.743438 
L 117.721286 92.51785 
z
" style="fill:#a8a8a8;stroke:#000000;"/>
    <path clip-path="url(#p9e96f16618)" d="M 50.398375 75.315575 
L 60.336926 97.647475 
L 66.01385 96.658202 
L 56.580114 81.511442 
z
" style="fill:#a8a8a8;stroke:#000000;"/>
    <path clip-path="url(#p9e96f16618)" d="M 150.699954 78.091907 
L 160.35997 73.698745 
L 164.396566 89.569989 
L 154.993736 92.010408 
z
" style="fill:#898989;stroke:#000000;"/>
    <path clip-path="url(#p9e96f16618)" d="M 123.068049 67.019196 
L 132.824354 39.23389 
L 137.298635 67.987258 
L 127.969941 78.917759 
z
" style="stroke:#000000;"/>
    <path clip-path="url(#p9e96f16618)" d="M 130.808527 100.881008 
L 139.972955 106.078639 
L 145.140899 98.07148 
L 136.104631 88.19485 
z
" style="fill:#ececec;stroke:#000000;"/>
    <path clip-path="url(#p9e96f16618)" d="M 69.277993 99.726584 
L 78.16127 97.302216 
L 83.830151 100.059251 
L 74.984442 101.522849 
z
" style="fill:#f6f6f6;stroke:#000000;"/>
    <path clip-path="url(#p9e96f16618)" d="M 92.909237 105.107534 
L 101.962286 103.520591 
L 107.274849 95.199268 
L 98.218226 97.70831 
z
" style="fill:#f8f8f8;stroke:#000000;"/>
    <path clip-path="url(#p9e96f16618)" d="M 132.824354 39.23389 
L 141.550991 70.329771 
L 145.877426 90.000955 
L 137.298635 67.987258 
z
" style="fill:#121212;stroke:#000000;"/>
    <path clip-path="url(#p9e96f16618)" d="M 136.104631 88.19485 
L 145.140899 98.07148 
L 150.699954 78.091907 
L 141.550991 70.329771 
z
" style="fill:#808080;stroke:#000000;"/>
    <path clip-path="url(#p9e96f16618)" d="M 139.972955 106.078639 
L 149.393341 104.632182 
L 154.605843 95.643468 
L 145.140899 98.07148 
z
" style="fill:#f6f6f6;stroke:#000000;"/>
    <path clip-path="url(#p9e96f16618)" d="M 121.764588 85.873267 
L 130.808527 100.881008 
L 136.104631 88.19485 
L 127.080994 73.743438 
z
" style="fill:#959595;stroke:#000000;"/>
    <path clip-path="url(#p9e96f16618)" d="M 78.16127 97.302216 
L 87.36864 103.338686 
L 92.909237 105.107534 
L 83.830151 100.059251 
z
" style="fill:#f6f6f6;stroke:#000000;"/>
    <path clip-path="url(#p9e96f16618)" d="M 117.721286 92.51785 
L 127.080994 73.743438 
L 132.824354 39.23389 
L 123.068049 67.019196 
z
" style="fill:#121212;stroke:#000000;"/>
    <path clip-path="url(#p9e96f16618)" d="M 107.274849 95.199268 
L 116.543322 80.714506 
L 121.764588 85.873267 
L 112.538599 97.599977 
z
" style="fill:#a2a2a2;stroke:#000000;"/>
    <path clip-path="url(#p9e96f16618)" d="M 145.140899 98.07148 
L 154.605843 95.643468 
L 160.35997 73.698745 
L 150.699954 78.091907 
z
" style="fill:#898989;stroke:#000000;"/>
    <path clip-path="url(#p9e96f16618)" d="M 125.723058 98.776255 
L 134.974671 104.910182 
L 139.972955 106.078639 
L 130.808527 100.881008 
z
" style="fill:#f8f8f8;stroke:#000000;"/>
    <path clip-path="url(#p9e96f16618)" d="M 87.36864 103.338686 
L 96.429362 96.948361 
L 101.962286 103.520591 
L 92.909237 105.107534 
z
" style="fill:#ececec;stroke:#000000;"/>
    <path clip-path="url(#p9e96f16618)" d="M 116.543322 80.714506 
L 125.723058 98.776255 
L 130.808527 100.881008 
L 121.764588 85.873267 
z
" style="fill:#a1a1a1;stroke:#000000;"/>
    <path clip-path="url(#p9e96f16618)" d="M 127.080994 73.743438 
L 136.104631 88.19485 
L 141.550991 70.329771 
L 132.824354 39.23389 
z
" style="stroke:#000000;"/>
    <path clip-path="url(#p9e96f16618)" d="M 134.974671 104.910182 
L 144.498541 102.416699 
L 149.393341 104.632182 
L 139.972955 106.078639 
z
" style="fill:#f9f9f9;stroke:#000000;"/>
    <path clip-path="url(#p9e96f16618)" d="M 53.506732 77.80744 
L 62.919942 85.714138 
L 69.277993 99.726584 
L 60.336926 97.647475 
z
" style="fill:#929292;stroke:#000000;"/>
    <path clip-path="url(#p9e96f16618)" d="M 101.962286 103.520591 
L 111.155673 91.990444 
L 116.543322 80.714506 
L 107.274849 95.199268 
z
" style="fill:#a1a1a1;stroke:#000000;"/>
    <path clip-path="url(#p9e96f16618)" d="M 120.415086 107.456411 
L 129.708414 112.466809 
L 134.974671 104.910182 
L 125.723058 98.776255 
z
" style="fill:#f9f9f9;stroke:#000000;"/>
    <path clip-path="url(#p9e96f16618)" d="M 111.155673 91.990444 
L 120.415086 107.456411 
L 125.723058 98.776255 
L 116.543322 80.714506 
z
" style="fill:#a2a2a2;stroke:#000000;"/>
    <path clip-path="url(#p9e96f16618)" d="M 62.919942 85.714138 
L 71.895351 81.310215 
L 78.16127 97.302216 
L 69.277993 99.726584 
z
" style="fill:#898989;stroke:#000000;"/>
    <path clip-path="url(#p9e96f16618)" d="M 129.708414 112.466809 
L 139.19753 111.04562 
L 144.498541 102.416699 
L 134.974671 104.910182 
z
" style="fill:#f9f9f9;stroke:#000000;"/>
    <path clip-path="url(#p9e96f16618)" d="M 42.70324 46.251223 
L 53.506732 77.80744 
L 60.336926 97.647475 
L 50.398375 75.315575 
z
" style="fill:#121212;stroke:#000000;"/>
    <path clip-path="url(#p9e96f16618)" d="M 115.109464 108.575886 
L 124.520064 110.756592 
L 129.708414 112.466809 
L 120.415086 107.456411 
z
" style="fill:#ffffff;stroke:#000000;"/>
    <path clip-path="url(#p9e96f16618)" d="M 71.895351 81.310215 
L 81.375164 89.284533 
L 87.36864 103.338686 
L 78.16127 97.302216 
z
" style="fill:#898989;stroke:#000000;"/>
    <path clip-path="url(#p9e96f16618)" d="M 96.429362 96.948361 
L 105.68708 85.795847 
L 111.155673 91.990444 
L 101.962286 103.520591 
z
" style="fill:#959595;stroke:#000000;"/>
    <path clip-path="url(#p9e96f16618)" d="M 105.68708 85.795847 
L 115.109464 108.575886 
L 120.415086 107.456411 
L 111.155673 91.990444 
z
" style="fill:#a8a8a8;stroke:#000000;"/>
    <path clip-path="url(#p9e96f16618)" d="M 124.520064 110.756592 
L 134.107369 108.359287 
L 139.19753 111.04562 
L 129.708414 112.466809 
z
" style="fill:#f6f6f6;stroke:#000000;"/>
    <path clip-path="url(#p9e96f16618)" d="M 81.375164 89.284533 
L 90.617754 84.876571 
L 96.429362 96.948361 
L 87.36864 103.338686 
z
" style="fill:#808080;stroke:#000000;"/>
    <path clip-path="url(#p9e96f16618)" d="M 109.683111 88.508255 
L 119.298779 96.621334 
L 124.520064 110.756592 
L 115.109464 108.575886 
z
" style="fill:#929292;stroke:#000000;"/>
    <path clip-path="url(#p9e96f16618)" d="M 119.298779 96.621334 
L 129.100933 92.207078 
L 134.107369 108.359287 
L 124.520064 110.756592 
z
" style="fill:#898989;stroke:#000000;"/>
    <path clip-path="url(#p9e96f16618)" d="M 90.617754 84.876571 
L 99.824045 56.303414 
L 105.68708 85.795847 
L 96.429362 96.948361 
z
" style="stroke:#000000;"/>
    <path clip-path="url(#p9e96f16618)" d="M 99.824045 56.303414 
L 109.683111 88.508255 
L 115.109464 108.575886 
L 105.68708 85.795847 
z
" style="fill:#121212;stroke:#000000;"/>
   </g>
  </g>
 </g>
 <defs>
  <clipPath id="p9e96f16618">
   <rect height="122.4" width="194.4" x="10.8" y="10.8"/>
  </clipPath>
 </defs>
</svg>
