<?xml version="1.0" encoding="utf-8" standalone="no"?>
<!DOCTYPE svg PUBLIC "-//W3C//DTD SVG 1.1//EN"
  "http://www.w3.org/Graphics/SVG/1.1/DTD/svg11.dtd">
<!-- Created with matplotlib (https://matplotlib.org/) -->
<svg height="144pt" version="1.1" viewBox="0 0 216 144" width="216pt" xmlns="http://www.w3.org/2000/svg" xmlns:xlink="http://www.w3.org/1999/xlink">
 <defs>
  <style type="text/css">
*{stroke-linecap:butt;stroke-linejoin:round;}
  </style>
 </defs>
 <g id="figure_1">
  <g id="patch_1">
   <path d="M 0 144 
L 216 144 
L 216 0 
L 0 0 
z
" style="fill:#ffffff;"/>
  </g>
  <g id="patch_2">
   <path d="M 10.8 133.2 
L 205.2 133.2 
L 205.2 10.8 
L 10.8 10.8 
z
" style="fill:#ffffff;"/>
  </g>
  <g id="pane3d_1">
   <g id="patch_3">
    <path d="M 36.570724 106.153914 
L 92.209021 76.144207 
L 91.282702 18.800583 
L 32.542206 45.763687 
" style="fill:#f2f2f2;opacity:0.5;stroke:#f2f2f2;stroke-linejoin:miter;"/>
   </g>
  </g>
  <g id="pane3d_2">
   <g id="patch_4">
    <path d="M 92.209021 76.144207 
L 182.337831 92.92157 
L 186.108713 33.848772 
L 91.282702 18.800583 
" style="fill:#e6e6e6;opacity:0.5;stroke:#e6e6e6;stroke-linejoin:miter;"/>
   </g>
  </g>
  <g id="pane3d_3">
   <g id="patch_5">
    <path d="M 36.570724 106.153914 
L 131.398411 125.693886 
L 182.337831 92.92157 
L 92.209021 76.144207 
" style="fill:#ececec;opacity:0.5;stroke:#ececec;stroke-linejoin:miter;"/>
   </g>
  </g>
  <g id="axis3d_1">
   <g id="line2d_1">
    <path d="M 36.570724 106.153914 
L 131.398411 125.693886 
" style="fill:none;stroke:#000000;stroke-linecap:square;stroke-width:0.8;"/>
   </g>
   <g id="Line3DCollection_1">
    <path d="M 42.352032 107.345197 
L 97.721186 77.170289 
L 97.070293 19.719031 
" style="fill:none;stroke:#b0b0b0;stroke-width:0.8;"/>
    <path d="M 60.176387 111.018042 
L 114.701544 80.331161 
L 114.908793 22.54987 
" style="fill:none;stroke:#b0b0b0;stroke-width:0.8;"/>
    <path d="M 78.316002 114.755849 
L 131.96025 83.543847 
L 133.054712 25.429493 
" style="fill:none;stroke:#b0b0b0;stroke-width:0.8;"/>
    <path d="M 96.779317 118.560356 
L 149.504207 86.809632 
L 151.516063 28.359174 
" style="fill:none;stroke:#b0b0b0;stroke-width:0.8;"/>
    <path d="M 115.575075 122.433366 
L 167.340544 90.129844 
L 170.301146 31.340228 
" style="fill:none;stroke:#b0b0b0;stroke-width:0.8;"/>
   </g>
   <g id="xtick_1">
    <g id="line2d_2">
     <path d="M 42.829066 107.085224 
L 41.396185 107.866111 
" style="fill:none;stroke:#000000;stroke-linecap:square;stroke-width:0.8;"/>
    </g>
    <g id="text_1">
     <!-- 0 -->
     <defs>
      <path d="M 31.78125 66.40625 
Q 24.171875 66.40625 20.328125 58.90625 
Q 16.5 51.421875 16.5 36.375 
Q 16.5 21.390625 20.328125 13.890625 
Q 24.171875 6.390625 31.78125 6.390625 
Q 39.453125 6.390625 43.28125 13.890625 
Q 47.125 21.390625 47.125 36.375 
Q 47.125 51.421875 43.28125 58.90625 
Q 39.453125 66.40625 31.78125 66.40625 
z
M 31.78125 74.21875 
Q 44.046875 74.21875 50.515625 64.515625 
Q 56.984375 54.828125 56.984375 36.375 
Q 56.984375 17.96875 50.515625 8.265625 
Q 44.046875 -1.421875 31.78125 -1.421875 
Q 19.53125 -1.421875 13.0625 8.265625 
Q 6.59375 17.96875 6.59375 36.375 
Q 6.59375 54.828125 13.0625 64.515625 
Q 19.53125 74.21875 31.78125 74.21875 
z
" id="DejaVuSans-48"/>
     </defs>
     <g transform="translate(31.317754 127.519522)scale(0.1 -0.1)">
      <use xlink:href="#DejaVuSans-48"/>
     </g>
    </g>
   </g>
   <g id="xtick_2">
    <g id="line2d_3">
     <path d="M 60.646443 110.753493 
L 59.234506 111.548134 
" style="fill:none;stroke:#000000;stroke-linecap:square;stroke-width:0.8;"/>
    </g>
    <g id="text_2">
     <!-- 2 -->
     <defs>
      <path d="M 19.1875 8.296875 
L 53.609375 8.296875 
L 53.609375 0 
L 7.328125 0 
L 7.328125 8.296875 
Q 12.9375 14.109375 22.625 23.890625 
Q 32.328125 33.6875 34.8125 36.53125 
Q 39.546875 41.84375 41.421875 45.53125 
Q 43.3125 49.21875 43.3125 52.78125 
Q 43.3125 58.59375 39.234375 62.25 
Q 35.15625 65.921875 28.609375 65.921875 
Q 23.96875 65.921875 18.8125 64.3125 
Q 13.671875 62.703125 7.8125 59.421875 
L 7.8125 69.390625 
Q 13.765625 71.78125 18.9375 73 
Q 24.125 74.21875 28.421875 74.21875 
Q 39.75 74.21875 46.484375 68.546875 
Q 53.21875 62.890625 53.21875 53.421875 
Q 53.21875 48.921875 51.53125 44.890625 
Q 49.859375 40.875 45.40625 35.40625 
Q 44.1875 33.984375 37.640625 27.21875 
Q 31.109375 20.453125 19.1875 8.296875 
z
" id="DejaVuSans-50"/>
     </defs>
     <g transform="translate(49.138093 131.316419)scale(0.1 -0.1)">
      <use xlink:href="#DejaVuSans-50"/>
     </g>
    </g>
   </g>
   <g id="xtick_3">
    <g id="line2d_4">
     <path d="M 78.778759 114.486601 
L 77.388733 115.295365 
" style="fill:none;stroke:#000000;stroke-linecap:square;stroke-width:0.8;"/>
    </g>
    <g id="text_3">
     <!-- 4 -->
     <defs>
      <path d="M 37.796875 64.3125 
L 12.890625 25.390625 
L 37.796875 25.390625 
z
M 35.203125 72.90625 
L 47.609375 72.90625 
L 47.609375 25.390625 
L 58.015625 25.390625 
L 58.015625 17.1875 
L 47.609375 17.1875 
L 47.609375 0 
L 37.796875 0 
L 37.796875 17.1875 
L 4.890625 17.1875 
L 4.890625 26.703125 
z
" id="DejaVuSans-52"/>
     </defs>
     <g transform="translate(67.274783 135.18072)scale(0.1 -0.1)">
      <use xlink:href="#DejaVuSans-52"/>
     </g>
    </g>
   </g>
   <g id="xtick_4">
    <g id="line2d_5">
     <path d="M 97.234438 118.286285 
L 95.867334 119.109549 
" style="fill:none;stroke:#000000;stroke-linecap:square;stroke-width:0.8;"/>
    </g>
    <g id="text_4">
     <!-- 6 -->
     <defs>
      <path d="M 33.015625 40.375 
Q 26.375 40.375 22.484375 35.828125 
Q 18.609375 31.296875 18.609375 23.390625 
Q 18.609375 15.53125 22.484375 10.953125 
Q 26.375 6.390625 33.015625 6.390625 
Q 39.65625 6.390625 43.53125 10.953125 
Q 47.40625 15.53125 47.40625 23.390625 
Q 47.40625 31.296875 43.53125 35.828125 
Q 39.65625 40.375 33.015625 40.375 
z
M 52.59375 71.296875 
L 52.59375 62.3125 
Q 48.875 64.0625 45.09375 64.984375 
Q 41.3125 65.921875 37.59375 65.921875 
Q 27.828125 65.921875 22.671875 59.328125 
Q 17.53125 52.734375 16.796875 39.40625 
Q 19.671875 43.65625 24.015625 45.921875 
Q 28.375 48.1875 33.59375 48.1875 
Q 44.578125 48.1875 50.953125 41.515625 
Q 57.328125 34.859375 57.328125 23.390625 
Q 57.328125 12.15625 50.6875 5.359375 
Q 44.046875 -1.421875 33.015625 -1.421875 
Q 20.359375 -1.421875 13.671875 8.265625 
Q 6.984375 17.96875 6.984375 36.375 
Q 6.984375 53.65625 15.1875 63.9375 
Q 23.390625 74.21875 37.203125 74.21875 
Q 40.921875 74.21875 44.703125 73.484375 
Q 48.484375 72.75 52.59375 71.296875 
z
" id="DejaVuSans-54"/>
     </defs>
     <g transform="translate(85.736323 139.114235)scale(0.1 -0.1)">
      <use xlink:href="#DejaVuSans-54"/>
     </g>
    </g>
   </g>
   <g id="xtick_5">
    <g id="line2d_6">
     <path d="M 116.022207 122.154339 
L 114.679081 122.992499 
" style="fill:none;stroke:#000000;stroke-linecap:square;stroke-width:0.8;"/>
    </g>
    <g id="text_5">
     <!-- 8 -->
     <defs>
      <path d="M 31.78125 34.625 
Q 24.75 34.625 20.71875 30.859375 
Q 16.703125 27.09375 16.703125 20.515625 
Q 16.703125 13.921875 20.71875 10.15625 
Q 24.75 6.390625 31.78125 6.390625 
Q 38.8125 6.390625 42.859375 10.171875 
Q 46.921875 13.96875 46.921875 20.515625 
Q 46.921875 27.09375 42.890625 30.859375 
Q 38.875 34.625 31.78125 34.625 
z
M 21.921875 38.8125 
Q 15.578125 40.375 12.03125 44.71875 
Q 8.5 49.078125 8.5 55.328125 
Q 8.5 64.0625 14.71875 69.140625 
Q 20.953125 74.21875 31.78125 74.21875 
Q 42.671875 74.21875 48.875 69.140625 
Q 55.078125 64.0625 55.078125 55.328125 
Q 55.078125 49.078125 51.53125 44.71875 
Q 48 40.375 41.703125 38.8125 
Q 48.828125 37.15625 52.796875 32.3125 
Q 56.78125 27.484375 56.78125 20.515625 
Q 56.78125 9.90625 50.3125 4.234375 
Q 43.84375 -1.421875 31.78125 -1.421875 
Q 19.734375 -1.421875 13.25 4.234375 
Q 6.78125 9.90625 6.78125 20.515625 
Q 6.78125 27.484375 10.78125 32.3125 
Q 14.796875 37.15625 21.921875 38.8125 
z
M 18.3125 54.390625 
Q 18.3125 48.734375 21.84375 45.5625 
Q 25.390625 42.390625 31.78125 42.390625 
Q 38.140625 42.390625 41.71875 45.5625 
Q 45.3125 48.734375 45.3125 54.390625 
Q 45.3125 60.0625 41.71875 63.234375 
Q 38.140625 66.40625 31.78125 66.40625 
Q 25.390625 66.40625 21.84375 63.234375 
Q 18.3125 60.0625 18.3125 54.390625 
z
" id="DejaVuSans-56"/>
     </defs>
     <g transform="translate(104.531519 143.11884)scale(0.1 -0.1)">
      <use xlink:href="#DejaVuSans-56"/>
     </g>
    </g>
   </g>
  </g>
  <g id="axis3d_2">
   <g id="line2d_7">
    <path d="M 182.337831 92.92157 
L 131.398411 125.693886 
" style="fill:none;stroke:#000000;stroke-linecap:square;stroke-width:0.8;"/>
   </g>
   <g id="Line3DCollection_2">
    <path d="M 36.564365 43.917433 
L 40.366648 104.106501 
L 134.88463 123.450997 
" style="fill:none;stroke:#b0b0b0;stroke-width:0.8;"/>
    <path d="M 48.570044 38.406578 
L 51.70909 97.988712 
L 145.292142 116.755234 
" style="fill:none;stroke:#b0b0b0;stroke-width:0.8;"/>
    <path d="M 60.209248 33.063942 
L 62.722561 92.04836 
L 155.384181 110.262433 
" style="fill:none;stroke:#b0b0b0;stroke-width:0.8;"/>
    <path d="M 71.498505 27.88194 
L 73.421169 86.277837 
L 165.174876 103.963505 
" style="fill:none;stroke:#b0b0b0;stroke-width:0.8;"/>
    <path d="M 82.453363 22.853433 
L 83.818227 80.669962 
L 174.677526 97.849893 
" style="fill:none;stroke:#b0b0b0;stroke-width:0.8;"/>
   </g>
   <g id="xtick_6">
    <g id="line2d_8">
     <path d="M 134.093598 123.2891 
L 136.468463 123.775151 
" style="fill:none;stroke:#000000;stroke-linecap:square;stroke-width:0.8;"/>
    </g>
    <g id="text_6">
     <!-- 0 -->
     <g transform="translate(145.296339 142.045096)scale(0.1 -0.1)">
      <use xlink:href="#DejaVuSans-48"/>
     </g>
    </g>
   </g>
   <g id="xtick_7">
    <g id="line2d_9">
     <path d="M 144.509466 116.598281 
L 146.859218 117.069485 
" style="fill:none;stroke:#000000;stroke-linecap:square;stroke-width:0.8;"/>
    </g>
    <g id="text_7">
     <!-- 2 -->
     <g transform="translate(155.4846 135.186893)scale(0.1 -0.1)">
      <use xlink:href="#DejaVuSans-50"/>
     </g>
    </g>
   </g>
   <g id="xtick_8">
    <g id="line2d_10">
     <path d="M 154.609721 110.110201 
L 156.934779 110.567227 
" style="fill:none;stroke:#000000;stroke-linecap:square;stroke-width:0.8;"/>
    </g>
    <g id="text_8">
     <!-- 4 -->
     <g transform="translate(165.364333 128.536375)scale(0.1 -0.1)">
      <use xlink:href="#DejaVuSans-52"/>
     </g>
    </g>
   </g>
   <g id="xtick_9">
    <g id="line2d_11">
     <path d="M 164.408495 103.815784 
L 166.709275 104.259263 
" style="fill:none;stroke:#000000;stroke-linecap:square;stroke-width:0.8;"/>
    </g>
    <g id="text_9">
     <!-- 6 -->
     <g transform="translate(174.949345 122.084248)scale(0.1 -0.1)">
      <use xlink:href="#DejaVuSans-54"/>
     </g>
    </g>
   </g>
   <g id="xtick_10">
    <g id="line2d_12">
     <path d="M 173.919086 97.706485 
L 176.196001 98.137011 
" style="fill:none;stroke:#000000;stroke-linecap:square;stroke-width:0.8;"/>
    </g>
    <g id="text_10">
     <!-- 8 -->
     <g transform="translate(184.252629 115.821765)scale(0.1 -0.1)">
      <use xlink:href="#DejaVuSans-56"/>
     </g>
    </g>
   </g>
  </g>
  <g id="axis3d_3">
   <g id="line2d_13">
    <path d="M 182.337831 92.92157 
L 186.108713 33.848772 
" style="fill:none;stroke:#000000;stroke-linecap:square;stroke-width:0.8;"/>
   </g>
   <g id="Line3DCollection_3">
    <path d="M 182.965344 83.091266 
L 92.054592 66.584315 
L 35.9013 96.118789 
" style="fill:none;stroke:#b0b0b0;stroke-width:0.8;"/>
    <path d="M 183.643749 72.463695 
L 91.887765 56.256886 
L 35.177152 85.263319 
" style="fill:none;stroke:#b0b0b0;stroke-width:0.8;"/>
    <path d="M 184.335 61.634901 
L 91.717913 45.742242 
L 34.438831 74.195395 
" style="fill:none;stroke:#b0b0b0;stroke-width:0.8;"/>
    <path d="M 185.039464 50.599114 
L 91.544954 35.035247 
L 33.685918 62.908719 
" style="fill:none;stroke:#b0b0b0;stroke-width:0.8;"/>
    <path d="M 185.757523 39.350343 
L 91.368802 24.130572 
L 32.917976 51.39674 
" style="fill:none;stroke:#b0b0b0;stroke-width:0.8;"/>
   </g>
   <g id="xtick_11">
    <g id="line2d_14">
     <path d="M 182.206582 82.953495 
L 184.484459 83.367096 
" style="fill:none;stroke:#000000;stroke-linecap:square;stroke-width:0.8;"/>
    </g>
    <g id="text_11">
     <!-- 0.1 -->
     <defs>
      <path d="M 10.6875 12.40625 
L 21 12.40625 
L 21 0 
L 10.6875 0 
z
" id="DejaVuSans-46"/>
      <path d="M 12.40625 8.296875 
L 28.515625 8.296875 
L 28.515625 63.921875 
L 10.984375 60.40625 
L 10.984375 69.390625 
L 28.421875 72.90625 
L 38.28125 72.90625 
L 38.28125 8.296875 
L 54.390625 8.296875 
L 54.390625 0 
L 12.40625 0 
z
" id="DejaVuSans-49"/>
     </defs>
     <g transform="translate(194.770682 88.939558)scale(0.1 -0.1)">
      <use xlink:href="#DejaVuSans-48"/>
      <use x="63.623047" xlink:href="#DejaVuSans-46"/>
      <use x="95.410156" xlink:href="#DejaVuSans-49"/>
     </g>
    </g>
   </g>
   <g id="xtick_12">
    <g id="line2d_15">
     <path d="M 182.877635 72.328376 
L 185.177599 72.734618 
" style="fill:none;stroke:#000000;stroke-linecap:square;stroke-width:0.8;"/>
    </g>
    <g id="text_12">
     <!-- 0.2 -->
     <g transform="translate(195.630507 78.343207)scale(0.1 -0.1)">
      <use xlink:href="#DejaVuSans-48"/>
      <use x="63.623047" xlink:href="#DejaVuSans-46"/>
      <use x="95.410156" xlink:href="#DejaVuSans-50"/>
     </g>
    </g>
   </g>
   <g id="xtick_13">
    <g id="line2d_16">
     <path d="M 183.561389 61.502153 
L 185.883873 61.90068 
" style="fill:none;stroke:#000000;stroke-linecap:square;stroke-width:0.8;"/>
    </g>
    <g id="text_13">
     <!-- 0.3 -->
     <defs>
      <path d="M 40.578125 39.3125 
Q 47.65625 37.796875 51.625 33 
Q 55.609375 28.21875 55.609375 21.1875 
Q 55.609375 10.40625 48.1875 4.484375 
Q 40.765625 -1.421875 27.09375 -1.421875 
Q 22.515625 -1.421875 17.65625 -0.515625 
Q 12.796875 0.390625 7.625 2.203125 
L 7.625 11.71875 
Q 11.71875 9.328125 16.59375 8.109375 
Q 21.484375 6.890625 26.8125 6.890625 
Q 36.078125 6.890625 40.9375 10.546875 
Q 45.796875 14.203125 45.796875 21.1875 
Q 45.796875 27.640625 41.28125 31.265625 
Q 36.765625 34.90625 28.71875 34.90625 
L 20.21875 34.90625 
L 20.21875 43.015625 
L 29.109375 43.015625 
Q 36.375 43.015625 40.234375 45.921875 
Q 44.09375 48.828125 44.09375 54.296875 
Q 44.09375 59.90625 40.109375 62.90625 
Q 36.140625 65.921875 28.71875 65.921875 
Q 24.65625 65.921875 20.015625 65.03125 
Q 15.375 64.15625 9.8125 62.3125 
L 9.8125 71.09375 
Q 15.4375 72.65625 20.34375 73.4375 
Q 25.25 74.21875 29.59375 74.21875 
Q 40.828125 74.21875 47.359375 69.109375 
Q 53.90625 64.015625 53.90625 55.328125 
Q 53.90625 49.265625 50.4375 45.09375 
Q 46.96875 40.921875 40.578125 39.3125 
z
" id="DejaVuSans-51"/>
     </defs>
     <g transform="translate(196.506539 67.54713)scale(0.1 -0.1)">
      <use xlink:href="#DejaVuSans-48"/>
      <use x="63.623047" xlink:href="#DejaVuSans-46"/>
      <use x="95.410156" xlink:href="#DejaVuSans-51"/>
     </g>
    </g>
   </g>
   <g id="xtick_14">
    <g id="line2d_17">
     <path d="M 184.258209 50.46906 
L 186.603657 50.859503 
" style="fill:none;stroke:#000000;stroke-linecap:square;stroke-width:0.8;"/>
    </g>
    <g id="text_14">
     <!-- 0.4 -->
     <g transform="translate(197.399239 56.545628)scale(0.1 -0.1)">
      <use xlink:href="#DejaVuSans-48"/>
      <use x="63.623047" xlink:href="#DejaVuSans-46"/>
      <use x="95.410156" xlink:href="#DejaVuSans-52"/>
     </g>
    </g>
   </g>
   <g id="xtick_15">
    <g id="line2d_18">
     <path d="M 184.968472 39.223112 
L 187.337343 39.605083 
" style="fill:none;stroke:#000000;stroke-linecap:square;stroke-width:0.8;"/>
    </g>
    <g id="text_15">
     <!-- 0.5 -->
     <defs>
      <path d="M 10.796875 72.90625 
L 49.515625 72.90625 
L 49.515625 64.59375 
L 19.828125 64.59375 
L 19.828125 46.734375 
Q 21.96875 47.46875 24.109375 47.828125 
Q 26.265625 48.1875 28.421875 48.1875 
Q 40.625 48.1875 47.75 41.5 
Q 54.890625 34.8125 54.890625 23.390625 
Q 54.890625 11.625 47.5625 5.09375 
Q 40.234375 -1.421875 26.90625 -1.421875 
Q 22.3125 -1.421875 17.546875 -0.640625 
Q 12.796875 0.140625 7.71875 1.703125 
L 7.71875 11.625 
Q 12.109375 9.234375 16.796875 8.0625 
Q 21.484375 6.890625 26.703125 6.890625 
Q 35.15625 6.890625 40.078125 11.328125 
Q 45.015625 15.765625 45.015625 23.390625 
Q 45.015625 31 40.078125 35.4375 
Q 35.15625 39.890625 26.703125 39.890625 
Q 22.75 39.890625 18.8125 39.015625 
Q 14.890625 38.140625 10.796875 36.28125 
z
" id="DejaVuSans-53"/>
     </defs>
     <g transform="translate(198.309089 45.33278)scale(0.1 -0.1)">
      <use xlink:href="#DejaVuSans-48"/>
      <use x="63.623047" xlink:href="#DejaVuSans-46"/>
      <use x="95.410156" xlink:href="#DejaVuSans-53"/>
     </g>
    </g>
   </g>
  </g>
  <g id="axes_1">
   <g id="Poly3DCollection_1">
    <path clip-path="url(#p4b0fc8a50a)" d="M 106.380329 56.51793 
L 115.226044 66.702975 
L 120.101791 82.315637 
L 111.489688 53.93188 
z
" style="fill:#c2c2c2;stroke:#000000;"/>
    <path clip-path="url(#p4b0fc8a50a)" d="M 78.811884 79.681905 
L 87.284686 72.21962 
L 92.621966 75.054786 
L 83.871686 68.877987 
z
" style="fill:#f0f0f0;stroke:#000000;"/>
    <path clip-path="url(#p4b0fc8a50a)" d="M 83.871686 68.877987 
L 92.621966 75.054786 
L 97.550422 52.814813 
L 88.676274 44.558623 
z
" style="fill:#a6a6a6;stroke:#000000;"/>
    <path clip-path="url(#p4b0fc8a50a)" d="M 115.226044 66.702975 
L 124.166464 63.890066 
L 129.280625 54.307292 
L 120.101791 82.315637 
z
" style="fill:#c5c5c5;stroke:#000000;"/>
    <path clip-path="url(#p4b0fc8a50a)" d="M 87.284686 72.21962 
L 96.186661 81.801487 
L 101.295578 71.47548 
L 92.621966 75.054786 
z
" style="fill:#ededed;stroke:#000000;"/>
    <path clip-path="url(#p4b0fc8a50a)" d="M 92.621966 75.054786 
L 101.295578 71.47548 
L 106.380329 56.51793 
L 97.550422 52.814813 
z
" style="fill:#b4b4b4;stroke:#000000;"/>
    <path clip-path="url(#p4b0fc8a50a)" d="M 97.550422 52.814813 
L 106.380329 56.51793 
L 111.489688 53.93188 
L 102.675466 44.826528 
z
" style="fill:#757575;stroke:#000000;"/>
    <path clip-path="url(#p4b0fc8a50a)" d="M 88.676274 44.558623 
L 97.550422 52.814813 
L 102.675466 44.826528 
L 93.806366 34.702424 
z
" style="fill:#4b4b4b;stroke:#000000;"/>
    <path clip-path="url(#p4b0fc8a50a)" d="M 101.295578 71.47548 
L 110.118841 59.421352 
L 115.226044 66.702975 
L 106.380329 56.51793 
z
" style="fill:#a6a6a6;stroke:#000000;"/>
    <path clip-path="url(#p4b0fc8a50a)" d="M 73.128471 71.511123 
L 81.797159 68.608489 
L 87.284686 72.21962 
L 78.811884 79.681905 
z
" style="fill:#d6d6d6;stroke:#000000;"/>
    <path clip-path="url(#p4b0fc8a50a)" d="M 81.797159 68.608489 
L 90.950299 85.228255 
L 96.186661 81.801487 
L 87.284686 72.21962 
z
" style="fill:#e6e6e6;stroke:#000000;"/>
    <path clip-path="url(#p4b0fc8a50a)" d="M 110.118841 59.421352 
L 119.003777 78.142539 
L 124.166464 63.890066 
L 115.226044 66.702975 
z
" style="fill:#b3b3b3;stroke:#000000;"/>
    <path clip-path="url(#p4b0fc8a50a)" d="M 90.950299 85.228255 
L 99.842369 91.061805 
L 104.941221 71.513152 
L 96.186661 81.801487 
z
" style="fill:#ffffff;stroke:#000000;"/>
    <path clip-path="url(#p4b0fc8a50a)" d="M 96.186661 81.801487 
L 104.941221 71.513152 
L 110.118841 59.421352 
L 101.295578 71.47548 
z
" style="fill:#c6c6c6;stroke:#000000;"/>
    <path clip-path="url(#p4b0fc8a50a)" d="M 68.088719 85.411669 
L 76.922573 90.224441 
L 81.797159 68.608489 
L 73.128471 71.511123 
z
" style="fill:#ebebeb;stroke:#000000;"/>
    <path clip-path="url(#p4b0fc8a50a)" d="M 104.941221 71.513152 
L 113.866718 92.947551 
L 119.003777 78.142539 
L 110.118841 59.421352 
z
" style="fill:#d9d9d9;stroke:#000000;"/>
    <path clip-path="url(#p4b0fc8a50a)" d="M 142.113972 71.711828 
L 151.375901 69.244941 
L 155.912012 74.733712 
L 147.089461 66.376823 
z
" style="fill:#bcbcbc;stroke:#000000;"/>
    <path clip-path="url(#p4b0fc8a50a)" d="M 76.922573 90.224441 
L 85.577226 85.795318 
L 90.950299 85.228255 
L 81.797159 68.608489 
z
" style="fill:#f8f8f8;stroke:#000000;"/>
    <path clip-path="url(#p4b0fc8a50a)" d="M 99.842369 91.061805 
L 108.714774 79.22756 
L 113.866718 92.947551 
L 104.941221 71.513152 
z
" style="fill:#fdfdfd;stroke:#000000;"/>
    <path clip-path="url(#p4b0fc8a50a)" d="M 113.866718 92.947551 
L 123.000752 73.236083 
L 128.115842 69.349207 
L 119.003777 78.142539 
z
" style="fill:#e2e2e2;stroke:#000000;"/>
    <path clip-path="url(#p4b0fc8a50a)" d="M 119.003777 78.142539 
L 128.115842 69.349207 
L 133.372346 54.911532 
L 124.166464 63.890066 
z
" style="fill:#a5a5a5;stroke:#000000;"/>
    <path clip-path="url(#p4b0fc8a50a)" d="M 124.166464 63.890066 
L 133.372346 54.911532 
L 138.613904 42.208861 
L 129.280625 54.307292 
z
" style="fill:#636363;stroke:#000000;"/>
    <path clip-path="url(#p4b0fc8a50a)" d="M 133.372346 54.911532 
L 142.113972 71.711828 
L 147.089461 66.376823 
L 138.613904 42.208861 
z
" style="fill:#797979;stroke:#000000;"/>
    <path clip-path="url(#p4b0fc8a50a)" d="M 85.577226 85.795318 
L 94.288286 73.324124 
L 99.842369 91.061805 
L 90.950299 85.228255 
z
" style="fill:#f6f6f6;stroke:#000000;"/>
    <path clip-path="url(#p4b0fc8a50a)" d="M 62.261328 80.184475 
L 70.590471 67.098887 
L 76.922573 90.224441 
L 68.088719 85.411669 
z
" style="fill:#e4e4e4;stroke:#000000;"/>
    <path clip-path="url(#p4b0fc8a50a)" d="M 128.115842 69.349207 
L 137.330618 66.610297 
L 142.113972 71.711828 
L 133.372346 54.911532 
z
" style="fill:#949494;stroke:#000000;"/>
    <path clip-path="url(#p4b0fc8a50a)" d="M 108.714774 79.22756 
L 117.844714 72.965882 
L 123.000752 73.236083 
L 113.866718 92.947551 
z
" style="fill:#d6d6d6;stroke:#000000;"/>
    <path clip-path="url(#p4b0fc8a50a)" d="M 137.330618 66.610297 
L 146.6956 63.858955 
L 151.375901 69.244941 
L 142.113972 71.711828 
z
" style="fill:#989898;stroke:#000000;"/>
    <path clip-path="url(#p4b0fc8a50a)" d="M 151.375901 69.244941 
L 161.495792 50.447557 
L 166.097087 53.901008 
L 155.912012 74.733712 
z
" style="fill:#7a7a7a;stroke:#000000;"/>
    <path clip-path="url(#p4b0fc8a50a)" d="M 70.590471 67.098887 
L 79.590654 67.479061 
L 85.577226 85.795318 
L 76.922573 90.224441 
z
" style="fill:#c5c5c5;stroke:#000000;"/>
    <path clip-path="url(#p4b0fc8a50a)" d="M 123.000752 73.236083 
L 132.270263 68.616068 
L 137.330618 66.610297 
L 128.115842 69.349207 
z
" style="fill:#9a9a9a;stroke:#000000;"/>
    <path clip-path="url(#p4b0fc8a50a)" d="M 94.288286 73.324124 
L 103.366345 71.054855 
L 108.714774 79.22756 
L 99.842369 91.061805 
z
" style="fill:#c8c8c8;stroke:#000000;"/>
    <path clip-path="url(#p4b0fc8a50a)" d="M 135.883112 98.003391 
L 145.218013 95.573012 
L 150.275418 90.150284 
L 141.445936 74.222897 
z
" style="fill:#f6f6f6;stroke:#000000;"/>
    <path clip-path="url(#p4b0fc8a50a)" d="M 117.844714 72.965882 
L 126.953124 82.6227 
L 132.270263 68.616068 
L 123.000752 73.236083 
z
" style="fill:#a8a8a8;stroke:#000000;"/>
    <path clip-path="url(#p4b0fc8a50a)" d="M 126.953124 82.6227 
L 135.883112 98.003391 
L 141.445936 74.222897 
L 132.270263 68.616068 
z
" style="fill:#c8c8c8;stroke:#000000;"/>
    <path clip-path="url(#p4b0fc8a50a)" d="M 121.600997 102.4773 
L 131.111801 84.119106 
L 135.883112 98.003391 
L 126.953124 82.6227 
z
" style="fill:#fdfdfd;stroke:#000000;"/>
    <path clip-path="url(#p4b0fc8a50a)" d="M 132.270263 68.616068 
L 141.445936 74.222897 
L 146.6956 63.858955 
L 137.330618 66.610297 
z
" style="fill:#888888;stroke:#000000;"/>
    <path clip-path="url(#p4b0fc8a50a)" d="M 112.570263 79.069641 
L 121.600997 102.4773 
L 126.953124 82.6227 
L 117.844714 72.965882 
z
" style="fill:#d6d6d6;stroke:#000000;"/>
    <path clip-path="url(#p4b0fc8a50a)" d="M 150.275418 90.150284 
L 159.298259 98.091449 
L 165.383997 68.878419 
L 156.022463 65.941422 
z
" style="fill:#c5c5c5;stroke:#000000;"/>
    <path clip-path="url(#p4b0fc8a50a)" d="M 146.6956 63.858955 
L 156.022463 65.941422 
L 161.495792 50.447557 
L 151.375901 69.244941 
z
" style="fill:#696969;stroke:#000000;"/>
    <path clip-path="url(#p4b0fc8a50a)" d="M 141.445936 74.222897 
L 150.275418 90.150284 
L 156.022463 65.941422 
L 146.6956 63.858955 
z
" style="fill:#a0a0a0;stroke:#000000;"/>
    <path clip-path="url(#p4b0fc8a50a)" d="M 145.218013 95.573012 
L 155.138793 82.062881 
L 159.298259 98.091449 
L 150.275418 90.150284 
z
" style="fill:#f8f8f8;stroke:#000000;"/>
    <path clip-path="url(#p4b0fc8a50a)" d="M 103.366345 71.054855 
L 112.570263 79.069641 
L 117.844714 72.965882 
L 108.714774 79.22756 
z
" style="fill:#a8a8a8;stroke:#000000;"/>
    <path clip-path="url(#p4b0fc8a50a)" d="M 79.590654 67.479061 
L 88.706527 68.706124 
L 94.288286 73.324124 
L 85.577226 85.795318 
z
" style="fill:#a0a0a0;stroke:#000000;"/>
    <path clip-path="url(#p4b0fc8a50a)" d="M 131.111801 84.119106 
L 140.183622 98.10859 
L 145.218013 95.573012 
L 135.883112 98.003391 
z
" style="fill:#ffffff;stroke:#000000;"/>
    <path clip-path="url(#p4b0fc8a50a)" d="M 107.232385 80.997524 
L 116.477115 93.422565 
L 121.600997 102.4773 
L 112.570263 79.069641 
z
" style="fill:#e2e2e2;stroke:#000000;"/>
    <path clip-path="url(#p4b0fc8a50a)" d="M 88.706527 68.706124 
L 97.964459 74.832309 
L 103.366345 71.054855 
L 94.288286 73.324124 
z
" style="fill:#888888;stroke:#000000;"/>
    <path clip-path="url(#p4b0fc8a50a)" d="M 55.596896 60.867301 
L 63.880701 43.122892 
L 70.590471 67.098887 
L 62.261328 80.184475 
z
" style="fill:#5c5c5c;stroke:#000000;"/>
    <path clip-path="url(#p4b0fc8a50a)" d="M 140.183622 98.10859 
L 149.843664 91.718569 
L 155.138793 82.062881 
L 145.218013 95.573012 
z
" style="fill:#e6e6e6;stroke:#000000;"/>
    <path clip-path="url(#p4b0fc8a50a)" d="M 97.964459 74.832309 
L 107.232385 80.997524 
L 112.570263 79.069641 
L 103.366345 71.054855 
z
" style="fill:#9a9a9a;stroke:#000000;"/>
    <path clip-path="url(#p4b0fc8a50a)" d="M 161.495792 50.447557 
L 171.632657 39.34477 
L 176.5725 35.827416 
L 166.097087 53.901008 
z
" style="fill:#010101;stroke:#000000;"/>
    <path clip-path="url(#p4b0fc8a50a)" d="M 116.477115 93.422565 
L 126.009309 77.585589 
L 131.111801 84.119106 
L 121.600997 102.4773 
z
" style="fill:#d9d9d9;stroke:#000000;"/>
    <path clip-path="url(#p4b0fc8a50a)" d="M 156.022463 65.941422 
L 165.383997 68.878419 
L 171.632657 39.34477 
L 161.495792 50.447557 
z
" style="fill:#373737;stroke:#000000;"/>
    <path clip-path="url(#p4b0fc8a50a)" d="M 83.348169 79.981842 
L 92.60313 85.909524 
L 97.964459 74.832309 
L 88.706527 68.706124 
z
" style="fill:#989898;stroke:#000000;"/>
    <path clip-path="url(#p4b0fc8a50a)" d="M 73.578749 57.557288 
L 83.348169 79.981842 
L 88.706527 68.706124 
L 79.590654 67.479061 
z
" style="fill:#696969;stroke:#000000;"/>
    <path clip-path="url(#p4b0fc8a50a)" d="M 77.993787 91.529534 
L 87.01371 86.354396 
L 92.60313 85.909524 
L 83.348169 79.981842 
z
" style="fill:#bcbcbc;stroke:#000000;"/>
    <path clip-path="url(#p4b0fc8a50a)" d="M 135.224974 93.484581 
L 144.550852 100.696432 
L 149.843664 91.718569 
L 140.183622 98.10859 
z
" style="fill:#ededed;stroke:#000000;"/>
    <path clip-path="url(#p4b0fc8a50a)" d="M 126.009309 77.585589 
L 135.224974 93.484581 
L 140.183622 98.10859 
L 131.111801 84.119106 
z
" style="fill:#c6c6c6;stroke:#000000;"/>
    <path clip-path="url(#p4b0fc8a50a)" d="M 63.880701 43.122892 
L 73.578749 57.557288 
L 79.590654 67.479061 
L 70.590471 67.098887 
z
" style="fill:#373737;stroke:#000000;"/>
    <path clip-path="url(#p4b0fc8a50a)" d="M 92.60313 85.909524 
L 101.717089 72.030758 
L 107.232385 80.997524 
L 97.964459 74.832309 
z
" style="fill:#949494;stroke:#000000;"/>
    <path clip-path="url(#p4b0fc8a50a)" d="M 101.717089 72.030758 
L 111.159102 84.697271 
L 116.477115 93.422565 
L 107.232385 80.997524 
z
" style="fill:#a5a5a5;stroke:#000000;"/>
    <path clip-path="url(#p4b0fc8a50a)" d="M 68.0575 66.768619 
L 77.993787 91.529534 
L 83.348169 79.981842 
L 73.578749 57.557288 
z
" style="fill:#7a7a7a;stroke:#000000;"/>
    <path clip-path="url(#p4b0fc8a50a)" d="M 62.780321 82.405314 
L 72.490987 98.764814 
L 77.993787 91.529534 
L 68.0575 66.768619 
z
" style="fill:#adadad;stroke:#000000;"/>
    <path clip-path="url(#p4b0fc8a50a)" d="M 111.159102 84.697271 
L 120.559825 91.059437 
L 126.009309 77.585589 
L 116.477115 93.422565 
z
" style="fill:#b3b3b3;stroke:#000000;"/>
    <path clip-path="url(#p4b0fc8a50a)" d="M 72.490987 98.764814 
L 81.157144 80.8846 
L 87.01371 86.354396 
L 77.993787 91.529534 
z
" style="fill:#bfbfbf;stroke:#000000;"/>
    <path clip-path="url(#p4b0fc8a50a)" d="M 105.664464 80.62011 
L 115.08961 113.482342 
L 120.559825 91.059437 
L 111.159102 84.697271 
z
" style="fill:#c5c5c5;stroke:#000000;"/>
    <path clip-path="url(#p4b0fc8a50a)" d="M 49.386613 56.148399 
L 57.972924 45.06224 
L 63.880701 43.122892 
L 55.596896 60.867301 
z
" style="stroke:#000000;"/>
    <path clip-path="url(#p4b0fc8a50a)" d="M 120.559825 91.059437 
L 130.203074 83.851189 
L 135.224974 93.484581 
L 126.009309 77.585589 
z
" style="fill:#a6a6a6;stroke:#000000;"/>
    <path clip-path="url(#p4b0fc8a50a)" d="M 87.01371 86.354396 
L 96.019307 64.619136 
L 101.717089 72.030758 
L 92.60313 85.909524 
z
" style="fill:#797979;stroke:#000000;"/>
    <path clip-path="url(#p4b0fc8a50a)" d="M 130.203074 83.851189 
L 139.912828 83.374023 
L 144.550852 100.696432 
L 135.224974 93.484581 
z
" style="fill:#b4b4b4;stroke:#000000;"/>
    <path clip-path="url(#p4b0fc8a50a)" d="M 57.972924 45.06224 
L 68.0575 66.768619 
L 73.578749 57.557288 
L 63.880701 43.122892 
z
" style="fill:#010101;stroke:#000000;"/>
    <path clip-path="url(#p4b0fc8a50a)" d="M 52.805944 63.839593 
L 62.780321 82.405314 
L 68.0575 66.768619 
L 57.972924 45.06224 
z
" style="fill:#363636;stroke:#000000;"/>
    <path clip-path="url(#p4b0fc8a50a)" d="M 115.08961 113.482342 
L 124.817772 87.066136 
L 130.203074 83.851189 
L 120.559825 91.059437 
z
" style="fill:#c2c2c2;stroke:#000000;"/>
    <path clip-path="url(#p4b0fc8a50a)" d="M 43.493655 59.866934 
L 52.805944 63.839593 
L 57.972924 45.06224 
L 49.386613 56.148399 
z
" style="fill:#0c0c0c;stroke:#000000;"/>
    <path clip-path="url(#p4b0fc8a50a)" d="M 100.08636 84.470347 
L 109.697889 106.164888 
L 115.08961 113.482342 
L 105.664464 80.62011 
z
" style="fill:#c9c9c9;stroke:#000000;"/>
    <path clip-path="url(#p4b0fc8a50a)" d="M 96.019307 64.619136 
L 105.664464 80.62011 
L 111.159102 84.697271 
L 101.717089 72.030758 
z
" style="fill:#636363;stroke:#000000;"/>
    <path clip-path="url(#p4b0fc8a50a)" d="M 109.697889 106.164888 
L 119.324857 93.254211 
L 124.817772 87.066136 
L 115.08961 113.482342 
z
" style="fill:#d5d5d5;stroke:#000000;"/>
    <path clip-path="url(#p4b0fc8a50a)" d="M 81.157144 80.8846 
L 90.250366 64.102477 
L 96.019307 64.619136 
L 87.01371 86.354396 
z
" style="fill:#525252;stroke:#000000;"/>
    <path clip-path="url(#p4b0fc8a50a)" d="M 124.817772 87.066136 
L 134.69123 80.809062 
L 139.912828 83.374023 
L 130.203074 83.851189 
z
" style="fill:#757575;stroke:#000000;"/>
    <path clip-path="url(#p4b0fc8a50a)" d="M 90.250366 64.102477 
L 100.08636 84.470347 
L 105.664464 80.62011 
L 96.019307 64.619136 
z
" style="fill:#434343;stroke:#000000;"/>
    <path clip-path="url(#p4b0fc8a50a)" d="M 119.324857 93.254211 
L 129.33607 77.899485 
L 134.69123 80.809062 
L 124.817772 87.066136 
z
" style="fill:#686868;stroke:#000000;"/>
   </g>
  </g>
 </g>
 <defs>
  <clipPath id="p4b0fc8a50a">
   <rect height="122.4" width="194.4" x="10.8" y="10.8"/>
  </clipPath>
 </defs>
</svg>
