<?xml version="1.0" encoding="utf-8" standalone="no"?>
<!DOCTYPE svg PUBLIC "-//W3C//DTD SVG 1.1//EN"
  "http://www.w3.org/Graphics/SVG/1.1/DTD/svg11.dtd">
<!-- Created with matplotlib (https://matplotlib.org/) -->
<svg height="144pt" version="1.1" viewBox="0 0 216 144" width="216pt" xmlns="http://www.w3.org/2000/svg" xmlns:xlink="http://www.w3.org/1999/xlink">
 <defs>
  <style type="text/css">
*{stroke-linecap:butt;stroke-linejoin:round;}
  </style>
 </defs>
 <g id="figure_1">
  <g id="patch_1">
   <path d="M 0 144 
L 216 144 
L 216 0 
L 0 0 
z
" style="fill:#ffffff;"/>
  </g>
  <g id="patch_2">
   <path d="M 10.8 133.2 
L 205.2 133.2 
L 205.2 10.8 
L 10.8 10.8 
z
" style="fill:#ffffff;"/>
  </g>
  <g id="pane3d_1">
   <g id="patch_3">
    <path d="M 36.570724 106.153914 
L 92.209021 76.144207 
L 91.282702 18.800583 
L 32.542206 45.763687 
" style="fill:#f2f2f2;opacity:0.5;stroke:#f2f2f2;stroke-linejoin:miter;"/>
   </g>
  </g>
  <g id="pane3d_2">
   <g id="patch_4">
    <path d="M 92.209021 76.144207 
L 182.337831 92.92157 
L 186.108713 33.848772 
L 91.282702 18.800583 
" style="fill:#e6e6e6;opacity:0.5;stroke:#e6e6e6;stroke-linejoin:miter;"/>
   </g>
  </g>
  <g id="pane3d_3">
   <g id="patch_5">
    <path d="M 36.570724 106.153914 
L 131.398411 125.693886 
L 182.337831 92.92157 
L 92.209021 76.144207 
" style="fill:#ececec;opacity:0.5;stroke:#ececec;stroke-linejoin:miter;"/>
   </g>
  </g>
  <g id="axis3d_1">
   <g id="line2d_1">
    <path d="M 36.570724 106.153914 
L 131.398411 125.693886 
" style="fill:none;stroke:#000000;stroke-linecap:square;stroke-width:0.8;"/>
   </g>
   <g id="Line3DCollection_1">
    <path d="M 42.352032 107.345197 
L 97.721186 77.170289 
L 97.070293 19.719031 
" style="fill:none;stroke:#b0b0b0;stroke-width:0.8;"/>
    <path d="M 60.176387 111.018042 
L 114.701544 80.331161 
L 114.908793 22.54987 
" style="fill:none;stroke:#b0b0b0;stroke-width:0.8;"/>
    <path d="M 78.316002 114.755849 
L 131.96025 83.543847 
L 133.054712 25.429493 
" style="fill:none;stroke:#b0b0b0;stroke-width:0.8;"/>
    <path d="M 96.779317 118.560356 
L 149.504207 86.809632 
L 151.516063 28.359174 
" style="fill:none;stroke:#b0b0b0;stroke-width:0.8;"/>
    <path d="M 115.575075 122.433366 
L 167.340544 90.129844 
L 170.301146 31.340228 
" style="fill:none;stroke:#b0b0b0;stroke-width:0.8;"/>
   </g>
   <g id="xtick_1">
    <g id="line2d_2">
     <path d="M 42.829066 107.085224 
L 41.396185 107.866111 
" style="fill:none;stroke:#000000;stroke-linecap:square;stroke-width:0.8;"/>
    </g>
    <g id="text_1">
     <!-- 0 -->
     <defs>
      <path d="M 31.78125 66.40625 
Q 24.171875 66.40625 20.328125 58.90625 
Q 16.5 51.421875 16.5 36.375 
Q 16.5 21.390625 20.328125 13.890625 
Q 24.171875 6.390625 31.78125 6.390625 
Q 39.453125 6.390625 43.28125 13.890625 
Q 47.125 21.390625 47.125 36.375 
Q 47.125 51.421875 43.28125 58.90625 
Q 39.453125 66.40625 31.78125 66.40625 
z
M 31.78125 74.21875 
Q 44.046875 74.21875 50.515625 64.515625 
Q 56.984375 54.828125 56.984375 36.375 
Q 56.984375 17.96875 50.515625 8.265625 
Q 44.046875 -1.421875 31.78125 -1.421875 
Q 19.53125 -1.421875 13.0625 8.265625 
Q 6.59375 17.96875 6.59375 36.375 
Q 6.59375 54.828125 13.0625 64.515625 
Q 19.53125 74.21875 31.78125 74.21875 
z
" id="DejaVuSans-48"/>
     </defs>
     <g transform="translate(31.317754 127.519522)scale(0.1 -0.1)">
      <use xlink:href="#DejaVuSans-48"/>
     </g>
    </g>
   </g>
   <g id="xtick_2">
    <g id="line2d_3">
     <path d="M 60.646443 110.753493 
L 59.234506 111.548134 
" style="fill:none;stroke:#000000;stroke-linecap:square;stroke-width:0.8;"/>
    </g>
    <g id="text_2">
     <!-- 2 -->
     <defs>
      <path d="M 19.1875 8.296875 
L 53.609375 8.296875 
L 53.609375 0 
L 7.328125 0 
L 7.328125 8.296875 
Q 12.9375 14.109375 22.625 23.890625 
Q 32.328125 33.6875 34.8125 36.53125 
Q 39.546875 41.84375 41.421875 45.53125 
Q 43.3125 49.21875 43.3125 52.78125 
Q 43.3125 58.59375 39.234375 62.25 
Q 35.15625 65.921875 28.609375 65.921875 
Q 23.96875 65.921875 18.8125 64.3125 
Q 13.671875 62.703125 7.8125 59.421875 
L 7.8125 69.390625 
Q 13.765625 71.78125 18.9375 73 
Q 24.125 74.21875 28.421875 74.21875 
Q 39.75 74.21875 46.484375 68.546875 
Q 53.21875 62.890625 53.21875 53.421875 
Q 53.21875 48.921875 51.53125 44.890625 
Q 49.859375 40.875 45.40625 35.40625 
Q 44.1875 33.984375 37.640625 27.21875 
Q 31.109375 20.453125 19.1875 8.296875 
z
" id="DejaVuSans-50"/>
     </defs>
     <g transform="translate(49.138093 131.316419)scale(0.1 -0.1)">
      <use xlink:href="#DejaVuSans-50"/>
     </g>
    </g>
   </g>
   <g id="xtick_3">
    <g id="line2d_4">
     <path d="M 78.778759 114.486601 
L 77.388733 115.295365 
" style="fill:none;stroke:#000000;stroke-linecap:square;stroke-width:0.8;"/>
    </g>
    <g id="text_3">
     <!-- 4 -->
     <defs>
      <path d="M 37.796875 64.3125 
L 12.890625 25.390625 
L 37.796875 25.390625 
z
M 35.203125 72.90625 
L 47.609375 72.90625 
L 47.609375 25.390625 
L 58.015625 25.390625 
L 58.015625 17.1875 
L 47.609375 17.1875 
L 47.609375 0 
L 37.796875 0 
L 37.796875 17.1875 
L 4.890625 17.1875 
L 4.890625 26.703125 
z
" id="DejaVuSans-52"/>
     </defs>
     <g transform="translate(67.274783 135.18072)scale(0.1 -0.1)">
      <use xlink:href="#DejaVuSans-52"/>
     </g>
    </g>
   </g>
   <g id="xtick_4">
    <g id="line2d_5">
     <path d="M 97.234438 118.286285 
L 95.867334 119.109549 
" style="fill:none;stroke:#000000;stroke-linecap:square;stroke-width:0.8;"/>
    </g>
    <g id="text_4">
     <!-- 6 -->
     <defs>
      <path d="M 33.015625 40.375 
Q 26.375 40.375 22.484375 35.828125 
Q 18.609375 31.296875 18.609375 23.390625 
Q 18.609375 15.53125 22.484375 10.953125 
Q 26.375 6.390625 33.015625 6.390625 
Q 39.65625 6.390625 43.53125 10.953125 
Q 47.40625 15.53125 47.40625 23.390625 
Q 47.40625 31.296875 43.53125 35.828125 
Q 39.65625 40.375 33.015625 40.375 
z
M 52.59375 71.296875 
L 52.59375 62.3125 
Q 48.875 64.0625 45.09375 64.984375 
Q 41.3125 65.921875 37.59375 65.921875 
Q 27.828125 65.921875 22.671875 59.328125 
Q 17.53125 52.734375 16.796875 39.40625 
Q 19.671875 43.65625 24.015625 45.921875 
Q 28.375 48.1875 33.59375 48.1875 
Q 44.578125 48.1875 50.953125 41.515625 
Q 57.328125 34.859375 57.328125 23.390625 
Q 57.328125 12.15625 50.6875 5.359375 
Q 44.046875 -1.421875 33.015625 -1.421875 
Q 20.359375 -1.421875 13.671875 8.265625 
Q 6.984375 17.96875 6.984375 36.375 
Q 6.984375 53.65625 15.1875 63.9375 
Q 23.390625 74.21875 37.203125 74.21875 
Q 40.921875 74.21875 44.703125 73.484375 
Q 48.484375 72.75 52.59375 71.296875 
z
" id="DejaVuSans-54"/>
     </defs>
     <g transform="translate(85.736323 139.114235)scale(0.1 -0.1)">
      <use xlink:href="#DejaVuSans-54"/>
     </g>
    </g>
   </g>
   <g id="xtick_5">
    <g id="line2d_6">
     <path d="M 116.022207 122.154339 
L 114.679081 122.992499 
" style="fill:none;stroke:#000000;stroke-linecap:square;stroke-width:0.8;"/>
    </g>
    <g id="text_5">
     <!-- 8 -->
     <defs>
      <path d="M 31.78125 34.625 
Q 24.75 34.625 20.71875 30.859375 
Q 16.703125 27.09375 16.703125 20.515625 
Q 16.703125 13.921875 20.71875 10.15625 
Q 24.75 6.390625 31.78125 6.390625 
Q 38.8125 6.390625 42.859375 10.171875 
Q 46.921875 13.96875 46.921875 20.515625 
Q 46.921875 27.09375 42.890625 30.859375 
Q 38.875 34.625 31.78125 34.625 
z
M 21.921875 38.8125 
Q 15.578125 40.375 12.03125 44.71875 
Q 8.5 49.078125 8.5 55.328125 
Q 8.5 64.0625 14.71875 69.140625 
Q 20.953125 74.21875 31.78125 74.21875 
Q 42.671875 74.21875 48.875 69.140625 
Q 55.078125 64.0625 55.078125 55.328125 
Q 55.078125 49.078125 51.53125 44.71875 
Q 48 40.375 41.703125 38.8125 
Q 48.828125 37.15625 52.796875 32.3125 
Q 56.78125 27.484375 56.78125 20.515625 
Q 56.78125 9.90625 50.3125 4.234375 
Q 43.84375 -1.421875 31.78125 -1.421875 
Q 19.734375 -1.421875 13.25 4.234375 
Q 6.78125 9.90625 6.78125 20.515625 
Q 6.78125 27.484375 10.78125 32.3125 
Q 14.796875 37.15625 21.921875 38.8125 
z
M 18.3125 54.390625 
Q 18.3125 48.734375 21.84375 45.5625 
Q 25.390625 42.390625 31.78125 42.390625 
Q 38.140625 42.390625 41.71875 45.5625 
Q 45.3125 48.734375 45.3125 54.390625 
Q 45.3125 60.0625 41.71875 63.234375 
Q 38.140625 66.40625 31.78125 66.40625 
Q 25.390625 66.40625 21.84375 63.234375 
Q 18.3125 60.0625 18.3125 54.390625 
z
" id="DejaVuSans-56"/>
     </defs>
     <g transform="translate(104.531519 143.11884)scale(0.1 -0.1)">
      <use xlink:href="#DejaVuSans-56"/>
     </g>
    </g>
   </g>
  </g>
  <g id="axis3d_2">
   <g id="line2d_7">
    <path d="M 182.337831 92.92157 
L 131.398411 125.693886 
" style="fill:none;stroke:#000000;stroke-linecap:square;stroke-width:0.8;"/>
   </g>
   <g id="Line3DCollection_2">
    <path d="M 36.564365 43.917433 
L 40.366648 104.106501 
L 134.88463 123.450997 
" style="fill:none;stroke:#b0b0b0;stroke-width:0.8;"/>
    <path d="M 48.570044 38.406578 
L 51.70909 97.988712 
L 145.292142 116.755234 
" style="fill:none;stroke:#b0b0b0;stroke-width:0.8;"/>
    <path d="M 60.209248 33.063942 
L 62.722561 92.04836 
L 155.384181 110.262433 
" style="fill:none;stroke:#b0b0b0;stroke-width:0.8;"/>
    <path d="M 71.498505 27.88194 
L 73.421169 86.277837 
L 165.174876 103.963505 
" style="fill:none;stroke:#b0b0b0;stroke-width:0.8;"/>
    <path d="M 82.453363 22.853433 
L 83.818227 80.669962 
L 174.677526 97.849893 
" style="fill:none;stroke:#b0b0b0;stroke-width:0.8;"/>
   </g>
   <g id="xtick_6">
    <g id="line2d_8">
     <path d="M 134.093598 123.2891 
L 136.468463 123.775151 
" style="fill:none;stroke:#000000;stroke-linecap:square;stroke-width:0.8;"/>
    </g>
    <g id="text_6">
     <!-- 0 -->
     <g transform="translate(145.296339 142.045096)scale(0.1 -0.1)">
      <use xlink:href="#DejaVuSans-48"/>
     </g>
    </g>
   </g>
   <g id="xtick_7">
    <g id="line2d_9">
     <path d="M 144.509466 116.598281 
L 146.859218 117.069485 
" style="fill:none;stroke:#000000;stroke-linecap:square;stroke-width:0.8;"/>
    </g>
    <g id="text_7">
     <!-- 2 -->
     <g transform="translate(155.4846 135.186893)scale(0.1 -0.1)">
      <use xlink:href="#DejaVuSans-50"/>
     </g>
    </g>
   </g>
   <g id="xtick_8">
    <g id="line2d_10">
     <path d="M 154.609721 110.110201 
L 156.934779 110.567227 
" style="fill:none;stroke:#000000;stroke-linecap:square;stroke-width:0.8;"/>
    </g>
    <g id="text_8">
     <!-- 4 -->
     <g transform="translate(165.364333 128.536375)scale(0.1 -0.1)">
      <use xlink:href="#DejaVuSans-52"/>
     </g>
    </g>
   </g>
   <g id="xtick_9">
    <g id="line2d_11">
     <path d="M 164.408495 103.815784 
L 166.709275 104.259263 
" style="fill:none;stroke:#000000;stroke-linecap:square;stroke-width:0.8;"/>
    </g>
    <g id="text_9">
     <!-- 6 -->
     <g transform="translate(174.949345 122.084248)scale(0.1 -0.1)">
      <use xlink:href="#DejaVuSans-54"/>
     </g>
    </g>
   </g>
   <g id="xtick_10">
    <g id="line2d_12">
     <path d="M 173.919086 97.706485 
L 176.196001 98.137011 
" style="fill:none;stroke:#000000;stroke-linecap:square;stroke-width:0.8;"/>
    </g>
    <g id="text_10">
     <!-- 8 -->
     <g transform="translate(184.252629 115.821765)scale(0.1 -0.1)">
      <use xlink:href="#DejaVuSans-56"/>
     </g>
    </g>
   </g>
  </g>
  <g id="axis3d_3">
   <g id="line2d_13">
    <path d="M 182.337831 92.92157 
L 186.108713 33.848772 
" style="fill:none;stroke:#000000;stroke-linecap:square;stroke-width:0.8;"/>
   </g>
   <g id="Line3DCollection_3">
    <path d="M 182.908486 83.981968 
L 92.06858 67.45023 
L 35.961971 97.028286 
" style="fill:none;stroke:#b0b0b0;stroke-width:0.8;"/>
    <path d="M 183.551892 73.902684 
L 91.910346 57.654761 
L 35.275229 86.73356 
" style="fill:none;stroke:#b0b0b0;stroke-width:0.8;"/>
    <path d="M 184.206855 63.642349 
L 91.74939 47.690819 
L 34.575737 76.247702 
" style="fill:none;stroke:#b0b0b0;stroke-width:0.8;"/>
    <path d="M 184.87369 53.196041 
L 91.585642 37.554019 
L 33.863137 65.565338 
" style="fill:none;stroke:#b0b0b0;stroke-width:0.8;"/>
    <path d="M 185.552722 42.558657 
L 91.419028 27.239824 
L 33.137056 54.680894 
" style="fill:none;stroke:#b0b0b0;stroke-width:0.8;"/>
   </g>
   <g id="xtick_11">
    <g id="line2d_14">
     <path d="M 182.15034 83.843994 
L 184.426367 84.258203 
" style="fill:none;stroke:#000000;stroke-linecap:square;stroke-width:0.8;"/>
    </g>
    <g id="text_11">
     <!-- 0.2 -->
     <defs>
      <path d="M 10.6875 12.40625 
L 21 12.40625 
L 21 0 
L 10.6875 0 
z
" id="DejaVuSans-46"/>
     </defs>
     <g transform="translate(194.698616 89.827683)scale(0.1 -0.1)">
      <use xlink:href="#DejaVuSans-48"/>
      <use x="63.623047" xlink:href="#DejaVuSans-46"/>
      <use x="95.410156" xlink:href="#DejaVuSans-50"/>
     </g>
    </g>
   </g>
   <g id="xtick_12">
    <g id="line2d_15">
     <path d="M 182.786774 73.76703 
L 185.083747 74.17428 
" style="fill:none;stroke:#000000;stroke-linecap:square;stroke-width:0.8;"/>
    </g>
    <g id="text_12">
     <!-- 0.4 -->
     <g transform="translate(195.514089 79.777917)scale(0.1 -0.1)">
      <use xlink:href="#DejaVuSans-48"/>
      <use x="63.623047" xlink:href="#DejaVuSans-46"/>
      <use x="95.410156" xlink:href="#DejaVuSans-52"/>
     </g>
    </g>
   </g>
   <g id="xtick_13">
    <g id="line2d_16">
     <path d="M 183.434635 63.50912 
L 185.752943 63.909093 
" style="fill:none;stroke:#000000;stroke-linecap:square;stroke-width:0.8;"/>
    </g>
    <g id="text_13">
     <!-- 0.6 -->
     <g transform="translate(196.344145 69.548445)scale(0.1 -0.1)">
      <use xlink:href="#DejaVuSans-48"/>
      <use x="63.623047" xlink:href="#DejaVuSans-46"/>
      <use x="95.410156" xlink:href="#DejaVuSans-54"/>
     </g>
    </g>
   </g>
   <g id="xtick_14">
    <g id="line2d_17">
     <path d="M 184.094235 53.065347 
L 186.434278 53.457712 
" style="fill:none;stroke:#000000;stroke-linecap:square;stroke-width:0.8;"/>
    </g>
    <g id="text_14">
     <!-- 0.8 -->
     <g transform="translate(197.189177 59.134402)scale(0.1 -0.1)">
      <use xlink:href="#DejaVuSans-48"/>
      <use x="63.623047" xlink:href="#DejaVuSans-46"/>
      <use x="95.410156" xlink:href="#DejaVuSans-56"/>
     </g>
    </g>
   </g>
   <g id="xtick_15">
    <g id="line2d_18">
     <path d="M 184.765895 42.430613 
L 187.128084 42.815024 
" style="fill:none;stroke:#000000;stroke-linecap:square;stroke-width:0.8;"/>
    </g>
    <g id="text_15">
     <!-- 1.0 -->
     <defs>
      <path d="M 12.40625 8.296875 
L 28.515625 8.296875 
L 28.515625 63.921875 
L 10.984375 60.40625 
L 10.984375 69.390625 
L 28.421875 72.90625 
L 38.28125 72.90625 
L 38.28125 8.296875 
L 54.390625 8.296875 
L 54.390625 0 
L 12.40625 0 
z
" id="DejaVuSans-49"/>
     </defs>
     <g transform="translate(198.049595 48.530748)scale(0.1 -0.1)">
      <use xlink:href="#DejaVuSans-49"/>
      <use x="63.623047" xlink:href="#DejaVuSans-46"/>
      <use x="95.410156" xlink:href="#DejaVuSans-48"/>
     </g>
    </g>
   </g>
  </g>
  <g id="axes_1">
   <g id="Poly3DCollection_1">
    <path clip-path="url(#p4a4396f1c8)" d="M 97.811905 76.080265 
L 106.477188 82.970511 
L 111.472594 76.964638 
L 102.781473 60.444365 
z
" style="fill:#cfcfcf;stroke:#000000;"/>
    <path clip-path="url(#p4a4396f1c8)" d="M 106.477188 82.970511 
L 115.166006 81.710494 
L 120.122935 79.785009 
L 111.472594 76.964638 
z
" style="fill:#f0f0f0;stroke:#000000;"/>
    <path clip-path="url(#p4a4396f1c8)" d="M 84.162359 81.343808 
L 92.706017 80.382406 
L 97.811905 76.080265 
L 89.027579 63.311559 
z
" style="fill:#cfcfcf;stroke:#000000;"/>
    <path clip-path="url(#p4a4396f1c8)" d="M 92.706017 80.382406 
L 101.375886 81.328099 
L 106.477188 82.970511 
L 97.811905 76.080265 
z
" style="fill:#e6e6e6;stroke:#000000;"/>
    <path clip-path="url(#p4a4396f1c8)" d="M 115.166006 81.710494 
L 123.959133 81.537224 
L 128.92533 76.439932 
L 120.122935 79.785009 
z
" style="fill:#e1e1e1;stroke:#000000;"/>
    <path clip-path="url(#p4a4396f1c8)" d="M 101.375886 81.328099 
L 110.130267 85.433854 
L 115.166006 81.710494 
L 106.477188 82.970511 
z
" style="fill:#eeeeee;stroke:#000000;"/>
    <path clip-path="url(#p4a4396f1c8)" d="M 89.027579 63.311559 
L 97.811905 76.080265 
L 102.781473 60.444365 
L 93.802434 34.426197 
z
" style="fill:#6c6c6c;stroke:#000000;"/>
    <path clip-path="url(#p4a4396f1c8)" d="M 78.775772 78.391763 
L 87.425945 79.143197 
L 92.706017 80.382406 
L 84.162359 81.343808 
z
" style="fill:#dbdbdb;stroke:#000000;"/>
    <path clip-path="url(#p4a4396f1c8)" d="M 123.959133 81.537224 
L 132.832193 82.492232 
L 137.770483 77.591894 
L 128.92533 76.439932 
z
" style="fill:#d3d3d3;stroke:#000000;"/>
    <path clip-path="url(#p4a4396f1c8)" d="M 110.130267 85.433854 
L 118.932981 87.761686 
L 123.959133 81.537224 
L 115.166006 81.710494 
z
" style="fill:#ebebeb;stroke:#000000;"/>
    <path clip-path="url(#p4a4396f1c8)" d="M 87.425945 79.143197 
L 96.213289 83.893528 
L 101.375886 81.328099 
L 92.706017 80.382406 
z
" style="fill:#d9d9d9;stroke:#000000;"/>
    <path clip-path="url(#p4a4396f1c8)" d="M 96.213289 83.893528 
L 105.031526 89.695331 
L 110.130267 85.433854 
L 101.375886 81.328099 
z
" style="fill:#e9e9e9;stroke:#000000;"/>
    <path clip-path="url(#p4a4396f1c8)" d="M 132.832193 82.492232 
L 141.749509 84.960579 
L 146.673323 79.500741 
L 137.770483 77.591894 
z
" style="fill:#d2d2d2;stroke:#000000;"/>
    <path clip-path="url(#p4a4396f1c8)" d="M 118.932981 87.761686 
L 127.819767 88.766549 
L 132.832193 82.492232 
L 123.959133 81.537224 
z
" style="fill:#e6e6e6;stroke:#000000;"/>
    <path clip-path="url(#p4a4396f1c8)" d="M 73.58579 85.472658 
L 82.141195 82.304344 
L 87.425945 79.143197 
L 78.775772 78.391763 
z
" style="fill:#d1d1d1;stroke:#000000;"/>
    <path clip-path="url(#p4a4396f1c8)" d="M 105.031526 89.695331 
L 113.866718 92.947551 
L 118.932981 87.761686 
L 110.130267 85.433854 
z
" style="fill:#f9f9f9;stroke:#000000;"/>
    <path clip-path="url(#p4a4396f1c8)" d="M 141.749509 84.960579 
L 150.767635 86.367371 
L 155.591127 82.822812 
L 146.673323 79.500741 
z
" style="fill:#d7d7d7;stroke:#000000;"/>
    <path clip-path="url(#p4a4396f1c8)" d="M 127.819767 88.766549 
L 136.755388 91.376275 
L 141.749509 84.960579 
L 132.832193 82.492232 
z
" style="fill:#e7e7e7;stroke:#000000;"/>
    <path clip-path="url(#p4a4396f1c8)" d="M 82.141195 82.304344 
L 90.975445 86.673707 
L 96.213289 83.893528 
L 87.425945 79.143197 
z
" style="fill:#d2d2d2;stroke:#000000;"/>
    <path clip-path="url(#p4a4396f1c8)" d="M 113.866718 92.947551 
L 122.77871 93.74807 
L 127.819767 88.766549 
L 118.932981 87.761686 
z
" style="fill:#fafafa;stroke:#000000;"/>
    <path clip-path="url(#p4a4396f1c8)" d="M 90.975445 86.673707 
L 99.850805 91.941992 
L 105.031526 89.695331 
L 96.213289 83.893528 
z
" style="fill:#eaeaea;stroke:#000000;"/>
    <path clip-path="url(#p4a4396f1c8)" d="M 68.039728 84.109214 
L 76.797925 86.059875 
L 82.141195 82.304344 
L 73.58579 85.472658 
z
" style="fill:#d4d4d4;stroke:#000000;"/>
    <path clip-path="url(#p4a4396f1c8)" d="M 99.850805 91.941992 
L 108.741465 95.099137 
L 113.866718 92.947551 
L 105.031526 89.695331 
z
" style="fill:#fdfdfd;stroke:#000000;"/>
    <path clip-path="url(#p4a4396f1c8)" d="M 136.755388 91.376275 
L 145.810729 92.132042 
L 150.767635 86.367371 
L 141.749509 84.960579 
z
" style="fill:#e8e8e8;stroke:#000000;"/>
    <path clip-path="url(#p4a4396f1c8)" d="M 122.77871 93.74807 
L 131.759553 95.697914 
L 136.755388 91.376275 
L 127.819767 88.766549 
z
" style="fill:#f9f9f9;stroke:#000000;"/>
    <path clip-path="url(#p4a4396f1c8)" d="M 150.767635 86.367371 
L 160.151033 81.268072 
L 165.107282 74.642948 
L 155.591127 82.822812 
z
" style="fill:#bcbcbc;stroke:#000000;"/>
    <path clip-path="url(#p4a4396f1c8)" d="M 108.741465 95.099137 
L 117.696686 96.414795 
L 122.77871 93.74807 
L 113.866718 92.947551 
z
" style="fill:#ffffff;stroke:#000000;"/>
    <path clip-path="url(#p4a4396f1c8)" d="M 76.797925 86.059875 
L 85.664985 89.755941 
L 90.975445 86.673707 
L 82.141195 82.304344 
z
" style="fill:#d4d4d4;stroke:#000000;"/>
    <path clip-path="url(#p4a4396f1c8)" d="M 85.664985 89.755941 
L 94.598997 95.060028 
L 99.850805 91.941992 
L 90.975445 86.673707 
z
" style="fill:#e9e9e9;stroke:#000000;"/>
    <path clip-path="url(#p4a4396f1c8)" d="M 131.759553 95.697914 
L 140.858517 95.991448 
L 145.810729 92.132042 
L 136.755388 91.376275 
z
" style="fill:#f7f7f7;stroke:#000000;"/>
    <path clip-path="url(#p4a4396f1c8)" d="M 62.802217 92.89011 
L 71.388783 90.013634 
L 76.797925 86.059875 
L 68.039728 84.109214 
z
" style="fill:#dadada;stroke:#000000;"/>
    <path clip-path="url(#p4a4396f1c8)" d="M 145.810729 92.132042 
L 155.070895 90.055139 
L 160.151033 81.268072 
L 150.767635 86.367371 
z
" style="fill:#d3d3d3;stroke:#000000;"/>
    <path clip-path="url(#p4a4396f1c8)" d="M 94.598997 95.060028 
L 103.538747 98.248358 
L 108.741465 95.099137 
L 99.850805 91.941992 
z
" style="fill:#fafafa;stroke:#000000;"/>
    <path clip-path="url(#p4a4396f1c8)" d="M 117.696686 96.414795 
L 126.72329 98.582402 
L 131.759553 95.697914 
L 122.77871 93.74807 
z
" style="fill:#fefefe;stroke:#000000;"/>
    <path clip-path="url(#p4a4396f1c8)" d="M 71.388783 90.013634 
L 80.243825 91.65655 
L 85.664985 89.755941 
L 76.797925 86.059875 
z
" style="fill:#d5d5d5;stroke:#000000;"/>
    <path clip-path="url(#p4a4396f1c8)" d="M 103.538747 98.248358 
L 112.534873 99.780626 
L 117.696686 96.414795 
L 108.741465 95.099137 
z
" style="fill:#fefefe;stroke:#000000;"/>
    <path clip-path="url(#p4a4396f1c8)" d="M 140.858517 95.991448 
L 150.134998 94.138728 
L 155.070895 90.055139 
L 145.810729 92.132042 
z
" style="fill:#e6e6e6;stroke:#000000;"/>
    <path clip-path="url(#p4a4396f1c8)" d="M 160.151033 81.268072 
L 169.406494 82.293473 
L 174.720996 68.970929 
L 165.107282 74.642948 
z
" style="fill:#919191;stroke:#000000;"/>
    <path clip-path="url(#p4a4396f1c8)" d="M 126.72329 98.582402 
L 135.863016 98.893215 
L 140.858517 95.991448 
L 131.759553 95.697914 
z
" style="fill:#fafafa;stroke:#000000;"/>
    <path clip-path="url(#p4a4396f1c8)" d="M 80.243825 91.65655 
L 89.251073 97.214697 
L 94.598997 95.060028 
L 85.664985 89.755941 
z
" style="fill:#e6e6e6;stroke:#000000;"/>
    <path clip-path="url(#p4a4396f1c8)" d="M 155.070895 90.055139 
L 164.287139 91.863029 
L 169.406494 82.293473 
L 160.151033 81.268072 
z
" style="fill:#bfbfbf;stroke:#000000;"/>
    <path clip-path="url(#p4a4396f1c8)" d="M 89.251073 97.214697 
L 98.243025 99.943901 
L 103.538747 98.248358 
L 94.598997 95.060028 
z
" style="fill:#f7f7f7;stroke:#000000;"/>
    <path clip-path="url(#p4a4396f1c8)" d="M 112.534873 99.780626 
L 121.600997 102.4773 
L 126.72329 98.582402 
L 117.696686 96.414795 
z
" style="fill:#ffffff;stroke:#000000;"/>
    <path clip-path="url(#p4a4396f1c8)" d="M 56.51726 80.191725 
L 65.604212 86.377565 
L 71.388783 90.013634 
L 62.802217 92.89011 
z
" style="fill:#bfbfbf;stroke:#000000;"/>
    <path clip-path="url(#p4a4396f1c8)" d="M 150.134998 94.138728 
L 159.481796 93.874715 
L 164.287139 91.863029 
L 155.070895 90.055139 
z
" style="fill:#d5d5d5;stroke:#000000;"/>
    <path clip-path="url(#p4a4396f1c8)" d="M 98.243025 99.943901 
L 107.291581 100.795051 
L 112.534873 99.780626 
L 103.538747 98.248358 
z
" style="fill:#f9f9f9;stroke:#000000;"/>
    <path clip-path="url(#p4a4396f1c8)" d="M 135.863016 98.893215 
L 145.172657 97.042527 
L 150.134998 94.138728 
L 140.858517 95.991448 
z
" style="fill:#e9e9e9;stroke:#000000;"/>
    <path clip-path="url(#p4a4396f1c8)" d="M 121.600997 102.4773 
L 130.775924 102.682986 
L 135.863016 98.893215 
L 126.72329 98.582402 
z
" style="fill:#fdfdfd;stroke:#000000;"/>
    <path clip-path="url(#p4a4396f1c8)" d="M 65.604212 86.377565 
L 74.576865 88.775127 
L 80.243825 91.65655 
L 71.388783 90.013634 
z
" style="fill:#bfbfbf;stroke:#000000;"/>
    <path clip-path="url(#p4a4396f1c8)" d="M 74.576865 88.775127 
L 83.766668 97.414815 
L 89.251073 97.214697 
L 80.243825 91.65655 
z
" style="fill:#d3d3d3;stroke:#000000;"/>
    <path clip-path="url(#p4a4396f1c8)" d="M 107.291581 100.795051 
L 116.425752 103.281328 
L 121.600997 102.4773 
L 112.534873 99.780626 
z
" style="fill:#fafafa;stroke:#000000;"/>
    <path clip-path="url(#p4a4396f1c8)" d="M 83.766668 97.414815 
L 92.819391 99.472711 
L 98.243025 99.943901 
L 89.251073 97.214697 
z
" style="fill:#e8e8e8;stroke:#000000;"/>
    <path clip-path="url(#p4a4396f1c8)" d="M 145.172657 97.042527 
L 154.589058 96.071186 
L 159.481796 93.874715 
L 150.134998 94.138728 
z
" style="fill:#d4d4d4;stroke:#000000;"/>
    <path clip-path="url(#p4a4396f1c8)" d="M 130.775924 102.682986 
L 140.126865 100.255859 
L 145.172657 97.042527 
L 135.863016 98.893215 
z
" style="fill:#eaeaea;stroke:#000000;"/>
    <path clip-path="url(#p4a4396f1c8)" d="M 116.425752 103.281328 
L 125.646908 104.413509 
L 130.775924 102.682986 
L 121.600997 102.4773 
z
" style="fill:#f9f9f9;stroke:#000000;"/>
    <path clip-path="url(#p4a4396f1c8)" d="M 92.819391 99.472711 
L 101.938318 100.442524 
L 107.291581 100.795051 
L 98.243025 99.943901 
z
" style="fill:#e7e7e7;stroke:#000000;"/>
    <path clip-path="url(#p4a4396f1c8)" d="M 68.843355 87.989683 
L 78.235001 99.843521 
L 83.766668 97.414815 
L 74.576865 88.775127 
z
" style="fill:#bcbcbc;stroke:#000000;"/>
    <path clip-path="url(#p4a4396f1c8)" d="M 101.938318 100.442524 
L 111.15051 102.97043 
L 116.425752 103.281328 
L 107.291581 100.795051 
z
" style="fill:#e6e6e6;stroke:#000000;"/>
    <path clip-path="url(#p4a4396f1c8)" d="M 140.126865 100.255859 
L 149.594362 98.86765 
L 154.589058 96.071186 
L 145.172657 97.042527 
z
" style="fill:#d2d2d2;stroke:#000000;"/>
    <path clip-path="url(#p4a4396f1c8)" d="M 125.646908 104.413509 
L 135.00123 103.697863 
L 140.126865 100.255859 
L 130.775924 102.682986 
z
" style="fill:#e9e9e9;stroke:#000000;"/>
    <path clip-path="url(#p4a4396f1c8)" d="M 78.235001 99.843521 
L 87.297275 99.923656 
L 92.819391 99.472711 
L 83.766668 97.414815 
z
" style="fill:#d7d7d7;stroke:#000000;"/>
    <path clip-path="url(#p4a4396f1c8)" d="M 59.489414 78.795281 
L 68.843355 87.989683 
L 74.576865 88.775127 
L 65.604212 86.377565 
z
" style="fill:#919191;stroke:#000000;"/>
    <path clip-path="url(#p4a4396f1c8)" d="M 111.15051 102.97043 
L 120.421926 106.681526 
L 125.646908 104.413509 
L 116.425752 103.281328 
z
" style="fill:#ebebeb;stroke:#000000;"/>
    <path clip-path="url(#p4a4396f1c8)" d="M 49.37141 55.860388 
L 59.489414 78.795281 
L 65.604212 86.377565 
L 56.51726 80.191725 
z
" style="fill:#595959;stroke:#000000;"/>
    <path clip-path="url(#p4a4396f1c8)" d="M 87.297275 99.923656 
L 96.486519 101.45463 
L 101.938318 100.442524 
L 92.819391 99.472711 
z
" style="fill:#d2d2d2;stroke:#000000;"/>
    <path clip-path="url(#p4a4396f1c8)" d="M 63.28668 94.405327 
L 72.713545 105.286685 
L 78.235001 99.843521 
L 68.843355 87.989683 
z
" style="fill:#bebebe;stroke:#000000;"/>
    <path clip-path="url(#p4a4396f1c8)" d="M 135.00123 103.697863 
L 144.382039 106.247968 
L 149.594362 98.86765 
L 140.126865 100.255859 
z
" style="fill:#d9d9d9;stroke:#000000;"/>
    <path clip-path="url(#p4a4396f1c8)" d="M 120.421926 106.681526 
L 129.724244 111.55108 
L 135.00123 103.697863 
L 125.646908 104.413509 
z
" style="fill:#eeeeee;stroke:#000000;"/>
    <path clip-path="url(#p4a4396f1c8)" d="M 72.713545 105.286685 
L 81.714102 102.343233 
L 87.297275 99.923656 
L 78.235001 99.843521 
z
" style="fill:#d4d4d4;stroke:#000000;"/>
    <path clip-path="url(#p4a4396f1c8)" d="M 96.486519 101.45463 
L 105.765644 103.775225 
L 111.15051 102.97043 
L 101.938318 100.442524 
z
" style="fill:#d3d3d3;stroke:#000000;"/>
    <path clip-path="url(#p4a4396f1c8)" d="M 53.535667 78.384173 
L 63.28668 94.405327 
L 68.843355 87.989683 
L 59.489414 78.795281 
z
" style="fill:#797979;stroke:#000000;"/>
    <path clip-path="url(#p4a4396f1c8)" d="M 105.765644 103.775225 
L 115.100359 110.826096 
L 120.421926 106.681526 
L 111.15051 102.97043 
z
" style="fill:#e1e1e1;stroke:#000000;"/>
    <path clip-path="url(#p4a4396f1c8)" d="M 129.724244 111.55108 
L 139.279183 107.886849 
L 144.382039 106.247968 
L 135.00123 103.697863 
z
" style="fill:#e6e6e6;stroke:#000000;"/>
    <path clip-path="url(#p4a4396f1c8)" d="M 81.714102 102.343233 
L 90.957123 104.066349 
L 96.486519 101.45463 
L 87.297275 99.923656 
z
" style="fill:#c8c8c8;stroke:#000000;"/>
    <path clip-path="url(#p4a4396f1c8)" d="M 115.100359 110.826096 
L 124.511643 111.426678 
L 129.724244 111.55108 
L 120.421926 106.681526 
z
" style="fill:#f0f0f0;stroke:#000000;"/>
    <path clip-path="url(#p4a4396f1c8)" d="M 90.957123 104.066349 
L 100.287356 106.052892 
L 105.765644 103.775225 
L 96.486519 101.45463 
z
" style="fill:#c8c8c8;stroke:#000000;"/>
    <path clip-path="url(#p4a4396f1c8)" d="M 100.287356 106.052892 
L 109.703408 112.759697 
L 115.100359 110.826096 
L 105.765644 103.775225 
z
" style="fill:#dadada;stroke:#000000;"/>
    <path clip-path="url(#p4a4396f1c8)" d="M 42.70324 46.251223 
L 53.535667 78.384173 
L 59.489414 78.795281 
L 49.37141 55.860388 
z
" style="stroke:#000000;"/>
    <path clip-path="url(#p4a4396f1c8)" d="M 124.511643 111.426678 
L 134.338505 97.452863 
L 139.279183 107.886849 
L 129.724244 111.55108 
z
" style="fill:#cfcfcf;stroke:#000000;"/>
    <path clip-path="url(#p4a4396f1c8)" d="M 109.703408 112.759697 
L 119.230302 105.463077 
L 124.511643 111.426678 
L 115.100359 110.826096 
z
" style="fill:#dadada;stroke:#000000;"/>
    <path clip-path="url(#p4a4396f1c8)" d="M 119.230302 105.463077 
L 129.091229 92.79756 
L 134.338505 97.452863 
L 124.511643 111.426678 
z
" style="fill:#959595;stroke:#000000;"/>
   </g>
  </g>
 </g>
 <defs>
  <clipPath id="p4a4396f1c8">
   <rect height="122.4" width="194.4" x="10.8" y="10.8"/>
  </clipPath>
 </defs>
</svg>
