<?xml version="1.0" encoding="utf-8" standalone="no"?>
<!DOCTYPE svg PUBLIC "-//W3C//DTD SVG 1.1//EN"
  "http://www.w3.org/Graphics/SVG/1.1/DTD/svg11.dtd">
<!-- Created with matplotlib (https://matplotlib.org/) -->
<svg height="144pt" version="1.1" viewBox="0 0 216 144" width="216pt" xmlns="http://www.w3.org/2000/svg" xmlns:xlink="http://www.w3.org/1999/xlink">
 <defs>
  <style type="text/css">
*{stroke-linecap:butt;stroke-linejoin:round;}
  </style>
 </defs>
 <g id="figure_1">
  <g id="patch_1">
   <path d="M 0 144 
L 216 144 
L 216 0 
L 0 0 
z
" style="fill:#ffffff;"/>
  </g>
  <g id="patch_2">
   <path d="M 10.8 133.2 
L 205.2 133.2 
L 205.2 10.8 
L 10.8 10.8 
z
" style="fill:#ffffff;"/>
  </g>
  <g id="pane3d_1">
   <g id="patch_3">
    <path d="M 36.570724 106.153914 
L 92.209021 76.144207 
L 91.282702 18.800583 
L 32.542206 45.763687 
" style="fill:#f2f2f2;opacity:0.5;stroke:#f2f2f2;stroke-linejoin:miter;"/>
   </g>
  </g>
  <g id="pane3d_2">
   <g id="patch_4">
    <path d="M 92.209021 76.144207 
L 182.337831 92.92157 
L 186.108713 33.848772 
L 91.282702 18.800583 
" style="fill:#e6e6e6;opacity:0.5;stroke:#e6e6e6;stroke-linejoin:miter;"/>
   </g>
  </g>
  <g id="pane3d_3">
   <g id="patch_5">
    <path d="M 36.570724 106.153914 
L 131.398411 125.693886 
L 182.337831 92.92157 
L 92.209021 76.144207 
" style="fill:#ececec;opacity:0.5;stroke:#ececec;stroke-linejoin:miter;"/>
   </g>
  </g>
  <g id="axis3d_1">
   <g id="line2d_1">
    <path d="M 36.570724 106.153914 
L 131.398411 125.693886 
" style="fill:none;stroke:#000000;stroke-linecap:square;stroke-width:0.8;"/>
   </g>
   <g id="Line3DCollection_1">
    <path d="M 42.352032 107.345197 
L 97.721186 77.170289 
L 97.070293 19.719031 
" style="fill:none;stroke:#b0b0b0;stroke-width:0.8;"/>
    <path d="M 60.176387 111.018042 
L 114.701544 80.331161 
L 114.908793 22.54987 
" style="fill:none;stroke:#b0b0b0;stroke-width:0.8;"/>
    <path d="M 78.316002 114.755849 
L 131.96025 83.543847 
L 133.054712 25.429493 
" style="fill:none;stroke:#b0b0b0;stroke-width:0.8;"/>
    <path d="M 96.779317 118.560356 
L 149.504207 86.809632 
L 151.516063 28.359174 
" style="fill:none;stroke:#b0b0b0;stroke-width:0.8;"/>
    <path d="M 115.575075 122.433366 
L 167.340544 90.129844 
L 170.301146 31.340228 
" style="fill:none;stroke:#b0b0b0;stroke-width:0.8;"/>
   </g>
   <g id="xtick_1">
    <g id="line2d_2">
     <path d="M 42.829066 107.085224 
L 41.396185 107.866111 
" style="fill:none;stroke:#000000;stroke-linecap:square;stroke-width:0.8;"/>
    </g>
    <g id="text_1">
     <!-- 0 -->
     <defs>
      <path d="M 31.78125 66.40625 
Q 24.171875 66.40625 20.328125 58.90625 
Q 16.5 51.421875 16.5 36.375 
Q 16.5 21.390625 20.328125 13.890625 
Q 24.171875 6.390625 31.78125 6.390625 
Q 39.453125 6.390625 43.28125 13.890625 
Q 47.125 21.390625 47.125 36.375 
Q 47.125 51.421875 43.28125 58.90625 
Q 39.453125 66.40625 31.78125 66.40625 
z
M 31.78125 74.21875 
Q 44.046875 74.21875 50.515625 64.515625 
Q 56.984375 54.828125 56.984375 36.375 
Q 56.984375 17.96875 50.515625 8.265625 
Q 44.046875 -1.421875 31.78125 -1.421875 
Q 19.53125 -1.421875 13.0625 8.265625 
Q 6.59375 17.96875 6.59375 36.375 
Q 6.59375 54.828125 13.0625 64.515625 
Q 19.53125 74.21875 31.78125 74.21875 
z
" id="DejaVuSans-48"/>
     </defs>
     <g transform="translate(31.317754 127.519522)scale(0.1 -0.1)">
      <use xlink:href="#DejaVuSans-48"/>
     </g>
    </g>
   </g>
   <g id="xtick_2">
    <g id="line2d_3">
     <path d="M 60.646443 110.753493 
L 59.234506 111.548134 
" style="fill:none;stroke:#000000;stroke-linecap:square;stroke-width:0.8;"/>
    </g>
    <g id="text_2">
     <!-- 2 -->
     <defs>
      <path d="M 19.1875 8.296875 
L 53.609375 8.296875 
L 53.609375 0 
L 7.328125 0 
L 7.328125 8.296875 
Q 12.9375 14.109375 22.625 23.890625 
Q 32.328125 33.6875 34.8125 36.53125 
Q 39.546875 41.84375 41.421875 45.53125 
Q 43.3125 49.21875 43.3125 52.78125 
Q 43.3125 58.59375 39.234375 62.25 
Q 35.15625 65.921875 28.609375 65.921875 
Q 23.96875 65.921875 18.8125 64.3125 
Q 13.671875 62.703125 7.8125 59.421875 
L 7.8125 69.390625 
Q 13.765625 71.78125 18.9375 73 
Q 24.125 74.21875 28.421875 74.21875 
Q 39.75 74.21875 46.484375 68.546875 
Q 53.21875 62.890625 53.21875 53.421875 
Q 53.21875 48.921875 51.53125 44.890625 
Q 49.859375 40.875 45.40625 35.40625 
Q 44.1875 33.984375 37.640625 27.21875 
Q 31.109375 20.453125 19.1875 8.296875 
z
" id="DejaVuSans-50"/>
     </defs>
     <g transform="translate(49.138093 131.316419)scale(0.1 -0.1)">
      <use xlink:href="#DejaVuSans-50"/>
     </g>
    </g>
   </g>
   <g id="xtick_3">
    <g id="line2d_4">
     <path d="M 78.778759 114.486601 
L 77.388733 115.295365 
" style="fill:none;stroke:#000000;stroke-linecap:square;stroke-width:0.8;"/>
    </g>
    <g id="text_3">
     <!-- 4 -->
     <defs>
      <path d="M 37.796875 64.3125 
L 12.890625 25.390625 
L 37.796875 25.390625 
z
M 35.203125 72.90625 
L 47.609375 72.90625 
L 47.609375 25.390625 
L 58.015625 25.390625 
L 58.015625 17.1875 
L 47.609375 17.1875 
L 47.609375 0 
L 37.796875 0 
L 37.796875 17.1875 
L 4.890625 17.1875 
L 4.890625 26.703125 
z
" id="DejaVuSans-52"/>
     </defs>
     <g transform="translate(67.274783 135.18072)scale(0.1 -0.1)">
      <use xlink:href="#DejaVuSans-52"/>
     </g>
    </g>
   </g>
   <g id="xtick_4">
    <g id="line2d_5">
     <path d="M 97.234438 118.286285 
L 95.867334 119.109549 
" style="fill:none;stroke:#000000;stroke-linecap:square;stroke-width:0.8;"/>
    </g>
    <g id="text_4">
     <!-- 6 -->
     <defs>
      <path d="M 33.015625 40.375 
Q 26.375 40.375 22.484375 35.828125 
Q 18.609375 31.296875 18.609375 23.390625 
Q 18.609375 15.53125 22.484375 10.953125 
Q 26.375 6.390625 33.015625 6.390625 
Q 39.65625 6.390625 43.53125 10.953125 
Q 47.40625 15.53125 47.40625 23.390625 
Q 47.40625 31.296875 43.53125 35.828125 
Q 39.65625 40.375 33.015625 40.375 
z
M 52.59375 71.296875 
L 52.59375 62.3125 
Q 48.875 64.0625 45.09375 64.984375 
Q 41.3125 65.921875 37.59375 65.921875 
Q 27.828125 65.921875 22.671875 59.328125 
Q 17.53125 52.734375 16.796875 39.40625 
Q 19.671875 43.65625 24.015625 45.921875 
Q 28.375 48.1875 33.59375 48.1875 
Q 44.578125 48.1875 50.953125 41.515625 
Q 57.328125 34.859375 57.328125 23.390625 
Q 57.328125 12.15625 50.6875 5.359375 
Q 44.046875 -1.421875 33.015625 -1.421875 
Q 20.359375 -1.421875 13.671875 8.265625 
Q 6.984375 17.96875 6.984375 36.375 
Q 6.984375 53.65625 15.1875 63.9375 
Q 23.390625 74.21875 37.203125 74.21875 
Q 40.921875 74.21875 44.703125 73.484375 
Q 48.484375 72.75 52.59375 71.296875 
z
" id="DejaVuSans-54"/>
     </defs>
     <g transform="translate(85.736323 139.114235)scale(0.1 -0.1)">
      <use xlink:href="#DejaVuSans-54"/>
     </g>
    </g>
   </g>
   <g id="xtick_5">
    <g id="line2d_6">
     <path d="M 116.022207 122.154339 
L 114.679081 122.992499 
" style="fill:none;stroke:#000000;stroke-linecap:square;stroke-width:0.8;"/>
    </g>
    <g id="text_5">
     <!-- 8 -->
     <defs>
      <path d="M 31.78125 34.625 
Q 24.75 34.625 20.71875 30.859375 
Q 16.703125 27.09375 16.703125 20.515625 
Q 16.703125 13.921875 20.71875 10.15625 
Q 24.75 6.390625 31.78125 6.390625 
Q 38.8125 6.390625 42.859375 10.171875 
Q 46.921875 13.96875 46.921875 20.515625 
Q 46.921875 27.09375 42.890625 30.859375 
Q 38.875 34.625 31.78125 34.625 
z
M 21.921875 38.8125 
Q 15.578125 40.375 12.03125 44.71875 
Q 8.5 49.078125 8.5 55.328125 
Q 8.5 64.0625 14.71875 69.140625 
Q 20.953125 74.21875 31.78125 74.21875 
Q 42.671875 74.21875 48.875 69.140625 
Q 55.078125 64.0625 55.078125 55.328125 
Q 55.078125 49.078125 51.53125 44.71875 
Q 48 40.375 41.703125 38.8125 
Q 48.828125 37.15625 52.796875 32.3125 
Q 56.78125 27.484375 56.78125 20.515625 
Q 56.78125 9.90625 50.3125 4.234375 
Q 43.84375 -1.421875 31.78125 -1.421875 
Q 19.734375 -1.421875 13.25 4.234375 
Q 6.78125 9.90625 6.78125 20.515625 
Q 6.78125 27.484375 10.78125 32.3125 
Q 14.796875 37.15625 21.921875 38.8125 
z
M 18.3125 54.390625 
Q 18.3125 48.734375 21.84375 45.5625 
Q 25.390625 42.390625 31.78125 42.390625 
Q 38.140625 42.390625 41.71875 45.5625 
Q 45.3125 48.734375 45.3125 54.390625 
Q 45.3125 60.0625 41.71875 63.234375 
Q 38.140625 66.40625 31.78125 66.40625 
Q 25.390625 66.40625 21.84375 63.234375 
Q 18.3125 60.0625 18.3125 54.390625 
z
" id="DejaVuSans-56"/>
     </defs>
     <g transform="translate(104.531519 143.11884)scale(0.1 -0.1)">
      <use xlink:href="#DejaVuSans-56"/>
     </g>
    </g>
   </g>
  </g>
  <g id="axis3d_2">
   <g id="line2d_7">
    <path d="M 182.337831 92.92157 
L 131.398411 125.693886 
" style="fill:none;stroke:#000000;stroke-linecap:square;stroke-width:0.8;"/>
   </g>
   <g id="Line3DCollection_2">
    <path d="M 36.564365 43.917433 
L 40.366648 104.106501 
L 134.88463 123.450997 
" style="fill:none;stroke:#b0b0b0;stroke-width:0.8;"/>
    <path d="M 48.570044 38.406578 
L 51.70909 97.988712 
L 145.292142 116.755234 
" style="fill:none;stroke:#b0b0b0;stroke-width:0.8;"/>
    <path d="M 60.209248 33.063942 
L 62.722561 92.04836 
L 155.384181 110.262433 
" style="fill:none;stroke:#b0b0b0;stroke-width:0.8;"/>
    <path d="M 71.498505 27.88194 
L 73.421169 86.277837 
L 165.174876 103.963505 
" style="fill:none;stroke:#b0b0b0;stroke-width:0.8;"/>
    <path d="M 82.453363 22.853433 
L 83.818227 80.669962 
L 174.677526 97.849893 
" style="fill:none;stroke:#b0b0b0;stroke-width:0.8;"/>
   </g>
   <g id="xtick_6">
    <g id="line2d_8">
     <path d="M 134.093598 123.2891 
L 136.468463 123.775151 
" style="fill:none;stroke:#000000;stroke-linecap:square;stroke-width:0.8;"/>
    </g>
    <g id="text_6">
     <!-- 0 -->
     <g transform="translate(145.296339 142.045096)scale(0.1 -0.1)">
      <use xlink:href="#DejaVuSans-48"/>
     </g>
    </g>
   </g>
   <g id="xtick_7">
    <g id="line2d_9">
     <path d="M 144.509466 116.598281 
L 146.859218 117.069485 
" style="fill:none;stroke:#000000;stroke-linecap:square;stroke-width:0.8;"/>
    </g>
    <g id="text_7">
     <!-- 2 -->
     <g transform="translate(155.4846 135.186893)scale(0.1 -0.1)">
      <use xlink:href="#DejaVuSans-50"/>
     </g>
    </g>
   </g>
   <g id="xtick_8">
    <g id="line2d_10">
     <path d="M 154.609721 110.110201 
L 156.934779 110.567227 
" style="fill:none;stroke:#000000;stroke-linecap:square;stroke-width:0.8;"/>
    </g>
    <g id="text_8">
     <!-- 4 -->
     <g transform="translate(165.364333 128.536375)scale(0.1 -0.1)">
      <use xlink:href="#DejaVuSans-52"/>
     </g>
    </g>
   </g>
   <g id="xtick_9">
    <g id="line2d_11">
     <path d="M 164.408495 103.815784 
L 166.709275 104.259263 
" style="fill:none;stroke:#000000;stroke-linecap:square;stroke-width:0.8;"/>
    </g>
    <g id="text_9">
     <!-- 6 -->
     <g transform="translate(174.949345 122.084248)scale(0.1 -0.1)">
      <use xlink:href="#DejaVuSans-54"/>
     </g>
    </g>
   </g>
   <g id="xtick_10">
    <g id="line2d_12">
     <path d="M 173.919086 97.706485 
L 176.196001 98.137011 
" style="fill:none;stroke:#000000;stroke-linecap:square;stroke-width:0.8;"/>
    </g>
    <g id="text_10">
     <!-- 8 -->
     <g transform="translate(184.252629 115.821765)scale(0.1 -0.1)">
      <use xlink:href="#DejaVuSans-56"/>
     </g>
    </g>
   </g>
  </g>
  <g id="axis3d_3">
   <g id="line2d_13">
    <path d="M 182.337831 92.92157 
L 186.108713 33.848772 
" style="fill:none;stroke:#000000;stroke-linecap:square;stroke-width:0.8;"/>
   </g>
   <g id="Line3DCollection_3">
    <path d="M 182.968914 83.035341 
L 92.053714 66.529948 
L 35.89749 96.061683 
" style="fill:none;stroke:#b0b0b0;stroke-width:0.8;"/>
    <path d="M 183.69491 71.662244 
L 91.875189 55.478398 
L 35.122524 84.44441 
" style="fill:none;stroke:#b0b0b0;stroke-width:0.8;"/>
    <path d="M 184.435625 60.058561 
L 91.693199 44.212333 
L 34.331316 72.583663 
" style="fill:none;stroke:#b0b0b0;stroke-width:0.8;"/>
    <path d="M 185.191511 48.217207 
L 91.507642 32.725447 
L 33.52335 60.471708 
" style="fill:none;stroke:#b0b0b0;stroke-width:0.8;"/>
    <path d="M 185.963041 36.130805 
L 91.318412 21.011182 
L 32.698089 48.100477 
" style="fill:none;stroke:#b0b0b0;stroke-width:0.8;"/>
   </g>
   <g id="xtick_11">
    <g id="line2d_14">
     <path d="M 182.210113 82.897583 
L 184.488106 83.311146 
" style="fill:none;stroke:#000000;stroke-linecap:square;stroke-width:0.8;"/>
    </g>
    <g id="text_11">
     <!-- 0.1 -->
     <defs>
      <path d="M 10.6875 12.40625 
L 21 12.40625 
L 21 0 
L 10.6875 0 
z
" id="DejaVuSans-46"/>
      <path d="M 12.40625 8.296875 
L 28.515625 8.296875 
L 28.515625 63.921875 
L 10.984375 60.40625 
L 10.984375 69.390625 
L 28.421875 72.90625 
L 38.28125 72.90625 
L 38.28125 8.296875 
L 54.390625 8.296875 
L 54.390625 0 
L 12.40625 0 
z
" id="DejaVuSans-49"/>
     </defs>
     <g transform="translate(194.775207 88.883795)scale(0.1 -0.1)">
      <use xlink:href="#DejaVuSans-48"/>
      <use x="63.623047" xlink:href="#DejaVuSans-46"/>
      <use x="95.410156" xlink:href="#DejaVuSans-49"/>
     </g>
    </g>
   </g>
   <g id="xtick_12">
    <g id="line2d_15">
     <path d="M 182.92824 71.527114 
L 185.229871 71.932792 
" style="fill:none;stroke:#000000;stroke-linecap:square;stroke-width:0.8;"/>
    </g>
    <g id="text_12">
     <!-- 0.2 -->
     <g transform="translate(195.695345 77.544146)scale(0.1 -0.1)">
      <use xlink:href="#DejaVuSans-48"/>
      <use x="63.623047" xlink:href="#DejaVuSans-46"/>
      <use x="95.410156" xlink:href="#DejaVuSans-50"/>
     </g>
    </g>
   </g>
   <g id="xtick_13">
    <g id="line2d_16">
     <path d="M 183.660923 59.926193 
L 185.986686 60.32358 
" style="fill:none;stroke:#000000;stroke-linecap:square;stroke-width:0.8;"/>
    </g>
    <g id="text_13">
     <!-- 0.3 -->
     <defs>
      <path d="M 40.578125 39.3125 
Q 47.65625 37.796875 51.625 33 
Q 55.609375 28.21875 55.609375 21.1875 
Q 55.609375 10.40625 48.1875 4.484375 
Q 40.765625 -1.421875 27.09375 -1.421875 
Q 22.515625 -1.421875 17.65625 -0.515625 
Q 12.796875 0.390625 7.625 2.203125 
L 7.625 11.71875 
Q 11.71875 9.328125 16.59375 8.109375 
Q 21.484375 6.890625 26.8125 6.890625 
Q 36.078125 6.890625 40.9375 10.546875 
Q 45.796875 14.203125 45.796875 21.1875 
Q 45.796875 27.640625 41.28125 31.265625 
Q 36.765625 34.90625 28.71875 34.90625 
L 20.21875 34.90625 
L 20.21875 43.015625 
L 29.109375 43.015625 
Q 36.375 43.015625 40.234375 45.921875 
Q 44.09375 48.828125 44.09375 54.296875 
Q 44.09375 59.90625 40.109375 62.90625 
Q 36.140625 65.921875 28.71875 65.921875 
Q 24.65625 65.921875 20.015625 65.03125 
Q 15.375 64.15625 9.8125 62.3125 
L 9.8125 71.09375 
Q 15.4375 72.65625 20.34375 73.4375 
Q 25.25 74.21875 29.59375 74.21875 
Q 40.828125 74.21875 47.359375 69.109375 
Q 53.90625 64.015625 53.90625 55.328125 
Q 53.90625 49.265625 50.4375 45.09375 
Q 46.96875 40.921875 40.578125 39.3125 
z
" id="DejaVuSans-51"/>
     </defs>
     <g transform="translate(196.634056 65.97563)scale(0.1 -0.1)">
      <use xlink:href="#DejaVuSans-48"/>
      <use x="63.623047" xlink:href="#DejaVuSans-46"/>
      <use x="95.410156" xlink:href="#DejaVuSans-51"/>
     </g>
    </g>
   </g>
   <g id="xtick_14">
    <g id="line2d_17">
     <path d="M 184.408606 48.087744 
L 186.759013 48.476412 
" style="fill:none;stroke:#000000;stroke-linecap:square;stroke-width:0.8;"/>
    </g>
    <g id="text_14">
     <!-- 0.4 -->
     <g transform="translate(197.591905 54.171245)scale(0.1 -0.1)">
      <use xlink:href="#DejaVuSans-48"/>
      <use x="63.623047" xlink:href="#DejaVuSans-46"/>
      <use x="95.410156" xlink:href="#DejaVuSans-52"/>
     </g>
    </g>
   </g>
   <g id="xtick_15">
    <g id="line2d_18">
     <path d="M 185.171757 36.004396 
L 187.547335 36.383898 
" style="fill:none;stroke:#000000;stroke-linecap:square;stroke-width:0.8;"/>
    </g>
    <g id="text_15">
     <!-- 0.5 -->
     <defs>
      <path d="M 10.796875 72.90625 
L 49.515625 72.90625 
L 49.515625 64.59375 
L 19.828125 64.59375 
L 19.828125 46.734375 
Q 21.96875 47.46875 24.109375 47.828125 
Q 26.265625 48.1875 28.421875 48.1875 
Q 40.625 48.1875 47.75 41.5 
Q 54.890625 34.8125 54.890625 23.390625 
Q 54.890625 11.625 47.5625 5.09375 
Q 40.234375 -1.421875 26.90625 -1.421875 
Q 22.3125 -1.421875 17.546875 -0.640625 
Q 12.796875 0.140625 7.71875 1.703125 
L 7.71875 11.625 
Q 12.109375 9.234375 16.796875 8.0625 
Q 21.484375 6.890625 26.703125 6.890625 
Q 35.15625 6.890625 40.078125 11.328125 
Q 45.015625 15.765625 45.015625 23.390625 
Q 45.015625 31 40.078125 35.4375 
Q 35.15625 39.890625 26.703125 39.890625 
Q 22.75 39.890625 18.8125 39.015625 
Q 14.890625 38.140625 10.796875 36.28125 
z
" id="DejaVuSans-53"/>
     </defs>
     <g transform="translate(198.569485 42.123705)scale(0.1 -0.1)">
      <use xlink:href="#DejaVuSans-48"/>
      <use x="63.623047" xlink:href="#DejaVuSans-46"/>
      <use x="95.410156" xlink:href="#DejaVuSans-53"/>
     </g>
    </g>
   </g>
  </g>
  <g id="axes_1">
   <g id="Poly3DCollection_1">
    <path clip-path="url(#p699aff2c71)" d="M 78.96322 85.088519 
L 87.476407 81.616536 
L 92.633071 75.758687 
L 84.058604 76.894155 
z
" style="fill:#ffffff;stroke:#000000;"/>
    <path clip-path="url(#p699aff2c71)" d="M 84.058604 76.894155 
L 92.633071 75.758687 
L 97.665503 63.054165 
L 88.910311 57.051704 
z
" style="fill:#c3c3c3;stroke:#000000;"/>
    <path clip-path="url(#p699aff2c71)" d="M 88.910311 57.051704 
L 97.665503 63.054165 
L 102.721787 51.650877 
L 93.832552 36.541924 
z
" style="fill:#686868;stroke:#000000;"/>
    <path clip-path="url(#p699aff2c71)" d="M 87.476407 81.616536 
L 96.203666 83.137477 
L 101.255203 66.522032 
L 92.633071 75.758687 
z
" style="fill:#dfdfdf;stroke:#000000;"/>
    <path clip-path="url(#p699aff2c71)" d="M 97.665503 63.054165 
L 106.359689 50.881294 
L 111.490957 52.222536 
L 102.721787 51.650877 
z
" style="fill:#6d6d6d;stroke:#000000;"/>
    <path clip-path="url(#p699aff2c71)" d="M 92.633071 75.758687 
L 101.255203 66.522032 
L 106.359689 50.881294 
L 97.665503 63.054165 
z
" style="fill:#9c9c9c;stroke:#000000;"/>
    <path clip-path="url(#p699aff2c71)" d="M 73.619273 86.494882 
L 81.636143 62.198532 
L 87.476407 81.616536 
L 78.96322 85.088519 
z
" style="fill:#e6e6e6;stroke:#000000;"/>
    <path clip-path="url(#p699aff2c71)" d="M 96.203666 83.137477 
L 104.987641 80.859493 
L 110.119098 60.008153 
L 101.255203 66.522032 
z
" style="fill:#b8b8b8;stroke:#000000;"/>
    <path clip-path="url(#p699aff2c71)" d="M 81.636143 62.198532 
L 90.739279 73.098174 
L 96.203666 83.137477 
L 87.476407 81.616536 
z
" style="fill:#c1c1c1;stroke:#000000;"/>
    <path clip-path="url(#p699aff2c71)" d="M 141.830112 82.030544 
L 151.626499 62.190724 
L 155.625799 81.948767 
L 147.125299 65.2466 
z
" style="fill:#b4b4b4;stroke:#000000;"/>
    <path clip-path="url(#p699aff2c71)" d="M 106.359689 50.881294 
L 115.326381 41.62193 
L 120.443203 41.453483 
L 111.490957 52.222536 
z
" style="fill:#2f2f2f;stroke:#000000;"/>
    <path clip-path="url(#p699aff2c71)" d="M 90.739279 73.098174 
L 99.760015 82.469178 
L 104.987641 80.859493 
L 96.203666 83.137477 
z
" style="fill:#d6d6d6;stroke:#000000;"/>
    <path clip-path="url(#p699aff2c71)" d="M 133.102129 68.709073 
L 141.830112 82.030544 
L 147.125299 65.2466 
L 138.597908 42.879904 
z
" style="fill:#888888;stroke:#000000;"/>
    <path clip-path="url(#p699aff2c71)" d="M 101.255203 66.522032 
L 110.119098 60.008153 
L 115.326381 41.62193 
L 106.359689 50.881294 
z
" style="fill:#535353;stroke:#000000;"/>
    <path clip-path="url(#p699aff2c71)" d="M 128.091369 70.954213 
L 137.19508 72.445738 
L 141.830112 82.030544 
L 133.102129 68.709073 
z
" style="fill:#b0b0b0;stroke:#000000;"/>
    <path clip-path="url(#p699aff2c71)" d="M 104.987641 80.859493 
L 113.901093 81.027978 
L 119.113195 63.275658 
L 110.119098 60.008153 
z
" style="fill:#a4a4a4;stroke:#000000;"/>
    <path clip-path="url(#p699aff2c71)" d="M 124.263455 55.634631 
L 133.102129 68.709073 
L 138.597908 42.879904 
L 129.307699 52.620774 
z
" style="fill:#525252;stroke:#000000;"/>
    <path clip-path="url(#p699aff2c71)" d="M 68.294011 90.869413 
L 75.889559 55.710896 
L 81.636143 62.198532 
L 73.619273 86.494882 
z
" style="fill:#b1b1b1;stroke:#000000;"/>
    <path clip-path="url(#p699aff2c71)" d="M 115.326381 41.62193 
L 124.263455 55.634631 
L 129.307699 52.620774 
L 120.443203 41.453483 
z
" style="fill:#2d2d2d;stroke:#000000;"/>
    <path clip-path="url(#p699aff2c71)" d="M 99.760015 82.469178 
L 108.718026 81.161729 
L 113.901093 81.027978 
L 104.987641 80.859493 
z
" style="fill:#d5d5d5;stroke:#000000;"/>
    <path clip-path="url(#p699aff2c71)" d="M 119.113195 63.275658 
L 128.091369 70.954213 
L 133.102129 68.709073 
L 124.263455 55.634631 
z
" style="fill:#808080;stroke:#000000;"/>
    <path clip-path="url(#p699aff2c71)" d="M 113.901093 81.027978 
L 122.962391 76.779825 
L 128.091369 70.954213 
L 119.113195 63.275658 
z
" style="fill:#a5a5a5;stroke:#000000;"/>
    <path clip-path="url(#p699aff2c71)" d="M 110.119098 60.008153 
L 119.113195 63.275658 
L 124.263455 55.634631 
L 115.326381 41.62193 
z
" style="fill:#4b4b4b;stroke:#000000;"/>
    <path clip-path="url(#p699aff2c71)" d="M 108.718026 81.161729 
L 117.688844 97.656962 
L 122.962391 76.779825 
L 113.901093 81.027978 
z
" style="fill:#dcdcdc;stroke:#000000;"/>
    <path clip-path="url(#p699aff2c71)" d="M 137.19508 72.445738 
L 146.795678 60.661303 
L 151.626499 62.190724 
L 141.830112 82.030544 
z
" style="fill:#8a8a8a;stroke:#000000;"/>
    <path clip-path="url(#p699aff2c71)" d="M 62.609187 88.355797 
L 70.475645 63.802931 
L 75.889559 55.710896 
L 68.294011 90.869413 
z
" style="fill:#a4a4a4;stroke:#000000;"/>
    <path clip-path="url(#p699aff2c71)" d="M 122.962391 76.779825 
L 132.25018 69.681054 
L 137.19508 72.445738 
L 128.091369 70.954213 
z
" style="fill:#969696;stroke:#000000;"/>
    <path clip-path="url(#p699aff2c71)" d="M 117.688844 97.656962 
L 126.925113 84.567815 
L 132.25018 69.681054 
L 122.962391 76.779825 
z
" style="fill:#c4c4c4;stroke:#000000;"/>
    <path clip-path="url(#p699aff2c71)" d="M 151.626499 62.190724 
L 161.75473 44.512956 
L 166.096218 53.919221 
L 155.625799 81.948767 
z
" style="fill:#595959;stroke:#000000;"/>
    <path clip-path="url(#p699aff2c71)" d="M 85.061907 62.538657 
L 94.280481 72.778101 
L 99.760015 82.469178 
L 90.739279 73.098174 
z
" style="fill:#939393;stroke:#000000;"/>
    <path clip-path="url(#p699aff2c71)" d="M 94.280481 72.778101 
L 103.373126 72.124387 
L 108.718026 81.161729 
L 99.760015 82.469178 
z
" style="fill:#a5a5a5;stroke:#000000;"/>
    <path clip-path="url(#p699aff2c71)" d="M 103.373126 72.124387 
L 112.564147 82.648568 
L 117.688844 97.656962 
L 108.718026 81.161729 
z
" style="fill:#c4c4c4;stroke:#000000;"/>
    <path clip-path="url(#p699aff2c71)" d="M 75.889559 55.710896 
L 85.061907 62.538657 
L 90.739279 73.098174 
L 81.636143 62.198532 
z
" style="fill:#606060;stroke:#000000;"/>
    <path clip-path="url(#p699aff2c71)" d="M 112.564147 82.648568 
L 121.72021 90.377446 
L 126.925113 84.567815 
L 117.688844 97.656962 
z
" style="fill:#dcdcdc;stroke:#000000;"/>
    <path clip-path="url(#p699aff2c71)" d="M 132.25018 69.681054 
L 141.460693 73.676028 
L 146.795678 60.661303 
L 137.19508 72.445738 
z
" style="fill:#757575;stroke:#000000;"/>
    <path clip-path="url(#p699aff2c71)" d="M 126.925113 84.567815 
L 136.079323 89.315426 
L 141.460693 73.676028 
L 132.25018 69.681054 
z
" style="fill:#a5a5a5;stroke:#000000;"/>
    <path clip-path="url(#p699aff2c71)" d="M 56.210186 73.744251 
L 64.750075 64.941424 
L 70.475645 63.802931 
L 62.609187 88.355797 
z
" style="fill:#838383;stroke:#000000;"/>
    <path clip-path="url(#p699aff2c71)" d="M 121.72021 90.377446 
L 130.939104 93.664079 
L 136.079323 89.315426 
L 126.925113 84.567815 
z
" style="fill:#d5d5d5;stroke:#000000;"/>
    <path clip-path="url(#p699aff2c71)" d="M 161.75473 44.512956 
L 170.509954 61.004748 
L 175.86605 48.47347 
L 166.096218 53.919221 
z
" style="fill:#151515;stroke:#000000;"/>
    <path clip-path="url(#p699aff2c71)" d="M 130.939104 93.664079 
L 140.147376 99.479887 
L 145.598754 83.237134 
L 136.079323 89.315426 
z
" style="fill:#d6d6d6;stroke:#000000;"/>
    <path clip-path="url(#p699aff2c71)" d="M 136.079323 89.315426 
L 145.598754 83.237134 
L 151.100179 66.724075 
L 141.460693 73.676028 
z
" style="fill:#939393;stroke:#000000;"/>
    <path clip-path="url(#p699aff2c71)" d="M 146.795678 60.661303 
L 156.601205 51.275494 
L 161.75473 44.512956 
L 151.626499 62.190724 
z
" style="fill:#1f1f1f;stroke:#000000;"/>
    <path clip-path="url(#p699aff2c71)" d="M 98.030119 80.751302 
L 107.237281 82.634732 
L 112.564147 82.648568 
L 103.373126 72.124387 
z
" style="fill:#969696;stroke:#000000;"/>
    <path clip-path="url(#p699aff2c71)" d="M 88.644918 65.480703 
L 98.030119 80.751302 
L 103.373126 72.124387 
L 94.280481 72.778101 
z
" style="fill:#757575;stroke:#000000;"/>
    <path clip-path="url(#p699aff2c71)" d="M 70.475645 63.802931 
L 79.193342 52.772328 
L 85.061907 62.538657 
L 75.889559 55.710896 
z
" style="fill:#2f2f2f;stroke:#000000;"/>
    <path clip-path="url(#p699aff2c71)" d="M 141.460693 73.676028 
L 151.100179 66.724075 
L 156.601205 51.275494 
L 146.795678 60.661303 
z
" style="fill:#434343;stroke:#000000;"/>
    <path clip-path="url(#p699aff2c71)" d="M 79.193342 52.772328 
L 88.644918 65.480703 
L 94.280481 72.778101 
L 85.061907 62.538657 
z
" style="fill:#434343;stroke:#000000;"/>
    <path clip-path="url(#p699aff2c71)" d="M 107.237281 82.634732 
L 116.556566 78.172488 
L 121.72021 90.377446 
L 112.564147 82.648568 
z
" style="fill:#a5a5a5;stroke:#000000;"/>
    <path clip-path="url(#p699aff2c71)" d="M 156.601205 51.275494 
L 165.541782 65.57206 
L 170.509954 61.004748 
L 161.75473 44.512956 
z
" style="fill:#1b1b1b;stroke:#000000;"/>
    <path clip-path="url(#p699aff2c71)" d="M 92.771579 96.474137 
L 101.827823 86.251922 
L 107.237281 82.634732 
L 98.030119 80.751302 
z
" style="fill:#b0b0b0;stroke:#000000;"/>
    <path clip-path="url(#p699aff2c71)" d="M 140.147376 99.479887 
L 149.50534 101.420483 
L 155.39624 75.502627 
L 145.598754 83.237134 
z
" style="fill:#c1c1c1;stroke:#000000;"/>
    <path clip-path="url(#p699aff2c71)" d="M 83.17565 72.795416 
L 92.771579 96.474137 
L 98.030119 80.751302 
L 88.644918 65.480703 
z
" style="fill:#8a8a8a;stroke:#000000;"/>
    <path clip-path="url(#p699aff2c71)" d="M 78.208944 98.945424 
L 86.989273 85.185056 
L 92.771579 96.474137 
L 83.17565 72.795416 
z
" style="fill:#b4b4b4;stroke:#000000;"/>
    <path clip-path="url(#p699aff2c71)" d="M 116.556566 78.172488 
L 126.001125 78.191436 
L 130.939104 93.664079 
L 121.72021 90.377446 
z
" style="fill:#a4a4a4;stroke:#000000;"/>
    <path clip-path="url(#p699aff2c71)" d="M 135.337546 88.345992 
L 144.528542 101.430114 
L 149.50534 101.420483 
L 140.147376 99.479887 
z
" style="fill:#dfdfdf;stroke:#000000;"/>
    <path clip-path="url(#p699aff2c71)" d="M 151.100179 66.724075 
L 160.820108 63.127119 
L 165.541782 65.57206 
L 156.601205 51.275494 
z
" style="fill:#2f2f2f;stroke:#000000;"/>
    <path clip-path="url(#p699aff2c71)" d="M 126.001125 78.191436 
L 135.337546 88.345992 
L 140.147376 99.479887 
L 130.939104 93.664079 
z
" style="fill:#b8b8b8;stroke:#000000;"/>
    <path clip-path="url(#p699aff2c71)" d="M 145.598754 83.237134 
L 155.39624 75.502627 
L 160.820108 63.127119 
L 151.100179 66.724075 
z
" style="fill:#606060;stroke:#000000;"/>
    <path clip-path="url(#p699aff2c71)" d="M 49.487844 58.066164 
L 58.551814 57.939169 
L 64.750075 64.941424 
L 56.210186 73.744251 
z
" style="fill:#353535;stroke:#000000;"/>
    <path clip-path="url(#p699aff2c71)" d="M 64.750075 64.941424 
L 73.38644 51.542459 
L 79.193342 52.772328 
L 70.475645 63.802931 
z
" style="fill:#1b1b1b;stroke:#000000;"/>
    <path clip-path="url(#p699aff2c71)" d="M 62.898657 85.209719 
L 72.206188 90.419005 
L 78.208944 98.945424 
L 68.058191 66.787264 
z
" style="fill:#989898;stroke:#000000;"/>
    <path clip-path="url(#p699aff2c71)" d="M 68.058191 66.787264 
L 78.208944 98.945424 
L 83.17565 72.795416 
L 73.38644 51.542459 
z
" style="fill:#595959;stroke:#000000;"/>
    <path clip-path="url(#p699aff2c71)" d="M 73.38644 51.542459 
L 83.17565 72.795416 
L 88.644918 65.480703 
L 79.193342 52.772328 
z
" style="fill:#1f1f1f;stroke:#000000;"/>
    <path clip-path="url(#p699aff2c71)" d="M 101.827823 86.251922 
L 111.163126 76.13834 
L 116.556566 78.172488 
L 107.237281 82.634732 
z
" style="fill:#808080;stroke:#000000;"/>
    <path clip-path="url(#p699aff2c71)" d="M 86.989273 85.185056 
L 96.028184 65.319033 
L 101.827823 86.251922 
L 92.771579 96.474137 
z
" style="fill:#888888;stroke:#000000;"/>
    <path clip-path="url(#p699aff2c71)" d="M 72.206188 90.419005 
L 81.091945 78.372576 
L 86.989273 85.185056 
L 78.208944 98.945424 
z
" style="fill:#9f9f9f;stroke:#000000;"/>
    <path clip-path="url(#p699aff2c71)" d="M 58.551814 57.939169 
L 68.058191 66.787264 
L 73.38644 51.542459 
L 64.750075 64.941424 
z
" style="fill:#151515;stroke:#000000;"/>
    <path clip-path="url(#p699aff2c71)" d="M 52.792567 63.572962 
L 62.898657 85.209719 
L 68.058191 66.787264 
L 58.551814 57.939169 
z
" style="fill:#363636;stroke:#000000;"/>
    <path clip-path="url(#p699aff2c71)" d="M 130.305315 77.936642 
L 139.633693 94.172476 
L 144.528542 101.430114 
L 135.337546 88.345992 
z
" style="fill:#9c9c9c;stroke:#000000;"/>
    <path clip-path="url(#p699aff2c71)" d="M 43.086946 52.860955 
L 52.792567 63.572962 
L 58.551814 57.939169 
L 49.487844 58.066164 
z
" style="stroke:#000000;"/>
    <path clip-path="url(#p699aff2c71)" d="M 111.163126 76.13834 
L 120.790805 64.892609 
L 126.001125 78.191436 
L 116.556566 78.172488 
z
" style="fill:#4b4b4b;stroke:#000000;"/>
    <path clip-path="url(#p699aff2c71)" d="M 96.028184 65.319033 
L 105.656742 78.853079 
L 111.163126 76.13834 
L 101.827823 86.251922 
z
" style="fill:#525252;stroke:#000000;"/>
    <path clip-path="url(#p699aff2c71)" d="M 120.790805 64.892609 
L 130.305315 77.936642 
L 135.337546 88.345992 
L 126.001125 78.191436 
z
" style="fill:#535353;stroke:#000000;"/>
    <path clip-path="url(#p699aff2c71)" d="M 81.091945 78.372576 
L 90.082121 54.589018 
L 96.028184 65.319033 
L 86.989273 85.185056 
z
" style="fill:#262626;stroke:#000000;"/>
    <path clip-path="url(#p699aff2c71)" d="M 105.656742 78.853079 
L 115.263632 70.476812 
L 120.790805 64.892609 
L 111.163126 76.13834 
z
" style="fill:#2d2d2d;stroke:#000000;"/>
    <path clip-path="url(#p699aff2c71)" d="M 124.840535 85.254764 
L 134.536987 88.087221 
L 139.633693 94.172476 
L 130.305315 77.936642 
z
" style="fill:#6d6d6d;stroke:#000000;"/>
    <path clip-path="url(#p699aff2c71)" d="M 100.062826 81.94333 
L 109.690824 97.723719 
L 115.263632 70.476812 
L 105.656742 78.853079 
z
" style="fill:#565656;stroke:#000000;"/>
    <path clip-path="url(#p699aff2c71)" d="M 109.690824 97.723719 
L 119.302755 96.108062 
L 124.840535 85.254764 
L 115.263632 70.476812 
z
" style="fill:#6b6b6b;stroke:#000000;"/>
    <path clip-path="url(#p699aff2c71)" d="M 115.263632 70.476812 
L 124.840535 85.254764 
L 130.305315 77.936642 
L 120.790805 64.892609 
z
" style="fill:#2f2f2f;stroke:#000000;"/>
    <path clip-path="url(#p699aff2c71)" d="M 90.082121 54.589018 
L 100.062826 81.94333 
L 105.656742 78.853079 
L 96.028184 65.319033 
z
" style="fill:#161616;stroke:#000000;"/>
    <path clip-path="url(#p699aff2c71)" d="M 119.302755 96.108062 
L 129.340561 77.626241 
L 134.536987 88.087221 
L 124.840535 85.254764 
z
" style="fill:#5c5c5c;stroke:#000000;"/>
   </g>
  </g>
 </g>
 <defs>
  <clipPath id="p699aff2c71">
   <rect height="122.4" width="194.4" x="10.8" y="10.8"/>
  </clipPath>
 </defs>
</svg>
