<?xml version="1.0" encoding="utf-8" standalone="no"?>
<!DOCTYPE svg PUBLIC "-//W3C//DTD SVG 1.1//EN"
  "http://www.w3.org/Graphics/SVG/1.1/DTD/svg11.dtd">
<!-- Created with matplotlib (https://matplotlib.org/) -->
<svg height="144pt" version="1.1" viewBox="0 0 216 144" width="216pt" xmlns="http://www.w3.org/2000/svg" xmlns:xlink="http://www.w3.org/1999/xlink">
 <defs>
  <style type="text/css">
*{stroke-linecap:butt;stroke-linejoin:round;}
  </style>
 </defs>
 <g id="figure_1">
  <g id="patch_1">
   <path d="M 0 144 
L 216 144 
L 216 0 
L 0 0 
z
" style="fill:#ffffff;"/>
  </g>
  <g id="patch_2">
   <path d="M 10.8 133.2 
L 205.2 133.2 
L 205.2 10.8 
L 10.8 10.8 
z
" style="fill:#ffffff;"/>
  </g>
  <g id="pane3d_1">
   <g id="patch_3">
    <path d="M 36.570724 106.153914 
L 92.209021 76.144207 
L 91.282702 18.800583 
L 32.542206 45.763687 
" style="fill:#f2f2f2;opacity:0.5;stroke:#f2f2f2;stroke-linejoin:miter;"/>
   </g>
  </g>
  <g id="pane3d_2">
   <g id="patch_4">
    <path d="M 92.209021 76.144207 
L 182.337831 92.92157 
L 186.108713 33.848772 
L 91.282702 18.800583 
" style="fill:#e6e6e6;opacity:0.5;stroke:#e6e6e6;stroke-linejoin:miter;"/>
   </g>
  </g>
  <g id="pane3d_3">
   <g id="patch_5">
    <path d="M 36.570724 106.153914 
L 131.398411 125.693886 
L 182.337831 92.92157 
L 92.209021 76.144207 
" style="fill:#ececec;opacity:0.5;stroke:#ececec;stroke-linejoin:miter;"/>
   </g>
  </g>
  <g id="axis3d_1">
   <g id="line2d_1">
    <path d="M 36.570724 106.153914 
L 131.398411 125.693886 
" style="fill:none;stroke:#000000;stroke-linecap:square;stroke-width:0.8;"/>
   </g>
   <g id="Line3DCollection_1">
    <path d="M 42.352032 107.345197 
L 97.721186 77.170289 
L 97.070293 19.719031 
" style="fill:none;stroke:#b0b0b0;stroke-width:0.8;"/>
    <path d="M 60.176387 111.018042 
L 114.701544 80.331161 
L 114.908793 22.54987 
" style="fill:none;stroke:#b0b0b0;stroke-width:0.8;"/>
    <path d="M 78.316002 114.755849 
L 131.96025 83.543847 
L 133.054712 25.429493 
" style="fill:none;stroke:#b0b0b0;stroke-width:0.8;"/>
    <path d="M 96.779317 118.560356 
L 149.504207 86.809632 
L 151.516063 28.359174 
" style="fill:none;stroke:#b0b0b0;stroke-width:0.8;"/>
    <path d="M 115.575075 122.433366 
L 167.340544 90.129844 
L 170.301146 31.340228 
" style="fill:none;stroke:#b0b0b0;stroke-width:0.8;"/>
   </g>
   <g id="xtick_1">
    <g id="line2d_2">
     <path d="M 42.829066 107.085224 
L 41.396185 107.866111 
" style="fill:none;stroke:#000000;stroke-linecap:square;stroke-width:0.8;"/>
    </g>
    <g id="text_1">
     <!-- 0 -->
     <defs>
      <path d="M 31.78125 66.40625 
Q 24.171875 66.40625 20.328125 58.90625 
Q 16.5 51.421875 16.5 36.375 
Q 16.5 21.390625 20.328125 13.890625 
Q 24.171875 6.390625 31.78125 6.390625 
Q 39.453125 6.390625 43.28125 13.890625 
Q 47.125 21.390625 47.125 36.375 
Q 47.125 51.421875 43.28125 58.90625 
Q 39.453125 66.40625 31.78125 66.40625 
z
M 31.78125 74.21875 
Q 44.046875 74.21875 50.515625 64.515625 
Q 56.984375 54.828125 56.984375 36.375 
Q 56.984375 17.96875 50.515625 8.265625 
Q 44.046875 -1.421875 31.78125 -1.421875 
Q 19.53125 -1.421875 13.0625 8.265625 
Q 6.59375 17.96875 6.59375 36.375 
Q 6.59375 54.828125 13.0625 64.515625 
Q 19.53125 74.21875 31.78125 74.21875 
z
" id="DejaVuSans-48"/>
     </defs>
     <g transform="translate(31.317754 127.519522)scale(0.1 -0.1)">
      <use xlink:href="#DejaVuSans-48"/>
     </g>
    </g>
   </g>
   <g id="xtick_2">
    <g id="line2d_3">
     <path d="M 60.646443 110.753493 
L 59.234506 111.548134 
" style="fill:none;stroke:#000000;stroke-linecap:square;stroke-width:0.8;"/>
    </g>
    <g id="text_2">
     <!-- 2 -->
     <defs>
      <path d="M 19.1875 8.296875 
L 53.609375 8.296875 
L 53.609375 0 
L 7.328125 0 
L 7.328125 8.296875 
Q 12.9375 14.109375 22.625 23.890625 
Q 32.328125 33.6875 34.8125 36.53125 
Q 39.546875 41.84375 41.421875 45.53125 
Q 43.3125 49.21875 43.3125 52.78125 
Q 43.3125 58.59375 39.234375 62.25 
Q 35.15625 65.921875 28.609375 65.921875 
Q 23.96875 65.921875 18.8125 64.3125 
Q 13.671875 62.703125 7.8125 59.421875 
L 7.8125 69.390625 
Q 13.765625 71.78125 18.9375 73 
Q 24.125 74.21875 28.421875 74.21875 
Q 39.75 74.21875 46.484375 68.546875 
Q 53.21875 62.890625 53.21875 53.421875 
Q 53.21875 48.921875 51.53125 44.890625 
Q 49.859375 40.875 45.40625 35.40625 
Q 44.1875 33.984375 37.640625 27.21875 
Q 31.109375 20.453125 19.1875 8.296875 
z
" id="DejaVuSans-50"/>
     </defs>
     <g transform="translate(49.138093 131.316419)scale(0.1 -0.1)">
      <use xlink:href="#DejaVuSans-50"/>
     </g>
    </g>
   </g>
   <g id="xtick_3">
    <g id="line2d_4">
     <path d="M 78.778759 114.486601 
L 77.388733 115.295365 
" style="fill:none;stroke:#000000;stroke-linecap:square;stroke-width:0.8;"/>
    </g>
    <g id="text_3">
     <!-- 4 -->
     <defs>
      <path d="M 37.796875 64.3125 
L 12.890625 25.390625 
L 37.796875 25.390625 
z
M 35.203125 72.90625 
L 47.609375 72.90625 
L 47.609375 25.390625 
L 58.015625 25.390625 
L 58.015625 17.1875 
L 47.609375 17.1875 
L 47.609375 0 
L 37.796875 0 
L 37.796875 17.1875 
L 4.890625 17.1875 
L 4.890625 26.703125 
z
" id="DejaVuSans-52"/>
     </defs>
     <g transform="translate(67.274783 135.18072)scale(0.1 -0.1)">
      <use xlink:href="#DejaVuSans-52"/>
     </g>
    </g>
   </g>
   <g id="xtick_4">
    <g id="line2d_5">
     <path d="M 97.234438 118.286285 
L 95.867334 119.109549 
" style="fill:none;stroke:#000000;stroke-linecap:square;stroke-width:0.8;"/>
    </g>
    <g id="text_4">
     <!-- 6 -->
     <defs>
      <path d="M 33.015625 40.375 
Q 26.375 40.375 22.484375 35.828125 
Q 18.609375 31.296875 18.609375 23.390625 
Q 18.609375 15.53125 22.484375 10.953125 
Q 26.375 6.390625 33.015625 6.390625 
Q 39.65625 6.390625 43.53125 10.953125 
Q 47.40625 15.53125 47.40625 23.390625 
Q 47.40625 31.296875 43.53125 35.828125 
Q 39.65625 40.375 33.015625 40.375 
z
M 52.59375 71.296875 
L 52.59375 62.3125 
Q 48.875 64.0625 45.09375 64.984375 
Q 41.3125 65.921875 37.59375 65.921875 
Q 27.828125 65.921875 22.671875 59.328125 
Q 17.53125 52.734375 16.796875 39.40625 
Q 19.671875 43.65625 24.015625 45.921875 
Q 28.375 48.1875 33.59375 48.1875 
Q 44.578125 48.1875 50.953125 41.515625 
Q 57.328125 34.859375 57.328125 23.390625 
Q 57.328125 12.15625 50.6875 5.359375 
Q 44.046875 -1.421875 33.015625 -1.421875 
Q 20.359375 -1.421875 13.671875 8.265625 
Q 6.984375 17.96875 6.984375 36.375 
Q 6.984375 53.65625 15.1875 63.9375 
Q 23.390625 74.21875 37.203125 74.21875 
Q 40.921875 74.21875 44.703125 73.484375 
Q 48.484375 72.75 52.59375 71.296875 
z
" id="DejaVuSans-54"/>
     </defs>
     <g transform="translate(85.736323 139.114235)scale(0.1 -0.1)">
      <use xlink:href="#DejaVuSans-54"/>
     </g>
    </g>
   </g>
   <g id="xtick_5">
    <g id="line2d_6">
     <path d="M 116.022207 122.154339 
L 114.679081 122.992499 
" style="fill:none;stroke:#000000;stroke-linecap:square;stroke-width:0.8;"/>
    </g>
    <g id="text_5">
     <!-- 8 -->
     <defs>
      <path d="M 31.78125 34.625 
Q 24.75 34.625 20.71875 30.859375 
Q 16.703125 27.09375 16.703125 20.515625 
Q 16.703125 13.921875 20.71875 10.15625 
Q 24.75 6.390625 31.78125 6.390625 
Q 38.8125 6.390625 42.859375 10.171875 
Q 46.921875 13.96875 46.921875 20.515625 
Q 46.921875 27.09375 42.890625 30.859375 
Q 38.875 34.625 31.78125 34.625 
z
M 21.921875 38.8125 
Q 15.578125 40.375 12.03125 44.71875 
Q 8.5 49.078125 8.5 55.328125 
Q 8.5 64.0625 14.71875 69.140625 
Q 20.953125 74.21875 31.78125 74.21875 
Q 42.671875 74.21875 48.875 69.140625 
Q 55.078125 64.0625 55.078125 55.328125 
Q 55.078125 49.078125 51.53125 44.71875 
Q 48 40.375 41.703125 38.8125 
Q 48.828125 37.15625 52.796875 32.3125 
Q 56.78125 27.484375 56.78125 20.515625 
Q 56.78125 9.90625 50.3125 4.234375 
Q 43.84375 -1.421875 31.78125 -1.421875 
Q 19.734375 -1.421875 13.25 4.234375 
Q 6.78125 9.90625 6.78125 20.515625 
Q 6.78125 27.484375 10.78125 32.3125 
Q 14.796875 37.15625 21.921875 38.8125 
z
M 18.3125 54.390625 
Q 18.3125 48.734375 21.84375 45.5625 
Q 25.390625 42.390625 31.78125 42.390625 
Q 38.140625 42.390625 41.71875 45.5625 
Q 45.3125 48.734375 45.3125 54.390625 
Q 45.3125 60.0625 41.71875 63.234375 
Q 38.140625 66.40625 31.78125 66.40625 
Q 25.390625 66.40625 21.84375 63.234375 
Q 18.3125 60.0625 18.3125 54.390625 
z
" id="DejaVuSans-56"/>
     </defs>
     <g transform="translate(104.531519 143.11884)scale(0.1 -0.1)">
      <use xlink:href="#DejaVuSans-56"/>
     </g>
    </g>
   </g>
  </g>
  <g id="axis3d_2">
   <g id="line2d_7">
    <path d="M 182.337831 92.92157 
L 131.398411 125.693886 
" style="fill:none;stroke:#000000;stroke-linecap:square;stroke-width:0.8;"/>
   </g>
   <g id="Line3DCollection_2">
    <path d="M 36.564365 43.917433 
L 40.366648 104.106501 
L 134.88463 123.450997 
" style="fill:none;stroke:#b0b0b0;stroke-width:0.8;"/>
    <path d="M 48.570044 38.406578 
L 51.70909 97.988712 
L 145.292142 116.755234 
" style="fill:none;stroke:#b0b0b0;stroke-width:0.8;"/>
    <path d="M 60.209248 33.063942 
L 62.722561 92.04836 
L 155.384181 110.262433 
" style="fill:none;stroke:#b0b0b0;stroke-width:0.8;"/>
    <path d="M 71.498505 27.88194 
L 73.421169 86.277837 
L 165.174876 103.963505 
" style="fill:none;stroke:#b0b0b0;stroke-width:0.8;"/>
    <path d="M 82.453363 22.853433 
L 83.818227 80.669962 
L 174.677526 97.849893 
" style="fill:none;stroke:#b0b0b0;stroke-width:0.8;"/>
   </g>
   <g id="xtick_6">
    <g id="line2d_8">
     <path d="M 134.093598 123.2891 
L 136.468463 123.775151 
" style="fill:none;stroke:#000000;stroke-linecap:square;stroke-width:0.8;"/>
    </g>
    <g id="text_6">
     <!-- 0 -->
     <g transform="translate(145.296339 142.045096)scale(0.1 -0.1)">
      <use xlink:href="#DejaVuSans-48"/>
     </g>
    </g>
   </g>
   <g id="xtick_7">
    <g id="line2d_9">
     <path d="M 144.509466 116.598281 
L 146.859218 117.069485 
" style="fill:none;stroke:#000000;stroke-linecap:square;stroke-width:0.8;"/>
    </g>
    <g id="text_7">
     <!-- 2 -->
     <g transform="translate(155.4846 135.186893)scale(0.1 -0.1)">
      <use xlink:href="#DejaVuSans-50"/>
     </g>
    </g>
   </g>
   <g id="xtick_8">
    <g id="line2d_10">
     <path d="M 154.609721 110.110201 
L 156.934779 110.567227 
" style="fill:none;stroke:#000000;stroke-linecap:square;stroke-width:0.8;"/>
    </g>
    <g id="text_8">
     <!-- 4 -->
     <g transform="translate(165.364333 128.536375)scale(0.1 -0.1)">
      <use xlink:href="#DejaVuSans-52"/>
     </g>
    </g>
   </g>
   <g id="xtick_9">
    <g id="line2d_11">
     <path d="M 164.408495 103.815784 
L 166.709275 104.259263 
" style="fill:none;stroke:#000000;stroke-linecap:square;stroke-width:0.8;"/>
    </g>
    <g id="text_9">
     <!-- 6 -->
     <g transform="translate(174.949345 122.084248)scale(0.1 -0.1)">
      <use xlink:href="#DejaVuSans-54"/>
     </g>
    </g>
   </g>
   <g id="xtick_10">
    <g id="line2d_12">
     <path d="M 173.919086 97.706485 
L 176.196001 98.137011 
" style="fill:none;stroke:#000000;stroke-linecap:square;stroke-width:0.8;"/>
    </g>
    <g id="text_10">
     <!-- 8 -->
     <g transform="translate(184.252629 115.821765)scale(0.1 -0.1)">
      <use xlink:href="#DejaVuSans-56"/>
     </g>
    </g>
   </g>
  </g>
  <g id="axis3d_3">
   <g id="line2d_13">
    <path d="M 182.337831 92.92157 
L 186.108713 33.848772 
" style="fill:none;stroke:#000000;stroke-linecap:square;stroke-width:0.8;"/>
   </g>
   <g id="Line3DCollection_3">
    <path d="M 182.409553 91.798014 
L 92.191365 75.051207 
L 36.494231 105.007238 
" style="fill:none;stroke:#b0b0b0;stroke-width:0.8;"/>
    <path d="M 183.105451 80.896418 
L 92.020128 64.45079 
L 35.751783 93.877425 
" style="fill:none;stroke:#b0b0b0;stroke-width:0.8;"/>
    <path d="M 183.814973 69.781382 
L 91.84568 53.651606 
L 34.994312 82.522424 
" style="fill:none;stroke:#b0b0b0;stroke-width:0.8;"/>
    <path d="M 184.538525 58.446575 
L 91.66793 42.648011 
L 34.221359 70.935331 
" style="fill:none;stroke:#b0b0b0;stroke-width:0.8;"/>
    <path d="M 185.276526 46.885413 
L 91.486783 31.434147 
L 33.432443 59.108956 
" style="fill:none;stroke:#b0b0b0;stroke-width:0.8;"/>
    <path d="M 186.029413 35.091048 
L 91.302141 20.003926 
L 32.627067 47.03581 
" style="fill:none;stroke:#b0b0b0;stroke-width:0.8;"/>
   </g>
   <g id="xtick_11">
    <g id="line2d_14">
     <path d="M 181.656811 91.658286 
L 183.916603 92.077761 
" style="fill:none;stroke:#000000;stroke-linecap:square;stroke-width:0.8;"/>
    </g>
    <g id="text_11">
     <!-- 0.0 -->
     <defs>
      <path d="M 10.6875 12.40625 
L 21 12.40625 
L 21 0 
L 10.6875 0 
z
" id="DejaVuSans-46"/>
     </defs>
     <g transform="translate(194.066208 97.621385)scale(0.1 -0.1)">
      <use xlink:href="#DejaVuSans-48"/>
      <use x="63.623047" xlink:href="#DejaVuSans-46"/>
      <use x="95.410156" xlink:href="#DejaVuSans-48"/>
     </g>
    </g>
   </g>
   <g id="xtick_12">
    <g id="line2d_15">
     <path d="M 182.345171 80.759148 
L 184.627608 81.171247 
" style="fill:none;stroke:#000000;stroke-linecap:square;stroke-width:0.8;"/>
    </g>
    <g id="text_12">
     <!-- 0.2 -->
     <g transform="translate(194.948262 86.751086)scale(0.1 -0.1)">
      <use xlink:href="#DejaVuSans-48"/>
      <use x="63.623047" xlink:href="#DejaVuSans-46"/>
      <use x="95.410156" xlink:href="#DejaVuSans-50"/>
     </g>
    </g>
   </g>
   <g id="xtick_13">
    <g id="line2d_16">
     <path d="M 183.047003 69.646694 
L 185.352544 70.051045 
" style="fill:none;stroke:#000000;stroke-linecap:square;stroke-width:0.8;"/>
    </g>
    <g id="text_13">
     <!-- 0.4 -->
     <g transform="translate(195.847509 75.668913)scale(0.1 -0.1)">
      <use xlink:href="#DejaVuSans-48"/>
      <use x="63.623047" xlink:href="#DejaVuSans-46"/>
      <use x="95.410156" xlink:href="#DejaVuSans-52"/>
     </g>
    </g>
   </g>
   <g id="xtick_14">
    <g id="line2d_17">
     <path d="M 183.762706 58.314597 
L 186.091824 58.710812 
" style="fill:none;stroke:#000000;stroke-linecap:square;stroke-width:0.8;"/>
    </g>
    <g id="text_14">
     <!-- 0.6 -->
     <g transform="translate(196.764455 64.368612)scale(0.1 -0.1)">
      <use xlink:href="#DejaVuSans-48"/>
      <use x="63.623047" xlink:href="#DejaVuSans-46"/>
      <use x="95.410156" xlink:href="#DejaVuSans-54"/>
     </g>
    </g>
   </g>
   <g id="xtick_15">
    <g id="line2d_18">
     <path d="M 184.492698 46.756282 
L 186.845877 47.143954 
" style="fill:none;stroke:#000000;stroke-linecap:square;stroke-width:0.8;"/>
    </g>
    <g id="text_15">
     <!-- 0.8 -->
     <g transform="translate(197.699628 52.843677)scale(0.1 -0.1)">
      <use xlink:href="#DejaVuSans-48"/>
      <use x="63.623047" xlink:href="#DejaVuSans-46"/>
      <use x="95.410156" xlink:href="#DejaVuSans-56"/>
     </g>
    </g>
   </g>
   <g id="xtick_16">
    <g id="line2d_19">
     <path d="M 185.237409 34.964906 
L 187.615152 35.343607 
" style="fill:none;stroke:#000000;stroke-linecap:square;stroke-width:0.8;"/>
    </g>
    <g id="text_16">
     <!-- 1.0 -->
     <defs>
      <path d="M 12.40625 8.296875 
L 28.515625 8.296875 
L 28.515625 63.921875 
L 10.984375 60.40625 
L 10.984375 69.390625 
L 28.421875 72.90625 
L 38.28125 72.90625 
L 38.28125 8.296875 
L 54.390625 8.296875 
L 54.390625 0 
L 12.40625 0 
z
" id="DejaVuSans-49"/>
     </defs>
     <g transform="translate(198.653578 41.087344)scale(0.1 -0.1)">
      <use xlink:href="#DejaVuSans-49"/>
      <use x="63.623047" xlink:href="#DejaVuSans-46"/>
      <use x="95.410156" xlink:href="#DejaVuSans-48"/>
     </g>
    </g>
   </g>
  </g>
  <g id="axes_1">
   <g id="Poly3DCollection_1">
    <path clip-path="url(#p84c9a3ffc8)" d="M 89.154069 70.063711 
L 97.838112 78.412096 
L 102.910462 79.447861 
L 94.420764 77.862197 
z
" style="fill:#ebebeb;stroke:#000000;"/>
    <path clip-path="url(#p84c9a3ffc8)" d="M 97.838112 78.412096 
L 106.475497 82.50885 
L 111.469565 81.046488 
L 102.910462 79.447861 
z
" style="fill:#fefefe;stroke:#000000;"/>
    <path clip-path="url(#p84c9a3ffc8)" d="M 106.475497 82.50885 
L 115.162404 82.610846 
L 120.098928 82.658239 
L 111.469565 81.046488 
z
" style="fill:#ffffff;stroke:#000000;"/>
    <path clip-path="url(#p84c9a3ffc8)" d="M 84.153748 80.974516 
L 92.72233 81.416387 
L 97.838112 78.412096 
L 89.154069 70.063711 
z
" style="fill:#dfdfdf;stroke:#000000;"/>
    <path clip-path="url(#p84c9a3ffc8)" d="M 115.162404 82.610846 
L 123.939199 83.233915 
L 128.799421 84.283274 
L 120.098928 82.658239 
z
" style="fill:#fafafa;stroke:#000000;"/>
    <path clip-path="url(#p84c9a3ffc8)" d="M 92.72233 81.416387 
L 101.387892 82.80109 
L 106.475497 82.50885 
L 97.838112 78.412096 
z
" style="fill:#efefef;stroke:#000000;"/>
    <path clip-path="url(#p84c9a3ffc8)" d="M 101.387892 82.80109 
L 110.13038 85.690126 
L 115.162404 82.610846 
L 106.475497 82.50885 
z
" style="fill:#f2f2f2;stroke:#000000;"/>
    <path clip-path="url(#p84c9a3ffc8)" d="M 78.824987 80.149995 
L 87.481205 81.851691 
L 92.72233 81.416387 
L 84.153748 80.974516 
z
" style="fill:#e4e4e4;stroke:#000000;"/>
    <path clip-path="url(#p84c9a3ffc8)" d="M 123.939199 83.233915 
L 132.792125 84.538141 
L 137.571924 85.921759 
L 128.799421 84.283274 
z
" style="fill:#f8f8f8;stroke:#000000;"/>
    <path clip-path="url(#p84c9a3ffc8)" d="M 110.13038 85.690126 
L 118.933645 87.671427 
L 123.939199 83.233915 
L 115.162404 82.610846 
z
" style="fill:#f0f0f0;stroke:#000000;"/>
    <path clip-path="url(#p84c9a3ffc8)" d="M 87.481205 81.851691 
L 96.23405 85.52461 
L 101.387892 82.80109 
L 92.72233 81.416387 
z
" style="fill:#e5e5e5;stroke:#000000;"/>
    <path clip-path="url(#p84c9a3ffc8)" d="M 132.792125 84.538141 
L 141.701566 86.703374 
L 146.417338 87.573862 
L 137.571924 85.921759 
z
" style="fill:#f8f8f8;stroke:#000000;"/>
    <path clip-path="url(#p84c9a3ffc8)" d="M 96.23405 85.52461 
L 105.030018 89.391669 
L 110.13038 85.690126 
L 101.387892 82.80109 
z
" style="fill:#efefef;stroke:#000000;"/>
    <path clip-path="url(#p84c9a3ffc8)" d="M 73.588148 85.544662 
L 82.201349 84.69906 
L 87.481205 81.851691 
L 78.824987 80.149995 
z
" style="fill:#dddddd;stroke:#000000;"/>
    <path clip-path="url(#p84c9a3ffc8)" d="M 141.701566 86.703374 
L 150.700118 88.267953 
L 155.336574 89.239753 
L 146.417338 87.573862 
z
" style="fill:#f9f9f9;stroke:#000000;"/>
    <path clip-path="url(#p84c9a3ffc8)" d="M 118.933645 87.671427 
L 127.816529 88.978899 
L 132.792125 84.538141 
L 123.939199 83.233915 
z
" style="fill:#eeeeee;stroke:#000000;"/>
    <path clip-path="url(#p84c9a3ffc8)" d="M 105.030018 89.391669 
L 113.869827 91.869437 
L 118.933645 87.671427 
L 110.13038 85.690126 
z
" style="fill:#f8f8f8;stroke:#000000;"/>
    <path clip-path="url(#p84c9a3ffc8)" d="M 82.201349 84.69906 
L 91.003977 88.313842 
L 96.23405 85.52461 
L 87.481205 81.851691 
z
" style="fill:#e0e0e0;stroke:#000000;"/>
    <path clip-path="url(#p84c9a3ffc8)" d="M 127.816529 88.978899 
L 136.758991 91.221123 
L 141.701566 86.703374 
L 132.792125 84.538141 
z
" style="fill:#eeeeee;stroke:#000000;"/>
    <path clip-path="url(#p84c9a3ffc8)" d="M 150.700118 88.267953 
L 159.908515 86.82634 
L 164.33056 90.919606 
L 155.336574 89.239753 
z
" style="fill:#f2f2f2;stroke:#000000;"/>
    <path clip-path="url(#p84c9a3ffc8)" d="M 91.003977 88.313842 
L 99.85134 91.997798 
L 105.030018 89.391669 
L 96.23405 85.52461 
z
" style="fill:#f0f0f0;stroke:#000000;"/>
    <path clip-path="url(#p84c9a3ffc8)" d="M 113.869827 91.869437 
L 122.785931 93.080986 
L 127.816529 88.978899 
L 118.933645 87.671427 
z
" style="fill:#f9f9f9;stroke:#000000;"/>
    <path clip-path="url(#p84c9a3ffc8)" d="M 68.09982 85.706769 
L 76.857827 88.061239 
L 82.201349 84.69906 
L 73.588148 85.544662 
z
" style="fill:#dddddd;stroke:#000000;"/>
    <path clip-path="url(#p84c9a3ffc8)" d="M 159.908515 86.82634 
L 168.717727 95.581654 
L 173.40024 92.613597 
L 164.33056 90.919606 
z
" style="fill:#fafafa;stroke:#000000;"/>
    <path clip-path="url(#p84c9a3ffc8)" d="M 136.758991 91.221123 
L 145.80219 92.404876 
L 150.700118 88.267953 
L 141.701566 86.703374 
z
" style="fill:#efefef;stroke:#000000;"/>
    <path clip-path="url(#p84c9a3ffc8)" d="M 99.85134 91.997798 
L 108.740356 94.439514 
L 113.869827 91.869437 
L 105.030018 89.391669 
z
" style="fill:#fbfbfb;stroke:#000000;"/>
    <path clip-path="url(#p84c9a3ffc8)" d="M 122.785931 93.080986 
L 131.773937 94.935154 
L 136.758991 91.221123 
L 127.816529 88.978899 
z
" style="fill:#f8f8f8;stroke:#000000;"/>
    <path clip-path="url(#p84c9a3ffc8)" d="M 76.857827 88.061239 
L 85.700328 91.350963 
L 91.003977 88.313842 
L 82.201349 84.69906 
z
" style="fill:#e0e0e0;stroke:#000000;"/>
    <path clip-path="url(#p84c9a3ffc8)" d="M 108.740356 94.439514 
L 117.699785 95.923827 
L 122.785931 93.080986 
L 113.869827 91.869437 
z
" style="fill:#fcfcfc;stroke:#000000;"/>
    <path clip-path="url(#p84c9a3ffc8)" d="M 85.700328 91.350963 
L 94.599443 95.091218 
L 99.85134 91.997798 
L 91.003977 88.313842 
z
" style="fill:#efefef;stroke:#000000;"/>
    <path clip-path="url(#p84c9a3ffc8)" d="M 145.80219 92.404876 
L 154.983409 92.2721 
L 159.908515 86.82634 
L 150.700118 88.267953 
z
" style="fill:#e4e4e4;stroke:#000000;"/>
    <path clip-path="url(#p84c9a3ffc8)" d="M 62.776846 92.294146 
L 71.43822 91.432666 
L 76.857827 88.061239 
L 68.09982 85.706769 
z
" style="fill:#e1e1e1;stroke:#000000;"/>
    <path clip-path="url(#p84c9a3ffc8)" d="M 131.773937 94.935154 
L 140.861892 95.866358 
L 145.80219 92.404876 
L 136.758991 91.221123 
z
" style="fill:#f7f7f7;stroke:#000000;"/>
    <path clip-path="url(#p84c9a3ffc8)" d="M 94.599443 95.091218 
L 103.534357 97.55602 
L 108.740356 94.439514 
L 99.85134 91.997798 
z
" style="fill:#fafafa;stroke:#000000;"/>
    <path clip-path="url(#p84c9a3ffc8)" d="M 154.983409 92.2721 
L 163.965946 98.593616 
L 168.717727 95.581654 
L 159.908515 86.82634 
z
" style="fill:#f1f1f1;stroke:#000000;"/>
    <path clip-path="url(#p84c9a3ffc8)" d="M 117.699785 95.923827 
L 126.733232 97.892013 
L 131.773937 94.935154 
L 122.785931 93.080986 
z
" style="fill:#fcfcfc;stroke:#000000;"/>
    <path clip-path="url(#p84c9a3ffc8)" d="M 71.43822 91.432666 
L 80.296426 93.60362 
L 85.700328 91.350963 
L 76.857827 88.061239 
z
" style="fill:#e1e1e1;stroke:#000000;"/>
    <path clip-path="url(#p84c9a3ffc8)" d="M 140.861892 95.866358 
L 150.075032 95.841977 
L 154.983409 92.2721 
L 145.80219 92.404876 
z
" style="fill:#ededed;stroke:#000000;"/>
    <path clip-path="url(#p84c9a3ffc8)" d="M 103.534357 97.55602 
L 112.535919 99.16883 
L 117.699785 95.923827 
L 108.740356 94.439514 
z
" style="fill:#fcfcfc;stroke:#000000;"/>
    <path clip-path="url(#p84c9a3ffc8)" d="M 80.296426 93.60362 
L 89.258787 97.618535 
L 94.599443 95.091218 
L 85.700328 91.350963 
z
" style="fill:#ededed;stroke:#000000;"/>
    <path clip-path="url(#p84c9a3ffc8)" d="M 126.733232 97.892013 
L 135.864548 98.825387 
L 140.861892 95.866358 
L 131.773937 94.935154 
z
" style="fill:#f9f9f9;stroke:#000000;"/>
    <path clip-path="url(#p84c9a3ffc8)" d="M 150.075032 95.841977 
L 159.143351 101.650466 
L 163.965946 98.593616 
L 154.983409 92.2721 
z
" style="fill:#f7f7f7;stroke:#000000;"/>
    <path clip-path="url(#p84c9a3ffc8)" d="M 56.693548 83.893175 
L 65.73402 89.635353 
L 71.43822 91.432666 
L 62.776846 92.294146 
z
" style="fill:#c9c9c9;stroke:#000000;"/>
    <path clip-path="url(#p84c9a3ffc8)" d="M 89.258787 97.618535 
L 98.242444 99.891523 
L 103.534357 97.55602 
L 94.599443 95.091218 
z
" style="fill:#f8f8f8;stroke:#000000;"/>
    <path clip-path="url(#p84c9a3ffc8)" d="M 112.535919 99.16883 
L 121.611553 101.405874 
L 126.733232 97.892013 
L 117.699785 95.923827 
z
" style="fill:#fcfcfc;stroke:#000000;"/>
    <path clip-path="url(#p84c9a3ffc8)" d="M 135.864548 98.825387 
L 145.118033 98.81231 
L 150.075032 95.841977 
L 140.861892 95.866358 
z
" style="fill:#efefef;stroke:#000000;"/>
    <path clip-path="url(#p84c9a3ffc8)" d="M 65.73402 89.635353 
L 74.704126 92.755454 
L 80.296426 93.60362 
L 71.43822 91.432666 
z
" style="fill:#cfcfcf;stroke:#000000;"/>
    <path clip-path="url(#p84c9a3ffc8)" d="M 98.242444 99.891523 
L 107.292651 101.152765 
L 112.535919 99.16883 
L 103.534357 97.55602 
z
" style="fill:#f9f9f9;stroke:#000000;"/>
    <path clip-path="url(#p84c9a3ffc8)" d="M 121.611553 101.405874 
L 130.78278 102.304026 
L 135.864548 98.825387 
L 126.733232 97.892013 
z
" style="fill:#fafafa;stroke:#000000;"/>
    <path clip-path="url(#p84c9a3ffc8)" d="M 74.704126 92.755454 
L 83.80415 98.976153 
L 89.258787 97.618535 
L 80.296426 93.60362 
z
" style="fill:#e0e0e0;stroke:#000000;"/>
    <path clip-path="url(#p84c9a3ffc8)" d="M 145.118033 98.81231 
L 154.248345 104.753213 
L 159.143351 101.650466 
L 150.075032 95.841977 
z
" style="fill:#f8f8f8;stroke:#000000;"/>
    <path clip-path="url(#p84c9a3ffc8)" d="M 107.292651 101.152765 
L 116.425567 103.316882 
L 121.611553 101.405874 
L 112.535919 99.16883 
z
" style="fill:#f9f9f9;stroke:#000000;"/>
    <path clip-path="url(#p84c9a3ffc8)" d="M 83.80415 98.976153 
L 92.843499 100.984699 
L 98.242444 99.891523 
L 89.258787 97.618535 
z
" style="fill:#eeeeee;stroke:#000000;"/>
    <path clip-path="url(#p84c9a3ffc8)" d="M 130.78278 102.304026 
L 140.081338 101.978264 
L 145.118033 98.81231 
L 135.864548 98.825387 
z
" style="fill:#f0f0f0;stroke:#000000;"/>
    <path clip-path="url(#p84c9a3ffc8)" d="M 116.425567 103.316882 
L 125.64333 104.678389 
L 130.78278 102.304026 
L 121.611553 101.405874 
z
" style="fill:#f8f8f8;stroke:#000000;"/>
    <path clip-path="url(#p84c9a3ffc8)" d="M 92.843499 100.984699 
L 101.953051 102.334665 
L 107.292651 101.152765 
L 98.242444 99.891523 
z
" style="fill:#eeeeee;stroke:#000000;"/>
    <path clip-path="url(#p84c9a3ffc8)" d="M 140.081338 101.978264 
L 149.279285 107.9029 
L 154.248345 104.753213 
L 145.118033 98.81231 
z
" style="fill:#f8f8f8;stroke:#000000;"/>
    <path clip-path="url(#p84c9a3ffc8)" d="M 69.007889 92.432738 
L 78.277854 101.320558 
L 83.80415 98.976153 
L 74.704126 92.755454 
z
" style="fill:#cdcdcd;stroke:#000000;"/>
    <path clip-path="url(#p84c9a3ffc8)" d="M 59.708229 83.662634 
L 69.007889 92.432738 
L 74.704126 92.755454 
L 65.73402 89.635353 
z
" style="fill:#a7a7a7;stroke:#000000;"/>
    <path clip-path="url(#p84c9a3ffc8)" d="M 101.953051 102.334665 
L 111.149714 104.664034 
L 116.425567 103.316882 
L 107.292651 101.152765 
z
" style="fill:#eeeeee;stroke:#000000;"/>
    <path clip-path="url(#p84c9a3ffc8)" d="M 78.277854 101.320558 
L 87.345799 102.245647 
L 92.843499 100.984699 
L 83.80415 98.976153 
z
" style="fill:#e2e2e2;stroke:#000000;"/>
    <path clip-path="url(#p84c9a3ffc8)" d="M 125.64333 104.678389 
L 134.966018 105.305188 
L 140.081338 101.978264 
L 130.78278 102.304026 
z
" style="fill:#efefef;stroke:#000000;"/>
    <path clip-path="url(#p84c9a3ffc8)" d="M 49.679425 61.695536 
L 59.708229 83.662634 
L 65.73402 89.635353 
L 56.693548 83.893175 
z
" style="fill:#6a6a6a;stroke:#000000;"/>
    <path clip-path="url(#p84c9a3ffc8)" d="M 111.149714 104.664034 
L 120.414877 107.480083 
L 125.64333 104.678389 
L 116.425567 103.316882 
z
" style="fill:#f0f0f0;stroke:#000000;"/>
    <path clip-path="url(#p84c9a3ffc8)" d="M 134.966018 105.305188 
L 144.234479 111.1006 
L 149.279285 107.9029 
L 140.081338 101.978264 
z
" style="fill:#f8f8f8;stroke:#000000;"/>
    <path clip-path="url(#p84c9a3ffc8)" d="M 87.345799 102.245647 
L 96.518704 103.992194 
L 101.953051 102.334665 
L 92.843499 100.984699 
z
" style="fill:#e0e0e0;stroke:#000000;"/>
    <path clip-path="url(#p84c9a3ffc8)" d="M 63.385852 96.755582 
L 72.719289 105.455007 
L 78.277854 101.320558 
L 69.007889 92.432738 
z
" style="fill:#c9c9c9;stroke:#000000;"/>
    <path clip-path="url(#p84c9a3ffc8)" d="M 120.414877 107.480083 
L 129.733564 111.011917 
L 134.966018 105.305188 
L 125.64333 104.678389 
z
" style="fill:#f2f2f2;stroke:#000000;"/>
    <path clip-path="url(#p84c9a3ffc8)" d="M 72.719289 105.455007 
L 81.764734 104.293978 
L 87.345799 102.245647 
L 78.277854 101.320558 
z
" style="fill:#dddddd;stroke:#000000;"/>
    <path clip-path="url(#p84c9a3ffc8)" d="M 96.518704 103.992194 
L 105.777192 106.418048 
L 111.149714 104.664034 
L 101.953051 102.334665 
z
" style="fill:#e1e1e1;stroke:#000000;"/>
    <path clip-path="url(#p84c9a3ffc8)" d="M 53.707628 81.811625 
L 63.385852 96.755582 
L 69.007889 92.432738 
L 59.708229 83.662634 
z
" style="fill:#898989;stroke:#000000;"/>
    <path clip-path="url(#p84c9a3ffc8)" d="M 129.733564 111.011917 
L 139.112181 114.347419 
L 144.234479 111.1006 
L 134.966018 105.305188 
z
" style="fill:#fefefe;stroke:#000000;"/>
    <path clip-path="url(#p84c9a3ffc8)" d="M 105.777192 106.418048 
L 115.09889 111.189159 
L 120.414877 107.480083 
L 111.149714 104.664034 
z
" style="fill:#eaeaea;stroke:#000000;"/>
    <path clip-path="url(#p84c9a3ffc8)" d="M 81.764734 104.293978 
L 90.994964 106.206058 
L 96.518704 103.992194 
L 87.345799 102.245647 
z
" style="fill:#d5d5d5;stroke:#000000;"/>
    <path clip-path="url(#p84c9a3ffc8)" d="M 115.09889 111.189159 
L 124.495451 112.715207 
L 129.733564 111.011917 
L 120.414877 107.480083 
z
" style="fill:#f4f4f4;stroke:#000000;"/>
    <path clip-path="url(#p84c9a3ffc8)" d="M 90.994964 106.206058 
L 100.310582 108.546838 
L 105.777192 106.418048 
L 96.518704 103.992194 
z
" style="fill:#d7d7d7;stroke:#000000;"/>
    <path clip-path="url(#p84c9a3ffc8)" d="M 124.495451 112.715207 
L 133.910591 117.644498 
L 139.112181 114.347419 
L 129.733564 111.011917 
z
" style="fill:#ffffff;stroke:#000000;"/>
    <path clip-path="url(#p84c9a3ffc8)" d="M 100.310582 108.546838 
L 109.704028 113.499513 
L 115.09889 111.189159 
L 105.777192 106.418048 
z
" style="fill:#e5e5e5;stroke:#000000;"/>
    <path clip-path="url(#p84c9a3ffc8)" d="M 42.70324 46.251223 
L 53.707628 81.811625 
L 59.708229 83.662634 
L 49.679425 61.695536 
z
" style="stroke:#000000;"/>
    <path clip-path="url(#p84c9a3ffc8)" d="M 109.704028 113.499513 
L 119.188205 110.898538 
L 124.495451 112.715207 
L 115.09889 111.189159 
z
" style="fill:#e7e7e7;stroke:#000000;"/>
    <path clip-path="url(#p84c9a3ffc8)" d="M 119.188205 110.898538 
L 128.627854 120.993012 
L 133.910591 117.644498 
L 124.495451 112.715207 
z
" style="fill:#f3f3f3;stroke:#000000;"/>
   </g>
  </g>
 </g>
 <defs>
  <clipPath id="p84c9a3ffc8">
   <rect height="122.4" width="194.4" x="10.8" y="10.8"/>
  </clipPath>
 </defs>
</svg>
