<?xml version="1.0" encoding="utf-8" standalone="no"?>
<!DOCTYPE svg PUBLIC "-//W3C//DTD SVG 1.1//EN"
  "http://www.w3.org/Graphics/SVG/1.1/DTD/svg11.dtd">
<!-- Created with matplotlib (https://matplotlib.org/) -->
<svg height="144pt" version="1.1" viewBox="0 0 216 144" width="216pt" xmlns="http://www.w3.org/2000/svg" xmlns:xlink="http://www.w3.org/1999/xlink">
 <defs>
  <style type="text/css">
*{stroke-linecap:butt;stroke-linejoin:round;}
  </style>
 </defs>
 <g id="figure_1">
  <g id="patch_1">
   <path d="M 0 144 
L 216 144 
L 216 0 
L 0 0 
z
" style="fill:#ffffff;"/>
  </g>
  <g id="patch_2">
   <path d="M 10.8 133.2 
L 205.2 133.2 
L 205.2 10.8 
L 10.8 10.8 
z
" style="fill:#ffffff;"/>
  </g>
  <g id="pane3d_1">
   <g id="patch_3">
    <path d="M 36.570724 106.153914 
L 92.209021 76.144207 
L 91.282702 18.800583 
L 32.542206 45.763687 
" style="fill:#f2f2f2;opacity:0.5;stroke:#f2f2f2;stroke-linejoin:miter;"/>
   </g>
  </g>
  <g id="pane3d_2">
   <g id="patch_4">
    <path d="M 92.209021 76.144207 
L 182.337831 92.92157 
L 186.108713 33.848772 
L 91.282702 18.800583 
" style="fill:#e6e6e6;opacity:0.5;stroke:#e6e6e6;stroke-linejoin:miter;"/>
   </g>
  </g>
  <g id="pane3d_3">
   <g id="patch_5">
    <path d="M 36.570724 106.153914 
L 131.398411 125.693886 
L 182.337831 92.92157 
L 92.209021 76.144207 
" style="fill:#ececec;opacity:0.5;stroke:#ececec;stroke-linejoin:miter;"/>
   </g>
  </g>
  <g id="axis3d_1">
   <g id="line2d_1">
    <path d="M 36.570724 106.153914 
L 131.398411 125.693886 
" style="fill:none;stroke:#000000;stroke-linecap:square;stroke-width:0.8;"/>
   </g>
   <g id="Line3DCollection_1">
    <path d="M 42.352032 107.345197 
L 97.721186 77.170289 
L 97.070293 19.719031 
" style="fill:none;stroke:#b0b0b0;stroke-width:0.8;"/>
    <path d="M 60.176387 111.018042 
L 114.701544 80.331161 
L 114.908793 22.54987 
" style="fill:none;stroke:#b0b0b0;stroke-width:0.8;"/>
    <path d="M 78.316002 114.755849 
L 131.96025 83.543847 
L 133.054712 25.429493 
" style="fill:none;stroke:#b0b0b0;stroke-width:0.8;"/>
    <path d="M 96.779317 118.560356 
L 149.504207 86.809632 
L 151.516063 28.359174 
" style="fill:none;stroke:#b0b0b0;stroke-width:0.8;"/>
    <path d="M 115.575075 122.433366 
L 167.340544 90.129844 
L 170.301146 31.340228 
" style="fill:none;stroke:#b0b0b0;stroke-width:0.8;"/>
   </g>
   <g id="xtick_1">
    <g id="line2d_2">
     <path d="M 42.829066 107.085224 
L 41.396185 107.866111 
" style="fill:none;stroke:#000000;stroke-linecap:square;stroke-width:0.8;"/>
    </g>
    <g id="text_1">
     <!-- 0 -->
     <defs>
      <path d="M 31.78125 66.40625 
Q 24.171875 66.40625 20.328125 58.90625 
Q 16.5 51.421875 16.5 36.375 
Q 16.5 21.390625 20.328125 13.890625 
Q 24.171875 6.390625 31.78125 6.390625 
Q 39.453125 6.390625 43.28125 13.890625 
Q 47.125 21.390625 47.125 36.375 
Q 47.125 51.421875 43.28125 58.90625 
Q 39.453125 66.40625 31.78125 66.40625 
z
M 31.78125 74.21875 
Q 44.046875 74.21875 50.515625 64.515625 
Q 56.984375 54.828125 56.984375 36.375 
Q 56.984375 17.96875 50.515625 8.265625 
Q 44.046875 -1.421875 31.78125 -1.421875 
Q 19.53125 -1.421875 13.0625 8.265625 
Q 6.59375 17.96875 6.59375 36.375 
Q 6.59375 54.828125 13.0625 64.515625 
Q 19.53125 74.21875 31.78125 74.21875 
z
" id="DejaVuSans-48"/>
     </defs>
     <g transform="translate(31.317754 127.519522)scale(0.1 -0.1)">
      <use xlink:href="#DejaVuSans-48"/>
     </g>
    </g>
   </g>
   <g id="xtick_2">
    <g id="line2d_3">
     <path d="M 60.646443 110.753493 
L 59.234506 111.548134 
" style="fill:none;stroke:#000000;stroke-linecap:square;stroke-width:0.8;"/>
    </g>
    <g id="text_2">
     <!-- 2 -->
     <defs>
      <path d="M 19.1875 8.296875 
L 53.609375 8.296875 
L 53.609375 0 
L 7.328125 0 
L 7.328125 8.296875 
Q 12.9375 14.109375 22.625 23.890625 
Q 32.328125 33.6875 34.8125 36.53125 
Q 39.546875 41.84375 41.421875 45.53125 
Q 43.3125 49.21875 43.3125 52.78125 
Q 43.3125 58.59375 39.234375 62.25 
Q 35.15625 65.921875 28.609375 65.921875 
Q 23.96875 65.921875 18.8125 64.3125 
Q 13.671875 62.703125 7.8125 59.421875 
L 7.8125 69.390625 
Q 13.765625 71.78125 18.9375 73 
Q 24.125 74.21875 28.421875 74.21875 
Q 39.75 74.21875 46.484375 68.546875 
Q 53.21875 62.890625 53.21875 53.421875 
Q 53.21875 48.921875 51.53125 44.890625 
Q 49.859375 40.875 45.40625 35.40625 
Q 44.1875 33.984375 37.640625 27.21875 
Q 31.109375 20.453125 19.1875 8.296875 
z
" id="DejaVuSans-50"/>
     </defs>
     <g transform="translate(49.138093 131.316419)scale(0.1 -0.1)">
      <use xlink:href="#DejaVuSans-50"/>
     </g>
    </g>
   </g>
   <g id="xtick_3">
    <g id="line2d_4">
     <path d="M 78.778759 114.486601 
L 77.388733 115.295365 
" style="fill:none;stroke:#000000;stroke-linecap:square;stroke-width:0.8;"/>
    </g>
    <g id="text_3">
     <!-- 4 -->
     <defs>
      <path d="M 37.796875 64.3125 
L 12.890625 25.390625 
L 37.796875 25.390625 
z
M 35.203125 72.90625 
L 47.609375 72.90625 
L 47.609375 25.390625 
L 58.015625 25.390625 
L 58.015625 17.1875 
L 47.609375 17.1875 
L 47.609375 0 
L 37.796875 0 
L 37.796875 17.1875 
L 4.890625 17.1875 
L 4.890625 26.703125 
z
" id="DejaVuSans-52"/>
     </defs>
     <g transform="translate(67.274783 135.18072)scale(0.1 -0.1)">
      <use xlink:href="#DejaVuSans-52"/>
     </g>
    </g>
   </g>
   <g id="xtick_4">
    <g id="line2d_5">
     <path d="M 97.234438 118.286285 
L 95.867334 119.109549 
" style="fill:none;stroke:#000000;stroke-linecap:square;stroke-width:0.8;"/>
    </g>
    <g id="text_4">
     <!-- 6 -->
     <defs>
      <path d="M 33.015625 40.375 
Q 26.375 40.375 22.484375 35.828125 
Q 18.609375 31.296875 18.609375 23.390625 
Q 18.609375 15.53125 22.484375 10.953125 
Q 26.375 6.390625 33.015625 6.390625 
Q 39.65625 6.390625 43.53125 10.953125 
Q 47.40625 15.53125 47.40625 23.390625 
Q 47.40625 31.296875 43.53125 35.828125 
Q 39.65625 40.375 33.015625 40.375 
z
M 52.59375 71.296875 
L 52.59375 62.3125 
Q 48.875 64.0625 45.09375 64.984375 
Q 41.3125 65.921875 37.59375 65.921875 
Q 27.828125 65.921875 22.671875 59.328125 
Q 17.53125 52.734375 16.796875 39.40625 
Q 19.671875 43.65625 24.015625 45.921875 
Q 28.375 48.1875 33.59375 48.1875 
Q 44.578125 48.1875 50.953125 41.515625 
Q 57.328125 34.859375 57.328125 23.390625 
Q 57.328125 12.15625 50.6875 5.359375 
Q 44.046875 -1.421875 33.015625 -1.421875 
Q 20.359375 -1.421875 13.671875 8.265625 
Q 6.984375 17.96875 6.984375 36.375 
Q 6.984375 53.65625 15.1875 63.9375 
Q 23.390625 74.21875 37.203125 74.21875 
Q 40.921875 74.21875 44.703125 73.484375 
Q 48.484375 72.75 52.59375 71.296875 
z
" id="DejaVuSans-54"/>
     </defs>
     <g transform="translate(85.736323 139.114235)scale(0.1 -0.1)">
      <use xlink:href="#DejaVuSans-54"/>
     </g>
    </g>
   </g>
   <g id="xtick_5">
    <g id="line2d_6">
     <path d="M 116.022207 122.154339 
L 114.679081 122.992499 
" style="fill:none;stroke:#000000;stroke-linecap:square;stroke-width:0.8;"/>
    </g>
    <g id="text_5">
     <!-- 8 -->
     <defs>
      <path d="M 31.78125 34.625 
Q 24.75 34.625 20.71875 30.859375 
Q 16.703125 27.09375 16.703125 20.515625 
Q 16.703125 13.921875 20.71875 10.15625 
Q 24.75 6.390625 31.78125 6.390625 
Q 38.8125 6.390625 42.859375 10.171875 
Q 46.921875 13.96875 46.921875 20.515625 
Q 46.921875 27.09375 42.890625 30.859375 
Q 38.875 34.625 31.78125 34.625 
z
M 21.921875 38.8125 
Q 15.578125 40.375 12.03125 44.71875 
Q 8.5 49.078125 8.5 55.328125 
Q 8.5 64.0625 14.71875 69.140625 
Q 20.953125 74.21875 31.78125 74.21875 
Q 42.671875 74.21875 48.875 69.140625 
Q 55.078125 64.0625 55.078125 55.328125 
Q 55.078125 49.078125 51.53125 44.71875 
Q 48 40.375 41.703125 38.8125 
Q 48.828125 37.15625 52.796875 32.3125 
Q 56.78125 27.484375 56.78125 20.515625 
Q 56.78125 9.90625 50.3125 4.234375 
Q 43.84375 -1.421875 31.78125 -1.421875 
Q 19.734375 -1.421875 13.25 4.234375 
Q 6.78125 9.90625 6.78125 20.515625 
Q 6.78125 27.484375 10.78125 32.3125 
Q 14.796875 37.15625 21.921875 38.8125 
z
M 18.3125 54.390625 
Q 18.3125 48.734375 21.84375 45.5625 
Q 25.390625 42.390625 31.78125 42.390625 
Q 38.140625 42.390625 41.71875 45.5625 
Q 45.3125 48.734375 45.3125 54.390625 
Q 45.3125 60.0625 41.71875 63.234375 
Q 38.140625 66.40625 31.78125 66.40625 
Q 25.390625 66.40625 21.84375 63.234375 
Q 18.3125 60.0625 18.3125 54.390625 
z
" id="DejaVuSans-56"/>
     </defs>
     <g transform="translate(104.531519 143.11884)scale(0.1 -0.1)">
      <use xlink:href="#DejaVuSans-56"/>
     </g>
    </g>
   </g>
  </g>
  <g id="axis3d_2">
   <g id="line2d_7">
    <path d="M 182.337831 92.92157 
L 131.398411 125.693886 
" style="fill:none;stroke:#000000;stroke-linecap:square;stroke-width:0.8;"/>
   </g>
   <g id="Line3DCollection_2">
    <path d="M 36.564365 43.917433 
L 40.366648 104.106501 
L 134.88463 123.450997 
" style="fill:none;stroke:#b0b0b0;stroke-width:0.8;"/>
    <path d="M 48.570044 38.406578 
L 51.70909 97.988712 
L 145.292142 116.755234 
" style="fill:none;stroke:#b0b0b0;stroke-width:0.8;"/>
    <path d="M 60.209248 33.063942 
L 62.722561 92.04836 
L 155.384181 110.262433 
" style="fill:none;stroke:#b0b0b0;stroke-width:0.8;"/>
    <path d="M 71.498505 27.88194 
L 73.421169 86.277837 
L 165.174876 103.963505 
" style="fill:none;stroke:#b0b0b0;stroke-width:0.8;"/>
    <path d="M 82.453363 22.853433 
L 83.818227 80.669962 
L 174.677526 97.849893 
" style="fill:none;stroke:#b0b0b0;stroke-width:0.8;"/>
   </g>
   <g id="xtick_6">
    <g id="line2d_8">
     <path d="M 134.093598 123.2891 
L 136.468463 123.775151 
" style="fill:none;stroke:#000000;stroke-linecap:square;stroke-width:0.8;"/>
    </g>
    <g id="text_6">
     <!-- 0 -->
     <g transform="translate(145.296339 142.045096)scale(0.1 -0.1)">
      <use xlink:href="#DejaVuSans-48"/>
     </g>
    </g>
   </g>
   <g id="xtick_7">
    <g id="line2d_9">
     <path d="M 144.509466 116.598281 
L 146.859218 117.069485 
" style="fill:none;stroke:#000000;stroke-linecap:square;stroke-width:0.8;"/>
    </g>
    <g id="text_7">
     <!-- 2 -->
     <g transform="translate(155.4846 135.186893)scale(0.1 -0.1)">
      <use xlink:href="#DejaVuSans-50"/>
     </g>
    </g>
   </g>
   <g id="xtick_8">
    <g id="line2d_10">
     <path d="M 154.609721 110.110201 
L 156.934779 110.567227 
" style="fill:none;stroke:#000000;stroke-linecap:square;stroke-width:0.8;"/>
    </g>
    <g id="text_8">
     <!-- 4 -->
     <g transform="translate(165.364333 128.536375)scale(0.1 -0.1)">
      <use xlink:href="#DejaVuSans-52"/>
     </g>
    </g>
   </g>
   <g id="xtick_9">
    <g id="line2d_11">
     <path d="M 164.408495 103.815784 
L 166.709275 104.259263 
" style="fill:none;stroke:#000000;stroke-linecap:square;stroke-width:0.8;"/>
    </g>
    <g id="text_9">
     <!-- 6 -->
     <g transform="translate(174.949345 122.084248)scale(0.1 -0.1)">
      <use xlink:href="#DejaVuSans-54"/>
     </g>
    </g>
   </g>
   <g id="xtick_10">
    <g id="line2d_12">
     <path d="M 173.919086 97.706485 
L 176.196001 98.137011 
" style="fill:none;stroke:#000000;stroke-linecap:square;stroke-width:0.8;"/>
    </g>
    <g id="text_10">
     <!-- 8 -->
     <g transform="translate(184.252629 115.821765)scale(0.1 -0.1)">
      <use xlink:href="#DejaVuSans-56"/>
     </g>
    </g>
   </g>
  </g>
  <g id="axis3d_3">
   <g id="line2d_13">
    <path d="M 182.337831 92.92157 
L 186.108713 33.848772 
" style="fill:none;stroke:#000000;stroke-linecap:square;stroke-width:0.8;"/>
   </g>
   <g id="Line3DCollection_3">
    <path d="M 182.409553 91.798014 
L 92.191365 75.051207 
L 36.494231 105.007238 
" style="fill:none;stroke:#b0b0b0;stroke-width:0.8;"/>
    <path d="M 183.129234 80.523841 
L 92.014278 64.088657 
L 35.7264 93.496923 
" style="fill:none;stroke:#b0b0b0;stroke-width:0.8;"/>
    <path d="M 183.863492 69.021312 
L 91.833756 52.913458 
L 34.942496 81.745676 
" style="fill:none;stroke:#b0b0b0;stroke-width:0.8;"/>
    <path d="M 184.612774 57.283419 
L 91.649698 41.519364 
L 34.142011 69.745853 
" style="fill:none;stroke:#b0b0b0;stroke-width:0.8;"/>
    <path d="M 185.377547 45.302862 
L 91.461998 29.899879 
L 33.324411 57.489481 
" style="fill:none;stroke:#b0b0b0;stroke-width:0.8;"/>
   </g>
   <g id="xtick_11">
    <g id="line2d_14">
     <path d="M 181.656811 91.658286 
L 183.916603 92.077761 
" style="fill:none;stroke:#000000;stroke-linecap:square;stroke-width:0.8;"/>
    </g>
    <g id="text_11">
     <!-- 0.00 -->
     <defs>
      <path d="M 10.6875 12.40625 
L 21 12.40625 
L 21 0 
L 10.6875 0 
z
" id="DejaVuSans-46"/>
     </defs>
     <g transform="translate(190.884958 97.621385)scale(0.1 -0.1)">
      <use xlink:href="#DejaVuSans-48"/>
      <use x="63.623047" xlink:href="#DejaVuSans-46"/>
      <use x="95.410156" xlink:href="#DejaVuSans-48"/>
      <use x="159.033203" xlink:href="#DejaVuSans-48"/>
     </g>
    </g>
   </g>
   <g id="xtick_12">
    <g id="line2d_15">
     <path d="M 182.368696 80.386656 
L 184.651908 80.798498 
" style="fill:none;stroke:#000000;stroke-linecap:square;stroke-width:0.8;"/>
    </g>
    <g id="text_12">
     <!-- 0.25 -->
     <defs>
      <path d="M 10.796875 72.90625 
L 49.515625 72.90625 
L 49.515625 64.59375 
L 19.828125 64.59375 
L 19.828125 46.734375 
Q 21.96875 47.46875 24.109375 47.828125 
Q 26.265625 48.1875 28.421875 48.1875 
Q 40.625 48.1875 47.75 41.5 
Q 54.890625 34.8125 54.890625 23.390625 
Q 54.890625 11.625 47.5625 5.09375 
Q 40.234375 -1.421875 26.90625 -1.421875 
Q 22.3125 -1.421875 17.546875 -0.640625 
Q 12.796875 0.140625 7.71875 1.703125 
L 7.71875 11.625 
Q 12.109375 9.234375 16.796875 8.0625 
Q 21.484375 6.890625 26.703125 6.890625 
Q 35.15625 6.890625 40.078125 11.328125 
Q 45.015625 15.765625 45.015625 23.390625 
Q 45.015625 31 40.078125 35.4375 
Q 35.15625 39.890625 26.703125 39.890625 
Q 22.75 39.890625 18.8125 39.015625 
Q 14.890625 38.140625 10.796875 36.28125 
z
" id="DejaVuSans-53"/>
     </defs>
     <g transform="translate(191.797156 86.379594)scale(0.1 -0.1)">
      <use xlink:href="#DejaVuSans-48"/>
      <use x="63.623047" xlink:href="#DejaVuSans-46"/>
      <use x="95.410156" xlink:href="#DejaVuSans-50"/>
      <use x="159.033203" xlink:href="#DejaVuSans-53"/>
     </g>
    </g>
   </g>
   <g id="xtick_13">
    <g id="line2d_16">
     <path d="M 183.094995 68.886803 
L 185.402117 69.290616 
" style="fill:none;stroke:#000000;stroke-linecap:square;stroke-width:0.8;"/>
    </g>
    <g id="text_13">
     <!-- 0.50 -->
     <g transform="translate(192.727748 74.911126)scale(0.1 -0.1)">
      <use xlink:href="#DejaVuSans-48"/>
      <use x="63.623047" xlink:href="#DejaVuSans-46"/>
      <use x="95.410156" xlink:href="#DejaVuSans-53"/>
      <use x="159.033203" xlink:href="#DejaVuSans-48"/>
     </g>
    </g>
   </g>
   <g id="xtick_14">
    <g id="line2d_17">
     <path d="M 183.83615 57.151724 
L 186.167688 57.54709 
" style="fill:none;stroke:#000000;stroke-linecap:square;stroke-width:0.8;"/>
    </g>
    <g id="text_14">
     <!-- 0.75 -->
     <defs>
      <path d="M 8.203125 72.90625 
L 55.078125 72.90625 
L 55.078125 68.703125 
L 28.609375 0 
L 18.3125 0 
L 43.21875 64.59375 
L 8.203125 64.59375 
z
" id="DejaVuSans-55"/>
     </defs>
     <g transform="translate(193.677295 63.209053)scale(0.1 -0.1)">
      <use xlink:href="#DejaVuSans-48"/>
      <use x="63.623047" xlink:href="#DejaVuSans-46"/>
      <use x="95.410156" xlink:href="#DejaVuSans-55"/>
      <use x="159.033203" xlink:href="#DejaVuSans-53"/>
     </g>
    </g>
   </g>
   <g id="xtick_15">
    <g id="line2d_18">
     <path d="M 184.592622 45.174127 
L 186.949097 45.56061 
" style="fill:none;stroke:#000000;stroke-linecap:square;stroke-width:0.8;"/>
    </g>
    <g id="text_15">
     <!-- 1.00 -->
     <defs>
      <path d="M 12.40625 8.296875 
L 28.515625 8.296875 
L 28.515625 63.921875 
L 10.984375 60.40625 
L 10.984375 69.390625 
L 28.421875 72.90625 
L 38.28125 72.90625 
L 38.28125 8.296875 
L 54.390625 8.296875 
L 54.390625 0 
L 12.40625 0 
z
" id="DejaVuSans-49"/>
     </defs>
     <g transform="translate(194.646383 51.266166)scale(0.1 -0.1)">
      <use xlink:href="#DejaVuSans-49"/>
      <use x="63.623047" xlink:href="#DejaVuSans-46"/>
      <use x="95.410156" xlink:href="#DejaVuSans-48"/>
      <use x="159.033203" xlink:href="#DejaVuSans-48"/>
     </g>
    </g>
   </g>
  </g>
  <g id="axes_1">
   <g id="Poly3DCollection_1">
    <path clip-path="url(#p0b26151dc2)" d="M 88.860758 54.406541 
L 97.649102 61.594813 
L 102.910462 79.447861 
L 94.420764 77.862197 
z
" style="fill:#c8c8c8;stroke:#000000;"/>
    <path clip-path="url(#p0b26151dc2)" d="M 97.649102 61.594813 
L 106.411844 65.124839 
L 111.469565 81.046488 
L 102.910462 79.447861 
z
" style="fill:#d3d3d3;stroke:#000000;"/>
    <path clip-path="url(#p0b26151dc2)" d="M 106.411844 65.124839 
L 115.202596 72.56407 
L 120.098928 82.658239 
L 111.469565 81.046488 
z
" style="fill:#dedede;stroke:#000000;"/>
    <path clip-path="url(#p0b26151dc2)" d="M 115.202596 72.56407 
L 124.082642 71.024715 
L 128.799421 84.283274 
L 120.098928 82.658239 
z
" style="fill:#e2e2e2;stroke:#000000;"/>
    <path clip-path="url(#p0b26151dc2)" d="M 83.898236 70.016633 
L 92.62969 75.544403 
L 97.649102 61.594813 
L 88.860758 54.406541 
z
" style="fill:#a7a7a7;stroke:#000000;"/>
    <path clip-path="url(#p0b26151dc2)" d="M 78.807582 79.528212 
L 87.317196 73.813044 
L 92.62969 75.544403 
L 83.898236 70.016633 
z
" style="fill:#cdcdcd;stroke:#000000;"/>
    <path clip-path="url(#p0b26151dc2)" d="M 92.62969 75.544403 
L 101.306564 72.823352 
L 106.411844 65.124839 
L 97.649102 61.594813 
z
" style="fill:#b1b1b1;stroke:#000000;"/>
    <path clip-path="url(#p0b26151dc2)" d="M 124.082642 71.024715 
L 133.15682 65.91653 
L 137.571924 85.921759 
L 128.799421 84.283274 
z
" style="fill:#d4d4d4;stroke:#000000;"/>
    <path clip-path="url(#p0b26151dc2)" d="M 133.15682 65.91653 
L 141.923216 78.646105 
L 146.417338 87.573862 
L 137.571924 85.921759 
z
" style="fill:#dadada;stroke:#000000;"/>
    <path clip-path="url(#p0b26151dc2)" d="M 87.317196 73.813044 
L 96.187327 81.85382 
L 101.306564 72.823352 
L 92.62969 75.544403 
z
" style="fill:#cbcbcb;stroke:#000000;"/>
    <path clip-path="url(#p0b26151dc2)" d="M 141.923216 78.646105 
L 151.079876 77.577906 
L 155.336574 89.239753 
L 146.417338 87.573862 
z
" style="fill:#e6e6e6;stroke:#000000;"/>
    <path clip-path="url(#p0b26151dc2)" d="M 101.306564 72.823352 
L 110.120514 63.230705 
L 115.202596 72.56407 
L 106.411844 65.124839 
z
" style="fill:#a6a6a6;stroke:#000000;"/>
    <path clip-path="url(#p0b26151dc2)" d="M 73.206682 73.898832 
L 81.886551 72.167103 
L 87.317196 73.813044 
L 78.807582 79.528212 
z
" style="fill:#bdbdbd;stroke:#000000;"/>
    <path clip-path="url(#p0b26151dc2)" d="M 110.120514 63.230705 
L 118.997467 78.999875 
L 124.082642 71.024715 
L 115.202596 72.56407 
z
" style="fill:#aeaeae;stroke:#000000;"/>
    <path clip-path="url(#p0b26151dc2)" d="M 81.886551 72.167103 
L 90.956434 85.580905 
L 96.187327 81.85382 
L 87.317196 73.813044 
z
" style="fill:#c8c8c8;stroke:#000000;"/>
    <path clip-path="url(#p0b26151dc2)" d="M 96.187327 81.85382 
L 104.951436 73.569773 
L 110.120514 63.230705 
L 101.306564 72.823352 
z
" style="fill:#afafaf;stroke:#000000;"/>
    <path clip-path="url(#p0b26151dc2)" d="M 90.956434 85.580905 
L 99.835926 90.389559 
L 104.951436 73.569773 
L 96.187327 81.85382 
z
" style="fill:#d8d8d8;stroke:#000000;"/>
    <path clip-path="url(#p0b26151dc2)" d="M 151.079876 77.577906 
L 160.71529 68.335875 
L 164.33056 90.919606 
L 155.336574 89.239753 
z
" style="fill:#d3d3d3;stroke:#000000;"/>
    <path clip-path="url(#p0b26151dc2)" d="M 68.094415 85.563099 
L 76.906228 89.678352 
L 81.886551 72.167103 
L 73.206682 73.898832 
z
" style="fill:#cccccc;stroke:#000000;"/>
    <path clip-path="url(#p0b26151dc2)" d="M 160.71529 68.335875 
L 168.717727 95.581654 
L 173.40024 92.613597 
L 164.33056 90.919606 
z
" style="fill:#e8e8e8;stroke:#000000;"/>
    <path clip-path="url(#p0b26151dc2)" d="M 104.951436 73.569773 
L 113.870735 91.554656 
L 118.997467 78.999875 
L 110.120514 63.230705 
z
" style="fill:#bdbdbd;stroke:#000000;"/>
    <path clip-path="url(#p0b26151dc2)" d="M 118.997467 78.999875 
L 128.082245 71.552613 
L 133.15682 65.91653 
L 124.082642 71.024715 
z
" style="fill:#a7a7a7;stroke:#000000;"/>
    <path clip-path="url(#p0b26151dc2)" d="M 76.906228 89.678352 
L 85.596291 86.65572 
L 90.956434 85.580905 
L 81.886551 72.167103 
z
" style="fill:#d5d5d5;stroke:#000000;"/>
    <path clip-path="url(#p0b26151dc2)" d="M 99.835926 90.389559 
L 108.718805 81.625021 
L 113.870735 91.554656 
L 104.951436 73.569773 
z
" style="fill:#d7d7d7;stroke:#000000;"/>
    <path clip-path="url(#p0b26151dc2)" d="M 113.870735 91.554656 
L 122.984204 74.764795 
L 128.082245 71.552613 
L 118.997467 78.999875 
z
" style="fill:#c1c1c1;stroke:#000000;"/>
    <path clip-path="url(#p0b26151dc2)" d="M 128.082245 71.552613 
L 137.229913 70.946022 
L 141.923216 78.646105 
L 133.15682 65.91653 
z
" style="fill:#9d9d9d;stroke:#000000;"/>
    <path clip-path="url(#p0b26151dc2)" d="M 85.596291 86.65572 
L 94.341816 77.068787 
L 99.835926 90.389559 
L 90.956434 85.580905 
z
" style="fill:#d3d3d3;stroke:#000000;"/>
    <path clip-path="url(#p0b26151dc2)" d="M 62.30601 81.234081 
L 70.711549 70.5743 
L 76.906228 89.678352 
L 68.094415 85.563099 
z
" style="fill:#c4c4c4;stroke:#000000;"/>
    <path clip-path="url(#p0b26151dc2)" d="M 137.229913 70.946022 
L 146.50948 69.805806 
L 151.079876 77.577906 
L 141.923216 78.646105 
z
" style="fill:#a2a2a2;stroke:#000000;"/>
    <path clip-path="url(#p0b26151dc2)" d="M 108.718805 81.625021 
L 117.823611 76.308734 
L 122.984204 74.764795 
L 113.870735 91.554656 
z
" style="fill:#bbbbbb;stroke:#000000;"/>
    <path clip-path="url(#p0b26151dc2)" d="M 155.64777 75.436525 
L 163.965946 98.593616 
L 168.717727 95.581654 
L 160.71529 68.335875 
z
" style="fill:#cacaca;stroke:#000000;"/>
    <path clip-path="url(#p0b26151dc2)" d="M 150.162718 93.351376 
L 159.143351 101.650466 
L 163.965946 98.593616 
L 155.64777 75.436525 
z
" style="fill:#e5e5e5;stroke:#000000;"/>
    <path clip-path="url(#p0b26151dc2)" d="M 122.984204 74.764795 
L 132.194116 72.653974 
L 137.229913 70.946022 
L 128.082245 71.552613 
z
" style="fill:#919191;stroke:#000000;"/>
    <path clip-path="url(#p0b26151dc2)" d="M 70.711549 70.5743 
L 79.697871 71.447763 
L 85.596291 86.65572 
L 76.906228 89.678352 
z
" style="fill:#afafaf;stroke:#000000;"/>
    <path clip-path="url(#p0b26151dc2)" d="M 94.341816 77.068787 
L 103.398996 76.205017 
L 108.718805 81.625021 
L 99.835926 90.389559 
z
" style="fill:#b5b5b5;stroke:#000000;"/>
    <path clip-path="url(#p0b26151dc2)" d="M 146.50948 69.805806 
L 155.64777 75.436525 
L 160.71529 68.335875 
L 151.079876 77.577906 
z
" style="fill:#909090;stroke:#000000;"/>
    <path clip-path="url(#p0b26151dc2)" d="M 145.13185 98.364652 
L 154.248345 104.753213 
L 159.143351 101.650466 
L 150.162718 93.351376 
z
" style="fill:#fdfdfd;stroke:#000000;"/>
    <path clip-path="url(#p0b26151dc2)" d="M 135.882511 98.029995 
L 145.13185 98.364652 
L 150.162718 93.351376 
L 141.309298 79.286415 
z
" style="fill:#dddddd;stroke:#000000;"/>
    <path clip-path="url(#p0b26151dc2)" d="M 132.194116 72.653974 
L 141.309298 79.286415 
L 146.50948 69.805806 
L 137.229913 70.946022 
z
" style="fill:#8c8c8c;stroke:#000000;"/>
    <path clip-path="url(#p0b26151dc2)" d="M 141.309298 79.286415 
L 150.162718 93.351376 
L 155.64777 75.436525 
L 146.50948 69.805806 
z
" style="fill:#a6a6a6;stroke:#000000;"/>
    <path clip-path="url(#p0b26151dc2)" d="M 117.823611 76.308734 
L 126.905641 85.919914 
L 132.194116 72.653974 
L 122.984204 74.764795 
z
" style="fill:#9d9d9d;stroke:#000000;"/>
    <path clip-path="url(#p0b26151dc2)" d="M 126.905641 85.919914 
L 135.882511 98.029995 
L 141.309298 79.286415 
L 132.194116 72.653974 
z
" style="fill:#b8b8b8;stroke:#000000;"/>
    <path clip-path="url(#p0b26151dc2)" d="M 121.612755 101.283934 
L 130.992534 90.711005 
L 135.882511 98.029995 
L 126.905641 85.919914 
z
" style="fill:#e0e0e0;stroke:#000000;"/>
    <path clip-path="url(#p0b26151dc2)" d="M 112.564048 82.706907 
L 121.612755 101.283934 
L 126.905641 85.919914 
L 117.823611 76.308734 
z
" style="fill:#c0c0c0;stroke:#000000;"/>
    <path clip-path="url(#p0b26151dc2)" d="M 103.398996 76.205017 
L 112.564048 82.706907 
L 117.823611 76.308734 
L 108.718805 81.625021 
z
" style="fill:#a0a0a0;stroke:#000000;"/>
    <path clip-path="url(#p0b26151dc2)" d="M 79.697871 71.447763 
L 88.782186 72.667067 
L 94.341816 77.068787 
L 85.596291 86.65572 
z
" style="fill:#969696;stroke:#000000;"/>
    <path clip-path="url(#p0b26151dc2)" d="M 130.992534 90.711005 
L 140.091326 101.600388 
L 145.13185 98.364652 
L 135.882511 98.029995 
z
" style="fill:#e8e8e8;stroke:#000000;"/>
    <path clip-path="url(#p0b26151dc2)" d="M 140.091326 101.600388 
L 149.279285 107.9029 
L 154.248345 104.753213 
L 145.13185 98.364652 
z
" style="fill:#ffffff;stroke:#000000;"/>
    <path clip-path="url(#p0b26151dc2)" d="M 107.242795 84.479029 
L 116.464182 95.904875 
L 121.612755 101.283934 
L 112.564048 82.706907 
z
" style="fill:#c8c8c8;stroke:#000000;"/>
    <path clip-path="url(#p0b26151dc2)" d="M 88.782186 72.667067 
L 98.009533 78.895615 
L 103.398996 76.205017 
L 94.341816 77.068787 
z
" style="fill:#888888;stroke:#000000;"/>
    <path clip-path="url(#p0b26151dc2)" d="M 98.009533 78.895615 
L 107.242795 84.479029 
L 112.564048 82.706907 
L 103.398996 76.205017 
z
" style="fill:#979797;stroke:#000000;"/>
    <path clip-path="url(#p0b26151dc2)" d="M 116.464182 95.904875 
L 125.882326 86.985963 
L 130.992534 90.711005 
L 121.612755 101.283934 
z
" style="fill:#cdcdcd;stroke:#000000;"/>
    <path clip-path="url(#p0b26151dc2)" d="M 55.665108 62.299515 
L 64.011151 46.396753 
L 70.711549 70.5743 
L 62.30601 81.234081 
z
" style="fill:#585858;stroke:#000000;"/>
    <path clip-path="url(#p0b26151dc2)" d="M 135.054877 101.249035 
L 144.234479 111.1006 
L 149.279285 107.9029 
L 140.091326 101.600388 
z
" style="fill:#fbfbfb;stroke:#000000;"/>
    <path clip-path="url(#p0b26151dc2)" d="M 83.383775 81.465036 
L 92.627702 87.450607 
L 98.009533 78.895615 
L 88.782186 72.667067 
z
" style="fill:#8d8d8d;stroke:#000000;"/>
    <path clip-path="url(#p0b26151dc2)" d="M 125.882326 86.985963 
L 135.054877 101.249035 
L 140.091326 101.600388 
L 130.992534 90.711005 
z
" style="fill:#cbcbcb;stroke:#000000;"/>
    <path clip-path="url(#p0b26151dc2)" d="M 73.6915 61.083773 
L 83.383775 81.465036 
L 88.782186 72.667067 
L 79.697871 71.447763 
z
" style="fill:#686868;stroke:#000000;"/>
    <path clip-path="url(#p0b26151dc2)" d="M 64.011151 46.396753 
L 73.6915 61.083773 
L 79.697871 71.447763 
L 70.711549 70.5743 
z
" style="fill:#3f3f3f;stroke:#000000;"/>
    <path clip-path="url(#p0b26151dc2)" d="M 77.992401 91.48176 
L 87.038409 87.536315 
L 92.627702 87.450607 
L 83.383775 81.465036 
z
" style="fill:#a3a3a3;stroke:#000000;"/>
    <path clip-path="url(#p0b26151dc2)" d="M 92.627702 87.450607 
L 101.751614 76.464644 
L 107.242795 84.479029 
L 98.009533 78.895615 
z
" style="fill:#8d8d8d;stroke:#000000;"/>
    <path clip-path="url(#p0b26151dc2)" d="M 101.751614 76.464644 
L 111.156637 89.938784 
L 116.464182 95.904875 
L 107.242795 84.479029 
z
" style="fill:#9f9f9f;stroke:#000000;"/>
    <path clip-path="url(#p0b26151dc2)" d="M 129.966448 97.53978 
L 139.112181 114.347419 
L 144.234479 111.1006 
L 135.054877 101.249035 
z
" style="fill:#ececec;stroke:#000000;"/>
    <path clip-path="url(#p0b26151dc2)" d="M 111.156637 89.938784 
L 120.514477 96.196814 
L 125.882326 86.985963 
L 116.464182 95.904875 
z
" style="fill:#b3b3b3;stroke:#000000;"/>
    <path clip-path="url(#p0b26151dc2)" d="M 68.106898 68.102541 
L 77.992401 91.48176 
L 83.383775 81.465036 
L 73.6915 61.083773 
z
" style="fill:#6e6e6e;stroke:#000000;"/>
    <path clip-path="url(#p0b26151dc2)" d="M 120.514477 96.196814 
L 129.966448 97.53978 
L 135.054877 101.249035 
L 125.882326 86.985963 
z
" style="fill:#bbbbbb;stroke:#000000;"/>
    <path clip-path="url(#p0b26151dc2)" d="M 62.759093 81.902229 
L 72.461434 97.898781 
L 77.992401 91.48176 
L 68.106898 68.102541 
z
" style="fill:#909090;stroke:#000000;"/>
    <path clip-path="url(#p0b26151dc2)" d="M 72.461434 97.898781 
L 81.180429 81.781729 
L 87.038409 87.536315 
L 77.992401 91.48176 
z
" style="fill:#a1a1a1;stroke:#000000;"/>
    <path clip-path="url(#p0b26151dc2)" d="M 105.694714 87.542993 
L 115.093917 112.418048 
L 120.514477 96.196814 
L 111.156637 89.938784 
z
" style="fill:#bababa;stroke:#000000;"/>
    <path clip-path="url(#p0b26151dc2)" d="M 115.093917 112.418048 
L 124.656624 99.889693 
L 129.966448 97.53978 
L 120.514477 96.196814 
z
" style="fill:#cbcbcb;stroke:#000000;"/>
    <path clip-path="url(#p0b26151dc2)" d="M 87.038409 87.536315 
L 96.078986 69.324284 
L 101.751614 76.464644 
L 92.627702 87.450607 
z
" style="fill:#747474;stroke:#000000;"/>
    <path clip-path="url(#p0b26151dc2)" d="M 124.656624 99.889693 
L 133.910591 117.644498 
L 139.112181 114.347419 
L 129.966448 97.53978 
z
" style="fill:#e2e2e2;stroke:#000000;"/>
    <path clip-path="url(#p0b26151dc2)" d="M 49.332518 55.123606 
L 57.972924 45.06224 
L 64.011151 46.396753 
L 55.665108 62.299515 
z
" style="fill:#020202;stroke:#000000;"/>
    <path clip-path="url(#p0b26151dc2)" d="M 57.972924 45.06224 
L 68.106898 68.102541 
L 73.6915 61.083773 
L 64.011151 46.396753 
z
" style="fill:#090909;stroke:#000000;"/>
    <path clip-path="url(#p0b26151dc2)" d="M 100.144138 90.674462 
L 109.699986 108.671047 
L 115.093917 112.418048 
L 105.694714 87.542993 
z
" style="fill:#bbbbbb;stroke:#000000;"/>
    <path clip-path="url(#p0b26151dc2)" d="M 96.078986 69.324284 
L 105.694714 87.542993 
L 111.156637 89.938784 
L 101.751614 76.464644 
z
" style="fill:#6e6e6e;stroke:#000000;"/>
    <path clip-path="url(#p0b26151dc2)" d="M 109.699986 108.671047 
L 119.239803 104.236285 
L 124.656624 99.889693 
L 115.093917 112.418048 
z
" style="fill:#d4d4d4;stroke:#000000;"/>
    <path clip-path="url(#p0b26151dc2)" d="M 52.699024 61.708508 
L 62.759093 81.902229 
L 68.106898 68.102541 
L 57.972924 45.06224 
z
" style="fill:#2a2a2a;stroke:#000000;"/>
    <path clip-path="url(#p0b26151dc2)" d="M 119.239803 104.236285 
L 128.627854 120.993012 
L 133.910591 117.644498 
L 124.656624 99.889693 
z
" style="fill:#e2e2e2;stroke:#000000;"/>
    <path clip-path="url(#p0b26151dc2)" d="M 43.309184 56.68923 
L 52.699024 61.708508 
L 57.972924 45.06224 
L 49.332518 55.123606 
z
" style="stroke:#000000;"/>
    <path clip-path="url(#p0b26151dc2)" d="M 81.180429 81.781729 
L 90.308979 67.416812 
L 96.078986 69.324284 
L 87.038409 87.536315 
z
" style="fill:#505050;stroke:#000000;"/>
    <path clip-path="url(#p0b26151dc2)" d="M 90.308979 67.416812 
L 100.144138 90.674462 
L 105.694714 87.542993 
L 96.078986 69.324284 
z
" style="fill:#525252;stroke:#000000;"/>
   </g>
  </g>
 </g>
 <defs>
  <clipPath id="p0b26151dc2">
   <rect height="122.4" width="194.4" x="10.8" y="10.8"/>
  </clipPath>
 </defs>
</svg>
