<?xml version="1.0" encoding="utf-8" standalone="no"?>
<!DOCTYPE svg PUBLIC "-//W3C//DTD SVG 1.1//EN"
  "http://www.w3.org/Graphics/SVG/1.1/DTD/svg11.dtd">
<!-- Created with matplotlib (https://matplotlib.org/) -->
<svg height="144pt" version="1.1" viewBox="0 0 216 144" width="216pt" xmlns="http://www.w3.org/2000/svg" xmlns:xlink="http://www.w3.org/1999/xlink">
 <defs>
  <style type="text/css">
*{stroke-linecap:butt;stroke-linejoin:round;}
  </style>
 </defs>
 <g id="figure_1">
  <g id="patch_1">
   <path d="M 0 144 
L 216 144 
L 216 0 
L 0 0 
z
" style="fill:#ffffff;"/>
  </g>
  <g id="patch_2">
   <path d="M 10.8 133.2 
L 205.2 133.2 
L 205.2 10.8 
L 10.8 10.8 
z
" style="fill:#ffffff;"/>
  </g>
  <g id="pane3d_1">
   <g id="patch_3">
    <path d="M 36.570724 106.153914 
L 92.209021 76.144207 
L 91.282702 18.800583 
L 32.542206 45.763687 
" style="fill:#f2f2f2;opacity:0.5;stroke:#f2f2f2;stroke-linejoin:miter;"/>
   </g>
  </g>
  <g id="pane3d_2">
   <g id="patch_4">
    <path d="M 92.209021 76.144207 
L 182.337831 92.92157 
L 186.108713 33.848772 
L 91.282702 18.800583 
" style="fill:#e6e6e6;opacity:0.5;stroke:#e6e6e6;stroke-linejoin:miter;"/>
   </g>
  </g>
  <g id="pane3d_3">
   <g id="patch_5">
    <path d="M 36.570724 106.153914 
L 131.398411 125.693886 
L 182.337831 92.92157 
L 92.209021 76.144207 
" style="fill:#ececec;opacity:0.5;stroke:#ececec;stroke-linejoin:miter;"/>
   </g>
  </g>
  <g id="axis3d_1">
   <g id="line2d_1">
    <path d="M 36.570724 106.153914 
L 131.398411 125.693886 
" style="fill:none;stroke:#000000;stroke-linecap:square;stroke-width:0.8;"/>
   </g>
   <g id="Line3DCollection_1">
    <path d="M 42.352032 107.345197 
L 97.721186 77.170289 
L 97.070293 19.719031 
" style="fill:none;stroke:#b0b0b0;stroke-width:0.8;"/>
    <path d="M 60.176387 111.018042 
L 114.701544 80.331161 
L 114.908793 22.54987 
" style="fill:none;stroke:#b0b0b0;stroke-width:0.8;"/>
    <path d="M 78.316002 114.755849 
L 131.96025 83.543847 
L 133.054712 25.429493 
" style="fill:none;stroke:#b0b0b0;stroke-width:0.8;"/>
    <path d="M 96.779317 118.560356 
L 149.504207 86.809632 
L 151.516063 28.359174 
" style="fill:none;stroke:#b0b0b0;stroke-width:0.8;"/>
    <path d="M 115.575075 122.433366 
L 167.340544 90.129844 
L 170.301146 31.340228 
" style="fill:none;stroke:#b0b0b0;stroke-width:0.8;"/>
   </g>
   <g id="xtick_1">
    <g id="line2d_2">
     <path d="M 42.829066 107.085224 
L 41.396185 107.866111 
" style="fill:none;stroke:#000000;stroke-linecap:square;stroke-width:0.8;"/>
    </g>
    <g id="text_1">
     <!-- 0 -->
     <defs>
      <path d="M 31.78125 66.40625 
Q 24.171875 66.40625 20.328125 58.90625 
Q 16.5 51.421875 16.5 36.375 
Q 16.5 21.390625 20.328125 13.890625 
Q 24.171875 6.390625 31.78125 6.390625 
Q 39.453125 6.390625 43.28125 13.890625 
Q 47.125 21.390625 47.125 36.375 
Q 47.125 51.421875 43.28125 58.90625 
Q 39.453125 66.40625 31.78125 66.40625 
z
M 31.78125 74.21875 
Q 44.046875 74.21875 50.515625 64.515625 
Q 56.984375 54.828125 56.984375 36.375 
Q 56.984375 17.96875 50.515625 8.265625 
Q 44.046875 -1.421875 31.78125 -1.421875 
Q 19.53125 -1.421875 13.0625 8.265625 
Q 6.59375 17.96875 6.59375 36.375 
Q 6.59375 54.828125 13.0625 64.515625 
Q 19.53125 74.21875 31.78125 74.21875 
z
" id="DejaVuSans-48"/>
     </defs>
     <g transform="translate(31.317754 127.519522)scale(0.1 -0.1)">
      <use xlink:href="#DejaVuSans-48"/>
     </g>
    </g>
   </g>
   <g id="xtick_2">
    <g id="line2d_3">
     <path d="M 60.646443 110.753493 
L 59.234506 111.548134 
" style="fill:none;stroke:#000000;stroke-linecap:square;stroke-width:0.8;"/>
    </g>
    <g id="text_2">
     <!-- 2 -->
     <defs>
      <path d="M 19.1875 8.296875 
L 53.609375 8.296875 
L 53.609375 0 
L 7.328125 0 
L 7.328125 8.296875 
Q 12.9375 14.109375 22.625 23.890625 
Q 32.328125 33.6875 34.8125 36.53125 
Q 39.546875 41.84375 41.421875 45.53125 
Q 43.3125 49.21875 43.3125 52.78125 
Q 43.3125 58.59375 39.234375 62.25 
Q 35.15625 65.921875 28.609375 65.921875 
Q 23.96875 65.921875 18.8125 64.3125 
Q 13.671875 62.703125 7.8125 59.421875 
L 7.8125 69.390625 
Q 13.765625 71.78125 18.9375 73 
Q 24.125 74.21875 28.421875 74.21875 
Q 39.75 74.21875 46.484375 68.546875 
Q 53.21875 62.890625 53.21875 53.421875 
Q 53.21875 48.921875 51.53125 44.890625 
Q 49.859375 40.875 45.40625 35.40625 
Q 44.1875 33.984375 37.640625 27.21875 
Q 31.109375 20.453125 19.1875 8.296875 
z
" id="DejaVuSans-50"/>
     </defs>
     <g transform="translate(49.138093 131.316419)scale(0.1 -0.1)">
      <use xlink:href="#DejaVuSans-50"/>
     </g>
    </g>
   </g>
   <g id="xtick_3">
    <g id="line2d_4">
     <path d="M 78.778759 114.486601 
L 77.388733 115.295365 
" style="fill:none;stroke:#000000;stroke-linecap:square;stroke-width:0.8;"/>
    </g>
    <g id="text_3">
     <!-- 4 -->
     <defs>
      <path d="M 37.796875 64.3125 
L 12.890625 25.390625 
L 37.796875 25.390625 
z
M 35.203125 72.90625 
L 47.609375 72.90625 
L 47.609375 25.390625 
L 58.015625 25.390625 
L 58.015625 17.1875 
L 47.609375 17.1875 
L 47.609375 0 
L 37.796875 0 
L 37.796875 17.1875 
L 4.890625 17.1875 
L 4.890625 26.703125 
z
" id="DejaVuSans-52"/>
     </defs>
     <g transform="translate(67.274783 135.18072)scale(0.1 -0.1)">
      <use xlink:href="#DejaVuSans-52"/>
     </g>
    </g>
   </g>
   <g id="xtick_4">
    <g id="line2d_5">
     <path d="M 97.234438 118.286285 
L 95.867334 119.109549 
" style="fill:none;stroke:#000000;stroke-linecap:square;stroke-width:0.8;"/>
    </g>
    <g id="text_4">
     <!-- 6 -->
     <defs>
      <path d="M 33.015625 40.375 
Q 26.375 40.375 22.484375 35.828125 
Q 18.609375 31.296875 18.609375 23.390625 
Q 18.609375 15.53125 22.484375 10.953125 
Q 26.375 6.390625 33.015625 6.390625 
Q 39.65625 6.390625 43.53125 10.953125 
Q 47.40625 15.53125 47.40625 23.390625 
Q 47.40625 31.296875 43.53125 35.828125 
Q 39.65625 40.375 33.015625 40.375 
z
M 52.59375 71.296875 
L 52.59375 62.3125 
Q 48.875 64.0625 45.09375 64.984375 
Q 41.3125 65.921875 37.59375 65.921875 
Q 27.828125 65.921875 22.671875 59.328125 
Q 17.53125 52.734375 16.796875 39.40625 
Q 19.671875 43.65625 24.015625 45.921875 
Q 28.375 48.1875 33.59375 48.1875 
Q 44.578125 48.1875 50.953125 41.515625 
Q 57.328125 34.859375 57.328125 23.390625 
Q 57.328125 12.15625 50.6875 5.359375 
Q 44.046875 -1.421875 33.015625 -1.421875 
Q 20.359375 -1.421875 13.671875 8.265625 
Q 6.984375 17.96875 6.984375 36.375 
Q 6.984375 53.65625 15.1875 63.9375 
Q 23.390625 74.21875 37.203125 74.21875 
Q 40.921875 74.21875 44.703125 73.484375 
Q 48.484375 72.75 52.59375 71.296875 
z
" id="DejaVuSans-54"/>
     </defs>
     <g transform="translate(85.736323 139.114235)scale(0.1 -0.1)">
      <use xlink:href="#DejaVuSans-54"/>
     </g>
    </g>
   </g>
   <g id="xtick_5">
    <g id="line2d_6">
     <path d="M 116.022207 122.154339 
L 114.679081 122.992499 
" style="fill:none;stroke:#000000;stroke-linecap:square;stroke-width:0.8;"/>
    </g>
    <g id="text_5">
     <!-- 8 -->
     <defs>
      <path d="M 31.78125 34.625 
Q 24.75 34.625 20.71875 30.859375 
Q 16.703125 27.09375 16.703125 20.515625 
Q 16.703125 13.921875 20.71875 10.15625 
Q 24.75 6.390625 31.78125 6.390625 
Q 38.8125 6.390625 42.859375 10.171875 
Q 46.921875 13.96875 46.921875 20.515625 
Q 46.921875 27.09375 42.890625 30.859375 
Q 38.875 34.625 31.78125 34.625 
z
M 21.921875 38.8125 
Q 15.578125 40.375 12.03125 44.71875 
Q 8.5 49.078125 8.5 55.328125 
Q 8.5 64.0625 14.71875 69.140625 
Q 20.953125 74.21875 31.78125 74.21875 
Q 42.671875 74.21875 48.875 69.140625 
Q 55.078125 64.0625 55.078125 55.328125 
Q 55.078125 49.078125 51.53125 44.71875 
Q 48 40.375 41.703125 38.8125 
Q 48.828125 37.15625 52.796875 32.3125 
Q 56.78125 27.484375 56.78125 20.515625 
Q 56.78125 9.90625 50.3125 4.234375 
Q 43.84375 -1.421875 31.78125 -1.421875 
Q 19.734375 -1.421875 13.25 4.234375 
Q 6.78125 9.90625 6.78125 20.515625 
Q 6.78125 27.484375 10.78125 32.3125 
Q 14.796875 37.15625 21.921875 38.8125 
z
M 18.3125 54.390625 
Q 18.3125 48.734375 21.84375 45.5625 
Q 25.390625 42.390625 31.78125 42.390625 
Q 38.140625 42.390625 41.71875 45.5625 
Q 45.3125 48.734375 45.3125 54.390625 
Q 45.3125 60.0625 41.71875 63.234375 
Q 38.140625 66.40625 31.78125 66.40625 
Q 25.390625 66.40625 21.84375 63.234375 
Q 18.3125 60.0625 18.3125 54.390625 
z
" id="DejaVuSans-56"/>
     </defs>
     <g transform="translate(104.531519 143.11884)scale(0.1 -0.1)">
      <use xlink:href="#DejaVuSans-56"/>
     </g>
    </g>
   </g>
  </g>
  <g id="axis3d_2">
   <g id="line2d_7">
    <path d="M 182.337831 92.92157 
L 131.398411 125.693886 
" style="fill:none;stroke:#000000;stroke-linecap:square;stroke-width:0.8;"/>
   </g>
   <g id="Line3DCollection_2">
    <path d="M 36.564365 43.917433 
L 40.366648 104.106501 
L 134.88463 123.450997 
" style="fill:none;stroke:#b0b0b0;stroke-width:0.8;"/>
    <path d="M 48.570044 38.406578 
L 51.70909 97.988712 
L 145.292142 116.755234 
" style="fill:none;stroke:#b0b0b0;stroke-width:0.8;"/>
    <path d="M 60.209248 33.063942 
L 62.722561 92.04836 
L 155.384181 110.262433 
" style="fill:none;stroke:#b0b0b0;stroke-width:0.8;"/>
    <path d="M 71.498505 27.88194 
L 73.421169 86.277837 
L 165.174876 103.963505 
" style="fill:none;stroke:#b0b0b0;stroke-width:0.8;"/>
    <path d="M 82.453363 22.853433 
L 83.818227 80.669962 
L 174.677526 97.849893 
" style="fill:none;stroke:#b0b0b0;stroke-width:0.8;"/>
   </g>
   <g id="xtick_6">
    <g id="line2d_8">
     <path d="M 134.093598 123.2891 
L 136.468463 123.775151 
" style="fill:none;stroke:#000000;stroke-linecap:square;stroke-width:0.8;"/>
    </g>
    <g id="text_6">
     <!-- 0 -->
     <g transform="translate(145.296339 142.045096)scale(0.1 -0.1)">
      <use xlink:href="#DejaVuSans-48"/>
     </g>
    </g>
   </g>
   <g id="xtick_7">
    <g id="line2d_9">
     <path d="M 144.509466 116.598281 
L 146.859218 117.069485 
" style="fill:none;stroke:#000000;stroke-linecap:square;stroke-width:0.8;"/>
    </g>
    <g id="text_7">
     <!-- 2 -->
     <g transform="translate(155.4846 135.186893)scale(0.1 -0.1)">
      <use xlink:href="#DejaVuSans-50"/>
     </g>
    </g>
   </g>
   <g id="xtick_8">
    <g id="line2d_10">
     <path d="M 154.609721 110.110201 
L 156.934779 110.567227 
" style="fill:none;stroke:#000000;stroke-linecap:square;stroke-width:0.8;"/>
    </g>
    <g id="text_8">
     <!-- 4 -->
     <g transform="translate(165.364333 128.536375)scale(0.1 -0.1)">
      <use xlink:href="#DejaVuSans-52"/>
     </g>
    </g>
   </g>
   <g id="xtick_9">
    <g id="line2d_11">
     <path d="M 164.408495 103.815784 
L 166.709275 104.259263 
" style="fill:none;stroke:#000000;stroke-linecap:square;stroke-width:0.8;"/>
    </g>
    <g id="text_9">
     <!-- 6 -->
     <g transform="translate(174.949345 122.084248)scale(0.1 -0.1)">
      <use xlink:href="#DejaVuSans-54"/>
     </g>
    </g>
   </g>
   <g id="xtick_10">
    <g id="line2d_12">
     <path d="M 173.919086 97.706485 
L 176.196001 98.137011 
" style="fill:none;stroke:#000000;stroke-linecap:square;stroke-width:0.8;"/>
    </g>
    <g id="text_10">
     <!-- 8 -->
     <g transform="translate(184.252629 115.821765)scale(0.1 -0.1)">
      <use xlink:href="#DejaVuSans-56"/>
     </g>
    </g>
   </g>
  </g>
  <g id="axis3d_3">
   <g id="line2d_13">
    <path d="M 182.337831 92.92157 
L 186.108713 33.848772 
" style="fill:none;stroke:#000000;stroke-linecap:square;stroke-width:0.8;"/>
   </g>
   <g id="Line3DCollection_3">
    <path d="M 182.409553 91.798014 
L 92.191365 75.051207 
L 36.494231 105.007238 
" style="fill:none;stroke:#b0b0b0;stroke-width:0.8;"/>
    <path d="M 183.08823 81.166187 
L 92.024363 64.713003 
L 35.770161 94.152927 
" style="fill:none;stroke:#b0b0b0;stroke-width:0.8;"/>
    <path d="M 183.779863 70.331401 
L 91.854309 54.185787 
L 35.031806 83.08449 
" style="fill:none;stroke:#b0b0b0;stroke-width:0.8;"/>
    <path d="M 184.484826 59.287788 
L 91.681116 43.464328 
L 34.278741 71.795531 
" style="fill:none;stroke:#b0b0b0;stroke-width:0.8;"/>
    <path d="M 185.203509 48.029253 
L 91.504698 32.5432 
L 33.510521 60.279392 
" style="fill:none;stroke:#b0b0b0;stroke-width:0.8;"/>
    <path d="M 185.936316 36.54946 
L 91.324964 21.416773 
L 32.726684 48.529145 
" style="fill:none;stroke:#b0b0b0;stroke-width:0.8;"/>
   </g>
   <g id="xtick_11">
    <g id="line2d_14">
     <path d="M 181.656811 91.658286 
L 183.916603 92.077761 
" style="fill:none;stroke:#000000;stroke-linecap:square;stroke-width:0.8;"/>
    </g>
    <g id="text_11">
     <!-- 0.0 -->
     <defs>
      <path d="M 10.6875 12.40625 
L 21 12.40625 
L 21 0 
L 10.6875 0 
z
" id="DejaVuSans-46"/>
     </defs>
     <g transform="translate(194.066208 97.621385)scale(0.1 -0.1)">
      <use xlink:href="#DejaVuSans-48"/>
      <use x="63.623047" xlink:href="#DejaVuSans-46"/>
      <use x="95.410156" xlink:href="#DejaVuSans-48"/>
     </g>
    </g>
   </g>
   <g id="xtick_12">
    <g id="line2d_15">
     <path d="M 182.328137 81.028855 
L 184.610014 81.441139 
" style="fill:none;stroke:#000000;stroke-linecap:square;stroke-width:0.8;"/>
    </g>
    <g id="text_12">
     <!-- 0.2 -->
     <g transform="translate(194.926436 87.020069)scale(0.1 -0.1)">
      <use xlink:href="#DejaVuSans-48"/>
      <use x="63.623047" xlink:href="#DejaVuSans-46"/>
      <use x="95.410156" xlink:href="#DejaVuSans-50"/>
     </g>
    </g>
   </g>
   <g id="xtick_13">
    <g id="line2d_16">
     <path d="M 183.012273 70.196583 
L 185.316671 70.601323 
" style="fill:none;stroke:#000000;stroke-linecap:square;stroke-width:0.8;"/>
    </g>
    <g id="text_13">
     <!-- 0.4 -->
     <g transform="translate(195.803012 76.217283)scale(0.1 -0.1)">
      <use xlink:href="#DejaVuSans-48"/>
      <use x="63.623047" xlink:href="#DejaVuSans-46"/>
      <use x="95.410156" xlink:href="#DejaVuSans-52"/>
     </g>
    </g>
   </g>
   <g id="xtick_14">
    <g id="line2d_17">
     <path d="M 183.709591 59.155607 
L 186.036958 59.552434 
" style="fill:none;stroke:#000000;stroke-linecap:square;stroke-width:0.8;"/>
    </g>
    <g id="text_14">
     <!-- 0.6 -->
     <g transform="translate(196.696406 65.20723)scale(0.1 -0.1)">
      <use xlink:href="#DejaVuSans-48"/>
      <use x="63.623047" xlink:href="#DejaVuSans-46"/>
      <use x="95.410156" xlink:href="#DejaVuSans-54"/>
     </g>
    </g>
   </g>
   <g id="xtick_15">
    <g id="line2d_18">
     <path d="M 184.420474 47.899837 
L 186.771272 48.288365 
" style="fill:none;stroke:#000000;stroke-linecap:square;stroke-width:0.8;"/>
    </g>
    <g id="text_15">
     <!-- 0.8 -->
     <g transform="translate(197.607108 53.983887)scale(0.1 -0.1)">
      <use xlink:href="#DejaVuSans-48"/>
      <use x="63.623047" xlink:href="#DejaVuSans-46"/>
      <use x="95.410156" xlink:href="#DejaVuSans-56"/>
     </g>
    </g>
   </g>
   <g id="xtick_16">
    <g id="line2d_19">
     <path d="M 185.145323 36.422944 
L 187.520028 36.802768 
" style="fill:none;stroke:#000000;stroke-linecap:square;stroke-width:0.8;"/>
    </g>
    <g id="text_16">
     <!-- 1.0 -->
     <defs>
      <path d="M 12.40625 8.296875 
L 28.515625 8.296875 
L 28.515625 63.921875 
L 10.984375 60.40625 
L 10.984375 69.390625 
L 28.421875 72.90625 
L 38.28125 72.90625 
L 38.28125 8.296875 
L 54.390625 8.296875 
L 54.390625 0 
L 12.40625 0 
z
" id="DejaVuSans-49"/>
     </defs>
     <g transform="translate(198.535624 42.540995)scale(0.1 -0.1)">
      <use xlink:href="#DejaVuSans-49"/>
      <use x="63.623047" xlink:href="#DejaVuSans-46"/>
      <use x="95.410156" xlink:href="#DejaVuSans-48"/>
     </g>
    </g>
   </g>
  </g>
  <g id="axes_1">
   <g id="Poly3DCollection_1">
    <path clip-path="url(#p926466d4bb)" d="M 89.029015 63.388228 
L 97.718889 67.804133 
L 102.910462 79.447861 
L 94.420764 77.862197 
z
" style="fill:#ebebeb;stroke:#000000;"/>
    <path clip-path="url(#p926466d4bb)" d="M 97.718889 67.804133 
L 106.391639 59.606926 
L 111.469565 81.046488 
L 102.910462 79.447861 
z
" style="fill:#e1e1e1;stroke:#000000;"/>
    <path clip-path="url(#p926466d4bb)" d="M 84.041373 76.155184 
L 92.624165 75.194158 
L 97.718889 67.804133 
L 89.029015 63.388228 
z
" style="fill:#d1d1d1;stroke:#000000;"/>
    <path clip-path="url(#p926466d4bb)" d="M 78.916275 83.41135 
L 87.45602 80.617283 
L 92.624165 75.194158 
L 84.041373 76.155184 
z
" style="fill:#f2f2f2;stroke:#000000;"/>
    <path clip-path="url(#p926466d4bb)" d="M 106.391639 59.606926 
L 115.273238 54.905979 
L 120.098928 82.658239 
L 111.469565 81.046488 
z
" style="fill:#c9c9c9;stroke:#000000;"/>
    <path clip-path="url(#p926466d4bb)" d="M 115.273238 54.905979 
L 124.128924 67.085385 
L 128.799421 84.283274 
L 120.098928 82.658239 
z
" style="fill:#cfcfcf;stroke:#000000;"/>
    <path clip-path="url(#p926466d4bb)" d="M 124.128924 67.085385 
L 132.95147 76.401875 
L 137.571924 85.921759 
L 128.799421 84.283274 
z
" style="fill:#eaeaea;stroke:#000000;"/>
    <path clip-path="url(#p926466d4bb)" d="M 132.95147 76.401875 
L 141.76404 84.432359 
L 146.417338 87.573862 
L 137.571924 85.921759 
z
" style="fill:#ffffff;stroke:#000000;"/>
    <path clip-path="url(#p926466d4bb)" d="M 92.624165 75.194158 
L 101.257331 66.783142 
L 106.391639 59.606926 
L 97.718889 67.804133 
z
" style="fill:#b4b4b4;stroke:#000000;"/>
    <path clip-path="url(#p926466d4bb)" d="M 87.45602 80.617283 
L 96.18651 81.789662 
L 101.257331 66.783142 
L 92.624165 75.194158 
z
" style="fill:#d8d8d8;stroke:#000000;"/>
    <path clip-path="url(#p926466d4bb)" d="M 73.577125 85.20814 
L 81.717368 65.432058 
L 87.45602 80.617283 
L 78.916275 83.41135 
z
" style="fill:#e0e0e0;stroke:#000000;"/>
    <path clip-path="url(#p926466d4bb)" d="M 141.76404 84.432359 
L 151.312328 71.034509 
L 155.336574 89.239753 
L 146.417338 87.573862 
z
" style="fill:#f3f3f3;stroke:#000000;"/>
    <path clip-path="url(#p926466d4bb)" d="M 96.18651 81.789662 
L 104.982524 79.829088 
L 110.119728 61.440706 
L 101.257331 66.783142 
z
" style="fill:#b8b8b8;stroke:#000000;"/>
    <path clip-path="url(#p926466d4bb)" d="M 101.257331 66.783142 
L 110.119728 61.440706 
L 115.273238 54.905979 
L 106.391639 59.606926 
z
" style="fill:#838383;stroke:#000000;"/>
    <path clip-path="url(#p926466d4bb)" d="M 81.717368 65.432058 
L 90.760301 74.306554 
L 96.18651 81.789662 
L 87.45602 80.617283 
z
" style="fill:#c4c4c4;stroke:#000000;"/>
    <path clip-path="url(#p926466d4bb)" d="M 160.940432 63.17584 
L 168.717727 95.581654 
L 173.40024 92.613597 
L 164.33056 90.919606 
z
" style="fill:#eeeeee;stroke:#000000;"/>
    <path clip-path="url(#p926466d4bb)" d="M 119.091653 66.202601 
L 128.050581 73.629224 
L 132.95147 76.401875 
L 124.128924 67.085385 
z
" style="fill:#acacac;stroke:#000000;"/>
    <path clip-path="url(#p926466d4bb)" d="M 128.050581 73.629224 
L 137.139269 74.84863 
L 141.76404 84.432359 
L 132.95147 76.401875 
z
" style="fill:#c9c9c9;stroke:#000000;"/>
    <path clip-path="url(#p926466d4bb)" d="M 151.312328 71.034509 
L 160.940432 63.17584 
L 164.33056 90.919606 
L 155.336574 89.239753 
z
" style="fill:#cfcfcf;stroke:#000000;"/>
    <path clip-path="url(#p926466d4bb)" d="M 90.760301 74.306554 
L 99.759595 82.425389 
L 104.982524 79.829088 
L 96.18651 81.789662 
z
" style="fill:#d2d2d2;stroke:#000000;"/>
    <path clip-path="url(#p926466d4bb)" d="M 110.119728 61.440706 
L 119.091653 66.202601 
L 124.128924 67.085385 
L 115.273238 54.905979 
z
" style="fill:#848484;stroke:#000000;"/>
    <path clip-path="url(#p926466d4bb)" d="M 104.982524 79.829088 
L 113.902376 80.582924 
L 119.091653 66.202601 
L 110.119728 61.440706 
z
" style="fill:#acacac;stroke:#000000;"/>
    <path clip-path="url(#p926466d4bb)" d="M 68.23044 89.179351 
L 76.003508 59.51799 
L 81.717368 65.432058 
L 73.577125 85.20814 
z
" style="fill:#b9b9b9;stroke:#000000;"/>
    <path clip-path="url(#p926466d4bb)" d="M 99.759595 82.425389 
L 108.719575 82.082516 
L 113.902376 80.582924 
L 104.982524 79.829088 
z
" style="fill:#d1d1d1;stroke:#000000;"/>
    <path clip-path="url(#p926466d4bb)" d="M 113.902376 80.582924 
L 122.955617 77.405579 
L 128.050581 73.629224 
L 119.091653 66.202601 
z
" style="fill:#b1b1b1;stroke:#000000;"/>
    <path clip-path="url(#p926466d4bb)" d="M 108.719575 82.082516 
L 117.700839 95.756864 
L 122.955617 77.405579 
L 113.902376 80.582924 
z
" style="fill:#d8d8d8;stroke:#000000;"/>
    <path clip-path="url(#p926466d4bb)" d="M 137.139269 74.84863 
L 146.729851 62.764584 
L 151.312328 71.034509 
L 141.76404 84.432359 
z
" style="fill:#a7a7a7;stroke:#000000;"/>
    <path clip-path="url(#p926466d4bb)" d="M 122.955617 77.405579 
L 132.221732 71.189603 
L 137.139269 74.84863 
L 128.050581 73.629224 
z
" style="fill:#a6a6a6;stroke:#000000;"/>
    <path clip-path="url(#p926466d4bb)" d="M 62.559525 87.189224 
L 70.496531 64.402426 
L 76.003508 59.51799 
L 68.23044 89.179351 
z
" style="fill:#aaaaaa;stroke:#000000;"/>
    <path clip-path="url(#p926466d4bb)" d="M 85.133711 65.779209 
L 94.31497 75.190768 
L 99.759595 82.425389 
L 90.760301 74.306554 
z
" style="fill:#a2a2a2;stroke:#000000;"/>
    <path clip-path="url(#p926466d4bb)" d="M 156.25677 60.003831 
L 163.965946 98.593616 
L 168.717727 95.581654 
L 160.940432 63.17584 
z
" style="fill:#b8b8b8;stroke:#000000;"/>
    <path clip-path="url(#p926466d4bb)" d="M 117.700839 95.756864 
L 126.915191 85.256774 
L 132.221732 71.189603 
L 122.955617 77.405579 
z
" style="fill:#c5c5c5;stroke:#000000;"/>
    <path clip-path="url(#p926466d4bb)" d="M 76.003508 59.51799 
L 85.133711 65.779209 
L 90.760301 74.306554 
L 81.717368 65.432058 
z
" style="fill:#7c7c7c;stroke:#000000;"/>
    <path clip-path="url(#p926466d4bb)" d="M 94.31497 75.190768 
L 103.397984 76.045344 
L 108.719575 82.082516 
L 99.759595 82.425389 
z
" style="fill:#b3b3b3;stroke:#000000;"/>
    <path clip-path="url(#p926466d4bb)" d="M 103.397984 76.045344 
L 112.55935 85.455882 
L 117.700839 95.756864 
L 108.719575 82.082516 
z
" style="fill:#cccccc;stroke:#000000;"/>
    <path clip-path="url(#p926466d4bb)" d="M 112.55935 85.455882 
L 121.709119 91.50318 
L 126.915191 85.256774 
L 117.700839 95.756864 
z
" style="fill:#dddddd;stroke:#000000;"/>
    <path clip-path="url(#p926466d4bb)" d="M 132.221732 71.189603 
L 141.456161 73.843993 
L 146.729851 62.764584 
L 137.139269 74.84863 
z
" style="fill:#878787;stroke:#000000;"/>
    <path clip-path="url(#p926466d4bb)" d="M 150.915754 71.962411 
L 159.143351 101.650466 
L 163.965946 98.593616 
L 156.25677 60.003831 
z
" style="fill:#bdbdbd;stroke:#000000;"/>
    <path clip-path="url(#p926466d4bb)" d="M 146.729851 62.764584 
L 156.25677 60.003831 
L 160.940432 63.17584 
L 151.312328 71.034509 
z
" style="fill:#696969;stroke:#000000;"/>
    <path clip-path="url(#p926466d4bb)" d="M 126.915191 85.256774 
L 136.081859 89.203145 
L 141.456161 73.843993 
L 132.221732 71.189603 
z
" style="fill:#acacac;stroke:#000000;"/>
    <path clip-path="url(#p926466d4bb)" d="M 121.709119 91.50318 
L 130.925605 94.410162 
L 136.081859 89.203145 
L 126.915191 85.256774 
z
" style="fill:#d6d6d6;stroke:#000000;"/>
    <path clip-path="url(#p926466d4bb)" d="M 145.491074 86.72592 
L 154.248345 104.753213 
L 159.143351 101.650466 
L 150.915754 71.962411 
z
" style="fill:#dbdbdb;stroke:#000000;"/>
    <path clip-path="url(#p926466d4bb)" d="M 56.182734 73.167859 
L 64.683061 63.259592 
L 70.496531 64.402426 
L 62.559525 87.189224 
z
" style="fill:#878787;stroke:#000000;"/>
    <path clip-path="url(#p926466d4bb)" d="M 140.127742 100.222675 
L 149.279285 107.9029 
L 154.248345 104.753213 
L 145.491074 86.72592 
z
" style="fill:#fbfbfb;stroke:#000000;"/>
    <path clip-path="url(#p926466d4bb)" d="M 130.925605 94.410162 
L 140.127742 100.222675 
L 145.491074 86.72592 
L 136.081859 89.203145 
z
" style="fill:#dadada;stroke:#000000;"/>
    <path clip-path="url(#p926466d4bb)" d="M 136.081859 89.203145 
L 145.491074 86.72592 
L 150.915754 71.962411 
L 141.456161 73.843993 
z
" style="fill:#a5a5a5;stroke:#000000;"/>
    <path clip-path="url(#p926466d4bb)" d="M 98.050652 82.602283 
L 107.245345 85.331626 
L 112.55935 85.455882 
L 103.397984 76.045344 
z
" style="fill:#ababab;stroke:#000000;"/>
    <path clip-path="url(#p926466d4bb)" d="M 88.695217 68.114021 
L 98.050652 82.602283 
L 103.397984 76.045344 
L 94.31497 75.190768 
z
" style="fill:#8e8e8e;stroke:#000000;"/>
    <path clip-path="url(#p926466d4bb)" d="M 141.456161 73.843993 
L 150.915754 71.962411 
L 156.25677 60.003831 
L 146.729851 62.764584 
z
" style="fill:#696969;stroke:#000000;"/>
    <path clip-path="url(#p926466d4bb)" d="M 70.496531 64.402426 
L 79.256069 55.094188 
L 85.133711 65.779209 
L 76.003508 59.51799 
z
" style="fill:#4f4f4f;stroke:#000000;"/>
    <path clip-path="url(#p926466d4bb)" d="M 79.256069 55.094188 
L 88.695217 68.114021 
L 94.31497 75.190768 
L 85.133711 65.779209 
z
" style="fill:#626262;stroke:#000000;"/>
    <path clip-path="url(#p926466d4bb)" d="M 107.245345 85.331626 
L 116.536068 82.106901 
L 121.709119 91.50318 
L 112.55935 85.455882 
z
" style="fill:#b7b7b7;stroke:#000000;"/>
    <path clip-path="url(#p926466d4bb)" d="M 135.201967 94.534778 
L 144.234479 111.1006 
L 149.279285 107.9029 
L 140.127742 100.222675 
z
" style="fill:#fdfdfd;stroke:#000000;"/>
    <path clip-path="url(#p926466d4bb)" d="M 92.756185 95.508656 
L 101.835726 87.266906 
L 107.245345 85.331626 
L 98.050652 82.602283 
z
" style="fill:#b9b9b9;stroke:#000000;"/>
    <path clip-path="url(#p926466d4bb)" d="M 83.18695 73.266102 
L 92.756185 95.508656 
L 98.050652 82.602283 
L 88.695217 68.114021 
z
" style="fill:#969696;stroke:#000000;"/>
    <path clip-path="url(#p926466d4bb)" d="M 116.536068 82.106901 
L 125.934533 83.121117 
L 130.925605 94.410162 
L 121.709119 91.50318 
z
" style="fill:#b7b7b7;stroke:#000000;"/>
    <path clip-path="url(#p926466d4bb)" d="M 125.934533 83.121117 
L 135.201967 94.534778 
L 140.127742 100.222675 
L 130.925605 94.410162 
z
" style="fill:#cbcbcb;stroke:#000000;"/>
    <path clip-path="url(#p926466d4bb)" d="M 78.15075 96.939618 
L 86.975796 84.540121 
L 92.756185 95.508656 
L 83.18695 73.266102 
z
" style="fill:#b1b1b1;stroke:#000000;"/>
    <path clip-path="url(#p926466d4bb)" d="M 64.683061 63.259592 
L 73.369617 51.016312 
L 79.256069 55.094188 
L 70.496531 64.402426 
z
" style="fill:#303030;stroke:#000000;"/>
    <path clip-path="url(#p926466d4bb)" d="M 49.364525 55.729962 
L 58.36761 53.841705 
L 64.683061 63.259592 
L 56.182734 73.167859 
z
" style="fill:#3a3a3a;stroke:#000000;"/>
    <path clip-path="url(#p926466d4bb)" d="M 101.835726 87.266906 
L 111.161986 78.56335 
L 116.536068 82.106901 
L 107.245345 85.331626 
z
" style="fill:#969696;stroke:#000000;"/>
    <path clip-path="url(#p926466d4bb)" d="M 73.369617 51.016312 
L 83.18695 73.266102 
L 88.695217 68.114021 
L 79.256069 55.094188 
z
" style="fill:#3a3a3a;stroke:#000000;"/>
    <path clip-path="url(#p926466d4bb)" d="M 130.12687 88.259523 
L 139.112181 114.347419 
L 144.234479 111.1006 
L 135.201967 94.534778 
z
" style="fill:#e3e3e3;stroke:#000000;"/>
    <path clip-path="url(#p926466d4bb)" d="M 67.952719 63.939112 
L 78.15075 96.939618 
L 83.18695 73.266102 
L 73.369617 51.016312 
z
" style="fill:#5f5f5f;stroke:#000000;"/>
    <path clip-path="url(#p926466d4bb)" d="M 62.753468 81.768921 
L 72.128022 88.128424 
L 78.15075 96.939618 
L 67.952719 63.939112 
z
" style="fill:#8e8e8e;stroke:#000000;"/>
    <path clip-path="url(#p926466d4bb)" d="M 86.975796 84.540121 
L 96.045269 66.666027 
L 101.835726 87.266906 
L 92.756185 95.508656 
z
" style="fill:#909090;stroke:#000000;"/>
    <path clip-path="url(#p926466d4bb)" d="M 72.128022 88.128424 
L 81.052272 76.844067 
L 86.975796 84.540121 
L 78.15075 96.939618 
z
" style="fill:#9a9a9a;stroke:#000000;"/>
    <path clip-path="url(#p926466d4bb)" d="M 58.36761 53.841705 
L 67.952719 63.939112 
L 73.369617 51.016312 
L 64.683061 63.259592 
z
" style="fill:#1d1d1d;stroke:#000000;"/>
    <path clip-path="url(#p926466d4bb)" d="M 111.161986 78.56335 
L 120.741123 70.520958 
L 125.934533 83.121117 
L 116.536068 82.106901 
z
" style="fill:#717171;stroke:#000000;"/>
    <path clip-path="url(#p926466d4bb)" d="M 124.733227 93.793938 
L 133.910591 117.644498 
L 139.112181 114.347419 
L 130.12687 88.259523 
z
" style="fill:#d9d9d9;stroke:#000000;"/>
    <path clip-path="url(#p926466d4bb)" d="M 120.741123 70.520958 
L 130.12687 88.259523 
L 135.201967 94.534778 
L 125.934533 83.121117 
z
" style="fill:#878787;stroke:#000000;"/>
    <path clip-path="url(#p926466d4bb)" d="M 52.508653 57.914101 
L 62.753468 81.768921 
L 67.952719 63.939112 
L 58.36761 53.841705 
z
" style="fill:#313131;stroke:#000000;"/>
    <path clip-path="url(#p926466d4bb)" d="M 96.045269 66.666027 
L 105.659734 79.537746 
L 111.161986 78.56335 
L 101.835726 87.266906 
z
" style="fill:#676767;stroke:#000000;"/>
    <path clip-path="url(#p926466d4bb)" d="M 42.789799 47.742295 
L 52.508653 57.914101 
L 58.36761 53.841705 
L 49.364525 55.729962 
z
" style="stroke:#000000;"/>
    <path clip-path="url(#p926466d4bb)" d="M 119.254741 102.30751 
L 128.627854 120.993012 
L 133.910591 117.644498 
L 124.733227 93.793938 
z
" style="fill:#e4e4e4;stroke:#000000;"/>
    <path clip-path="url(#p926466d4bb)" d="M 105.659734 79.537746 
L 115.250212 73.793263 
L 120.741123 70.520958 
L 111.161986 78.56335 
z
" style="fill:#4f4f4f;stroke:#000000;"/>
    <path clip-path="url(#p926466d4bb)" d="M 115.250212 73.793263 
L 124.733227 93.793938 
L 130.12687 88.259523 
L 120.741123 70.520958 
z
" style="fill:#676767;stroke:#000000;"/>
    <path clip-path="url(#p926466d4bb)" d="M 109.691298 98.289769 
L 119.254741 102.30751 
L 124.733227 93.793938 
L 115.250212 73.793263 
z
" style="fill:#909090;stroke:#000000;"/>
    <path clip-path="url(#p926466d4bb)" d="M 81.052272 76.844067 
L 90.082121 54.589018 
L 96.045269 66.666027 
L 86.975796 84.540121 
z
" style="fill:#383838;stroke:#000000;"/>
    <path clip-path="url(#p926466d4bb)" d="M 100.067837 82.481353 
L 109.691298 98.289769 
L 115.250212 73.793263 
L 105.659734 79.537746 
z
" style="fill:#6a6a6a;stroke:#000000;"/>
    <path clip-path="url(#p926466d4bb)" d="M 90.082121 54.589018 
L 100.067837 82.481353 
L 105.659734 79.537746 
L 96.045269 66.666027 
z
" style="fill:#2e2e2e;stroke:#000000;"/>
   </g>
  </g>
 </g>
 <defs>
  <clipPath id="p926466d4bb">
   <rect height="122.4" width="194.4" x="10.8" y="10.8"/>
  </clipPath>
 </defs>
</svg>
