<?xml version="1.0" encoding="utf-8" standalone="no"?>
<!DOCTYPE svg PUBLIC "-//W3C//DTD SVG 1.1//EN"
  "http://www.w3.org/Graphics/SVG/1.1/DTD/svg11.dtd">
<!-- Created with matplotlib (https://matplotlib.org/) -->
<svg height="144pt" version="1.1" viewBox="0 0 216 144" width="216pt" xmlns="http://www.w3.org/2000/svg" xmlns:xlink="http://www.w3.org/1999/xlink">
 <defs>
  <style type="text/css">
*{stroke-linecap:butt;stroke-linejoin:round;}
  </style>
 </defs>
 <g id="figure_1">
  <g id="patch_1">
   <path d="M 0 144 
L 216 144 
L 216 0 
L 0 0 
z
" style="fill:#ffffff;"/>
  </g>
  <g id="patch_2">
   <path d="M 10.8 133.2 
L 205.2 133.2 
L 205.2 10.8 
L 10.8 10.8 
z
" style="fill:#ffffff;"/>
  </g>
  <g id="pane3d_1">
   <g id="patch_3">
    <path d="M 36.570724 106.153914 
L 92.209021 76.144207 
L 91.282702 18.800583 
L 32.542206 45.763687 
" style="fill:#f2f2f2;opacity:0.5;stroke:#f2f2f2;stroke-linejoin:miter;"/>
   </g>
  </g>
  <g id="pane3d_2">
   <g id="patch_4">
    <path d="M 92.209021 76.144207 
L 182.337831 92.92157 
L 186.108713 33.848772 
L 91.282702 18.800583 
" style="fill:#e6e6e6;opacity:0.5;stroke:#e6e6e6;stroke-linejoin:miter;"/>
   </g>
  </g>
  <g id="pane3d_3">
   <g id="patch_5">
    <path d="M 36.570724 106.153914 
L 131.398411 125.693886 
L 182.337831 92.92157 
L 92.209021 76.144207 
" style="fill:#ececec;opacity:0.5;stroke:#ececec;stroke-linejoin:miter;"/>
   </g>
  </g>
  <g id="axis3d_1">
   <g id="line2d_1">
    <path d="M 36.570724 106.153914 
L 131.398411 125.693886 
" style="fill:none;stroke:#000000;stroke-linecap:square;stroke-width:0.8;"/>
   </g>
   <g id="Line3DCollection_1">
    <path d="M 42.352032 107.345197 
L 97.721186 77.170289 
L 97.070293 19.719031 
" style="fill:none;stroke:#b0b0b0;stroke-width:0.8;"/>
    <path d="M 62.426428 111.48168 
L 116.843521 80.729888 
L 117.160059 22.907129 
" style="fill:none;stroke:#b0b0b0;stroke-width:0.8;"/>
    <path d="M 82.901148 115.700653 
L 136.319223 84.355265 
L 137.640158 26.15717 
" style="fill:none;stroke:#b0b0b0;stroke-width:0.8;"/>
    <path d="M 103.788289 120.004609 
L 156.158179 88.048261 
L 158.522077 29.470976 
" style="fill:none;stroke:#b0b0b0;stroke-width:0.8;"/>
    <path d="M 125.100437 124.39614 
L 176.370648 91.810786 
L 179.817758 32.850444 
" style="fill:none;stroke:#b0b0b0;stroke-width:0.8;"/>
   </g>
   <g id="xtick_1">
    <g id="line2d_2">
     <path d="M 42.829066 107.085224 
L 41.396185 107.866111 
" style="fill:none;stroke:#000000;stroke-linecap:square;stroke-width:0.8;"/>
    </g>
    <g id="text_1">
     <!-- 0 -->
     <defs>
      <path d="M 31.78125 66.40625 
Q 24.171875 66.40625 20.328125 58.90625 
Q 16.5 51.421875 16.5 36.375 
Q 16.5 21.390625 20.328125 13.890625 
Q 24.171875 6.390625 31.78125 6.390625 
Q 39.453125 6.390625 43.28125 13.890625 
Q 47.125 21.390625 47.125 36.375 
Q 47.125 51.421875 43.28125 58.90625 
Q 39.453125 66.40625 31.78125 66.40625 
z
M 31.78125 74.21875 
Q 44.046875 74.21875 50.515625 64.515625 
Q 56.984375 54.828125 56.984375 36.375 
Q 56.984375 17.96875 50.515625 8.265625 
Q 44.046875 -1.421875 31.78125 -1.421875 
Q 19.53125 -1.421875 13.0625 8.265625 
Q 6.59375 17.96875 6.59375 36.375 
Q 6.59375 54.828125 13.0625 64.515625 
Q 19.53125 74.21875 31.78125 74.21875 
z
" id="DejaVuSans-48"/>
     </defs>
     <g transform="translate(31.317754 127.519522)scale(0.1 -0.1)">
      <use xlink:href="#DejaVuSans-48"/>
     </g>
    </g>
   </g>
   <g id="xtick_2">
    <g id="line2d_3">
     <path d="M 62.89559 111.21655 
L 61.486337 112.012937 
" style="fill:none;stroke:#000000;stroke-linecap:square;stroke-width:0.8;"/>
    </g>
    <g id="text_2">
     <!-- 1 -->
     <defs>
      <path d="M 12.40625 8.296875 
L 28.515625 8.296875 
L 28.515625 63.921875 
L 10.984375 60.40625 
L 10.984375 69.390625 
L 28.421875 72.90625 
L 38.28125 72.90625 
L 38.28125 8.296875 
L 54.390625 8.296875 
L 54.390625 0 
L 12.40625 0 
z
" id="DejaVuSans-49"/>
     </defs>
     <g transform="translate(51.387708 131.795734)scale(0.1 -0.1)">
      <use xlink:href="#DejaVuSans-49"/>
     </g>
    </g>
   </g>
   <g id="xtick_3">
    <g id="line2d_4">
     <path d="M 83.362028 115.430212 
L 81.977636 116.242564 
" style="fill:none;stroke:#000000;stroke-linecap:square;stroke-width:0.8;"/>
    </g>
    <g id="text_3">
     <!-- 2 -->
     <defs>
      <path d="M 19.1875 8.296875 
L 53.609375 8.296875 
L 53.609375 0 
L 7.328125 0 
L 7.328125 8.296875 
Q 12.9375 14.109375 22.625 23.890625 
Q 32.328125 33.6875 34.8125 36.53125 
Q 39.546875 41.84375 41.421875 45.53125 
Q 43.3125 49.21875 43.3125 52.78125 
Q 43.3125 58.59375 39.234375 62.25 
Q 35.15625 65.921875 28.609375 65.921875 
Q 23.96875 65.921875 18.8125 64.3125 
Q 13.671875 62.703125 7.8125 59.421875 
L 7.8125 69.390625 
Q 13.765625 71.78125 18.9375 73 
Q 24.125 74.21875 28.421875 74.21875 
Q 39.75 74.21875 46.484375 68.546875 
Q 53.21875 62.890625 53.21875 53.421875 
Q 53.21875 48.921875 51.53125 44.890625 
Q 49.859375 40.875 45.40625 35.40625 
Q 44.1875 33.984375 37.640625 27.21875 
Q 31.109375 20.453125 19.1875 8.296875 
z
" id="DejaVuSans-50"/>
     </defs>
     <g transform="translate(71.859374 136.157538)scale(0.1 -0.1)">
      <use xlink:href="#DejaVuSans-50"/>
     </g>
    </g>
   </g>
   <g id="xtick_4">
    <g id="line2d_5">
     <path d="M 104.240456 119.728694 
L 102.882217 120.557497 
" style="fill:none;stroke:#000000;stroke-linecap:square;stroke-width:0.8;"/>
    </g>
    <g id="text_4">
     <!-- 3 -->
     <defs>
      <path d="M 40.578125 39.3125 
Q 47.65625 37.796875 51.625 33 
Q 55.609375 28.21875 55.609375 21.1875 
Q 55.609375 10.40625 48.1875 4.484375 
Q 40.765625 -1.421875 27.09375 -1.421875 
Q 22.515625 -1.421875 17.65625 -0.515625 
Q 12.796875 0.390625 7.625 2.203125 
L 7.625 11.71875 
Q 11.71875 9.328125 16.59375 8.109375 
Q 21.484375 6.890625 26.8125 6.890625 
Q 36.078125 6.890625 40.9375 10.546875 
Q 45.796875 14.203125 45.796875 21.1875 
Q 45.796875 27.640625 41.28125 31.265625 
Q 36.765625 34.90625 28.71875 34.90625 
L 20.21875 34.90625 
L 20.21875 43.015625 
L 29.109375 43.015625 
Q 36.375 43.015625 40.234375 45.921875 
Q 44.09375 48.828125 44.09375 54.296875 
Q 44.09375 59.90625 40.109375 62.90625 
Q 36.140625 65.921875 28.71875 65.921875 
Q 24.65625 65.921875 20.015625 65.03125 
Q 15.375 64.15625 9.8125 62.3125 
L 9.8125 71.09375 
Q 15.4375 72.65625 20.34375 73.4375 
Q 25.25 74.21875 29.59375 74.21875 
Q 40.828125 74.21875 47.359375 69.109375 
Q 53.90625 64.015625 53.90625 55.328125 
Q 53.90625 49.265625 50.4375 45.09375 
Q 46.96875 40.921875 40.578125 39.3125 
z
" id="DejaVuSans-51"/>
     </defs>
     <g transform="translate(92.744938 140.607528)scale(0.1 -0.1)">
      <use xlink:href="#DejaVuSans-51"/>
     </g>
    </g>
   </g>
   <g id="xtick_5">
    <g id="line2d_6">
     <path d="M 125.54344 124.114585 
L 124.212712 124.960344 
" style="fill:none;stroke:#000000;stroke-linecap:square;stroke-width:0.8;"/>
    </g>
    <g id="text_5">
     <!-- 4 -->
     <defs>
      <path d="M 37.796875 64.3125 
L 12.890625 25.390625 
L 37.796875 25.390625 
z
M 35.203125 72.90625 
L 47.609375 72.90625 
L 47.609375 25.390625 
L 58.015625 25.390625 
L 58.015625 17.1875 
L 47.609375 17.1875 
L 47.609375 0 
L 37.796875 0 
L 37.796875 17.1875 
L 4.890625 17.1875 
L 4.890625 26.703125 
z
" id="DejaVuSans-52"/>
     </defs>
     <g transform="translate(114.057078 145.148407)scale(0.1 -0.1)">
      <use xlink:href="#DejaVuSans-52"/>
     </g>
    </g>
   </g>
  </g>
  <g id="axis3d_2">
   <g id="line2d_7">
    <path d="M 182.337831 92.92157 
L 131.398411 125.693886 
" style="fill:none;stroke:#000000;stroke-linecap:square;stroke-width:0.8;"/>
   </g>
   <g id="Line3DCollection_2">
    <path d="M 36.564365 43.917433 
L 40.366648 104.106501 
L 134.88463 123.450997 
" style="fill:none;stroke:#b0b0b0;stroke-width:0.8;"/>
    <path d="M 50.044637 37.729709 
L 53.103467 97.236625 
L 146.570602 115.932726 
" style="fill:none;stroke:#b0b0b0;stroke-width:0.8;"/>
    <path d="M 63.063746 31.753668 
L 65.426198 90.590096 
L 157.859573 108.669869 
" style="fill:none;stroke:#b0b0b0;stroke-width:0.8;"/>
    <path d="M 75.644958 25.978632 
L 77.354713 84.156196 
L 168.771436 101.649627 
" style="fill:none;stroke:#b0b0b0;stroke-width:0.8;"/>
    <path d="M 87.810001 20.394625 
L 88.90763 77.924883 
L 179.324777 94.860044 
" style="fill:none;stroke:#b0b0b0;stroke-width:0.8;"/>
   </g>
   <g id="xtick_6">
    <g id="line2d_8">
     <path d="M 134.093598 123.2891 
L 136.468463 123.775151 
" style="fill:none;stroke:#000000;stroke-linecap:square;stroke-width:0.8;"/>
    </g>
    <g id="text_6">
     <!-- 0 -->
     <g transform="translate(145.296339 142.045096)scale(0.1 -0.1)">
      <use xlink:href="#DejaVuSans-48"/>
     </g>
    </g>
   </g>
   <g id="xtick_7">
    <g id="line2d_9">
     <path d="M 145.78896 115.776375 
L 148.135602 116.245771 
" style="fill:none;stroke:#000000;stroke-linecap:square;stroke-width:0.8;"/>
    </g>
    <g id="text_7">
     <!-- 2 -->
     <g transform="translate(156.736148 134.344417)scale(0.1 -0.1)">
      <use xlink:href="#DejaVuSans-50"/>
     </g>
    </g>
   </g>
   <g id="xtick_8">
    <g id="line2d_10">
     <path d="M 157.087145 108.518784 
L 159.406095 108.972365 
" style="fill:none;stroke:#000000;stroke-linecap:square;stroke-width:0.8;"/>
    </g>
    <g id="text_8">
     <!-- 4 -->
     <g transform="translate(167.787695 126.905095)scale(0.1 -0.1)">
      <use xlink:href="#DejaVuSans-52"/>
     </g>
    </g>
   </g>
   <g id="xtick_9">
    <g id="line2d_11">
     <path d="M 168.008049 101.503546 
L 170.299831 101.9421 
" style="fill:none;stroke:#000000;stroke-linecap:square;stroke-width:0.8;"/>
    </g>
    <g id="text_9">
     <!-- 6 -->
     <defs>
      <path d="M 33.015625 40.375 
Q 26.375 40.375 22.484375 35.828125 
Q 18.609375 31.296875 18.609375 23.390625 
Q 18.609375 15.53125 22.484375 10.953125 
Q 26.375 6.390625 33.015625 6.390625 
Q 39.65625 6.390625 43.53125 10.953125 
Q 47.40625 15.53125 47.40625 23.390625 
Q 47.40625 31.296875 43.53125 35.828125 
Q 39.65625 40.375 33.015625 40.375 
z
M 52.59375 71.296875 
L 52.59375 62.3125 
Q 48.875 64.0625 45.09375 64.984375 
Q 41.3125 65.921875 37.59375 65.921875 
Q 27.828125 65.921875 22.671875 59.328125 
Q 17.53125 52.734375 16.796875 39.40625 
Q 19.671875 43.65625 24.015625 45.921875 
Q 28.375 48.1875 33.59375 48.1875 
Q 44.578125 48.1875 50.953125 41.515625 
Q 57.328125 34.859375 57.328125 23.390625 
Q 57.328125 12.15625 50.6875 5.359375 
Q 44.046875 -1.421875 33.015625 -1.421875 
Q 20.359375 -1.421875 13.671875 8.265625 
Q 6.984375 17.96875 6.984375 36.375 
Q 6.984375 53.65625 15.1875 63.9375 
Q 23.390625 74.21875 37.203125 74.21875 
Q 40.921875 74.21875 44.703125 73.484375 
Q 48.484375 72.75 52.59375 71.296875 
z
" id="DejaVuSans-54"/>
     </defs>
     <g transform="translate(178.470418 119.714046)scale(0.1 -0.1)">
      <use xlink:href="#DejaVuSans-54"/>
     </g>
    </g>
   </g>
   <g id="xtick_10">
    <g id="line2d_12">
     <path d="M 178.570258 94.718722 
L 180.835392 95.142983 
" style="fill:none;stroke:#000000;stroke-linecap:square;stroke-width:0.8;"/>
    </g>
    <g id="text_10">
     <!-- 8 -->
     <defs>
      <path d="M 31.78125 34.625 
Q 24.75 34.625 20.71875 30.859375 
Q 16.703125 27.09375 16.703125 20.515625 
Q 16.703125 13.921875 20.71875 10.15625 
Q 24.75 6.390625 31.78125 6.390625 
Q 38.8125 6.390625 42.859375 10.171875 
Q 46.921875 13.96875 46.921875 20.515625 
Q 46.921875 27.09375 42.890625 30.859375 
Q 38.875 34.625 31.78125 34.625 
z
M 21.921875 38.8125 
Q 15.578125 40.375 12.03125 44.71875 
Q 8.5 49.078125 8.5 55.328125 
Q 8.5 64.0625 14.71875 69.140625 
Q 20.953125 74.21875 31.78125 74.21875 
Q 42.671875 74.21875 48.875 69.140625 
Q 55.078125 64.0625 55.078125 55.328125 
Q 55.078125 49.078125 51.53125 44.71875 
Q 48 40.375 41.703125 38.8125 
Q 48.828125 37.15625 52.796875 32.3125 
Q 56.78125 27.484375 56.78125 20.515625 
Q 56.78125 9.90625 50.3125 4.234375 
Q 43.84375 -1.421875 31.78125 -1.421875 
Q 19.734375 -1.421875 13.25 4.234375 
Q 6.78125 9.90625 6.78125 20.515625 
Q 6.78125 27.484375 10.78125 32.3125 
Q 14.796875 37.15625 21.921875 38.8125 
z
M 18.3125 54.390625 
Q 18.3125 48.734375 21.84375 45.5625 
Q 25.390625 42.390625 31.78125 42.390625 
Q 38.140625 42.390625 41.71875 45.5625 
Q 45.3125 48.734375 45.3125 54.390625 
Q 45.3125 60.0625 41.71875 63.234375 
Q 38.140625 66.40625 31.78125 66.40625 
Q 25.390625 66.40625 21.84375 63.234375 
Q 18.3125 60.0625 18.3125 54.390625 
z
" id="DejaVuSans-56"/>
     </defs>
     <g transform="translate(188.802476 112.759047)scale(0.1 -0.1)">
      <use xlink:href="#DejaVuSans-56"/>
     </g>
    </g>
   </g>
  </g>
  <g id="axis3d_3">
   <g id="line2d_13">
    <path d="M 182.337831 92.92157 
L 186.108713 33.848772 
" style="fill:none;stroke:#000000;stroke-linecap:square;stroke-width:0.8;"/>
   </g>
   <g id="Line3DCollection_3">
    <path d="M 182.409553 91.798014 
L 92.191365 75.051207 
L 36.494231 105.007238 
" style="fill:none;stroke:#b0b0b0;stroke-width:0.8;"/>
    <path d="M 183.023483 82.180479 
L 92.04029 65.698933 
L 35.839258 95.188734 
" style="fill:none;stroke:#b0b0b0;stroke-width:0.8;"/>
    <path d="M 183.648006 72.397014 
L 91.886719 56.192114 
L 35.172607 85.195188 
" style="fill:none;stroke:#b0b0b0;stroke-width:0.8;"/>
    <path d="M 184.283397 62.443288 
L 91.730588 46.526888 
L 34.493964 75.021876 
" style="fill:none;stroke:#b0b0b0;stroke-width:0.8;"/>
    <path d="M 184.929942 52.314818 
L 91.571835 36.699262 
L 33.803004 64.663904 
" style="fill:none;stroke:#b0b0b0;stroke-width:0.8;"/>
    <path d="M 185.587939 42.006959 
L 91.410391 26.705108 
L 33.099386 54.116199 
" style="fill:none;stroke:#b0b0b0;stroke-width:0.8;"/>
   </g>
   <g id="xtick_11">
    <g id="line2d_14">
     <path d="M 181.656811 91.658286 
L 183.916603 92.077761 
" style="fill:none;stroke:#000000;stroke-linecap:square;stroke-width:0.8;"/>
    </g>
    <g id="text_11">
     <!-- 0.00 -->
     <defs>
      <path d="M 10.6875 12.40625 
L 21 12.40625 
L 21 0 
L 10.6875 0 
z
" id="DejaVuSans-46"/>
     </defs>
     <g transform="translate(190.884958 97.621385)scale(0.1 -0.1)">
      <use xlink:href="#DejaVuSans-48"/>
      <use x="63.623047" xlink:href="#DejaVuSans-46"/>
      <use x="95.410156" xlink:href="#DejaVuSans-48"/>
      <use x="159.033203" xlink:href="#DejaVuSans-48"/>
     </g>
    </g>
   </g>
   <g id="xtick_12">
    <g id="line2d_15">
     <path d="M 182.264091 82.042916 
L 184.543861 82.455894 
" style="fill:none;stroke:#000000;stroke-linecap:square;stroke-width:0.8;"/>
    </g>
    <g id="text_12">
     <!-- 0.25 -->
     <defs>
      <path d="M 10.796875 72.90625 
L 49.515625 72.90625 
L 49.515625 64.59375 
L 19.828125 64.59375 
L 19.828125 46.734375 
Q 21.96875 47.46875 24.109375 47.828125 
Q 26.265625 48.1875 28.421875 48.1875 
Q 40.625 48.1875 47.75 41.5 
Q 54.890625 34.8125 54.890625 23.390625 
Q 54.890625 11.625 47.5625 5.09375 
Q 40.234375 -1.421875 26.90625 -1.421875 
Q 22.3125 -1.421875 17.546875 -0.640625 
Q 12.796875 0.140625 7.71875 1.703125 
L 7.71875 11.625 
Q 12.109375 9.234375 16.796875 8.0625 
Q 21.484375 6.890625 26.703125 6.890625 
Q 35.15625 6.890625 40.078125 11.328125 
Q 45.015625 15.765625 45.015625 23.390625 
Q 45.015625 31 40.078125 35.4375 
Q 35.15625 39.890625 26.703125 39.890625 
Q 22.75 39.890625 18.8125 39.015625 
Q 14.890625 38.140625 10.796875 36.28125 
z
" id="DejaVuSans-53"/>
     </defs>
     <g transform="translate(191.663122 88.031412)scale(0.1 -0.1)">
      <use xlink:href="#DejaVuSans-48"/>
      <use x="63.623047" xlink:href="#DejaVuSans-46"/>
      <use x="95.410156" xlink:href="#DejaVuSans-50"/>
      <use x="159.033203" xlink:href="#DejaVuSans-53"/>
     </g>
    </g>
   </g>
   <g id="xtick_13">
    <g id="line2d_16">
     <path d="M 182.881845 72.261712 
L 185.181948 72.667906 
" style="fill:none;stroke:#000000;stroke-linecap:square;stroke-width:0.8;"/>
    </g>
    <g id="text_13">
     <!-- 0.50 -->
     <g transform="translate(192.454651 78.276725)scale(0.1 -0.1)">
      <use xlink:href="#DejaVuSans-48"/>
      <use x="63.623047" xlink:href="#DejaVuSans-46"/>
      <use x="95.410156" xlink:href="#DejaVuSans-53"/>
      <use x="159.033203" xlink:href="#DejaVuSans-48"/>
     </g>
    </g>
   </g>
   <g id="xtick_14">
    <g id="line2d_17">
     <path d="M 183.510346 62.310346 
L 185.831148 62.709457 
" style="fill:none;stroke:#000000;stroke-linecap:square;stroke-width:0.8;"/>
    </g>
    <g id="text_14">
     <!-- 0.75 -->
     <defs>
      <path d="M 8.203125 72.90625 
L 55.078125 72.90625 
L 55.078125 68.703125 
L 28.609375 0 
L 18.3125 0 
L 43.21875 64.59375 
L 8.203125 64.59375 
z
" id="DejaVuSans-55"/>
     </defs>
     <g transform="translate(193.259894 68.353044)scale(0.1 -0.1)">
      <use xlink:href="#DejaVuSans-48"/>
      <use x="63.623047" xlink:href="#DejaVuSans-46"/>
      <use x="95.410156" xlink:href="#DejaVuSans-55"/>
      <use x="159.033203" xlink:href="#DejaVuSans-53"/>
     </g>
    </g>
   </g>
   <g id="xtick_15">
    <g id="line2d_18">
     <path d="M 184.149877 52.18434 
L 186.491754 52.576054 
" style="fill:none;stroke:#000000;stroke-linecap:square;stroke-width:0.8;"/>
    </g>
    <g id="text_15">
     <!-- 1.00 -->
     <g transform="translate(194.079208 58.255939)scale(0.1 -0.1)">
      <use xlink:href="#DejaVuSans-49"/>
      <use x="63.623047" xlink:href="#DejaVuSans-46"/>
      <use x="95.410156" xlink:href="#DejaVuSans-48"/>
      <use x="159.033203" xlink:href="#DejaVuSans-48"/>
     </g>
    </g>
   </g>
   <g id="xtick_16">
    <g id="line2d_19">
     <path d="M 184.80073 41.879055 
L 187.164068 42.263047 
" style="fill:none;stroke:#000000;stroke-linecap:square;stroke-width:0.8;"/>
    </g>
    <g id="text_16">
     <!-- 1.25 -->
     <g transform="translate(194.912967 47.980823)scale(0.1 -0.1)">
      <use xlink:href="#DejaVuSans-49"/>
      <use x="63.623047" xlink:href="#DejaVuSans-46"/>
      <use x="95.410156" xlink:href="#DejaVuSans-50"/>
      <use x="159.033203" xlink:href="#DejaVuSans-53"/>
     </g>
    </g>
   </g>
  </g>
  <g id="axes_1">
   <g id="Poly3DCollection_1">
    <path clip-path="url(#p5d804a8593)" d="M 88.691993 79.870722 
L 107.996193 76.914791 
L 113.620285 81.448189 
L 94.420764 77.862197 
z
" style="fill:#f8f8f8;stroke:#000000;"/>
    <path clip-path="url(#p5d804a8593)" d="M 107.996193 76.914791 
L 127.750518 83.416949 
L 133.176615 85.100825 
L 113.620285 81.448189 
z
" style="fill:#f2f2f2;stroke:#000000;"/>
    <path clip-path="url(#p5d804a8593)" d="M 82.680813 74.597471 
L 102.22362 75.167903 
L 107.996193 76.914791 
L 88.691993 79.870722 
z
" style="fill:#d4d4d4;stroke:#000000;"/>
    <path clip-path="url(#p5d804a8593)" d="M 127.750518 83.416949 
L 147.842989 88.092322 
L 153.099793 88.821979 
L 133.176615 85.100825 
z
" style="fill:#f8f8f8;stroke:#000000;"/>
    <path clip-path="url(#p5d804a8593)" d="M 102.22362 75.167903 
L 122.173205 83.056061 
L 127.750518 83.416949 
L 107.996193 76.914791 
z
" style="fill:#d0d0d0;stroke:#000000;"/>
    <path clip-path="url(#p5d804a8593)" d="M 76.630733 74.219694 
L 96.409993 81.781939 
L 102.22362 75.167903 
L 82.680813 74.597471 
z
" style="fill:#bfbfbf;stroke:#000000;"/>
    <path clip-path="url(#p5d804a8593)" d="M 147.842989 88.092322 
L 168.127573 95.955728 
L 173.40024 92.613597 
L 153.099793 88.821979 
z
" style="fill:#ffffff;stroke:#000000;"/>
    <path clip-path="url(#p5d804a8593)" d="M 122.173205 83.056061 
L 142.261992 94.396111 
L 147.842989 88.092322 
L 127.750518 83.416949 
z
" style="fill:#e8e8e8;stroke:#000000;"/>
    <path clip-path="url(#p5d804a8593)" d="M 70.502423 75.536127 
L 90.483049 85.537268 
L 96.409993 81.781939 
L 76.630733 74.219694 
z
" style="fill:#bcbcbc;stroke:#000000;"/>
    <path clip-path="url(#p5d804a8593)" d="M 96.409993 81.781939 
L 116.518376 72.691361 
L 122.173205 83.056061 
L 102.22362 75.167903 
z
" style="fill:#b2b2b2;stroke:#000000;"/>
    <path clip-path="url(#p5d804a8593)" d="M 142.261992 94.396111 
L 162.766998 99.353581 
L 168.127573 95.955728 
L 147.842989 88.092322 
z
" style="fill:#fefefe;stroke:#000000;"/>
    <path clip-path="url(#p5d804a8593)" d="M 64.352754 79.367567 
L 84.437023 88.272765 
L 90.483049 85.537268 
L 70.502423 75.536127 
z
" style="fill:#bababa;stroke:#000000;"/>
    <path clip-path="url(#p5d804a8593)" d="M 116.518376 72.691361 
L 136.901808 88.593238 
L 142.261992 94.396111 
L 122.173205 83.056061 
z
" style="fill:#c4c4c4;stroke:#000000;"/>
    <path clip-path="url(#p5d804a8593)" d="M 136.901808 88.593238 
L 157.316296 102.808562 
L 162.766998 99.353581 
L 142.261992 94.396111 
z
" style="fill:#f4f4f4;stroke:#000000;"/>
    <path clip-path="url(#p5d804a8593)" d="M 90.483049 85.537268 
L 110.627027 77.405724 
L 116.518376 72.691361 
L 96.409993 81.781939 
z
" style="fill:#a6a6a6;stroke:#000000;"/>
    <path clip-path="url(#p5d804a8593)" d="M 84.437023 88.272765 
L 104.73487 98.237265 
L 110.627027 77.405724 
L 90.483049 85.537268 
z
" style="fill:#c3c3c3;stroke:#000000;"/>
    <path clip-path="url(#p5d804a8593)" d="M 58.636374 94.692904 
L 77.940647 79.166328 
L 84.437023 88.272765 
L 64.352754 79.367567 
z
" style="fill:#bababa;stroke:#000000;"/>
    <path clip-path="url(#p5d804a8593)" d="M 110.627027 77.405724 
L 131.341906 83.610894 
L 136.901808 88.593238 
L 116.518376 72.691361 
z
" style="fill:#959595;stroke:#000000;"/>
    <path clip-path="url(#p5d804a8593)" d="M 131.341906 83.610894 
L 151.773176 106.322123 
L 157.316296 102.808562 
L 136.901808 88.593238 
z
" style="fill:#d9d9d9;stroke:#000000;"/>
    <path clip-path="url(#p5d804a8593)" d="M 77.940647 79.166328 
L 98.655566 93.536641 
L 104.73487 98.237265 
L 84.437023 88.272765 
z
" style="fill:#bdbdbd;stroke:#000000;"/>
    <path clip-path="url(#p5d804a8593)" d="M 104.73487 98.237265 
L 125.398919 93.850966 
L 131.341906 83.610894 
L 110.627027 77.405724 
z
" style="fill:#b0b0b0;stroke:#000000;"/>
    <path clip-path="url(#p5d804a8593)" d="M 98.655566 93.536641 
L 119.450902 101.00822 
L 125.398919 93.850966 
L 104.73487 98.237265 
z
" style="fill:#cfcfcf;stroke:#000000;"/>
    <path clip-path="url(#p5d804a8593)" d="M 125.398919 93.850966 
L 146.135267 109.895767 
L 151.773176 106.322123 
L 131.341906 83.610894 
z
" style="fill:#d6d6d6;stroke:#000000;"/>
    <path clip-path="url(#p5d804a8593)" d="M 51.156724 75.621765 
L 70.661041 54.492848 
L 77.940647 79.166328 
L 58.636374 94.692904 
z
" style="fill:#6d6d6d;stroke:#000000;"/>
    <path clip-path="url(#p5d804a8593)" d="M 119.450902 101.00822 
L 140.400117 113.531048 
L 146.135267 109.895767 
L 125.398919 93.850966 
z
" style="fill:#e6e6e6;stroke:#000000;"/>
    <path clip-path="url(#p5d804a8593)" d="M 92.566814 100.225685 
L 113.456987 101.187883 
L 119.450902 101.00822 
L 98.655566 93.536641 
z
" style="fill:#c7c7c7;stroke:#000000;"/>
    <path clip-path="url(#p5d804a8593)" d="M 70.661041 54.492848 
L 92.566814 100.225685 
L 98.655566 93.536641 
L 77.940647 79.166328 
z
" style="fill:#797979;stroke:#000000;"/>
    <path clip-path="url(#p5d804a8593)" d="M 113.456987 101.187883 
L 134.565189 117.229574 
L 140.400117 113.531048 
L 119.450902 101.00822 
z
" style="fill:#e7e7e7;stroke:#000000;"/>
    <path clip-path="url(#p5d804a8593)" d="M 86.409479 107.068898 
L 107.353404 112.50952 
L 113.456987 101.187883 
L 92.566814 100.225685 
z
" style="fill:#d8d8d8;stroke:#000000;"/>
    <path clip-path="url(#p5d804a8593)" d="M 107.353404 112.50952 
L 128.627854 120.993012 
L 134.565189 117.229574 
L 113.456987 101.187883 
z
" style="fill:#ededed;stroke:#000000;"/>
    <path clip-path="url(#p5d804a8593)" d="M 63.754006 49.955763 
L 86.409479 107.068898 
L 92.566814 100.225685 
L 70.661041 54.492848 
z
" style="fill:#4e4e4e;stroke:#000000;"/>
    <path clip-path="url(#p5d804a8593)" d="M 43.725061 63.85314 
L 63.754006 49.955763 
L 70.661041 54.492848 
L 51.156724 75.621765 
z
" style="stroke:#000000;"/>
   </g>
  </g>
 </g>
 <defs>
  <clipPath id="p5d804a8593">
   <rect height="122.4" width="194.4" x="10.8" y="10.8"/>
  </clipPath>
 </defs>
</svg>
