<?xml version="1.0" encoding="utf-8" standalone="no"?>
<!DOCTYPE svg PUBLIC "-//W3C//DTD SVG 1.1//EN"
  "http://www.w3.org/Graphics/SVG/1.1/DTD/svg11.dtd">
<!-- Created with matplotlib (https://matplotlib.org/) -->
<svg height="144pt" version="1.1" viewBox="0 0 216 144" width="216pt" xmlns="http://www.w3.org/2000/svg" xmlns:xlink="http://www.w3.org/1999/xlink">
 <defs>
  <style type="text/css">
*{stroke-linecap:butt;stroke-linejoin:round;}
  </style>
 </defs>
 <g id="figure_1">
  <g id="patch_1">
   <path d="M 0 144 
L 216 144 
L 216 0 
L 0 0 
z
" style="fill:#ffffff;"/>
  </g>
  <g id="patch_2">
   <path d="M 10.8 133.2 
L 205.2 133.2 
L 205.2 10.8 
L 10.8 10.8 
z
" style="fill:#ffffff;"/>
  </g>
  <g id="pane3d_1">
   <g id="patch_3">
    <path d="M 36.570724 106.153914 
L 92.209021 76.144207 
L 91.282702 18.800583 
L 32.542206 45.763687 
" style="fill:#f2f2f2;opacity:0.5;stroke:#f2f2f2;stroke-linejoin:miter;"/>
   </g>
  </g>
  <g id="pane3d_2">
   <g id="patch_4">
    <path d="M 92.209021 76.144207 
L 182.337831 92.92157 
L 186.108713 33.848772 
L 91.282702 18.800583 
" style="fill:#e6e6e6;opacity:0.5;stroke:#e6e6e6;stroke-linejoin:miter;"/>
   </g>
  </g>
  <g id="pane3d_3">
   <g id="patch_5">
    <path d="M 36.570724 106.153914 
L 131.398411 125.693886 
L 182.337831 92.92157 
L 92.209021 76.144207 
" style="fill:#ececec;opacity:0.5;stroke:#ececec;stroke-linejoin:miter;"/>
   </g>
  </g>
  <g id="axis3d_1">
   <g id="line2d_1">
    <path d="M 36.570724 106.153914 
L 131.398411 125.693886 
" style="fill:none;stroke:#000000;stroke-linecap:square;stroke-width:0.8;"/>
   </g>
   <g id="Line3DCollection_1">
    <path d="M 42.352032 107.345197 
L 97.721186 77.170289 
L 97.070293 19.719031 
" style="fill:none;stroke:#b0b0b0;stroke-width:0.8;"/>
    <path d="M 62.426428 111.48168 
L 116.843521 80.729888 
L 117.160059 22.907129 
" style="fill:none;stroke:#b0b0b0;stroke-width:0.8;"/>
    <path d="M 82.901148 115.700653 
L 136.319223 84.355265 
L 137.640158 26.15717 
" style="fill:none;stroke:#b0b0b0;stroke-width:0.8;"/>
    <path d="M 103.788289 120.004609 
L 156.158179 88.048261 
L 158.522077 29.470976 
" style="fill:none;stroke:#b0b0b0;stroke-width:0.8;"/>
    <path d="M 125.100437 124.39614 
L 176.370648 91.810786 
L 179.817758 32.850444 
" style="fill:none;stroke:#b0b0b0;stroke-width:0.8;"/>
   </g>
   <g id="xtick_1">
    <g id="line2d_2">
     <path d="M 42.829066 107.085224 
L 41.396185 107.866111 
" style="fill:none;stroke:#000000;stroke-linecap:square;stroke-width:0.8;"/>
    </g>
    <g id="text_1">
     <!-- 0 -->
     <defs>
      <path d="M 31.78125 66.40625 
Q 24.171875 66.40625 20.328125 58.90625 
Q 16.5 51.421875 16.5 36.375 
Q 16.5 21.390625 20.328125 13.890625 
Q 24.171875 6.390625 31.78125 6.390625 
Q 39.453125 6.390625 43.28125 13.890625 
Q 47.125 21.390625 47.125 36.375 
Q 47.125 51.421875 43.28125 58.90625 
Q 39.453125 66.40625 31.78125 66.40625 
z
M 31.78125 74.21875 
Q 44.046875 74.21875 50.515625 64.515625 
Q 56.984375 54.828125 56.984375 36.375 
Q 56.984375 17.96875 50.515625 8.265625 
Q 44.046875 -1.421875 31.78125 -1.421875 
Q 19.53125 -1.421875 13.0625 8.265625 
Q 6.59375 17.96875 6.59375 36.375 
Q 6.59375 54.828125 13.0625 64.515625 
Q 19.53125 74.21875 31.78125 74.21875 
z
" id="DejaVuSans-48"/>
     </defs>
     <g transform="translate(31.317754 127.519522)scale(0.1 -0.1)">
      <use xlink:href="#DejaVuSans-48"/>
     </g>
    </g>
   </g>
   <g id="xtick_2">
    <g id="line2d_3">
     <path d="M 62.89559 111.21655 
L 61.486337 112.012937 
" style="fill:none;stroke:#000000;stroke-linecap:square;stroke-width:0.8;"/>
    </g>
    <g id="text_2">
     <!-- 2 -->
     <defs>
      <path d="M 19.1875 8.296875 
L 53.609375 8.296875 
L 53.609375 0 
L 7.328125 0 
L 7.328125 8.296875 
Q 12.9375 14.109375 22.625 23.890625 
Q 32.328125 33.6875 34.8125 36.53125 
Q 39.546875 41.84375 41.421875 45.53125 
Q 43.3125 49.21875 43.3125 52.78125 
Q 43.3125 58.59375 39.234375 62.25 
Q 35.15625 65.921875 28.609375 65.921875 
Q 23.96875 65.921875 18.8125 64.3125 
Q 13.671875 62.703125 7.8125 59.421875 
L 7.8125 69.390625 
Q 13.765625 71.78125 18.9375 73 
Q 24.125 74.21875 28.421875 74.21875 
Q 39.75 74.21875 46.484375 68.546875 
Q 53.21875 62.890625 53.21875 53.421875 
Q 53.21875 48.921875 51.53125 44.890625 
Q 49.859375 40.875 45.40625 35.40625 
Q 44.1875 33.984375 37.640625 27.21875 
Q 31.109375 20.453125 19.1875 8.296875 
z
" id="DejaVuSans-50"/>
     </defs>
     <g transform="translate(51.387708 131.795734)scale(0.1 -0.1)">
      <use xlink:href="#DejaVuSans-50"/>
     </g>
    </g>
   </g>
   <g id="xtick_3">
    <g id="line2d_4">
     <path d="M 83.362028 115.430212 
L 81.977636 116.242564 
" style="fill:none;stroke:#000000;stroke-linecap:square;stroke-width:0.8;"/>
    </g>
    <g id="text_3">
     <!-- 4 -->
     <defs>
      <path d="M 37.796875 64.3125 
L 12.890625 25.390625 
L 37.796875 25.390625 
z
M 35.203125 72.90625 
L 47.609375 72.90625 
L 47.609375 25.390625 
L 58.015625 25.390625 
L 58.015625 17.1875 
L 47.609375 17.1875 
L 47.609375 0 
L 37.796875 0 
L 37.796875 17.1875 
L 4.890625 17.1875 
L 4.890625 26.703125 
z
" id="DejaVuSans-52"/>
     </defs>
     <g transform="translate(71.859374 136.157538)scale(0.1 -0.1)">
      <use xlink:href="#DejaVuSans-52"/>
     </g>
    </g>
   </g>
   <g id="xtick_4">
    <g id="line2d_5">
     <path d="M 104.240456 119.728694 
L 102.882217 120.557497 
" style="fill:none;stroke:#000000;stroke-linecap:square;stroke-width:0.8;"/>
    </g>
    <g id="text_4">
     <!-- 6 -->
     <defs>
      <path d="M 33.015625 40.375 
Q 26.375 40.375 22.484375 35.828125 
Q 18.609375 31.296875 18.609375 23.390625 
Q 18.609375 15.53125 22.484375 10.953125 
Q 26.375 6.390625 33.015625 6.390625 
Q 39.65625 6.390625 43.53125 10.953125 
Q 47.40625 15.53125 47.40625 23.390625 
Q 47.40625 31.296875 43.53125 35.828125 
Q 39.65625 40.375 33.015625 40.375 
z
M 52.59375 71.296875 
L 52.59375 62.3125 
Q 48.875 64.0625 45.09375 64.984375 
Q 41.3125 65.921875 37.59375 65.921875 
Q 27.828125 65.921875 22.671875 59.328125 
Q 17.53125 52.734375 16.796875 39.40625 
Q 19.671875 43.65625 24.015625 45.921875 
Q 28.375 48.1875 33.59375 48.1875 
Q 44.578125 48.1875 50.953125 41.515625 
Q 57.328125 34.859375 57.328125 23.390625 
Q 57.328125 12.15625 50.6875 5.359375 
Q 44.046875 -1.421875 33.015625 -1.421875 
Q 20.359375 -1.421875 13.671875 8.265625 
Q 6.984375 17.96875 6.984375 36.375 
Q 6.984375 53.65625 15.1875 63.9375 
Q 23.390625 74.21875 37.203125 74.21875 
Q 40.921875 74.21875 44.703125 73.484375 
Q 48.484375 72.75 52.59375 71.296875 
z
" id="DejaVuSans-54"/>
     </defs>
     <g transform="translate(92.744938 140.607528)scale(0.1 -0.1)">
      <use xlink:href="#DejaVuSans-54"/>
     </g>
    </g>
   </g>
   <g id="xtick_5">
    <g id="line2d_6">
     <path d="M 125.54344 124.114585 
L 124.212712 124.960344 
" style="fill:none;stroke:#000000;stroke-linecap:square;stroke-width:0.8;"/>
    </g>
    <g id="text_5">
     <!-- 8 -->
     <defs>
      <path d="M 31.78125 34.625 
Q 24.75 34.625 20.71875 30.859375 
Q 16.703125 27.09375 16.703125 20.515625 
Q 16.703125 13.921875 20.71875 10.15625 
Q 24.75 6.390625 31.78125 6.390625 
Q 38.8125 6.390625 42.859375 10.171875 
Q 46.921875 13.96875 46.921875 20.515625 
Q 46.921875 27.09375 42.890625 30.859375 
Q 38.875 34.625 31.78125 34.625 
z
M 21.921875 38.8125 
Q 15.578125 40.375 12.03125 44.71875 
Q 8.5 49.078125 8.5 55.328125 
Q 8.5 64.0625 14.71875 69.140625 
Q 20.953125 74.21875 31.78125 74.21875 
Q 42.671875 74.21875 48.875 69.140625 
Q 55.078125 64.0625 55.078125 55.328125 
Q 55.078125 49.078125 51.53125 44.71875 
Q 48 40.375 41.703125 38.8125 
Q 48.828125 37.15625 52.796875 32.3125 
Q 56.78125 27.484375 56.78125 20.515625 
Q 56.78125 9.90625 50.3125 4.234375 
Q 43.84375 -1.421875 31.78125 -1.421875 
Q 19.734375 -1.421875 13.25 4.234375 
Q 6.78125 9.90625 6.78125 20.515625 
Q 6.78125 27.484375 10.78125 32.3125 
Q 14.796875 37.15625 21.921875 38.8125 
z
M 18.3125 54.390625 
Q 18.3125 48.734375 21.84375 45.5625 
Q 25.390625 42.390625 31.78125 42.390625 
Q 38.140625 42.390625 41.71875 45.5625 
Q 45.3125 48.734375 45.3125 54.390625 
Q 45.3125 60.0625 41.71875 63.234375 
Q 38.140625 66.40625 31.78125 66.40625 
Q 25.390625 66.40625 21.84375 63.234375 
Q 18.3125 60.0625 18.3125 54.390625 
z
" id="DejaVuSans-56"/>
     </defs>
     <g transform="translate(114.057078 145.148407)scale(0.1 -0.1)">
      <use xlink:href="#DejaVuSans-56"/>
     </g>
    </g>
   </g>
  </g>
  <g id="axis3d_2">
   <g id="line2d_7">
    <path d="M 182.337831 92.92157 
L 131.398411 125.693886 
" style="fill:none;stroke:#000000;stroke-linecap:square;stroke-width:0.8;"/>
   </g>
   <g id="Line3DCollection_2">
    <path d="M 36.564365 43.917433 
L 40.366648 104.106501 
L 134.88463 123.450997 
" style="fill:none;stroke:#b0b0b0;stroke-width:0.8;"/>
    <path d="M 50.044637 37.729709 
L 53.103467 97.236625 
L 146.570602 115.932726 
" style="fill:none;stroke:#b0b0b0;stroke-width:0.8;"/>
    <path d="M 63.063746 31.753668 
L 65.426198 90.590096 
L 157.859573 108.669869 
" style="fill:none;stroke:#b0b0b0;stroke-width:0.8;"/>
    <path d="M 75.644958 25.978632 
L 77.354713 84.156196 
L 168.771436 101.649627 
" style="fill:none;stroke:#b0b0b0;stroke-width:0.8;"/>
    <path d="M 87.810001 20.394625 
L 88.90763 77.924883 
L 179.324777 94.860044 
" style="fill:none;stroke:#b0b0b0;stroke-width:0.8;"/>
   </g>
   <g id="xtick_6">
    <g id="line2d_8">
     <path d="M 134.093598 123.2891 
L 136.468463 123.775151 
" style="fill:none;stroke:#000000;stroke-linecap:square;stroke-width:0.8;"/>
    </g>
    <g id="text_6">
     <!-- 0 -->
     <g transform="translate(145.296339 142.045096)scale(0.1 -0.1)">
      <use xlink:href="#DejaVuSans-48"/>
     </g>
    </g>
   </g>
   <g id="xtick_7">
    <g id="line2d_9">
     <path d="M 145.78896 115.776375 
L 148.135602 116.245771 
" style="fill:none;stroke:#000000;stroke-linecap:square;stroke-width:0.8;"/>
    </g>
    <g id="text_7">
     <!-- 2 -->
     <g transform="translate(156.736148 134.344417)scale(0.1 -0.1)">
      <use xlink:href="#DejaVuSans-50"/>
     </g>
    </g>
   </g>
   <g id="xtick_8">
    <g id="line2d_10">
     <path d="M 157.087145 108.518784 
L 159.406095 108.972365 
" style="fill:none;stroke:#000000;stroke-linecap:square;stroke-width:0.8;"/>
    </g>
    <g id="text_8">
     <!-- 4 -->
     <g transform="translate(167.787695 126.905095)scale(0.1 -0.1)">
      <use xlink:href="#DejaVuSans-52"/>
     </g>
    </g>
   </g>
   <g id="xtick_9">
    <g id="line2d_11">
     <path d="M 168.008049 101.503546 
L 170.299831 101.9421 
" style="fill:none;stroke:#000000;stroke-linecap:square;stroke-width:0.8;"/>
    </g>
    <g id="text_9">
     <!-- 6 -->
     <g transform="translate(178.470418 119.714046)scale(0.1 -0.1)">
      <use xlink:href="#DejaVuSans-54"/>
     </g>
    </g>
   </g>
   <g id="xtick_10">
    <g id="line2d_12">
     <path d="M 178.570258 94.718722 
L 180.835392 95.142983 
" style="fill:none;stroke:#000000;stroke-linecap:square;stroke-width:0.8;"/>
    </g>
    <g id="text_10">
     <!-- 8 -->
     <g transform="translate(188.802476 112.759047)scale(0.1 -0.1)">
      <use xlink:href="#DejaVuSans-56"/>
     </g>
    </g>
   </g>
  </g>
  <g id="axis3d_3">
   <g id="line2d_13">
    <path d="M 182.337831 92.92157 
L 186.108713 33.848772 
" style="fill:none;stroke:#000000;stroke-linecap:square;stroke-width:0.8;"/>
   </g>
   <g id="Line3DCollection_3">
    <path d="M 183.065383 81.524103 
L 92.029983 65.060903 
L 35.794544 94.518443 
" style="fill:none;stroke:#b0b0b0;stroke-width:0.8;"/>
    <path d="M 183.972967 67.306333 
L 91.806854 51.248095 
L 34.825575 79.99294 
" style="fill:none;stroke:#b0b0b0;stroke-width:0.8;"/>
    <path d="M 184.903582 52.727772 
L 91.578305 37.099806 
L 33.831183 65.086335 
" style="fill:none;stroke:#b0b0b0;stroke-width:0.8;"/>
    <path d="M 185.858116 37.77451 
L 91.344137 22.603665 
L 32.810355 49.78343 
" style="fill:none;stroke:#b0b0b0;stroke-width:0.8;"/>
   </g>
   <g id="xtick_11">
    <g id="line2d_14">
     <path d="M 182.305537 81.38669 
L 184.58667 81.799219 
" style="fill:none;stroke:#000000;stroke-linecap:square;stroke-width:0.8;"/>
    </g>
    <g id="text_11">
     <!-- 0.2 -->
     <defs>
      <path d="M 10.6875 12.40625 
L 21 12.40625 
L 21 0 
L 10.6875 0 
z
" id="DejaVuSans-46"/>
     </defs>
     <g transform="translate(194.897478 87.376944)scale(0.1 -0.1)">
      <use xlink:href="#DejaVuSans-48"/>
      <use x="63.623047" xlink:href="#DejaVuSans-46"/>
      <use x="95.410156" xlink:href="#DejaVuSans-50"/>
     </g>
    </g>
   </g>
   <g id="xtick_12">
    <g id="line2d_15">
     <path d="M 183.203283 67.17223 
L 185.513971 67.574824 
" style="fill:none;stroke:#000000;stroke-linecap:square;stroke-width:0.8;"/>
    </g>
    <g id="text_12">
     <!-- 0.4 -->
     <g transform="translate(196.047738 73.201313)scale(0.1 -0.1)">
      <use xlink:href="#DejaVuSans-48"/>
      <use x="63.623047" xlink:href="#DejaVuSans-46"/>
      <use x="95.410156" xlink:href="#DejaVuSans-52"/>
     </g>
    </g>
   </g>
   <g id="xtick_13">
    <g id="line2d_16">
     <path d="M 184.123802 52.597192 
L 186.46482 52.989212 
" style="fill:none;stroke:#000000;stroke-linecap:square;stroke-width:0.8;"/>
    </g>
    <g id="text_13">
     <!-- 0.6 -->
     <g transform="translate(197.227055 58.667598)scale(0.1 -0.1)">
      <use xlink:href="#DejaVuSans-48"/>
      <use x="63.623047" xlink:href="#DejaVuSans-46"/>
      <use x="95.410156" xlink:href="#DejaVuSans-54"/>
     </g>
    </g>
   </g>
   <g id="xtick_14">
    <g id="line2d_17">
     <path d="M 185.067972 37.64768 
L 187.440125 38.028445 
" style="fill:none;stroke:#000000;stroke-linecap:square;stroke-width:0.8;"/>
    </g>
    <g id="text_14">
     <!-- 0.8 -->
     <g transform="translate(198.436543 43.762058)scale(0.1 -0.1)">
      <use xlink:href="#DejaVuSans-48"/>
      <use x="63.623047" xlink:href="#DejaVuSans-46"/>
      <use x="95.410156" xlink:href="#DejaVuSans-56"/>
     </g>
    </g>
   </g>
  </g>
  <g id="axes_1">
   <g id="Poly3DCollection_1">
    <path clip-path="url(#p4fc1d8398e)" d="M 108.011804 83.675839 
L 117.818048 83.509944 
L 123.36352 82.349916 
L 113.642337 73.08745 
z
" style="fill:#ffffff;stroke:#000000;"/>
    <path clip-path="url(#p4fc1d8398e)" d="M 98.211886 72.917079 
L 108.011804 83.675839 
L 113.642337 73.08745 
L 103.792404 48.176192 
z
" style="fill:#c8c8c8;stroke:#000000;"/>
    <path clip-path="url(#p4fc1d8398e)" d="M 92.293186 68.622773 
L 102.211273 73.491247 
L 108.011804 83.675839 
L 98.211886 72.917079 
z
" style="fill:#d4d4d4;stroke:#000000;"/>
    <path clip-path="url(#p4fc1d8398e)" d="M 102.211273 73.491247 
L 112.160764 85.487423 
L 117.818048 83.509944 
L 108.011804 83.675839 
z
" style="fill:#f2f2f2;stroke:#000000;"/>
    <path clip-path="url(#p4fc1d8398e)" d="M 82.722322 76.293258 
L 92.293186 68.622773 
L 98.211886 72.917079 
L 87.90358 39.023638 
z
" style="fill:#a3a3a3;stroke:#000000;"/>
    <path clip-path="url(#p4fc1d8398e)" d="M 117.818048 83.509944 
L 128.011072 66.178677 
L 133.686454 59.524614 
L 123.36352 82.349916 
z
" style="fill:#c8c8c8;stroke:#000000;"/>
    <path clip-path="url(#p4fc1d8398e)" d="M 87.90358 39.023638 
L 98.211886 72.917079 
L 103.792404 48.176192 
L 93.633114 22.531931 
z
" style="fill:#4a4a4a;stroke:#000000;"/>
    <path clip-path="url(#p4fc1d8398e)" d="M 137.814249 83.207667 
L 147.962393 84.472543 
L 153.231834 85.316821 
L 143.450712 74.463894 
z
" style="fill:#e6e6e6;stroke:#000000;"/>
    <path clip-path="url(#p4fc1d8398e)" d="M 112.160764 85.487423 
L 122.22872 77.607271 
L 128.011072 66.178677 
L 117.818048 83.509944 
z
" style="fill:#d4d4d4;stroke:#000000;"/>
    <path clip-path="url(#p4fc1d8398e)" d="M 76.575058 72.349303 
L 85.954534 52.722738 
L 92.293186 68.622773 
L 82.722322 76.293258 
z
" style="fill:#a4a4a4;stroke:#000000;"/>
    <path clip-path="url(#p4fc1d8398e)" d="M 128.011072 66.178677 
L 137.814249 83.207667 
L 143.450712 74.463894 
L 133.686454 59.524614 
z
" style="fill:#b1b1b1;stroke:#000000;"/>
    <path clip-path="url(#p4fc1d8398e)" d="M 96.310674 73.856234 
L 106.398264 87.692528 
L 112.160764 85.487423 
L 102.211273 73.491247 
z
" style="fill:#d7d7d7;stroke:#000000;"/>
    <path clip-path="url(#p4fc1d8398e)" d="M 106.398264 87.692528 
L 116.409261 93.872561 
L 122.22872 77.607271 
L 112.160764 85.487423 
z
" style="fill:#efefef;stroke:#000000;"/>
    <path clip-path="url(#p4fc1d8398e)" d="M 147.962393 84.472543 
L 158.642696 75.679501 
L 163.438618 85.647114 
L 153.231834 85.316821 
z
" style="fill:#e1e1e1;stroke:#000000;"/>
    <path clip-path="url(#p4fc1d8398e)" d="M 85.954534 52.722738 
L 96.310674 73.856234 
L 102.211273 73.491247 
L 92.293186 68.622773 
z
" style="fill:#979797;stroke:#000000;"/>
    <path clip-path="url(#p4fc1d8398e)" d="M 122.22872 77.607271 
L 132.414835 77.660709 
L 137.814249 83.207667 
L 128.011072 66.178677 
z
" style="fill:#bdbdbd;stroke:#000000;"/>
    <path clip-path="url(#p4fc1d8398e)" d="M 132.414835 77.660709 
L 142.489049 86.343719 
L 147.962393 84.472543 
L 137.814249 83.207667 
z
" style="fill:#d9d9d9;stroke:#000000;"/>
    <path clip-path="url(#p4fc1d8398e)" d="M 90.506434 86.849979 
L 100.519003 88.840579 
L 106.398264 87.692528 
L 96.310674 73.856234 
z
" style="fill:#dcdcdc;stroke:#000000;"/>
    <path clip-path="url(#p4fc1d8398e)" d="M 70.501991 75.523855 
L 80.176046 69.362716 
L 85.954534 52.722738 
L 76.575058 72.349303 
z
" style="fill:#929292;stroke:#000000;"/>
    <path clip-path="url(#p4fc1d8398e)" d="M 100.519003 88.840579 
L 110.627027 86.579154 
L 116.409261 93.872561 
L 106.398264 87.692528 
z
" style="fill:#eeeeee;stroke:#000000;"/>
    <path clip-path="url(#p4fc1d8398e)" d="M 116.409261 93.872561 
L 126.650813 85.170036 
L 132.414835 77.660709 
L 122.22872 77.607271 
z
" style="fill:#d5d5d5;stroke:#000000;"/>
    <path clip-path="url(#p4fc1d8398e)" d="M 64.619999 85.933681 
L 74.378572 84.106746 
L 80.176046 69.362716 
L 70.501991 75.523855 
z
" style="fill:#bfbfbf;stroke:#000000;"/>
    <path clip-path="url(#p4fc1d8398e)" d="M 142.489049 86.343719 
L 153.011239 82.387802 
L 158.642696 75.679501 
L 147.962393 84.472543 
z
" style="fill:#cacaca;stroke:#000000;"/>
    <path clip-path="url(#p4fc1d8398e)" d="M 80.176046 69.362716 
L 90.506434 86.849979 
L 96.310674 73.856234 
L 85.954534 52.722738 
z
" style="fill:#999999;stroke:#000000;"/>
    <path clip-path="url(#p4fc1d8398e)" d="M 110.627027 86.579154 
L 120.774261 99.221748 
L 126.650813 85.170036 
L 116.409261 93.872561 
z
" style="fill:#eeeeee;stroke:#000000;"/>
    <path clip-path="url(#p4fc1d8398e)" d="M 126.650813 85.170036 
L 136.838793 91.297851 
L 142.489049 86.343719 
L 132.414835 77.660709 
z
" style="fill:#d3d3d3;stroke:#000000;"/>
    <path clip-path="url(#p4fc1d8398e)" d="M 74.378572 84.106746 
L 84.309109 82.763333 
L 90.506434 86.849979 
L 80.176046 69.362716 
z
" style="fill:#c0c0c0;stroke:#000000;"/>
    <path clip-path="url(#p4fc1d8398e)" d="M 84.309109 82.763333 
L 94.526085 90.588918 
L 100.519003 88.840579 
L 90.506434 86.849979 
z
" style="fill:#dadada;stroke:#000000;"/>
    <path clip-path="url(#p4fc1d8398e)" d="M 136.838793 91.297851 
L 147.188172 93.182813 
L 153.011239 82.387802 
L 142.489049 86.343719 
z
" style="fill:#dadada;stroke:#000000;"/>
    <path clip-path="url(#p4fc1d8398e)" d="M 120.774261 99.221748 
L 131.098943 96.896169 
L 136.838793 91.297851 
L 126.650813 85.170036 
z
" style="fill:#eeeeee;stroke:#000000;"/>
    <path clip-path="url(#p4fc1d8398e)" d="M 158.642696 75.679501 
L 170.140762 56.730355 
L 175.902412 47.822555 
L 163.438618 85.647114 
z
" style="fill:#7a7a7a;stroke:#000000;"/>
    <path clip-path="url(#p4fc1d8398e)" d="M 94.526085 90.588918 
L 104.668707 85.682439 
L 110.627027 86.579154 
L 100.519003 88.840579 
z
" style="fill:#d3d3d3;stroke:#000000;"/>
    <path clip-path="url(#p4fc1d8398e)" d="M 153.011239 82.387802 
L 163.31665 87.578796 
L 170.140762 56.730355 
L 158.642696 75.679501 
z
" style="fill:#9a9a9a;stroke:#000000;"/>
    <path clip-path="url(#p4fc1d8398e)" d="M 104.668707 85.682439 
L 115.003173 89.489722 
L 120.774261 99.221748 
L 110.627027 86.579154 
z
" style="fill:#d5d5d5;stroke:#000000;"/>
    <path clip-path="url(#p4fc1d8398e)" d="M 131.098943 96.896169 
L 141.822082 86.696652 
L 147.188172 93.182813 
L 136.838793 91.297851 
z
" style="fill:#dcdcdc;stroke:#000000;"/>
    <path clip-path="url(#p4fc1d8398e)" d="M 78.040709 82.647449 
L 88.474579 95.44077 
L 94.526085 90.588918 
L 84.309109 82.763333 
z
" style="fill:#cacaca;stroke:#000000;"/>
    <path clip-path="url(#p4fc1d8398e)" d="M 115.003173 89.489722 
L 125.298783 101.459858 
L 131.098943 96.896169 
L 120.774261 99.221748 
z
" style="fill:#efefef;stroke:#000000;"/>
    <path clip-path="url(#p4fc1d8398e)" d="M 147.188172 93.182813 
L 158.30161 79.309658 
L 163.31665 87.578796 
L 153.011239 82.387802 
z
" style="fill:#c0c0c0;stroke:#000000;"/>
    <path clip-path="url(#p4fc1d8398e)" d="M 56.755922 54.125173 
L 67.13359 59.77678 
L 74.378572 84.106746 
L 64.619999 85.933681 
z
" style="fill:#828282;stroke:#000000;"/>
    <path clip-path="url(#p4fc1d8398e)" d="M 88.474579 95.44077 
L 98.703885 98.068432 
L 104.668707 85.682439 
L 94.526085 90.588918 
z
" style="fill:#d9d9d9;stroke:#000000;"/>
    <path clip-path="url(#p4fc1d8398e)" d="M 67.13359 59.77678 
L 78.040709 82.647449 
L 84.309109 82.763333 
L 74.378572 84.106746 
z
" style="fill:#9a9a9a;stroke:#000000;"/>
    <path clip-path="url(#p4fc1d8398e)" d="M 72.209639 99.510759 
L 82.405303 103.119581 
L 88.474579 95.44077 
L 78.040709 82.647449 
z
" style="fill:#e1e1e1;stroke:#000000;"/>
    <path clip-path="url(#p4fc1d8398e)" d="M 65.910982 103.628307 
L 76.260407 110.304333 
L 82.405303 103.119581 
L 72.209639 99.510759 
z
" style="fill:#ffffff;stroke:#000000;"/>
    <path clip-path="url(#p4fc1d8398e)" d="M 82.405303 103.119581 
L 92.49613 95.857541 
L 98.703885 98.068432 
L 88.474579 95.44077 
z
" style="fill:#e6e6e6;stroke:#000000;"/>
    <path clip-path="url(#p4fc1d8398e)" d="M 125.298783 101.459858 
L 135.970953 93.038038 
L 141.822082 86.696652 
L 131.098943 96.896169 
z
" style="fill:#d7d7d7;stroke:#000000;"/>
    <path clip-path="url(#p4fc1d8398e)" d="M 98.703885 98.068432 
L 108.99925 84.452194 
L 115.003173 89.489722 
L 104.668707 85.682439 
z
" style="fill:#bdbdbd;stroke:#000000;"/>
    <path clip-path="url(#p4fc1d8398e)" d="M 108.99925 84.452194 
L 119.409135 106.287399 
L 125.298783 101.459858 
L 115.003173 89.489722 
z
" style="fill:#d4d4d4;stroke:#000000;"/>
    <path clip-path="url(#p4fc1d8398e)" d="M 119.409135 106.287399 
L 129.857386 110.453376 
L 135.970953 93.038038 
L 125.298783 101.459858 
z
" style="fill:#f2f2f2;stroke:#000000;"/>
    <path clip-path="url(#p4fc1d8398e)" d="M 141.822082 86.696652 
L 153.163283 68.821658 
L 158.30161 79.309658 
L 147.188172 93.182813 
z
" style="fill:#999999;stroke:#000000;"/>
    <path clip-path="url(#p4fc1d8398e)" d="M 60.403558 57.125008 
L 72.209639 99.510759 
L 78.040709 82.647449 
L 67.13359 59.77678 
z
" style="fill:#7a7a7a;stroke:#000000;"/>
    <path clip-path="url(#p4fc1d8398e)" d="M 76.260407 110.304333 
L 85.983391 87.552736 
L 92.49613 95.857541 
L 82.405303 103.119581 
z
" style="fill:#d9d9d9;stroke:#000000;"/>
    <path clip-path="url(#p4fc1d8398e)" d="M 113.429535 112.005292 
L 124.049895 106.273688 
L 129.857386 110.453376 
L 119.409135 106.287399 
z
" style="fill:#ffffff;stroke:#000000;"/>
    <path clip-path="url(#p4fc1d8398e)" d="M 54.080097 66.509384 
L 65.910982 103.628307 
L 72.209639 99.510759 
L 60.403558 57.125008 
z
" style="fill:#8e8e8e;stroke:#000000;"/>
    <path clip-path="url(#p4fc1d8398e)" d="M 92.49613 95.857541 
L 102.831383 84.207875 
L 108.99925 84.452194 
L 98.703885 98.068432 
z
" style="fill:#b1b1b1;stroke:#000000;"/>
    <path clip-path="url(#p4fc1d8398e)" d="M 129.857386 110.453376 
L 140.679488 103.183343 
L 146.713151 91.889302 
L 135.970953 93.038038 
z
" style="fill:#d4d4d4;stroke:#000000;"/>
    <path clip-path="url(#p4fc1d8398e)" d="M 102.831383 84.207875 
L 113.429535 112.005292 
L 119.409135 106.287399 
L 108.99925 84.452194 
z
" style="fill:#c8c8c8;stroke:#000000;"/>
    <path clip-path="url(#p4fc1d8398e)" d="M 135.970953 93.038038 
L 146.713151 91.889302 
L 153.163283 68.821658 
L 141.822082 86.696652 
z
" style="fill:#979797;stroke:#000000;"/>
    <path clip-path="url(#p4fc1d8398e)" d="M 49.461382 43.10379 
L 60.403558 57.125008 
L 67.13359 59.77678 
L 56.755922 54.125173 
z
" style="fill:#101010;stroke:#000000;"/>
    <path clip-path="url(#p4fc1d8398e)" d="M 107.365693 116.653209 
L 117.974334 114.139405 
L 124.049895 106.273688 
L 113.429535 112.005292 
z
" style="fill:#fefefe;stroke:#000000;"/>
    <path clip-path="url(#p4fc1d8398e)" d="M 96.58309 89.589994 
L 107.365693 116.653209 
L 113.429535 112.005292 
L 102.831383 84.207875 
z
" style="fill:#cacaca;stroke:#000000;"/>
    <path clip-path="url(#p4fc1d8398e)" d="M 124.049895 106.273688 
L 135.293561 83.787635 
L 140.679488 103.183343 
L 129.857386 110.453376 
z
" style="fill:#c8c8c8;stroke:#000000;"/>
    <path clip-path="url(#p4fc1d8398e)" d="M 85.983391 87.552736 
L 96.58309 89.589994 
L 102.831383 84.207875 
L 92.49613 95.857541 
z
" style="fill:#969696;stroke:#000000;"/>
    <path clip-path="url(#p4fc1d8398e)" d="M 42.784511 47.651205 
L 54.080097 66.509384 
L 60.403558 57.125008 
L 49.461382 43.10379 
z
" style="stroke:#000000;"/>
    <path clip-path="url(#p4fc1d8398e)" d="M 117.974334 114.139405 
L 129.294693 80.417172 
L 135.293561 83.787635 
L 124.049895 106.273688 
z
" style="fill:#9b9b9b;stroke:#000000;"/>
   </g>
  </g>
 </g>
 <defs>
  <clipPath id="p4fc1d8398e">
   <rect height="122.4" width="194.4" x="10.8" y="10.8"/>
  </clipPath>
 </defs>
</svg>
