<?xml version="1.0" encoding="utf-8" standalone="no"?>
<!DOCTYPE svg PUBLIC "-//W3C//DTD SVG 1.1//EN"
  "http://www.w3.org/Graphics/SVG/1.1/DTD/svg11.dtd">
<!-- Created with matplotlib (https://matplotlib.org/) -->
<svg height="144pt" version="1.1" viewBox="0 0 216 144" width="216pt" xmlns="http://www.w3.org/2000/svg" xmlns:xlink="http://www.w3.org/1999/xlink">
 <defs>
  <style type="text/css">
*{stroke-linecap:butt;stroke-linejoin:round;}
  </style>
 </defs>
 <g id="figure_1">
  <g id="patch_1">
   <path d="M 0 144 
L 216 144 
L 216 0 
L 0 0 
z
" style="fill:#ffffff;"/>
  </g>
  <g id="patch_2">
   <path d="M 10.8 133.2 
L 205.2 133.2 
L 205.2 10.8 
L 10.8 10.8 
z
" style="fill:#ffffff;"/>
  </g>
  <g id="pane3d_1">
   <g id="patch_3">
    <path d="M 36.570724 106.153914 
L 92.209021 76.144207 
L 91.282702 18.800583 
L 32.542206 45.763687 
" style="fill:#f2f2f2;opacity:0.5;stroke:#f2f2f2;stroke-linejoin:miter;"/>
   </g>
  </g>
  <g id="pane3d_2">
   <g id="patch_4">
    <path d="M 92.209021 76.144207 
L 182.337831 92.92157 
L 186.108713 33.848772 
L 91.282702 18.800583 
" style="fill:#e6e6e6;opacity:0.5;stroke:#e6e6e6;stroke-linejoin:miter;"/>
   </g>
  </g>
  <g id="pane3d_3">
   <g id="patch_5">
    <path d="M 36.570724 106.153914 
L 131.398411 125.693886 
L 182.337831 92.92157 
L 92.209021 76.144207 
" style="fill:#ececec;opacity:0.5;stroke:#ececec;stroke-linejoin:miter;"/>
   </g>
  </g>
  <g id="axis3d_1">
   <g id="line2d_1">
    <path d="M 36.570724 106.153914 
L 131.398411 125.693886 
" style="fill:none;stroke:#000000;stroke-linecap:square;stroke-width:0.8;"/>
   </g>
   <g id="Line3DCollection_1">
    <path d="M 42.352032 107.345197 
L 97.721186 77.170289 
L 97.070293 19.719031 
" style="fill:none;stroke:#b0b0b0;stroke-width:0.8;"/>
    <path d="M 62.426428 111.48168 
L 116.843521 80.729888 
L 117.160059 22.907129 
" style="fill:none;stroke:#b0b0b0;stroke-width:0.8;"/>
    <path d="M 82.901148 115.700653 
L 136.319223 84.355265 
L 137.640158 26.15717 
" style="fill:none;stroke:#b0b0b0;stroke-width:0.8;"/>
    <path d="M 103.788289 120.004609 
L 156.158179 88.048261 
L 158.522077 29.470976 
" style="fill:none;stroke:#b0b0b0;stroke-width:0.8;"/>
    <path d="M 125.100437 124.39614 
L 176.370648 91.810786 
L 179.817758 32.850444 
" style="fill:none;stroke:#b0b0b0;stroke-width:0.8;"/>
   </g>
   <g id="xtick_1">
    <g id="line2d_2">
     <path d="M 42.829066 107.085224 
L 41.396185 107.866111 
" style="fill:none;stroke:#000000;stroke-linecap:square;stroke-width:0.8;"/>
    </g>
    <g id="text_1">
     <!-- 0 -->
     <defs>
      <path d="M 31.78125 66.40625 
Q 24.171875 66.40625 20.328125 58.90625 
Q 16.5 51.421875 16.5 36.375 
Q 16.5 21.390625 20.328125 13.890625 
Q 24.171875 6.390625 31.78125 6.390625 
Q 39.453125 6.390625 43.28125 13.890625 
Q 47.125 21.390625 47.125 36.375 
Q 47.125 51.421875 43.28125 58.90625 
Q 39.453125 66.40625 31.78125 66.40625 
z
M 31.78125 74.21875 
Q 44.046875 74.21875 50.515625 64.515625 
Q 56.984375 54.828125 56.984375 36.375 
Q 56.984375 17.96875 50.515625 8.265625 
Q 44.046875 -1.421875 31.78125 -1.421875 
Q 19.53125 -1.421875 13.0625 8.265625 
Q 6.59375 17.96875 6.59375 36.375 
Q 6.59375 54.828125 13.0625 64.515625 
Q 19.53125 74.21875 31.78125 74.21875 
z
" id="DejaVuSans-48"/>
     </defs>
     <g transform="translate(31.317754 127.519522)scale(0.1 -0.1)">
      <use xlink:href="#DejaVuSans-48"/>
     </g>
    </g>
   </g>
   <g id="xtick_2">
    <g id="line2d_3">
     <path d="M 62.89559 111.21655 
L 61.486337 112.012937 
" style="fill:none;stroke:#000000;stroke-linecap:square;stroke-width:0.8;"/>
    </g>
    <g id="text_2">
     <!-- 2 -->
     <defs>
      <path d="M 19.1875 8.296875 
L 53.609375 8.296875 
L 53.609375 0 
L 7.328125 0 
L 7.328125 8.296875 
Q 12.9375 14.109375 22.625 23.890625 
Q 32.328125 33.6875 34.8125 36.53125 
Q 39.546875 41.84375 41.421875 45.53125 
Q 43.3125 49.21875 43.3125 52.78125 
Q 43.3125 58.59375 39.234375 62.25 
Q 35.15625 65.921875 28.609375 65.921875 
Q 23.96875 65.921875 18.8125 64.3125 
Q 13.671875 62.703125 7.8125 59.421875 
L 7.8125 69.390625 
Q 13.765625 71.78125 18.9375 73 
Q 24.125 74.21875 28.421875 74.21875 
Q 39.75 74.21875 46.484375 68.546875 
Q 53.21875 62.890625 53.21875 53.421875 
Q 53.21875 48.921875 51.53125 44.890625 
Q 49.859375 40.875 45.40625 35.40625 
Q 44.1875 33.984375 37.640625 27.21875 
Q 31.109375 20.453125 19.1875 8.296875 
z
" id="DejaVuSans-50"/>
     </defs>
     <g transform="translate(51.387708 131.795734)scale(0.1 -0.1)">
      <use xlink:href="#DejaVuSans-50"/>
     </g>
    </g>
   </g>
   <g id="xtick_3">
    <g id="line2d_4">
     <path d="M 83.362028 115.430212 
L 81.977636 116.242564 
" style="fill:none;stroke:#000000;stroke-linecap:square;stroke-width:0.8;"/>
    </g>
    <g id="text_3">
     <!-- 4 -->
     <defs>
      <path d="M 37.796875 64.3125 
L 12.890625 25.390625 
L 37.796875 25.390625 
z
M 35.203125 72.90625 
L 47.609375 72.90625 
L 47.609375 25.390625 
L 58.015625 25.390625 
L 58.015625 17.1875 
L 47.609375 17.1875 
L 47.609375 0 
L 37.796875 0 
L 37.796875 17.1875 
L 4.890625 17.1875 
L 4.890625 26.703125 
z
" id="DejaVuSans-52"/>
     </defs>
     <g transform="translate(71.859374 136.157538)scale(0.1 -0.1)">
      <use xlink:href="#DejaVuSans-52"/>
     </g>
    </g>
   </g>
   <g id="xtick_4">
    <g id="line2d_5">
     <path d="M 104.240456 119.728694 
L 102.882217 120.557497 
" style="fill:none;stroke:#000000;stroke-linecap:square;stroke-width:0.8;"/>
    </g>
    <g id="text_4">
     <!-- 6 -->
     <defs>
      <path d="M 33.015625 40.375 
Q 26.375 40.375 22.484375 35.828125 
Q 18.609375 31.296875 18.609375 23.390625 
Q 18.609375 15.53125 22.484375 10.953125 
Q 26.375 6.390625 33.015625 6.390625 
Q 39.65625 6.390625 43.53125 10.953125 
Q 47.40625 15.53125 47.40625 23.390625 
Q 47.40625 31.296875 43.53125 35.828125 
Q 39.65625 40.375 33.015625 40.375 
z
M 52.59375 71.296875 
L 52.59375 62.3125 
Q 48.875 64.0625 45.09375 64.984375 
Q 41.3125 65.921875 37.59375 65.921875 
Q 27.828125 65.921875 22.671875 59.328125 
Q 17.53125 52.734375 16.796875 39.40625 
Q 19.671875 43.65625 24.015625 45.921875 
Q 28.375 48.1875 33.59375 48.1875 
Q 44.578125 48.1875 50.953125 41.515625 
Q 57.328125 34.859375 57.328125 23.390625 
Q 57.328125 12.15625 50.6875 5.359375 
Q 44.046875 -1.421875 33.015625 -1.421875 
Q 20.359375 -1.421875 13.671875 8.265625 
Q 6.984375 17.96875 6.984375 36.375 
Q 6.984375 53.65625 15.1875 63.9375 
Q 23.390625 74.21875 37.203125 74.21875 
Q 40.921875 74.21875 44.703125 73.484375 
Q 48.484375 72.75 52.59375 71.296875 
z
" id="DejaVuSans-54"/>
     </defs>
     <g transform="translate(92.744938 140.607528)scale(0.1 -0.1)">
      <use xlink:href="#DejaVuSans-54"/>
     </g>
    </g>
   </g>
   <g id="xtick_5">
    <g id="line2d_6">
     <path d="M 125.54344 124.114585 
L 124.212712 124.960344 
" style="fill:none;stroke:#000000;stroke-linecap:square;stroke-width:0.8;"/>
    </g>
    <g id="text_5">
     <!-- 8 -->
     <defs>
      <path d="M 31.78125 34.625 
Q 24.75 34.625 20.71875 30.859375 
Q 16.703125 27.09375 16.703125 20.515625 
Q 16.703125 13.921875 20.71875 10.15625 
Q 24.75 6.390625 31.78125 6.390625 
Q 38.8125 6.390625 42.859375 10.171875 
Q 46.921875 13.96875 46.921875 20.515625 
Q 46.921875 27.09375 42.890625 30.859375 
Q 38.875 34.625 31.78125 34.625 
z
M 21.921875 38.8125 
Q 15.578125 40.375 12.03125 44.71875 
Q 8.5 49.078125 8.5 55.328125 
Q 8.5 64.0625 14.71875 69.140625 
Q 20.953125 74.21875 31.78125 74.21875 
Q 42.671875 74.21875 48.875 69.140625 
Q 55.078125 64.0625 55.078125 55.328125 
Q 55.078125 49.078125 51.53125 44.71875 
Q 48 40.375 41.703125 38.8125 
Q 48.828125 37.15625 52.796875 32.3125 
Q 56.78125 27.484375 56.78125 20.515625 
Q 56.78125 9.90625 50.3125 4.234375 
Q 43.84375 -1.421875 31.78125 -1.421875 
Q 19.734375 -1.421875 13.25 4.234375 
Q 6.78125 9.90625 6.78125 20.515625 
Q 6.78125 27.484375 10.78125 32.3125 
Q 14.796875 37.15625 21.921875 38.8125 
z
M 18.3125 54.390625 
Q 18.3125 48.734375 21.84375 45.5625 
Q 25.390625 42.390625 31.78125 42.390625 
Q 38.140625 42.390625 41.71875 45.5625 
Q 45.3125 48.734375 45.3125 54.390625 
Q 45.3125 60.0625 41.71875 63.234375 
Q 38.140625 66.40625 31.78125 66.40625 
Q 25.390625 66.40625 21.84375 63.234375 
Q 18.3125 60.0625 18.3125 54.390625 
z
" id="DejaVuSans-56"/>
     </defs>
     <g transform="translate(114.057078 145.148407)scale(0.1 -0.1)">
      <use xlink:href="#DejaVuSans-56"/>
     </g>
    </g>
   </g>
  </g>
  <g id="axis3d_2">
   <g id="line2d_7">
    <path d="M 182.337831 92.92157 
L 131.398411 125.693886 
" style="fill:none;stroke:#000000;stroke-linecap:square;stroke-width:0.8;"/>
   </g>
   <g id="Line3DCollection_2">
    <path d="M 36.564365 43.917433 
L 40.366648 104.106501 
L 134.88463 123.450997 
" style="fill:none;stroke:#b0b0b0;stroke-width:0.8;"/>
    <path d="M 50.044637 37.729709 
L 53.103467 97.236625 
L 146.570602 115.932726 
" style="fill:none;stroke:#b0b0b0;stroke-width:0.8;"/>
    <path d="M 63.063746 31.753668 
L 65.426198 90.590096 
L 157.859573 108.669869 
" style="fill:none;stroke:#b0b0b0;stroke-width:0.8;"/>
    <path d="M 75.644958 25.978632 
L 77.354713 84.156196 
L 168.771436 101.649627 
" style="fill:none;stroke:#b0b0b0;stroke-width:0.8;"/>
    <path d="M 87.810001 20.394625 
L 88.90763 77.924883 
L 179.324777 94.860044 
" style="fill:none;stroke:#b0b0b0;stroke-width:0.8;"/>
   </g>
   <g id="xtick_6">
    <g id="line2d_8">
     <path d="M 134.093598 123.2891 
L 136.468463 123.775151 
" style="fill:none;stroke:#000000;stroke-linecap:square;stroke-width:0.8;"/>
    </g>
    <g id="text_6">
     <!-- 0 -->
     <g transform="translate(145.296339 142.045096)scale(0.1 -0.1)">
      <use xlink:href="#DejaVuSans-48"/>
     </g>
    </g>
   </g>
   <g id="xtick_7">
    <g id="line2d_9">
     <path d="M 145.78896 115.776375 
L 148.135602 116.245771 
" style="fill:none;stroke:#000000;stroke-linecap:square;stroke-width:0.8;"/>
    </g>
    <g id="text_7">
     <!-- 2 -->
     <g transform="translate(156.736148 134.344417)scale(0.1 -0.1)">
      <use xlink:href="#DejaVuSans-50"/>
     </g>
    </g>
   </g>
   <g id="xtick_8">
    <g id="line2d_10">
     <path d="M 157.087145 108.518784 
L 159.406095 108.972365 
" style="fill:none;stroke:#000000;stroke-linecap:square;stroke-width:0.8;"/>
    </g>
    <g id="text_8">
     <!-- 4 -->
     <g transform="translate(167.787695 126.905095)scale(0.1 -0.1)">
      <use xlink:href="#DejaVuSans-52"/>
     </g>
    </g>
   </g>
   <g id="xtick_9">
    <g id="line2d_11">
     <path d="M 168.008049 101.503546 
L 170.299831 101.9421 
" style="fill:none;stroke:#000000;stroke-linecap:square;stroke-width:0.8;"/>
    </g>
    <g id="text_9">
     <!-- 6 -->
     <g transform="translate(178.470418 119.714046)scale(0.1 -0.1)">
      <use xlink:href="#DejaVuSans-54"/>
     </g>
    </g>
   </g>
   <g id="xtick_10">
    <g id="line2d_12">
     <path d="M 178.570258 94.718722 
L 180.835392 95.142983 
" style="fill:none;stroke:#000000;stroke-linecap:square;stroke-width:0.8;"/>
    </g>
    <g id="text_10">
     <!-- 8 -->
     <g transform="translate(188.802476 112.759047)scale(0.1 -0.1)">
      <use xlink:href="#DejaVuSans-56"/>
     </g>
    </g>
   </g>
  </g>
  <g id="axis3d_3">
   <g id="line2d_13">
    <path d="M 182.337831 92.92157 
L 186.108713 33.848772 
" style="fill:none;stroke:#000000;stroke-linecap:square;stroke-width:0.8;"/>
   </g>
   <g id="Line3DCollection_3">
    <path d="M 183.083443 81.241184 
L 92.025541 64.7859 
L 35.77527 94.229517 
" style="fill:none;stroke:#b0b0b0;stroke-width:0.8;"/>
    <path d="M 183.866812 68.969304 
L 91.83294 52.862952 
L 34.938951 81.692526 
" style="fill:none;stroke:#b0b0b0;stroke-width:0.8;"/>
    <path d="M 184.667305 56.429166 
L 91.636309 40.690517 
L 34.083732 68.872217 
" style="fill:none;stroke:#b0b0b0;stroke-width:0.8;"/>
    <path d="M 185.48549 43.611878 
L 91.435519 28.260684 
L 33.208966 55.758878 
" style="fill:none;stroke:#b0b0b0;stroke-width:0.8;"/>
   </g>
   <g id="xtick_11">
    <g id="line2d_14">
     <path d="M 182.323401 81.103835 
L 184.605122 81.51617 
" style="fill:none;stroke:#000000;stroke-linecap:square;stroke-width:0.8;"/>
    </g>
    <g id="text_11">
     <!-- 0.2 -->
     <defs>
      <path d="M 10.6875 12.40625 
L 21 12.40625 
L 21 0 
L 10.6875 0 
z
" id="DejaVuSans-46"/>
     </defs>
     <g transform="translate(194.920368 87.094848)scale(0.1 -0.1)">
      <use xlink:href="#DejaVuSans-48"/>
      <use x="63.623047" xlink:href="#DejaVuSans-46"/>
      <use x="95.410156" xlink:href="#DejaVuSans-50"/>
     </g>
    </g>
   </g>
   <g id="xtick_12">
    <g id="line2d_15">
     <path d="M 183.098279 68.834807 
L 185.405509 69.238583 
" style="fill:none;stroke:#000000;stroke-linecap:square;stroke-width:0.8;"/>
    </g>
    <g id="text_12">
     <!-- 0.4 -->
     <g transform="translate(195.913206 74.859274)scale(0.1 -0.1)">
      <use xlink:href="#DejaVuSans-48"/>
      <use x="63.623047" xlink:href="#DejaVuSans-46"/>
      <use x="95.410156" xlink:href="#DejaVuSans-52"/>
     </g>
    </g>
   </g>
   <g id="xtick_13">
    <g id="line2d_16">
     <path d="M 183.890089 56.29768 
L 186.223404 56.692422 
" style="fill:none;stroke:#000000;stroke-linecap:square;stroke-width:0.8;"/>
    </g>
    <g id="text_13">
     <!-- 0.6 -->
     <g transform="translate(196.927647 62.35745)scale(0.1 -0.1)">
      <use xlink:href="#DejaVuSans-48"/>
      <use x="63.623047" xlink:href="#DejaVuSans-46"/>
      <use x="95.410156" xlink:href="#DejaVuSans-54"/>
     </g>
    </g>
   </g>
   <g id="xtick_14">
    <g id="line2d_17">
     <path d="M 184.699393 43.483568 
L 187.059389 43.868776 
" style="fill:none;stroke:#000000;stroke-linecap:square;stroke-width:0.8;"/>
    </g>
    <g id="text_14">
     <!-- 0.8 -->
     <g transform="translate(197.964407 49.58059)scale(0.1 -0.1)">
      <use xlink:href="#DejaVuSans-48"/>
      <use x="63.623047" xlink:href="#DejaVuSans-46"/>
      <use x="95.410156" xlink:href="#DejaVuSans-56"/>
     </g>
    </g>
   </g>
  </g>
  <g id="axes_1">
   <g id="Poly3DCollection_1">
    <path clip-path="url(#pcac5c681a9)" d="M 98.287663 79.895836 
L 107.990932 74.636601 
L 113.665977 64.124634 
L 103.903451 67.155621 
z
" style="fill:#c2c2c2;stroke:#000000;"/>
    <path clip-path="url(#pcac5c681a9)" d="M 82.790171 79.065161 
L 92.508119 82.077445 
L 98.287663 79.895836 
L 88.350307 62.168218 
z
" style="fill:#dadada;stroke:#000000;"/>
    <path clip-path="url(#pcac5c681a9)" d="M 88.350307 62.168218 
L 98.287663 79.895836 
L 103.903451 67.155621 
L 93.803731 34.517302 
z
" style="fill:#7e7e7e;stroke:#000000;"/>
    <path clip-path="url(#pcac5c681a9)" d="M 107.990932 74.636601 
L 117.820147 83.1794 
L 123.470724 72.805327 
L 113.665977 64.124634 
z
" style="fill:#c6c6c6;stroke:#000000;"/>
    <path clip-path="url(#pcac5c681a9)" d="M 92.508119 82.077445 
L 102.249029 78.618374 
L 107.990932 74.636601 
L 98.287663 79.895836 
z
" style="fill:#e4e4e4;stroke:#000000;"/>
    <path clip-path="url(#pcac5c681a9)" d="M 76.930542 84.291633 
L 86.727795 89.190697 
L 92.508119 82.077445 
L 82.790171 79.065161 
z
" style="fill:#ffffff;stroke:#000000;"/>
    <path clip-path="url(#pcac5c681a9)" d="M 102.249029 78.618374 
L 112.165406 82.065031 
L 117.820147 83.1794 
L 107.990932 74.636601 
z
" style="fill:#dcdcdc;stroke:#000000;"/>
    <path clip-path="url(#pcac5c681a9)" d="M 117.820147 83.1794 
L 128.061022 62.874016 
L 133.414216 73.1815 
L 123.470724 72.805327 
z
" style="fill:#b3b3b3;stroke:#000000;"/>
    <path clip-path="url(#pcac5c681a9)" d="M 86.727795 89.190697 
L 96.405041 81.386788 
L 102.249029 78.618374 
L 92.508119 82.077445 
z
" style="fill:#eaeaea;stroke:#000000;"/>
    <path clip-path="url(#pcac5c681a9)" d="M 70.924302 87.530464 
L 80.581072 84.618137 
L 86.727795 89.190697 
L 76.930542 84.291633 
z
" style="fill:#fcfcfc;stroke:#000000;"/>
    <path clip-path="url(#pcac5c681a9)" d="M 96.405041 81.386788 
L 106.379114 82.581598 
L 112.165406 82.065031 
L 102.249029 78.618374 
z
" style="fill:#cecece;stroke:#000000;"/>
    <path clip-path="url(#pcac5c681a9)" d="M 80.581072 84.618137 
L 90.467077 84.640679 
L 96.405041 81.386788 
L 86.727795 89.190697 
z
" style="fill:#e2e2e2;stroke:#000000;"/>
    <path clip-path="url(#pcac5c681a9)" d="M 112.165406 82.065031 
L 122.372277 63.517237 
L 128.061022 62.874016 
L 117.820147 83.1794 
z
" style="fill:#9a9a9a;stroke:#000000;"/>
    <path clip-path="url(#pcac5c681a9)" d="M 128.061022 62.874016 
L 138.094728 71.517962 
L 143.865022 60.051229 
L 133.414216 73.1815 
z
" style="fill:#757575;stroke:#000000;"/>
    <path clip-path="url(#pcac5c681a9)" d="M 64.734636 88.750274 
L 74.474763 87.111226 
L 80.581072 84.618137 
L 70.924302 87.530464 
z
" style="fill:#e7e7e7;stroke:#000000;"/>
    <path clip-path="url(#pcac5c681a9)" d="M 90.467077 84.640679 
L 100.487356 85.310611 
L 106.379114 82.581598 
L 96.405041 81.386788 
z
" style="fill:#c7c7c7;stroke:#000000;"/>
    <path clip-path="url(#pcac5c681a9)" d="M 158.829629 71.238842 
L 168.713521 84.539005 
L 174.620012 70.77863 
L 163.546647 83.334294 
z
" style="fill:#9c9c9c;stroke:#000000;"/>
    <path clip-path="url(#pcac5c681a9)" d="M 122.372277 63.517237 
L 132.482504 74.124273 
L 138.094728 71.517962 
L 128.061022 62.874016 
z
" style="fill:#656565;stroke:#000000;"/>
    <path clip-path="url(#pcac5c681a9)" d="M 138.094728 71.517962 
L 148.635402 64.070023 
L 154.428052 53.561899 
L 143.865022 60.051229 
z
" style="fill:#444444;stroke:#000000;"/>
    <path clip-path="url(#pcac5c681a9)" d="M 106.379114 82.581598 
L 116.575729 61.558141 
L 122.372277 63.517237 
L 112.165406 82.065031 
z
" style="fill:#7d7d7d;stroke:#000000;"/>
    <path clip-path="url(#pcac5c681a9)" d="M 74.474763 87.111226 
L 84.135583 75.289368 
L 90.467077 84.640679 
L 80.581072 84.618137 
z
" style="fill:#b8b8b8;stroke:#000000;"/>
    <path clip-path="url(#pcac5c681a9)" d="M 148.635402 64.070023 
L 158.829629 71.238842 
L 163.546647 83.334294 
L 154.428052 53.561899 
z
" style="fill:#626262;stroke:#000000;"/>
    <path clip-path="url(#pcac5c681a9)" d="M 132.482504 74.124273 
L 142.641213 80.947316 
L 148.635402 64.070023 
L 138.094728 71.517962 
z
" style="fill:#7a7a7a;stroke:#000000;"/>
    <path clip-path="url(#pcac5c681a9)" d="M 57.859665 77.936653 
L 68.185054 87.736199 
L 74.474763 87.111226 
L 64.734636 88.750274 
z
" style="fill:#c1c1c1;stroke:#000000;"/>
    <path clip-path="url(#pcac5c681a9)" d="M 84.135583 75.289368 
L 94.448367 85.155166 
L 100.487356 85.310611 
L 90.467077 84.640679 
z
" style="fill:#a7a7a7;stroke:#000000;"/>
    <path clip-path="url(#pcac5c681a9)" d="M 153.290429 74.918527 
L 163.175606 90.60027 
L 168.713521 84.539005 
L 158.829629 71.238842 
z
" style="fill:#989898;stroke:#000000;"/>
    <path clip-path="url(#pcac5c681a9)" d="M 142.641213 80.947316 
L 153.290429 74.918527 
L 158.829629 71.238842 
L 148.635402 64.070023 
z
" style="fill:#6d6d6d;stroke:#000000;"/>
    <path clip-path="url(#pcac5c681a9)" d="M 126.969124 62.700074 
L 136.921364 87.753896 
L 142.641213 80.947316 
L 132.482504 74.124273 
z
" style="fill:#7f7f7f;stroke:#000000;"/>
    <path clip-path="url(#pcac5c681a9)" d="M 136.921364 87.753896 
L 147.260827 90.950917 
L 153.290429 74.918527 
L 142.641213 80.947316 
z
" style="fill:#a7a7a7;stroke:#000000;"/>
    <path clip-path="url(#pcac5c681a9)" d="M 100.487356 85.310611 
L 110.627027 64.055901 
L 116.575729 61.558141 
L 106.379114 82.581598 
z
" style="fill:#6c6c6c;stroke:#000000;"/>
    <path clip-path="url(#pcac5c681a9)" d="M 68.185054 87.736199 
L 77.911554 78.154203 
L 84.135583 75.289368 
L 74.474763 87.111226 
z
" style="fill:#989898;stroke:#000000;"/>
    <path clip-path="url(#pcac5c681a9)" d="M 147.260827 90.950917 
L 157.651165 94.82221 
L 163.175606 90.60027 
L 153.290429 74.918527 
z
" style="fill:#b8b8b8;stroke:#000000;"/>
    <path clip-path="url(#pcac5c681a9)" d="M 116.575729 61.558141 
L 126.969124 62.700074 
L 132.482504 74.124273 
L 122.372277 63.517237 
z
" style="fill:#3a3a3a;stroke:#000000;"/>
    <path clip-path="url(#pcac5c681a9)" d="M 131.193797 91.709542 
L 141.609655 94.388892 
L 147.260827 90.950917 
L 136.921364 87.753896 
z
" style="fill:#c7c7c7;stroke:#000000;"/>
    <path clip-path="url(#pcac5c681a9)" d="M 141.609655 94.388892 
L 151.773176 106.322123 
L 157.651165 94.82221 
L 147.260827 90.950917 
z
" style="fill:#e2e2e2;stroke:#000000;"/>
    <path clip-path="url(#pcac5c681a9)" d="M 94.448367 85.155166 
L 104.649819 82.098331 
L 110.627027 64.055901 
L 100.487356 85.310611 
z
" style="fill:#7f7f7f;stroke:#000000;"/>
    <path clip-path="url(#pcac5c681a9)" d="M 121.070361 66.624717 
L 131.193797 91.709542 
L 136.921364 87.753896 
L 126.969124 62.700074 
z
" style="fill:#6c6c6c;stroke:#000000;"/>
    <path clip-path="url(#pcac5c681a9)" d="M 61.415268 80.475798 
L 72.128307 97.146411 
L 77.911554 78.154203 
L 68.185054 87.736199 
z
" style="fill:#9c9c9c;stroke:#000000;"/>
    <path clip-path="url(#pcac5c681a9)" d="M 125.344979 97.949675 
L 135.851506 98.332033 
L 141.609655 94.388892 
L 131.193797 91.709542 
z
" style="fill:#cecece;stroke:#000000;"/>
    <path clip-path="url(#pcac5c681a9)" d="M 77.911554 78.154203 
L 88.063996 74.666131 
L 94.448367 85.155166 
L 84.135583 75.289368 
z
" style="fill:#6d6d6d;stroke:#000000;"/>
    <path clip-path="url(#pcac5c681a9)" d="M 50.112879 55.600009 
L 61.415268 80.475798 
L 68.185054 87.736199 
L 57.859665 77.936653 
z
" style="fill:#5c5c5c;stroke:#000000;"/>
    <path clip-path="url(#pcac5c681a9)" d="M 135.851506 98.332033 
L 146.26454 105.867723 
L 151.773176 106.322123 
L 141.609655 94.388892 
z
" style="fill:#eaeaea;stroke:#000000;"/>
    <path clip-path="url(#pcac5c681a9)" d="M 110.627027 64.055901 
L 121.070361 66.624717 
L 126.969124 62.700074 
L 116.575729 61.558141 
z
" style="fill:#151515;stroke:#000000;"/>
    <path clip-path="url(#pcac5c681a9)" d="M 88.063996 74.666131 
L 98.5762 86.093199 
L 104.649819 82.098331 
L 94.448367 85.155166 
z
" style="fill:#7a7a7a;stroke:#000000;"/>
    <path clip-path="url(#pcac5c681a9)" d="M 115.058997 75.115657 
L 125.344979 97.949675 
L 131.193797 91.709542 
L 121.070361 66.624717 
z
" style="fill:#7d7d7d;stroke:#000000;"/>
    <path clip-path="url(#pcac5c681a9)" d="M 119.411845 105.944826 
L 130.021343 101.024932 
L 135.851506 98.332033 
L 125.344979 97.949675 
z
" style="fill:#dcdcdc;stroke:#000000;"/>
    <path clip-path="url(#pcac5c681a9)" d="M 54.860354 82.37475 
L 65.631045 96.662561 
L 72.128307 97.146411 
L 61.415268 80.475798 
z
" style="fill:#9b9b9b;stroke:#000000;"/>
    <path clip-path="url(#pcac5c681a9)" d="M 104.649819 82.098331 
L 115.058997 75.115657 
L 121.070361 66.624717 
L 110.627027 64.055901 
z
" style="fill:#3a3a3a;stroke:#000000;"/>
    <path clip-path="url(#pcac5c681a9)" d="M 108.994346 81.042271 
L 119.411845 105.944826 
L 125.344979 97.949675 
L 115.058997 75.115657 
z
" style="fill:#9a9a9a;stroke:#000000;"/>
    <path clip-path="url(#pcac5c681a9)" d="M 72.128307 97.146411 
L 81.576339 70.421609 
L 88.063996 74.666131 
L 77.911554 78.154203 
z
" style="fill:#626262;stroke:#000000;"/>
    <path clip-path="url(#pcac5c681a9)" d="M 130.021343 101.024932 
L 140.481719 110.508565 
L 146.26454 105.867723 
L 135.851506 98.332033 
z
" style="fill:#e4e4e4;stroke:#000000;"/>
    <path clip-path="url(#pcac5c681a9)" d="M 98.5762 86.093199 
L 108.994346 81.042271 
L 115.058997 75.115657 
L 104.649819 82.098331 
z
" style="fill:#656565;stroke:#000000;"/>
    <path clip-path="url(#pcac5c681a9)" d="M 102.929461 98.451001 
L 113.454915 102.004353 
L 119.411845 105.944826 
L 108.994346 81.042271 
z
" style="fill:#b3b3b3;stroke:#000000;"/>
    <path clip-path="url(#pcac5c681a9)" d="M 65.631045 96.662561 
L 75.380396 81.983376 
L 81.576339 70.421609 
L 72.128307 97.146411 
z
" style="fill:#797979;stroke:#000000;"/>
    <path clip-path="url(#pcac5c681a9)" d="M 92.254428 80.92084 
L 102.929461 98.451001 
L 108.994346 81.042271 
L 98.5762 86.093199 
z
" style="fill:#757575;stroke:#000000;"/>
    <path clip-path="url(#pcac5c681a9)" d="M 113.454915 102.004353 
L 124.164285 96.813975 
L 130.021343 101.024932 
L 119.411845 105.944826 
z
" style="fill:#c6c6c6;stroke:#000000;"/>
    <path clip-path="url(#pcac5c681a9)" d="M 81.576339 70.421609 
L 92.254428 80.92084 
L 98.5762 86.093199 
L 88.063996 74.666131 
z
" style="fill:#444444;stroke:#000000;"/>
    <path clip-path="url(#pcac5c681a9)" d="M 42.70324 46.251223 
L 54.860354 82.37475 
L 61.415268 80.475798 
L 50.112879 55.600009 
z
" style="stroke:#000000;"/>
    <path clip-path="url(#pcac5c681a9)" d="M 86.173066 96.240452 
L 96.69173 98.305944 
L 102.929461 98.451001 
L 92.254428 80.92084 
z
" style="fill:#8e8e8e;stroke:#000000;"/>
    <path clip-path="url(#pcac5c681a9)" d="M 124.164285 96.813975 
L 134.85383 103.97714 
L 140.481719 110.508565 
L 130.021343 101.024932 
z
" style="fill:#c2c2c2;stroke:#000000;"/>
    <path clip-path="url(#pcac5c681a9)" d="M 75.380396 81.983376 
L 86.173066 96.240452 
L 92.254428 80.92084 
L 81.576339 70.421609 
z
" style="fill:#4b4b4b;stroke:#000000;"/>
    <path clip-path="url(#pcac5c681a9)" d="M 96.69173 98.305944 
L 107.280892 88.060118 
L 113.454915 102.004353 
L 102.929461 98.451001 
z
" style="fill:#979797;stroke:#000000;"/>
    <path clip-path="url(#pcac5c681a9)" d="M 107.280892 88.060118 
L 118.021502 107.063694 
L 124.164285 96.813975 
L 113.454915 102.004353 
z
" style="fill:#959595;stroke:#000000;"/>
    <path clip-path="url(#pcac5c681a9)" d="M 118.021502 107.063694 
L 129.027772 96.658835 
L 134.85383 103.97714 
L 124.164285 96.813975 
z
" style="fill:#989898;stroke:#000000;"/>
   </g>
  </g>
 </g>
 <defs>
  <clipPath id="pcac5c681a9">
   <rect height="122.4" width="194.4" x="10.8" y="10.8"/>
  </clipPath>
 </defs>
</svg>
