<?xml version="1.0" encoding="utf-8" standalone="no"?>
<!DOCTYPE svg PUBLIC "-//W3C//DTD SVG 1.1//EN"
  "http://www.w3.org/Graphics/SVG/1.1/DTD/svg11.dtd">
<!-- Created with matplotlib (https://matplotlib.org/) -->
<svg height="144pt" version="1.1" viewBox="0 0 216 144" width="216pt" xmlns="http://www.w3.org/2000/svg" xmlns:xlink="http://www.w3.org/1999/xlink">
 <defs>
  <style type="text/css">
*{stroke-linecap:butt;stroke-linejoin:round;}
  </style>
 </defs>
 <g id="figure_1">
  <g id="patch_1">
   <path d="M 0 144 
L 216 144 
L 216 0 
L 0 0 
z
" style="fill:#ffffff;"/>
  </g>
  <g id="patch_2">
   <path d="M 10.8 133.2 
L 205.2 133.2 
L 205.2 10.8 
L 10.8 10.8 
z
" style="fill:#ffffff;"/>
  </g>
  <g id="pane3d_1">
   <g id="patch_3">
    <path d="M 36.570724 106.153914 
L 92.209021 76.144207 
L 91.282702 18.800583 
L 32.542206 45.763687 
" style="fill:#f2f2f2;opacity:0.5;stroke:#f2f2f2;stroke-linejoin:miter;"/>
   </g>
  </g>
  <g id="pane3d_2">
   <g id="patch_4">
    <path d="M 92.209021 76.144207 
L 182.337831 92.92157 
L 186.108713 33.848772 
L 91.282702 18.800583 
" style="fill:#e6e6e6;opacity:0.5;stroke:#e6e6e6;stroke-linejoin:miter;"/>
   </g>
  </g>
  <g id="pane3d_3">
   <g id="patch_5">
    <path d="M 36.570724 106.153914 
L 131.398411 125.693886 
L 182.337831 92.92157 
L 92.209021 76.144207 
" style="fill:#ececec;opacity:0.5;stroke:#ececec;stroke-linejoin:miter;"/>
   </g>
  </g>
  <g id="axis3d_1">
   <g id="line2d_1">
    <path d="M 36.570724 106.153914 
L 131.398411 125.693886 
" style="fill:none;stroke:#000000;stroke-linecap:square;stroke-width:0.8;"/>
   </g>
   <g id="Line3DCollection_1">
    <path d="M 42.352032 107.345197 
L 97.721186 77.170289 
L 97.070293 19.719031 
" style="fill:none;stroke:#b0b0b0;stroke-width:0.8;"/>
    <path d="M 62.426428 111.48168 
L 116.843521 80.729888 
L 117.160059 22.907129 
" style="fill:none;stroke:#b0b0b0;stroke-width:0.8;"/>
    <path d="M 82.901148 115.700653 
L 136.319223 84.355265 
L 137.640158 26.15717 
" style="fill:none;stroke:#b0b0b0;stroke-width:0.8;"/>
    <path d="M 103.788289 120.004609 
L 156.158179 88.048261 
L 158.522077 29.470976 
" style="fill:none;stroke:#b0b0b0;stroke-width:0.8;"/>
    <path d="M 125.100437 124.39614 
L 176.370648 91.810786 
L 179.817758 32.850444 
" style="fill:none;stroke:#b0b0b0;stroke-width:0.8;"/>
   </g>
   <g id="xtick_1">
    <g id="line2d_2">
     <path d="M 42.829066 107.085224 
L 41.396185 107.866111 
" style="fill:none;stroke:#000000;stroke-linecap:square;stroke-width:0.8;"/>
    </g>
    <g id="text_1">
     <!-- 0 -->
     <defs>
      <path d="M 31.78125 66.40625 
Q 24.171875 66.40625 20.328125 58.90625 
Q 16.5 51.421875 16.5 36.375 
Q 16.5 21.390625 20.328125 13.890625 
Q 24.171875 6.390625 31.78125 6.390625 
Q 39.453125 6.390625 43.28125 13.890625 
Q 47.125 21.390625 47.125 36.375 
Q 47.125 51.421875 43.28125 58.90625 
Q 39.453125 66.40625 31.78125 66.40625 
z
M 31.78125 74.21875 
Q 44.046875 74.21875 50.515625 64.515625 
Q 56.984375 54.828125 56.984375 36.375 
Q 56.984375 17.96875 50.515625 8.265625 
Q 44.046875 -1.421875 31.78125 -1.421875 
Q 19.53125 -1.421875 13.0625 8.265625 
Q 6.59375 17.96875 6.59375 36.375 
Q 6.59375 54.828125 13.0625 64.515625 
Q 19.53125 74.21875 31.78125 74.21875 
z
" id="DejaVuSans-48"/>
     </defs>
     <g transform="translate(31.317754 127.519522)scale(0.1 -0.1)">
      <use xlink:href="#DejaVuSans-48"/>
     </g>
    </g>
   </g>
   <g id="xtick_2">
    <g id="line2d_3">
     <path d="M 62.89559 111.21655 
L 61.486337 112.012937 
" style="fill:none;stroke:#000000;stroke-linecap:square;stroke-width:0.8;"/>
    </g>
    <g id="text_2">
     <!-- 2 -->
     <defs>
      <path d="M 19.1875 8.296875 
L 53.609375 8.296875 
L 53.609375 0 
L 7.328125 0 
L 7.328125 8.296875 
Q 12.9375 14.109375 22.625 23.890625 
Q 32.328125 33.6875 34.8125 36.53125 
Q 39.546875 41.84375 41.421875 45.53125 
Q 43.3125 49.21875 43.3125 52.78125 
Q 43.3125 58.59375 39.234375 62.25 
Q 35.15625 65.921875 28.609375 65.921875 
Q 23.96875 65.921875 18.8125 64.3125 
Q 13.671875 62.703125 7.8125 59.421875 
L 7.8125 69.390625 
Q 13.765625 71.78125 18.9375 73 
Q 24.125 74.21875 28.421875 74.21875 
Q 39.75 74.21875 46.484375 68.546875 
Q 53.21875 62.890625 53.21875 53.421875 
Q 53.21875 48.921875 51.53125 44.890625 
Q 49.859375 40.875 45.40625 35.40625 
Q 44.1875 33.984375 37.640625 27.21875 
Q 31.109375 20.453125 19.1875 8.296875 
z
" id="DejaVuSans-50"/>
     </defs>
     <g transform="translate(51.387708 131.795734)scale(0.1 -0.1)">
      <use xlink:href="#DejaVuSans-50"/>
     </g>
    </g>
   </g>
   <g id="xtick_3">
    <g id="line2d_4">
     <path d="M 83.362028 115.430212 
L 81.977636 116.242564 
" style="fill:none;stroke:#000000;stroke-linecap:square;stroke-width:0.8;"/>
    </g>
    <g id="text_3">
     <!-- 4 -->
     <defs>
      <path d="M 37.796875 64.3125 
L 12.890625 25.390625 
L 37.796875 25.390625 
z
M 35.203125 72.90625 
L 47.609375 72.90625 
L 47.609375 25.390625 
L 58.015625 25.390625 
L 58.015625 17.1875 
L 47.609375 17.1875 
L 47.609375 0 
L 37.796875 0 
L 37.796875 17.1875 
L 4.890625 17.1875 
L 4.890625 26.703125 
z
" id="DejaVuSans-52"/>
     </defs>
     <g transform="translate(71.859374 136.157538)scale(0.1 -0.1)">
      <use xlink:href="#DejaVuSans-52"/>
     </g>
    </g>
   </g>
   <g id="xtick_4">
    <g id="line2d_5">
     <path d="M 104.240456 119.728694 
L 102.882217 120.557497 
" style="fill:none;stroke:#000000;stroke-linecap:square;stroke-width:0.8;"/>
    </g>
    <g id="text_4">
     <!-- 6 -->
     <defs>
      <path d="M 33.015625 40.375 
Q 26.375 40.375 22.484375 35.828125 
Q 18.609375 31.296875 18.609375 23.390625 
Q 18.609375 15.53125 22.484375 10.953125 
Q 26.375 6.390625 33.015625 6.390625 
Q 39.65625 6.390625 43.53125 10.953125 
Q 47.40625 15.53125 47.40625 23.390625 
Q 47.40625 31.296875 43.53125 35.828125 
Q 39.65625 40.375 33.015625 40.375 
z
M 52.59375 71.296875 
L 52.59375 62.3125 
Q 48.875 64.0625 45.09375 64.984375 
Q 41.3125 65.921875 37.59375 65.921875 
Q 27.828125 65.921875 22.671875 59.328125 
Q 17.53125 52.734375 16.796875 39.40625 
Q 19.671875 43.65625 24.015625 45.921875 
Q 28.375 48.1875 33.59375 48.1875 
Q 44.578125 48.1875 50.953125 41.515625 
Q 57.328125 34.859375 57.328125 23.390625 
Q 57.328125 12.15625 50.6875 5.359375 
Q 44.046875 -1.421875 33.015625 -1.421875 
Q 20.359375 -1.421875 13.671875 8.265625 
Q 6.984375 17.96875 6.984375 36.375 
Q 6.984375 53.65625 15.1875 63.9375 
Q 23.390625 74.21875 37.203125 74.21875 
Q 40.921875 74.21875 44.703125 73.484375 
Q 48.484375 72.75 52.59375 71.296875 
z
" id="DejaVuSans-54"/>
     </defs>
     <g transform="translate(92.744938 140.607528)scale(0.1 -0.1)">
      <use xlink:href="#DejaVuSans-54"/>
     </g>
    </g>
   </g>
   <g id="xtick_5">
    <g id="line2d_6">
     <path d="M 125.54344 124.114585 
L 124.212712 124.960344 
" style="fill:none;stroke:#000000;stroke-linecap:square;stroke-width:0.8;"/>
    </g>
    <g id="text_5">
     <!-- 8 -->
     <defs>
      <path d="M 31.78125 34.625 
Q 24.75 34.625 20.71875 30.859375 
Q 16.703125 27.09375 16.703125 20.515625 
Q 16.703125 13.921875 20.71875 10.15625 
Q 24.75 6.390625 31.78125 6.390625 
Q 38.8125 6.390625 42.859375 10.171875 
Q 46.921875 13.96875 46.921875 20.515625 
Q 46.921875 27.09375 42.890625 30.859375 
Q 38.875 34.625 31.78125 34.625 
z
M 21.921875 38.8125 
Q 15.578125 40.375 12.03125 44.71875 
Q 8.5 49.078125 8.5 55.328125 
Q 8.5 64.0625 14.71875 69.140625 
Q 20.953125 74.21875 31.78125 74.21875 
Q 42.671875 74.21875 48.875 69.140625 
Q 55.078125 64.0625 55.078125 55.328125 
Q 55.078125 49.078125 51.53125 44.71875 
Q 48 40.375 41.703125 38.8125 
Q 48.828125 37.15625 52.796875 32.3125 
Q 56.78125 27.484375 56.78125 20.515625 
Q 56.78125 9.90625 50.3125 4.234375 
Q 43.84375 -1.421875 31.78125 -1.421875 
Q 19.734375 -1.421875 13.25 4.234375 
Q 6.78125 9.90625 6.78125 20.515625 
Q 6.78125 27.484375 10.78125 32.3125 
Q 14.796875 37.15625 21.921875 38.8125 
z
M 18.3125 54.390625 
Q 18.3125 48.734375 21.84375 45.5625 
Q 25.390625 42.390625 31.78125 42.390625 
Q 38.140625 42.390625 41.71875 45.5625 
Q 45.3125 48.734375 45.3125 54.390625 
Q 45.3125 60.0625 41.71875 63.234375 
Q 38.140625 66.40625 31.78125 66.40625 
Q 25.390625 66.40625 21.84375 63.234375 
Q 18.3125 60.0625 18.3125 54.390625 
z
" id="DejaVuSans-56"/>
     </defs>
     <g transform="translate(114.057078 145.148407)scale(0.1 -0.1)">
      <use xlink:href="#DejaVuSans-56"/>
     </g>
    </g>
   </g>
  </g>
  <g id="axis3d_2">
   <g id="line2d_7">
    <path d="M 182.337831 92.92157 
L 131.398411 125.693886 
" style="fill:none;stroke:#000000;stroke-linecap:square;stroke-width:0.8;"/>
   </g>
   <g id="Line3DCollection_2">
    <path d="M 36.564365 43.917433 
L 40.366648 104.106501 
L 134.88463 123.450997 
" style="fill:none;stroke:#b0b0b0;stroke-width:0.8;"/>
    <path d="M 50.044637 37.729709 
L 53.103467 97.236625 
L 146.570602 115.932726 
" style="fill:none;stroke:#b0b0b0;stroke-width:0.8;"/>
    <path d="M 63.063746 31.753668 
L 65.426198 90.590096 
L 157.859573 108.669869 
" style="fill:none;stroke:#b0b0b0;stroke-width:0.8;"/>
    <path d="M 75.644958 25.978632 
L 77.354713 84.156196 
L 168.771436 101.649627 
" style="fill:none;stroke:#b0b0b0;stroke-width:0.8;"/>
    <path d="M 87.810001 20.394625 
L 88.90763 77.924883 
L 179.324777 94.860044 
" style="fill:none;stroke:#b0b0b0;stroke-width:0.8;"/>
   </g>
   <g id="xtick_6">
    <g id="line2d_8">
     <path d="M 134.093598 123.2891 
L 136.468463 123.775151 
" style="fill:none;stroke:#000000;stroke-linecap:square;stroke-width:0.8;"/>
    </g>
    <g id="text_6">
     <!-- 0 -->
     <g transform="translate(145.296339 142.045096)scale(0.1 -0.1)">
      <use xlink:href="#DejaVuSans-48"/>
     </g>
    </g>
   </g>
   <g id="xtick_7">
    <g id="line2d_9">
     <path d="M 145.78896 115.776375 
L 148.135602 116.245771 
" style="fill:none;stroke:#000000;stroke-linecap:square;stroke-width:0.8;"/>
    </g>
    <g id="text_7">
     <!-- 2 -->
     <g transform="translate(156.736148 134.344417)scale(0.1 -0.1)">
      <use xlink:href="#DejaVuSans-50"/>
     </g>
    </g>
   </g>
   <g id="xtick_8">
    <g id="line2d_10">
     <path d="M 157.087145 108.518784 
L 159.406095 108.972365 
" style="fill:none;stroke:#000000;stroke-linecap:square;stroke-width:0.8;"/>
    </g>
    <g id="text_8">
     <!-- 4 -->
     <g transform="translate(167.787695 126.905095)scale(0.1 -0.1)">
      <use xlink:href="#DejaVuSans-52"/>
     </g>
    </g>
   </g>
   <g id="xtick_9">
    <g id="line2d_11">
     <path d="M 168.008049 101.503546 
L 170.299831 101.9421 
" style="fill:none;stroke:#000000;stroke-linecap:square;stroke-width:0.8;"/>
    </g>
    <g id="text_9">
     <!-- 6 -->
     <g transform="translate(178.470418 119.714046)scale(0.1 -0.1)">
      <use xlink:href="#DejaVuSans-54"/>
     </g>
    </g>
   </g>
   <g id="xtick_10">
    <g id="line2d_12">
     <path d="M 178.570258 94.718722 
L 180.835392 95.142983 
" style="fill:none;stroke:#000000;stroke-linecap:square;stroke-width:0.8;"/>
    </g>
    <g id="text_10">
     <!-- 8 -->
     <g transform="translate(188.802476 112.759047)scale(0.1 -0.1)">
      <use xlink:href="#DejaVuSans-56"/>
     </g>
    </g>
   </g>
  </g>
  <g id="axis3d_3">
   <g id="line2d_13">
    <path d="M 182.337831 92.92157 
L 186.108713 33.848772 
" style="fill:none;stroke:#000000;stroke-linecap:square;stroke-width:0.8;"/>
   </g>
   <g id="Line3DCollection_3">
    <path d="M 182.667239 87.761227 
L 92.127941 71.12495 
L 36.219363 100.886768 
" style="fill:none;stroke:#b0b0b0;stroke-width:0.8;"/>
    <path d="M 183.268043 78.349323 
L 91.980139 61.975292 
L 35.578246 91.27599 
" style="fill:none;stroke:#b0b0b0;stroke-width:0.8;"/>
    <path d="M 183.878953 68.779111 
L 91.829956 52.678251 
L 34.925985 81.498153 
" style="fill:none;stroke:#b0b0b0;stroke-width:0.8;"/>
    <path d="M 184.500225 59.046563 
L 91.677335 43.230237 
L 34.262286 71.548866 
" style="fill:none;stroke:#b0b0b0;stroke-width:0.8;"/>
    <path d="M 185.132126 49.147514 
L 91.522214 33.627542 
L 33.586847 61.423577 
" style="fill:none;stroke:#b0b0b0;stroke-width:0.8;"/>
    <path d="M 185.77493 39.077653 
L 91.364534 23.866336 
L 32.899353 51.117575 
" style="fill:none;stroke:#b0b0b0;stroke-width:0.8;"/>
   </g>
   <g id="xtick_11">
    <g id="line2d_14">
     <path d="M 181.911707 87.6224 
L 184.179882 88.03917 
" style="fill:none;stroke:#000000;stroke-linecap:square;stroke-width:0.8;"/>
    </g>
    <g id="text_11">
     <!-- 0.1 -->
     <defs>
      <path d="M 10.6875 12.40625 
L 21 12.40625 
L 21 0 
L 10.6875 0 
z
" id="DejaVuSans-46"/>
      <path d="M 12.40625 8.296875 
L 28.515625 8.296875 
L 28.515625 63.921875 
L 10.984375 60.40625 
L 10.984375 69.390625 
L 28.421875 72.90625 
L 38.28125 72.90625 
L 38.28125 8.296875 
L 54.390625 8.296875 
L 54.390625 0 
L 12.40625 0 
z
" id="DejaVuSans-49"/>
     </defs>
     <g transform="translate(194.392835 93.596079)scale(0.1 -0.1)">
      <use xlink:href="#DejaVuSans-48"/>
      <use x="63.623047" xlink:href="#DejaVuSans-46"/>
      <use x="95.410156" xlink:href="#DejaVuSans-49"/>
     </g>
    </g>
   </g>
   <g id="xtick_12">
    <g id="line2d_15">
     <path d="M 182.506001 78.212638 
L 184.793732 78.622981 
" style="fill:none;stroke:#000000;stroke-linecap:square;stroke-width:0.8;"/>
    </g>
    <g id="text_12">
     <!-- 0.2 -->
     <g transform="translate(195.154338 84.211436)scale(0.1 -0.1)">
      <use xlink:href="#DejaVuSans-48"/>
      <use x="63.623047" xlink:href="#DejaVuSans-46"/>
      <use x="95.410156" xlink:href="#DejaVuSans-50"/>
     </g>
    </g>
   </g>
   <g id="xtick_13">
    <g id="line2d_16">
     <path d="M 183.110288 68.644659 
L 185.417914 69.0483 
" style="fill:none;stroke:#000000;stroke-linecap:square;stroke-width:0.8;"/>
    </g>
    <g id="text_13">
     <!-- 0.3 -->
     <defs>
      <path d="M 40.578125 39.3125 
Q 47.65625 37.796875 51.625 33 
Q 55.609375 28.21875 55.609375 21.1875 
Q 55.609375 10.40625 48.1875 4.484375 
Q 40.765625 -1.421875 27.09375 -1.421875 
Q 22.515625 -1.421875 17.65625 -0.515625 
Q 12.796875 0.390625 7.625 2.203125 
L 7.625 11.71875 
Q 11.71875 9.328125 16.59375 8.109375 
Q 21.484375 6.890625 26.8125 6.890625 
Q 36.078125 6.890625 40.9375 10.546875 
Q 45.796875 14.203125 45.796875 21.1875 
Q 45.796875 27.640625 41.28125 31.265625 
Q 36.765625 34.90625 28.71875 34.90625 
L 20.21875 34.90625 
L 20.21875 43.015625 
L 29.109375 43.015625 
Q 36.375 43.015625 40.234375 45.921875 
Q 44.09375 48.828125 44.09375 54.296875 
Q 44.09375 59.90625 40.109375 62.90625 
Q 36.140625 65.921875 28.71875 65.921875 
Q 24.65625 65.921875 20.015625 65.03125 
Q 15.375 64.15625 9.8125 62.3125 
L 9.8125 71.09375 
Q 15.4375 72.65625 20.34375 73.4375 
Q 25.25 74.21875 29.59375 74.21875 
Q 40.828125 74.21875 47.359375 69.109375 
Q 53.90625 64.015625 53.90625 55.328125 
Q 53.90625 49.265625 50.4375 45.09375 
Q 46.96875 40.921875 40.578125 39.3125 
z
" id="DejaVuSans-51"/>
     </defs>
     <g transform="translate(195.928592 74.669653)scale(0.1 -0.1)">
      <use xlink:href="#DejaVuSans-48"/>
      <use x="63.623047" xlink:href="#DejaVuSans-46"/>
      <use x="95.410156" xlink:href="#DejaVuSans-51"/>
     </g>
    </g>
   </g>
   <g id="xtick_14">
    <g id="line2d_17">
     <path d="M 183.724822 58.91444 
L 186.052691 59.311092 
" style="fill:none;stroke:#000000;stroke-linecap:square;stroke-width:0.8;"/>
    </g>
    <g id="text_14">
     <!-- 0.4 -->
     <g transform="translate(196.71592 64.966748)scale(0.1 -0.1)">
      <use xlink:href="#DejaVuSans-48"/>
      <use x="63.623047" xlink:href="#DejaVuSans-46"/>
      <use x="95.410156" xlink:href="#DejaVuSans-52"/>
     </g>
    </g>
   </g>
   <g id="xtick_15">
    <g id="line2d_18">
     <path d="M 184.349865 49.01782 
L 186.698335 49.407182 
" style="fill:none;stroke:#000000;stroke-linecap:square;stroke-width:0.8;"/>
    </g>
    <g id="text_15">
     <!-- 0.5 -->
     <defs>
      <path d="M 10.796875 72.90625 
L 49.515625 72.90625 
L 49.515625 64.59375 
L 19.828125 64.59375 
L 19.828125 46.734375 
Q 21.96875 47.46875 24.109375 47.828125 
Q 26.265625 48.1875 28.421875 48.1875 
Q 40.625 48.1875 47.75 41.5 
Q 54.890625 34.8125 54.890625 23.390625 
Q 54.890625 11.625 47.5625 5.09375 
Q 40.234375 -1.421875 26.90625 -1.421875 
Q 22.3125 -1.421875 17.546875 -0.640625 
Q 12.796875 0.140625 7.71875 1.703125 
L 7.71875 11.625 
Q 12.109375 9.234375 16.796875 8.0625 
Q 21.484375 6.890625 26.703125 6.890625 
Q 35.15625 6.890625 40.078125 11.328125 
Q 45.015625 15.765625 45.015625 23.390625 
Q 45.015625 31 40.078125 35.4375 
Q 35.15625 39.890625 26.703125 39.890625 
Q 22.75 39.890625 18.8125 39.015625 
Q 14.890625 38.140625 10.796875 36.28125 
z
" id="DejaVuSans-53"/>
     </defs>
     <g transform="translate(197.516655 55.098608)scale(0.1 -0.1)">
      <use xlink:href="#DejaVuSans-48"/>
      <use x="63.623047" xlink:href="#DejaVuSans-46"/>
      <use x="95.410156" xlink:href="#DejaVuSans-53"/>
     </g>
    </g>
   </g>
   <g id="xtick_16">
    <g id="line2d_19">
     <path d="M 184.98569 38.950491 
L 187.355129 39.332253 
" style="fill:none;stroke:#000000;stroke-linecap:square;stroke-width:0.8;"/>
    </g>
    <g id="text_16">
     <!-- 0.6 -->
     <g transform="translate(198.331144 45.060973)scale(0.1 -0.1)">
      <use xlink:href="#DejaVuSans-48"/>
      <use x="63.623047" xlink:href="#DejaVuSans-46"/>
      <use x="95.410156" xlink:href="#DejaVuSans-54"/>
     </g>
    </g>
   </g>
  </g>
  <g id="axes_1">
   <g id="Poly3DCollection_1">
    <path clip-path="url(#pacaa99605a)" d="M 98.261024 77.442503 
L 107.972745 66.759789 
L 113.620285 81.448189 
L 103.890649 64.967641 
z
" style="fill:#ffffff;stroke:#000000;"/>
    <path clip-path="url(#pacaa99605a)" d="M 88.433119 66.458645 
L 98.261024 77.442503 
L 103.890649 64.967641 
L 93.924138 42.975614 
z
" style="fill:#bbbbbb;stroke:#000000;"/>
    <path clip-path="url(#pacaa99605a)" d="M 82.395737 62.950998 
L 92.536578 83.858953 
L 98.261024 77.442503 
L 88.433119 66.458645 
z
" style="fill:#f4f4f4;stroke:#000000;"/>
    <path clip-path="url(#pacaa99605a)" d="M 92.536578 83.858953 
L 102.0808 55.773716 
L 107.972745 66.759789 
L 98.261024 77.442503 
z
" style="fill:#d7d7d7;stroke:#000000;"/>
    <path clip-path="url(#pacaa99605a)" d="M 76.549939 71.505451 
L 86.601788 83.248064 
L 92.536578 83.858953 
L 82.395737 62.950998 
z
" style="fill:#f1f1f1;stroke:#000000;"/>
    <path clip-path="url(#pacaa99605a)" d="M 107.972745 66.759789 
L 118.033427 49.581379 
L 123.7968 43.77406 
L 113.620285 81.448189 
z
" style="fill:#888888;stroke:#000000;"/>
    <path clip-path="url(#pacaa99605a)" d="M 86.601788 83.248064 
L 96.242756 68.436354 
L 102.0808 55.773716 
L 92.536578 83.858953 
z
" style="fill:#cccccc;stroke:#000000;"/>
    <path clip-path="url(#pacaa99605a)" d="M 70.472148 74.675381 
L 80.479495 80.792226 
L 86.601788 83.248064 
L 76.549939 71.505451 
z
" style="fill:#e8e8e8;stroke:#000000;"/>
    <path clip-path="url(#pacaa99605a)" d="M 80.479495 80.792226 
L 90.597147 91.942097 
L 96.242756 68.436354 
L 86.601788 83.248064 
z
" style="fill:#f6f6f6;stroke:#000000;"/>
    <path clip-path="url(#pacaa99605a)" d="M 137.941744 77.893972 
L 148.587206 65.53109 
L 153.652619 74.146612 
L 143.595512 69.42672 
z
" style="fill:#b9b9b9;stroke:#000000;"/>
    <path clip-path="url(#pacaa99605a)" d="M 128.20259 53.507829 
L 137.941744 77.893972 
L 143.595512 69.42672 
L 134.125685 37.490413 
z
" style="fill:#626262;stroke:#000000;"/>
    <path clip-path="url(#pacaa99605a)" d="M 132.251164 86.214264 
L 142.503176 85.842699 
L 148.587206 65.53109 
L 137.941744 77.893972 
z
" style="fill:#dbdbdb;stroke:#000000;"/>
    <path clip-path="url(#pacaa99605a)" d="M 122.351598 65.546937 
L 132.251164 86.214264 
L 137.941744 77.893972 
L 128.20259 53.507829 
z
" style="fill:#a6a6a6;stroke:#000000;"/>
    <path clip-path="url(#pacaa99605a)" d="M 64.068011 72.371543 
L 74.552177 89.529224 
L 80.479495 80.792226 
L 70.472148 74.675381 
z
" style="fill:#dbdbdb;stroke:#000000;"/>
    <path clip-path="url(#pacaa99605a)" d="M 102.0808 55.773716 
L 112.210528 48.796071 
L 118.033427 49.581379 
L 107.972745 66.759789 
z
" style="fill:#414141;stroke:#000000;"/>
    <path clip-path="url(#pacaa99605a)" d="M 118.033427 49.581379 
L 128.20259 53.507829 
L 134.125685 37.490413 
L 123.7968 43.77406 
z
" style="stroke:#000000;"/>
    <path clip-path="url(#pacaa99605a)" d="M 74.552177 89.529224 
L 83.91673 65.863084 
L 90.597147 91.942097 
L 80.479495 80.792226 
z
" style="fill:#e3e3e3;stroke:#000000;"/>
    <path clip-path="url(#pacaa99605a)" d="M 112.210528 48.796071 
L 122.351598 65.546937 
L 128.20259 53.507829 
L 118.033427 49.581379 
z
" style="fill:#2b2b2b;stroke:#000000;"/>
    <path clip-path="url(#pacaa99605a)" d="M 116.564409 63.755548 
L 126.772516 76.578827 
L 132.251164 86.214264 
L 122.351598 65.546937 
z
" style="fill:#9e9e9e;stroke:#000000;"/>
    <path clip-path="url(#pacaa99605a)" d="M 58.064066 82.346282 
L 67.905551 80.303965 
L 74.552177 89.529224 
L 64.068011 72.371543 
z
" style="fill:#cfcfcf;stroke:#000000;"/>
    <path clip-path="url(#pacaa99605a)" d="M 126.772516 76.578827 
L 137.590936 59.01584 
L 142.503176 85.842699 
L 132.251164 86.214264 
z
" style="fill:#b0b0b0;stroke:#000000;"/>
    <path clip-path="url(#pacaa99605a)" d="M 148.587206 65.53109 
L 160.020016 42.960801 
L 165.428534 43.044345 
L 153.652619 74.146612 
z
" style="fill:#2b2b2b;stroke:#000000;"/>
    <path clip-path="url(#pacaa99605a)" d="M 96.242756 68.436354 
L 106.205204 36.16671 
L 112.210528 48.796071 
L 102.0808 55.773716 
z
" style="fill:#101010;stroke:#000000;"/>
    <path clip-path="url(#pacaa99605a)" d="M 90.597147 91.942097 
L 100.230774 56.69098 
L 106.205204 36.16671 
L 96.242756 68.436354 
z
" style="fill:#535353;stroke:#000000;"/>
    <path clip-path="url(#pacaa99605a)" d="M 83.91673 65.863084 
L 94.518869 90.084454 
L 100.230774 56.69098 
L 90.597147 91.942097 
z
" style="fill:#a2a2a2;stroke:#000000;"/>
    <path clip-path="url(#pacaa99605a)" d="M 147.02073 98.326482 
L 157.814248 90.932825 
L 163.062099 93.031843 
L 153.642543 65.498291 
z
" style="fill:#e3e3e3;stroke:#000000;"/>
    <path clip-path="url(#pacaa99605a)" d="M 142.503176 85.842699 
L 153.642543 65.498291 
L 160.020016 42.960801 
L 148.587206 65.53109 
z
" style="fill:#575757;stroke:#000000;"/>
    <path clip-path="url(#pacaa99605a)" d="M 137.590936 59.01584 
L 147.02073 98.326482 
L 153.642543 65.498291 
L 142.503176 85.842699 
z
" style="fill:#a2a2a2;stroke:#000000;"/>
    <path clip-path="url(#pacaa99605a)" d="M 94.518869 90.084454 
L 104.714381 94.3494 
L 110.627027 77.967946 
L 100.230774 56.69098 
z
" style="fill:#b0b0b0;stroke:#000000;"/>
    <path clip-path="url(#pacaa99605a)" d="M 106.205204 36.16671 
L 116.564409 63.755548 
L 122.351598 65.546937 
L 112.210528 48.796071 
z
" style="fill:#0c0c0c;stroke:#000000;"/>
    <path clip-path="url(#pacaa99605a)" d="M 153.642543 65.498291 
L 163.062099 93.031843 
L 169.092968 77.145773 
L 160.020016 42.960801 
z
" style="fill:#6f6f6f;stroke:#000000;"/>
    <path clip-path="url(#pacaa99605a)" d="M 160.020016 42.960801 
L 169.092968 77.145773 
L 175.326675 58.128755 
L 165.428534 43.044345 
z
" style="fill:#121212;stroke:#000000;"/>
    <path clip-path="url(#pacaa99605a)" d="M 110.627027 77.967946 
L 121.050219 68.842128 
L 126.772516 76.578827 
L 116.564409 63.755548 
z
" style="fill:#787878;stroke:#000000;"/>
    <path clip-path="url(#pacaa99605a)" d="M 141.975027 81.158313 
L 151.999439 100.218313 
L 157.814248 90.932825 
L 147.02073 98.326482 
z
" style="fill:#f6f6f6;stroke:#000000;"/>
    <path clip-path="url(#pacaa99605a)" d="M 88.093412 76.154537 
L 98.645857 92.626101 
L 104.714381 94.3494 
L 94.518869 90.084454 
z
" style="fill:#dbdbdb;stroke:#000000;"/>
    <path clip-path="url(#pacaa99605a)" d="M 67.905551 80.303965 
L 77.08867 49.526513 
L 83.91673 65.863084 
L 74.552177 89.529224 
z
" style="fill:#6f6f6f;stroke:#000000;"/>
    <path clip-path="url(#pacaa99605a)" d="M 104.714381 94.3494 
L 115.050953 77.186941 
L 121.050219 68.842128 
L 110.627027 77.967946 
z
" style="fill:#9e9e9e;stroke:#000000;"/>
    <path clip-path="url(#pacaa99605a)" d="M 100.230774 56.69098 
L 110.627027 77.967946 
L 116.564409 63.755548 
L 106.205204 36.16671 
z
" style="fill:#1c1c1c;stroke:#000000;"/>
    <path clip-path="url(#pacaa99605a)" d="M 50.572169 64.409549 
L 60.857895 67.611354 
L 67.905551 80.303965 
L 58.064066 82.346282 
z
" style="fill:#757575;stroke:#000000;"/>
    <path clip-path="url(#pacaa99605a)" d="M 77.08867 49.526513 
L 88.093412 76.154537 
L 94.518869 90.084454 
L 83.91673 65.863084 
z
" style="fill:#575757;stroke:#000000;"/>
    <path clip-path="url(#pacaa99605a)" d="M 98.645857 92.626101 
L 108.98044 71.372597 
L 115.050953 77.186941 
L 104.714381 94.3494 
z
" style="fill:#a6a6a6;stroke:#000000;"/>
    <path clip-path="url(#pacaa99605a)" d="M 82.113942 91.627035 
L 92.411694 90.639594 
L 98.645857 92.626101 
L 88.093412 76.154537 
z
" style="fill:#b9b9b9;stroke:#000000;"/>
    <path clip-path="url(#pacaa99605a)" d="M 132.056116 44.557606 
L 141.975027 81.158313 
L 147.02073 98.326482 
L 137.590936 59.01584 
z
" style="fill:#535353;stroke:#000000;"/>
    <path clip-path="url(#pacaa99605a)" d="M 136.384136 74.725295 
L 146.205188 107.717078 
L 151.999439 100.218313 
L 141.975027 81.158313 
z
" style="fill:#cccccc;stroke:#000000;"/>
    <path clip-path="url(#pacaa99605a)" d="M 121.050219 68.842128 
L 132.056116 44.557606 
L 137.590936 59.01584 
L 126.772516 76.578827 
z
" style="fill:#1c1c1c;stroke:#000000;"/>
    <path clip-path="url(#pacaa99605a)" d="M 60.857895 67.611354 
L 70.709605 55.904607 
L 77.08867 49.526513 
L 67.905551 80.303965 
z
" style="fill:#121212;stroke:#000000;"/>
    <path clip-path="url(#pacaa99605a)" d="M 130.16436 92.800645 
L 140.551222 107.934236 
L 146.205188 107.717078 
L 136.384136 74.725295 
z
" style="fill:#d7d7d7;stroke:#000000;"/>
    <path clip-path="url(#pacaa99605a)" d="M 70.709605 55.904607 
L 82.113942 91.627035 
L 88.093412 76.154537 
L 77.08867 49.526513 
z
" style="fill:#2b2b2b;stroke:#000000;"/>
    <path clip-path="url(#pacaa99605a)" d="M 64.968965 80.187861 
L 75.858338 97.364744 
L 82.113942 91.627035 
L 70.709605 55.904607 
z
" style="fill:#797979;stroke:#000000;"/>
    <path clip-path="url(#pacaa99605a)" d="M 115.050953 77.186941 
L 125.794627 63.782715 
L 132.056116 44.557606 
L 121.050219 68.842128 
z
" style="fill:#0c0c0c;stroke:#000000;"/>
    <path clip-path="url(#pacaa99605a)" d="M 75.858338 97.364744 
L 85.664059 72.926354 
L 92.411694 90.639594 
L 82.113942 91.627035 
z
" style="fill:#a1a1a1;stroke:#000000;"/>
    <path clip-path="url(#pacaa99605a)" d="M 43.038813 52.031812 
L 54.444376 73.916459 
L 60.857895 67.611354 
L 50.572169 64.409549 
z
" style="fill:#101010;stroke:#000000;"/>
    <path clip-path="url(#pacaa99605a)" d="M 123.943329 115.086417 
L 134.90445 101.652967 
L 140.551222 107.934236 
L 130.16436 92.800645 
z
" style="fill:#ffffff;stroke:#000000;"/>
    <path clip-path="url(#pacaa99605a)" d="M 54.444376 73.916459 
L 64.968965 80.187861 
L 70.709605 55.904607 
L 60.857895 67.611354 
z
" style="fill:#282828;stroke:#000000;"/>
    <path clip-path="url(#pacaa99605a)" d="M 92.411694 90.639594 
L 102.672817 61.180617 
L 108.98044 71.372597 
L 98.645857 92.626101 
z
" style="fill:#626262;stroke:#000000;"/>
    <path clip-path="url(#pacaa99605a)" d="M 125.794627 63.782715 
L 136.384136 74.725295 
L 141.975027 81.158313 
L 132.056116 44.557606 
z
" style="fill:#101010;stroke:#000000;"/>
    <path clip-path="url(#pacaa99605a)" d="M 108.98044 71.372597 
L 119.687812 71.063835 
L 125.794627 63.782715 
L 115.050953 77.186941 
z
" style="fill:#2b2b2b;stroke:#000000;"/>
    <path clip-path="url(#pacaa99605a)" d="M 119.687812 71.063835 
L 130.16436 92.800645 
L 136.384136 74.725295 
L 125.794627 63.782715 
z
" style="fill:#414141;stroke:#000000;"/>
    <path clip-path="url(#pacaa99605a)" d="M 113.532312 71.506941 
L 123.943329 115.086417 
L 130.16436 92.800645 
L 119.687812 71.063835 
z
" style="fill:#888888;stroke:#000000;"/>
    <path clip-path="url(#pacaa99605a)" d="M 107.326957 103.592018 
L 118.13312 90.319984 
L 123.943329 115.086417 
L 113.532312 71.506941 
z
" style="fill:#a8a8a8;stroke:#000000;"/>
    <path clip-path="url(#pacaa99605a)" d="M 118.13312 90.319984 
L 129.170042 88.00198 
L 134.90445 101.652967 
L 123.943329 115.086417 
z
" style="fill:#b5b5b5;stroke:#000000;"/>
    <path clip-path="url(#pacaa99605a)" d="M 85.664059 72.926354 
L 96.400168 74.91453 
L 102.672817 61.180617 
L 92.411694 90.639594 
z
" style="fill:#262626;stroke:#000000;"/>
    <path clip-path="url(#pacaa99605a)" d="M 102.672817 61.180617 
L 113.532312 71.506941 
L 119.687812 71.063835 
L 108.98044 71.372597 
z
" style="stroke:#000000;"/>
    <path clip-path="url(#pacaa99605a)" d="M 96.400168 74.91453 
L 107.326957 103.592018 
L 113.532312 71.506941 
L 102.672817 61.180617 
z
" style="fill:#2d2d2d;stroke:#000000;"/>
   </g>
  </g>
 </g>
 <defs>
  <clipPath id="pacaa99605a">
   <rect height="122.4" width="194.4" x="10.8" y="10.8"/>
  </clipPath>
 </defs>
</svg>
