<?xml version="1.0" encoding="utf-8" standalone="no"?>
<!DOCTYPE svg PUBLIC "-//W3C//DTD SVG 1.1//EN"
  "http://www.w3.org/Graphics/SVG/1.1/DTD/svg11.dtd">
<!-- Created with matplotlib (https://matplotlib.org/) -->
<svg height="144pt" version="1.1" viewBox="0 0 216 144" width="216pt" xmlns="http://www.w3.org/2000/svg" xmlns:xlink="http://www.w3.org/1999/xlink">
 <defs>
  <style type="text/css">
*{stroke-linecap:butt;stroke-linejoin:round;}
  </style>
 </defs>
 <g id="figure_1">
  <g id="patch_1">
   <path d="M 0 144 
L 216 144 
L 216 0 
L 0 0 
z
" style="fill:#ffffff;"/>
  </g>
  <g id="patch_2">
   <path d="M 10.8 133.2 
L 205.2 133.2 
L 205.2 10.8 
L 10.8 10.8 
z
" style="fill:#ffffff;"/>
  </g>
  <g id="pane3d_1">
   <g id="patch_3">
    <path d="M 36.570724 106.153914 
L 92.209021 76.144207 
L 91.282702 18.800583 
L 32.542206 45.763687 
" style="fill:#f2f2f2;opacity:0.5;stroke:#f2f2f2;stroke-linejoin:miter;"/>
   </g>
  </g>
  <g id="pane3d_2">
   <g id="patch_4">
    <path d="M 92.209021 76.144207 
L 182.337831 92.92157 
L 186.108713 33.848772 
L 91.282702 18.800583 
" style="fill:#e6e6e6;opacity:0.5;stroke:#e6e6e6;stroke-linejoin:miter;"/>
   </g>
  </g>
  <g id="pane3d_3">
   <g id="patch_5">
    <path d="M 36.570724 106.153914 
L 131.398411 125.693886 
L 182.337831 92.92157 
L 92.209021 76.144207 
" style="fill:#ececec;opacity:0.5;stroke:#ececec;stroke-linejoin:miter;"/>
   </g>
  </g>
  <g id="axis3d_1">
   <g id="line2d_1">
    <path d="M 36.570724 106.153914 
L 131.398411 125.693886 
" style="fill:none;stroke:#000000;stroke-linecap:square;stroke-width:0.8;"/>
   </g>
   <g id="Line3DCollection_1">
    <path d="M 42.352032 107.345197 
L 97.721186 77.170289 
L 97.070293 19.719031 
" style="fill:none;stroke:#b0b0b0;stroke-width:0.8;"/>
    <path d="M 62.426428 111.48168 
L 116.843521 80.729888 
L 117.160059 22.907129 
" style="fill:none;stroke:#b0b0b0;stroke-width:0.8;"/>
    <path d="M 82.901148 115.700653 
L 136.319223 84.355265 
L 137.640158 26.15717 
" style="fill:none;stroke:#b0b0b0;stroke-width:0.8;"/>
    <path d="M 103.788289 120.004609 
L 156.158179 88.048261 
L 158.522077 29.470976 
" style="fill:none;stroke:#b0b0b0;stroke-width:0.8;"/>
    <path d="M 125.100437 124.39614 
L 176.370648 91.810786 
L 179.817758 32.850444 
" style="fill:none;stroke:#b0b0b0;stroke-width:0.8;"/>
   </g>
   <g id="xtick_1">
    <g id="line2d_2">
     <path d="M 42.829066 107.085224 
L 41.396185 107.866111 
" style="fill:none;stroke:#000000;stroke-linecap:square;stroke-width:0.8;"/>
    </g>
    <g id="text_1">
     <!-- 0 -->
     <defs>
      <path d="M 31.78125 66.40625 
Q 24.171875 66.40625 20.328125 58.90625 
Q 16.5 51.421875 16.5 36.375 
Q 16.5 21.390625 20.328125 13.890625 
Q 24.171875 6.390625 31.78125 6.390625 
Q 39.453125 6.390625 43.28125 13.890625 
Q 47.125 21.390625 47.125 36.375 
Q 47.125 51.421875 43.28125 58.90625 
Q 39.453125 66.40625 31.78125 66.40625 
z
M 31.78125 74.21875 
Q 44.046875 74.21875 50.515625 64.515625 
Q 56.984375 54.828125 56.984375 36.375 
Q 56.984375 17.96875 50.515625 8.265625 
Q 44.046875 -1.421875 31.78125 -1.421875 
Q 19.53125 -1.421875 13.0625 8.265625 
Q 6.59375 17.96875 6.59375 36.375 
Q 6.59375 54.828125 13.0625 64.515625 
Q 19.53125 74.21875 31.78125 74.21875 
z
" id="DejaVuSans-48"/>
     </defs>
     <g transform="translate(31.317754 127.519522)scale(0.1 -0.1)">
      <use xlink:href="#DejaVuSans-48"/>
     </g>
    </g>
   </g>
   <g id="xtick_2">
    <g id="line2d_3">
     <path d="M 62.89559 111.21655 
L 61.486337 112.012937 
" style="fill:none;stroke:#000000;stroke-linecap:square;stroke-width:0.8;"/>
    </g>
    <g id="text_2">
     <!-- 2 -->
     <defs>
      <path d="M 19.1875 8.296875 
L 53.609375 8.296875 
L 53.609375 0 
L 7.328125 0 
L 7.328125 8.296875 
Q 12.9375 14.109375 22.625 23.890625 
Q 32.328125 33.6875 34.8125 36.53125 
Q 39.546875 41.84375 41.421875 45.53125 
Q 43.3125 49.21875 43.3125 52.78125 
Q 43.3125 58.59375 39.234375 62.25 
Q 35.15625 65.921875 28.609375 65.921875 
Q 23.96875 65.921875 18.8125 64.3125 
Q 13.671875 62.703125 7.8125 59.421875 
L 7.8125 69.390625 
Q 13.765625 71.78125 18.9375 73 
Q 24.125 74.21875 28.421875 74.21875 
Q 39.75 74.21875 46.484375 68.546875 
Q 53.21875 62.890625 53.21875 53.421875 
Q 53.21875 48.921875 51.53125 44.890625 
Q 49.859375 40.875 45.40625 35.40625 
Q 44.1875 33.984375 37.640625 27.21875 
Q 31.109375 20.453125 19.1875 8.296875 
z
" id="DejaVuSans-50"/>
     </defs>
     <g transform="translate(51.387708 131.795734)scale(0.1 -0.1)">
      <use xlink:href="#DejaVuSans-50"/>
     </g>
    </g>
   </g>
   <g id="xtick_3">
    <g id="line2d_4">
     <path d="M 83.362028 115.430212 
L 81.977636 116.242564 
" style="fill:none;stroke:#000000;stroke-linecap:square;stroke-width:0.8;"/>
    </g>
    <g id="text_3">
     <!-- 4 -->
     <defs>
      <path d="M 37.796875 64.3125 
L 12.890625 25.390625 
L 37.796875 25.390625 
z
M 35.203125 72.90625 
L 47.609375 72.90625 
L 47.609375 25.390625 
L 58.015625 25.390625 
L 58.015625 17.1875 
L 47.609375 17.1875 
L 47.609375 0 
L 37.796875 0 
L 37.796875 17.1875 
L 4.890625 17.1875 
L 4.890625 26.703125 
z
" id="DejaVuSans-52"/>
     </defs>
     <g transform="translate(71.859374 136.157538)scale(0.1 -0.1)">
      <use xlink:href="#DejaVuSans-52"/>
     </g>
    </g>
   </g>
   <g id="xtick_4">
    <g id="line2d_5">
     <path d="M 104.240456 119.728694 
L 102.882217 120.557497 
" style="fill:none;stroke:#000000;stroke-linecap:square;stroke-width:0.8;"/>
    </g>
    <g id="text_4">
     <!-- 6 -->
     <defs>
      <path d="M 33.015625 40.375 
Q 26.375 40.375 22.484375 35.828125 
Q 18.609375 31.296875 18.609375 23.390625 
Q 18.609375 15.53125 22.484375 10.953125 
Q 26.375 6.390625 33.015625 6.390625 
Q 39.65625 6.390625 43.53125 10.953125 
Q 47.40625 15.53125 47.40625 23.390625 
Q 47.40625 31.296875 43.53125 35.828125 
Q 39.65625 40.375 33.015625 40.375 
z
M 52.59375 71.296875 
L 52.59375 62.3125 
Q 48.875 64.0625 45.09375 64.984375 
Q 41.3125 65.921875 37.59375 65.921875 
Q 27.828125 65.921875 22.671875 59.328125 
Q 17.53125 52.734375 16.796875 39.40625 
Q 19.671875 43.65625 24.015625 45.921875 
Q 28.375 48.1875 33.59375 48.1875 
Q 44.578125 48.1875 50.953125 41.515625 
Q 57.328125 34.859375 57.328125 23.390625 
Q 57.328125 12.15625 50.6875 5.359375 
Q 44.046875 -1.421875 33.015625 -1.421875 
Q 20.359375 -1.421875 13.671875 8.265625 
Q 6.984375 17.96875 6.984375 36.375 
Q 6.984375 53.65625 15.1875 63.9375 
Q 23.390625 74.21875 37.203125 74.21875 
Q 40.921875 74.21875 44.703125 73.484375 
Q 48.484375 72.75 52.59375 71.296875 
z
" id="DejaVuSans-54"/>
     </defs>
     <g transform="translate(92.744938 140.607528)scale(0.1 -0.1)">
      <use xlink:href="#DejaVuSans-54"/>
     </g>
    </g>
   </g>
   <g id="xtick_5">
    <g id="line2d_6">
     <path d="M 125.54344 124.114585 
L 124.212712 124.960344 
" style="fill:none;stroke:#000000;stroke-linecap:square;stroke-width:0.8;"/>
    </g>
    <g id="text_5">
     <!-- 8 -->
     <defs>
      <path d="M 31.78125 34.625 
Q 24.75 34.625 20.71875 30.859375 
Q 16.703125 27.09375 16.703125 20.515625 
Q 16.703125 13.921875 20.71875 10.15625 
Q 24.75 6.390625 31.78125 6.390625 
Q 38.8125 6.390625 42.859375 10.171875 
Q 46.921875 13.96875 46.921875 20.515625 
Q 46.921875 27.09375 42.890625 30.859375 
Q 38.875 34.625 31.78125 34.625 
z
M 21.921875 38.8125 
Q 15.578125 40.375 12.03125 44.71875 
Q 8.5 49.078125 8.5 55.328125 
Q 8.5 64.0625 14.71875 69.140625 
Q 20.953125 74.21875 31.78125 74.21875 
Q 42.671875 74.21875 48.875 69.140625 
Q 55.078125 64.0625 55.078125 55.328125 
Q 55.078125 49.078125 51.53125 44.71875 
Q 48 40.375 41.703125 38.8125 
Q 48.828125 37.15625 52.796875 32.3125 
Q 56.78125 27.484375 56.78125 20.515625 
Q 56.78125 9.90625 50.3125 4.234375 
Q 43.84375 -1.421875 31.78125 -1.421875 
Q 19.734375 -1.421875 13.25 4.234375 
Q 6.78125 9.90625 6.78125 20.515625 
Q 6.78125 27.484375 10.78125 32.3125 
Q 14.796875 37.15625 21.921875 38.8125 
z
M 18.3125 54.390625 
Q 18.3125 48.734375 21.84375 45.5625 
Q 25.390625 42.390625 31.78125 42.390625 
Q 38.140625 42.390625 41.71875 45.5625 
Q 45.3125 48.734375 45.3125 54.390625 
Q 45.3125 60.0625 41.71875 63.234375 
Q 38.140625 66.40625 31.78125 66.40625 
Q 25.390625 66.40625 21.84375 63.234375 
Q 18.3125 60.0625 18.3125 54.390625 
z
" id="DejaVuSans-56"/>
     </defs>
     <g transform="translate(114.057078 145.148407)scale(0.1 -0.1)">
      <use xlink:href="#DejaVuSans-56"/>
     </g>
    </g>
   </g>
  </g>
  <g id="axis3d_2">
   <g id="line2d_7">
    <path d="M 182.337831 92.92157 
L 131.398411 125.693886 
" style="fill:none;stroke:#000000;stroke-linecap:square;stroke-width:0.8;"/>
   </g>
   <g id="Line3DCollection_2">
    <path d="M 36.564365 43.917433 
L 40.366648 104.106501 
L 134.88463 123.450997 
" style="fill:none;stroke:#b0b0b0;stroke-width:0.8;"/>
    <path d="M 50.044637 37.729709 
L 53.103467 97.236625 
L 146.570602 115.932726 
" style="fill:none;stroke:#b0b0b0;stroke-width:0.8;"/>
    <path d="M 63.063746 31.753668 
L 65.426198 90.590096 
L 157.859573 108.669869 
" style="fill:none;stroke:#b0b0b0;stroke-width:0.8;"/>
    <path d="M 75.644958 25.978632 
L 77.354713 84.156196 
L 168.771436 101.649627 
" style="fill:none;stroke:#b0b0b0;stroke-width:0.8;"/>
    <path d="M 87.810001 20.394625 
L 88.90763 77.924883 
L 179.324777 94.860044 
" style="fill:none;stroke:#b0b0b0;stroke-width:0.8;"/>
   </g>
   <g id="xtick_6">
    <g id="line2d_8">
     <path d="M 134.093598 123.2891 
L 136.468463 123.775151 
" style="fill:none;stroke:#000000;stroke-linecap:square;stroke-width:0.8;"/>
    </g>
    <g id="text_6">
     <!-- 0 -->
     <g transform="translate(145.296339 142.045096)scale(0.1 -0.1)">
      <use xlink:href="#DejaVuSans-48"/>
     </g>
    </g>
   </g>
   <g id="xtick_7">
    <g id="line2d_9">
     <path d="M 145.78896 115.776375 
L 148.135602 116.245771 
" style="fill:none;stroke:#000000;stroke-linecap:square;stroke-width:0.8;"/>
    </g>
    <g id="text_7">
     <!-- 2 -->
     <g transform="translate(156.736148 134.344417)scale(0.1 -0.1)">
      <use xlink:href="#DejaVuSans-50"/>
     </g>
    </g>
   </g>
   <g id="xtick_8">
    <g id="line2d_10">
     <path d="M 157.087145 108.518784 
L 159.406095 108.972365 
" style="fill:none;stroke:#000000;stroke-linecap:square;stroke-width:0.8;"/>
    </g>
    <g id="text_8">
     <!-- 4 -->
     <g transform="translate(167.787695 126.905095)scale(0.1 -0.1)">
      <use xlink:href="#DejaVuSans-52"/>
     </g>
    </g>
   </g>
   <g id="xtick_9">
    <g id="line2d_11">
     <path d="M 168.008049 101.503546 
L 170.299831 101.9421 
" style="fill:none;stroke:#000000;stroke-linecap:square;stroke-width:0.8;"/>
    </g>
    <g id="text_9">
     <!-- 6 -->
     <g transform="translate(178.470418 119.714046)scale(0.1 -0.1)">
      <use xlink:href="#DejaVuSans-54"/>
     </g>
    </g>
   </g>
   <g id="xtick_10">
    <g id="line2d_12">
     <path d="M 178.570258 94.718722 
L 180.835392 95.142983 
" style="fill:none;stroke:#000000;stroke-linecap:square;stroke-width:0.8;"/>
    </g>
    <g id="text_10">
     <!-- 8 -->
     <g transform="translate(188.802476 112.759047)scale(0.1 -0.1)">
      <use xlink:href="#DejaVuSans-56"/>
     </g>
    </g>
   </g>
  </g>
  <g id="axis3d_3">
   <g id="line2d_13">
    <path d="M 182.337831 92.92157 
L 186.108713 33.848772 
" style="fill:none;stroke:#000000;stroke-linecap:square;stroke-width:0.8;"/>
   </g>
   <g id="Line3DCollection_3">
    <path d="M 183.066696 81.503538 
L 92.02966 65.040913 
L 35.793143 94.497441 
" style="fill:none;stroke:#b0b0b0;stroke-width:0.8;"/>
    <path d="M 183.903118 68.400545 
L 91.824018 52.310626 
L 34.900176 81.111263 
" style="fill:none;stroke:#b0b0b0;stroke-width:0.8;"/>
    <path d="M 184.759082 54.99143 
L 91.613776 39.295658 
L 33.985641 67.401761 
" style="fill:none;stroke:#b0b0b0;stroke-width:0.8;"/>
    <path d="M 185.63528 41.26534 
L 91.39878 25.986351 
L 33.048746 53.357078 
" style="fill:none;stroke:#b0b0b0;stroke-width:0.8;"/>
   </g>
   <g id="xtick_11">
    <g id="line2d_14">
     <path d="M 182.306835 81.36613 
L 184.588011 81.778645 
" style="fill:none;stroke:#000000;stroke-linecap:square;stroke-width:0.8;"/>
    </g>
    <g id="text_11">
     <!-- 0.2 -->
     <defs>
      <path d="M 10.6875 12.40625 
L 21 12.40625 
L 21 0 
L 10.6875 0 
z
" id="DejaVuSans-46"/>
     </defs>
     <g transform="translate(194.899142 87.356439)scale(0.1 -0.1)">
      <use xlink:href="#DejaVuSans-48"/>
      <use x="63.623047" xlink:href="#DejaVuSans-46"/>
      <use x="95.410156" xlink:href="#DejaVuSans-50"/>
     </g>
    </g>
   </g>
   <g id="xtick_12">
    <g id="line2d_15">
     <path d="M 183.134192 68.266183 
L 185.442604 68.669555 
" style="fill:none;stroke:#000000;stroke-linecap:square;stroke-width:0.8;"/>
    </g>
    <g id="text_12">
     <!-- 0.4 -->
     <g transform="translate(195.959218 74.292226)scale(0.1 -0.1)">
      <use xlink:href="#DejaVuSans-48"/>
      <use x="63.623047" xlink:href="#DejaVuSans-46"/>
      <use x="95.410156" xlink:href="#DejaVuSans-52"/>
     </g>
    </g>
   </g>
   <g id="xtick_13">
    <g id="line2d_16">
     <path d="M 183.980871 54.860295 
L 186.317177 55.253982 
" style="fill:none;stroke:#000000;stroke-linecap:square;stroke-width:0.8;"/>
    </g>
    <g id="text_13">
     <!-- 0.6 -->
     <g transform="translate(197.043948 60.924185)scale(0.1 -0.1)">
      <use xlink:href="#DejaVuSans-48"/>
      <use x="63.623047" xlink:href="#DejaVuSans-46"/>
      <use x="95.410156" xlink:href="#DejaVuSans-54"/>
     </g>
    </g>
   </g>
   <g id="xtick_14">
    <g id="line2d_17">
     <path d="M 184.847557 41.137622 
L 187.212439 41.521052 
" style="fill:none;stroke:#000000;stroke-linecap:square;stroke-width:0.8;"/>
    </g>
    <g id="text_14">
     <!-- 0.8 -->
     <g transform="translate(198.154201 47.241591)scale(0.1 -0.1)">
      <use xlink:href="#DejaVuSans-48"/>
      <use x="63.623047" xlink:href="#DejaVuSans-46"/>
      <use x="95.410156" xlink:href="#DejaVuSans-56"/>
     </g>
    </g>
   </g>
  </g>
  <g id="axes_1">
   <g id="Poly3DCollection_1">
    <path clip-path="url(#p961422ca3d)" d="M 88.639329 77.142274 
L 98.135814 65.911101 
L 103.867328 60.98172 
L 93.870985 39.241759 
z
" style="fill:#7c7c7c;stroke:#000000;"/>
    <path clip-path="url(#p961422ca3d)" d="M 82.432071 64.435383 
L 92.454948 78.748994 
L 98.135814 65.911101 
L 88.639329 77.142274 
z
" style="fill:#c3c3c3;stroke:#000000;"/>
    <path clip-path="url(#p961422ca3d)" d="M 98.135814 65.911101 
L 107.981257 70.446173 
L 113.663668 65.000035 
L 103.867328 60.98172 
z
" style="fill:#979797;stroke:#000000;"/>
    <path clip-path="url(#p961422ca3d)" d="M 92.454948 78.748994 
L 102.316776 87.81807 
L 107.981257 70.446173 
L 98.135814 65.911101 
z
" style="fill:#d9d9d9;stroke:#000000;"/>
    <path clip-path="url(#p961422ca3d)" d="M 107.981257 70.446173 
L 117.895846 71.254477 
L 123.59559 61.68829 
L 113.663668 65.000035 
z
" style="fill:#949494;stroke:#000000;"/>
    <path clip-path="url(#p961422ca3d)" d="M 102.316776 87.81807 
L 112.161477 84.961503 
L 117.895846 71.254477 
L 107.981257 70.446173 
z
" style="fill:#e3e3e3;stroke:#000000;"/>
    <path clip-path="url(#p961422ca3d)" d="M 86.444128 75.812595 
L 96.308588 73.689769 
L 102.316776 87.81807 
L 92.454948 78.748994 
z
" style="fill:#dbdbdb;stroke:#000000;"/>
    <path clip-path="url(#p961422ca3d)" d="M 96.308588 73.689769 
L 106.41704 92.703653 
L 112.161477 84.961503 
L 102.316776 87.81807 
z
" style="fill:#ffffff;stroke:#000000;"/>
    <path clip-path="url(#p961422ca3d)" d="M 76.131535 57.449383 
L 86.444128 75.812595 
L 92.454948 78.748994 
L 82.432071 64.435383 
z
" style="fill:#8f8f8f;stroke:#000000;"/>
    <path clip-path="url(#p961422ca3d)" d="M 137.829675 82.564741 
L 147.970605 84.223579 
L 153.693278 73.067271 
L 143.661415 67.13415 
z
" style="fill:#bcbcbc;stroke:#000000;"/>
    <path clip-path="url(#p961422ca3d)" d="M 106.41704 92.703653 
L 116.45392 85.203449 
L 122.33988 66.697058 
L 112.161477 84.961503 
z
" style="fill:#d8d8d8;stroke:#000000;"/>
    <path clip-path="url(#p961422ca3d)" d="M 132.372056 79.896325 
L 142.368421 90.621688 
L 147.970605 84.223579 
L 137.829675 82.564741 
z
" style="fill:#e4e4e4;stroke:#000000;"/>
    <path clip-path="url(#p961422ca3d)" d="M 117.895846 71.254477 
L 128.271396 48.955633 
L 134.002037 43.693276 
L 123.59559 61.68829 
z
" style="fill:#222222;stroke:#000000;"/>
    <path clip-path="url(#p961422ca3d)" d="M 112.161477 84.961503 
L 122.33988 66.697058 
L 128.271396 48.955633 
L 117.895846 71.254477 
z
" style="fill:#707070;stroke:#000000;"/>
    <path clip-path="url(#p961422ca3d)" d="M 128.271396 48.955633 
L 137.829675 82.564741 
L 143.661415 67.13415 
L 134.002037 43.693276 
z
" style="fill:#393939;stroke:#000000;"/>
    <path clip-path="url(#p961422ca3d)" d="M 90.34915 78.020921 
L 100.541106 91.30595 
L 106.41704 92.703653 
L 96.308588 73.689769 
z
" style="fill:#d9d9d9;stroke:#000000;"/>
    <path clip-path="url(#p961422ca3d)" d="M 147.970605 84.223579 
L 158.701276 74.287917 
L 164.212489 69.079062 
L 153.693278 73.067271 
z
" style="fill:#9c9c9c;stroke:#000000;"/>
    <path clip-path="url(#p961422ca3d)" d="M 80.316919 74.668749 
L 90.34915 78.020921 
L 96.308588 73.689769 
L 86.444128 75.812595 
z
" style="fill:#9c9c9c;stroke:#000000;"/>
    <path clip-path="url(#p961422ca3d)" d="M 142.368421 90.621688 
L 152.551861 94.677712 
L 158.701276 74.287917 
L 147.970605 84.223579 
z
" style="fill:#e2e2e2;stroke:#000000;"/>
    <path clip-path="url(#p961422ca3d)" d="M 69.97499 60.54083 
L 80.316919 74.668749 
L 86.444128 75.812595 
L 76.131535 57.449383 
z
" style="fill:#606060;stroke:#000000;"/>
    <path clip-path="url(#p961422ca3d)" d="M 100.541106 91.30595 
L 110.627027 83.650667 
L 116.45392 85.203449 
L 106.41704 92.703653 
z
" style="fill:#efefef;stroke:#000000;"/>
    <path clip-path="url(#p961422ca3d)" d="M 122.33988 66.697058 
L 132.372056 79.896325 
L 137.829675 82.564741 
L 128.271396 48.955633 
z
" style="fill:#6d6d6d;stroke:#000000;"/>
    <path clip-path="url(#p961422ca3d)" d="M 126.692202 82.248298 
L 136.781126 93.77291 
L 142.368421 90.621688 
L 132.372056 79.896325 
z
" style="fill:#dbdbdb;stroke:#000000;"/>
    <path clip-path="url(#p961422ca3d)" d="M 84.594622 95.060754 
L 94.587689 94.896101 
L 100.541106 91.30595 
L 90.34915 78.020921 
z
" style="fill:#f0f0f0;stroke:#000000;"/>
    <path clip-path="url(#p961422ca3d)" d="M 116.45392 85.203449 
L 126.692202 82.248298 
L 132.372056 79.896325 
L 122.33988 66.697058 
z
" style="fill:#a2a2a2;stroke:#000000;"/>
    <path clip-path="url(#p961422ca3d)" d="M 74.144659 76.800614 
L 84.594622 95.060754 
L 90.34915 78.020921 
L 80.316919 74.668749 
z
" style="fill:#b2b2b2;stroke:#000000;"/>
    <path clip-path="url(#p961422ca3d)" d="M 136.781126 93.77291 
L 147.478551 84.262626 
L 152.551861 94.677712 
L 142.368421 90.621688 
z
" style="fill:#f0f0f0;stroke:#000000;"/>
    <path clip-path="url(#p961422ca3d)" d="M 64.129438 73.880781 
L 74.144659 76.800614 
L 80.316919 74.668749 
L 69.97499 60.54083 
z
" style="fill:#6a6a6a;stroke:#000000;"/>
    <path clip-path="url(#p961422ca3d)" d="M 158.701276 74.287917 
L 169.387486 71.40733 
L 174.658909 70.082331 
L 164.212489 69.079062 
z
" style="fill:#676767;stroke:#000000;"/>
    <path clip-path="url(#p961422ca3d)" d="M 110.627027 83.650667 
L 120.853675 90.479249 
L 126.692202 82.248298 
L 116.45392 85.203449 
z
" style="fill:#c3c3c3;stroke:#000000;"/>
    <path clip-path="url(#p961422ca3d)" d="M 120.853675 90.479249 
L 131.005961 101.980461 
L 136.781126 93.77291 
L 126.692202 82.248298 
z
" style="fill:#efefef;stroke:#000000;"/>
    <path clip-path="url(#p961422ca3d)" d="M 94.587689 94.896101 
L 104.680646 87.947954 
L 110.627027 83.650667 
L 100.541106 91.30595 
z
" style="fill:#dbdbdb;stroke:#000000;"/>
    <path clip-path="url(#p961422ca3d)" d="M 152.551861 94.677712 
L 163.659661 80.230751 
L 169.387486 71.40733 
L 158.701276 74.287917 
z
" style="fill:#9b9b9b;stroke:#000000;"/>
    <path clip-path="url(#p961422ca3d)" d="M 58.572769 93.320729 
L 67.688588 74.53471 
L 74.144659 76.800614 
L 64.129438 73.880781 
z
" style="fill:#989898;stroke:#000000;"/>
    <path clip-path="url(#p961422ca3d)" d="M 78.000237 81.239453 
L 88.469571 95.18739 
L 94.587689 94.896101 
L 84.594622 95.060754 
z
" style="fill:#e2e2e2;stroke:#000000;"/>
    <path clip-path="url(#p961422ca3d)" d="M 67.688588 74.53471 
L 78.000237 81.239453 
L 84.594622 95.060754 
L 74.144659 76.800614 
z
" style="fill:#9b9b9b;stroke:#000000;"/>
    <path clip-path="url(#p961422ca3d)" d="M 131.005961 101.980461 
L 141.826779 86.526575 
L 147.478551 84.262626 
L 136.781126 93.77291 
z
" style="fill:#d9d9d9;stroke:#000000;"/>
    <path clip-path="url(#p961422ca3d)" d="M 147.478551 84.262626 
L 158.075326 84.706346 
L 163.659661 80.230751 
L 152.551861 94.677712 
z
" style="fill:#b2b2b2;stroke:#000000;"/>
    <path clip-path="url(#p961422ca3d)" d="M 88.469571 95.18739 
L 98.696865 97.410044 
L 104.680646 87.947954 
L 94.587689 94.896101 
z
" style="fill:#e4e4e4;stroke:#000000;"/>
    <path clip-path="url(#p961422ca3d)" d="M 115.046395 78.360526 
L 125.305882 100.920502 
L 131.005961 101.980461 
L 120.853675 90.479249 
z
" style="fill:#d8d8d8;stroke:#000000;"/>
    <path clip-path="url(#p961422ca3d)" d="M 104.680646 87.947954 
L 115.046395 78.360526 
L 120.853675 90.479249 
L 110.627027 83.650667 
z
" style="fill:#a2a2a2;stroke:#000000;"/>
    <path clip-path="url(#p961422ca3d)" d="M 125.305882 100.920502 
L 135.637318 107.825103 
L 141.826779 86.526575 
L 131.005961 101.980461 
z
" style="fill:#ffffff;stroke:#000000;"/>
    <path clip-path="url(#p961422ca3d)" d="M 50.369469 60.521594 
L 61.384596 79.767876 
L 67.688588 74.53471 
L 58.572769 93.320729 
z
" style="fill:#636363;stroke:#000000;"/>
    <path clip-path="url(#p961422ca3d)" d="M 141.826779 86.526575 
L 152.282684 92.577302 
L 158.075326 84.706346 
L 147.478551 84.262626 
z
" style="fill:#9c9c9c;stroke:#000000;"/>
    <path clip-path="url(#p961422ca3d)" d="M 71.626751 82.566129 
L 82.085775 90.516008 
L 88.469571 95.18739 
L 78.000237 81.239453 
z
" style="fill:#9c9c9c;stroke:#000000;"/>
    <path clip-path="url(#p961422ca3d)" d="M 61.384596 79.767876 
L 71.626751 82.566129 
L 78.000237 81.239453 
L 67.688588 74.53471 
z
" style="fill:#676767;stroke:#000000;"/>
    <path clip-path="url(#p961422ca3d)" d="M 135.637318 107.825103 
L 146.375459 102.411572 
L 152.282684 92.577302 
L 141.826779 86.526575 
z
" style="fill:#dbdbdb;stroke:#000000;"/>
    <path clip-path="url(#p961422ca3d)" d="M 82.085775 90.516008 
L 92.373251 88.263904 
L 98.696865 97.410044 
L 88.469571 95.18739 
z
" style="fill:#bcbcbc;stroke:#000000;"/>
    <path clip-path="url(#p961422ca3d)" d="M 119.509686 93.578201 
L 130.097411 96.650614 
L 135.637318 107.825103 
L 125.305882 100.920502 
z
" style="fill:#e3e3e3;stroke:#000000;"/>
    <path clip-path="url(#p961422ca3d)" d="M 55.235314 89.999017 
L 65.639109 96.863209 
L 71.626751 82.566129 
L 61.384596 79.767876 
z
" style="fill:#8e8e8e;stroke:#000000;"/>
    <path clip-path="url(#p961422ca3d)" d="M 98.696865 97.410044 
L 108.973677 66.670145 
L 115.046395 78.360526 
L 104.680646 87.947954 
z
" style="fill:#6d6d6d;stroke:#000000;"/>
    <path clip-path="url(#p961422ca3d)" d="M 65.639109 96.863209 
L 75.56336 87.871624 
L 82.085775 90.516008 
L 71.626751 82.566129 
z
" style="fill:#909090;stroke:#000000;"/>
    <path clip-path="url(#p961422ca3d)" d="M 130.097411 96.650614 
L 140.878219 95.822465 
L 146.375459 102.411572 
L 135.637318 107.825103 
z
" style="fill:#d9d9d9;stroke:#000000;"/>
    <path clip-path="url(#p961422ca3d)" d="M 108.973677 66.670145 
L 119.509686 93.578201 
L 125.305882 100.920502 
L 115.046395 78.360526 
z
" style="fill:#707070;stroke:#000000;"/>
    <path clip-path="url(#p961422ca3d)" d="M 42.70324 46.251223 
L 55.235314 89.999017 
L 61.384596 79.767876 
L 50.369469 60.521594 
z
" style="stroke:#000000;"/>
    <path clip-path="url(#p961422ca3d)" d="M 75.56336 87.871624 
L 85.762034 77.413913 
L 92.373251 88.263904 
L 82.085775 90.516008 
z
" style="fill:#5f5f5f;stroke:#000000;"/>
    <path clip-path="url(#p961422ca3d)" d="M 92.373251 88.263904 
L 102.717496 67.668941 
L 108.973677 66.670145 
L 98.696865 97.410044 
z
" style="fill:#393939;stroke:#000000;"/>
    <path clip-path="url(#p961422ca3d)" d="M 113.484517 90.339786 
L 124.153105 97.738472 
L 130.097411 96.650614 
L 119.509686 93.578201 
z
" style="fill:#949494;stroke:#000000;"/>
    <path clip-path="url(#p961422ca3d)" d="M 124.153105 97.738472 
L 134.996717 97.416726 
L 140.878219 95.822465 
L 130.097411 96.650614 
z
" style="fill:#979797;stroke:#000000;"/>
    <path clip-path="url(#p961422ca3d)" d="M 102.717496 67.668941 
L 113.484517 90.339786 
L 119.509686 93.578201 
L 108.973677 66.670145 
z
" style="fill:#222222;stroke:#000000;"/>
    <path clip-path="url(#p961422ca3d)" d="M 107.298529 94.00676 
L 118.020143 107.26754 
L 124.153105 97.738472 
L 113.484517 90.339786 
z
" style="fill:#8d8d8d;stroke:#000000;"/>
    <path clip-path="url(#p961422ca3d)" d="M 118.020143 107.26754 
L 128.899596 104.458076 
L 134.996717 97.416726 
L 124.153105 97.738472 
z
" style="fill:#a1a1a1;stroke:#000000;"/>
    <path clip-path="url(#p961422ca3d)" d="M 85.762034 77.413913 
L 96.456293 79.417354 
L 102.717496 67.668941 
L 92.373251 88.263904 
z
" style="fill:#090909;stroke:#000000;"/>
    <path clip-path="url(#p961422ca3d)" d="M 96.456293 79.417354 
L 107.298529 94.00676 
L 113.484517 90.339786 
L 102.717496 67.668941 
z
" style="fill:#202020;stroke:#000000;"/>
   </g>
  </g>
 </g>
 <defs>
  <clipPath id="p961422ca3d">
   <rect height="122.4" width="194.4" x="10.8" y="10.8"/>
  </clipPath>
 </defs>
</svg>
