<?xml version="1.0" encoding="utf-8" standalone="no"?>
<!DOCTYPE svg PUBLIC "-//W3C//DTD SVG 1.1//EN"
  "http://www.w3.org/Graphics/SVG/1.1/DTD/svg11.dtd">
<!-- Created with matplotlib (https://matplotlib.org/) -->
<svg height="144pt" version="1.1" viewBox="0 0 216 144" width="216pt" xmlns="http://www.w3.org/2000/svg" xmlns:xlink="http://www.w3.org/1999/xlink">
 <defs>
  <style type="text/css">
*{stroke-linecap:butt;stroke-linejoin:round;}
  </style>
 </defs>
 <g id="figure_1">
  <g id="patch_1">
   <path d="M 0 144 
L 216 144 
L 216 0 
L 0 0 
z
" style="fill:#ffffff;"/>
  </g>
  <g id="patch_2">
   <path d="M 10.8 133.2 
L 205.2 133.2 
L 205.2 10.8 
L 10.8 10.8 
z
" style="fill:#ffffff;"/>
  </g>
  <g id="pane3d_1">
   <g id="patch_3">
    <path d="M 36.570724 106.153914 
L 92.209021 76.144207 
L 91.282702 18.800583 
L 32.542206 45.763687 
" style="fill:#f2f2f2;opacity:0.5;stroke:#f2f2f2;stroke-linejoin:miter;"/>
   </g>
  </g>
  <g id="pane3d_2">
   <g id="patch_4">
    <path d="M 92.209021 76.144207 
L 182.337831 92.92157 
L 186.108713 33.848772 
L 91.282702 18.800583 
" style="fill:#e6e6e6;opacity:0.5;stroke:#e6e6e6;stroke-linejoin:miter;"/>
   </g>
  </g>
  <g id="pane3d_3">
   <g id="patch_5">
    <path d="M 36.570724 106.153914 
L 131.398411 125.693886 
L 182.337831 92.92157 
L 92.209021 76.144207 
" style="fill:#ececec;opacity:0.5;stroke:#ececec;stroke-linejoin:miter;"/>
   </g>
  </g>
  <g id="axis3d_1">
   <g id="line2d_1">
    <path d="M 36.570724 106.153914 
L 131.398411 125.693886 
" style="fill:none;stroke:#000000;stroke-linecap:square;stroke-width:0.8;"/>
   </g>
   <g id="Line3DCollection_1">
    <path d="M 42.352032 107.345197 
L 97.721186 77.170289 
L 97.070293 19.719031 
" style="fill:none;stroke:#b0b0b0;stroke-width:0.8;"/>
    <path d="M 62.426428 111.48168 
L 116.843521 80.729888 
L 117.160059 22.907129 
" style="fill:none;stroke:#b0b0b0;stroke-width:0.8;"/>
    <path d="M 82.901148 115.700653 
L 136.319223 84.355265 
L 137.640158 26.15717 
" style="fill:none;stroke:#b0b0b0;stroke-width:0.8;"/>
    <path d="M 103.788289 120.004609 
L 156.158179 88.048261 
L 158.522077 29.470976 
" style="fill:none;stroke:#b0b0b0;stroke-width:0.8;"/>
    <path d="M 125.100437 124.39614 
L 176.370648 91.810786 
L 179.817758 32.850444 
" style="fill:none;stroke:#b0b0b0;stroke-width:0.8;"/>
   </g>
   <g id="xtick_1">
    <g id="line2d_2">
     <path d="M 42.829066 107.085224 
L 41.396185 107.866111 
" style="fill:none;stroke:#000000;stroke-linecap:square;stroke-width:0.8;"/>
    </g>
    <g id="text_1">
     <!-- 0 -->
     <defs>
      <path d="M 31.78125 66.40625 
Q 24.171875 66.40625 20.328125 58.90625 
Q 16.5 51.421875 16.5 36.375 
Q 16.5 21.390625 20.328125 13.890625 
Q 24.171875 6.390625 31.78125 6.390625 
Q 39.453125 6.390625 43.28125 13.890625 
Q 47.125 21.390625 47.125 36.375 
Q 47.125 51.421875 43.28125 58.90625 
Q 39.453125 66.40625 31.78125 66.40625 
z
M 31.78125 74.21875 
Q 44.046875 74.21875 50.515625 64.515625 
Q 56.984375 54.828125 56.984375 36.375 
Q 56.984375 17.96875 50.515625 8.265625 
Q 44.046875 -1.421875 31.78125 -1.421875 
Q 19.53125 -1.421875 13.0625 8.265625 
Q 6.59375 17.96875 6.59375 36.375 
Q 6.59375 54.828125 13.0625 64.515625 
Q 19.53125 74.21875 31.78125 74.21875 
z
" id="DejaVuSans-48"/>
     </defs>
     <g transform="translate(31.317754 127.519522)scale(0.1 -0.1)">
      <use xlink:href="#DejaVuSans-48"/>
     </g>
    </g>
   </g>
   <g id="xtick_2">
    <g id="line2d_3">
     <path d="M 62.89559 111.21655 
L 61.486337 112.012937 
" style="fill:none;stroke:#000000;stroke-linecap:square;stroke-width:0.8;"/>
    </g>
    <g id="text_2">
     <!-- 2 -->
     <defs>
      <path d="M 19.1875 8.296875 
L 53.609375 8.296875 
L 53.609375 0 
L 7.328125 0 
L 7.328125 8.296875 
Q 12.9375 14.109375 22.625 23.890625 
Q 32.328125 33.6875 34.8125 36.53125 
Q 39.546875 41.84375 41.421875 45.53125 
Q 43.3125 49.21875 43.3125 52.78125 
Q 43.3125 58.59375 39.234375 62.25 
Q 35.15625 65.921875 28.609375 65.921875 
Q 23.96875 65.921875 18.8125 64.3125 
Q 13.671875 62.703125 7.8125 59.421875 
L 7.8125 69.390625 
Q 13.765625 71.78125 18.9375 73 
Q 24.125 74.21875 28.421875 74.21875 
Q 39.75 74.21875 46.484375 68.546875 
Q 53.21875 62.890625 53.21875 53.421875 
Q 53.21875 48.921875 51.53125 44.890625 
Q 49.859375 40.875 45.40625 35.40625 
Q 44.1875 33.984375 37.640625 27.21875 
Q 31.109375 20.453125 19.1875 8.296875 
z
" id="DejaVuSans-50"/>
     </defs>
     <g transform="translate(51.387708 131.795734)scale(0.1 -0.1)">
      <use xlink:href="#DejaVuSans-50"/>
     </g>
    </g>
   </g>
   <g id="xtick_3">
    <g id="line2d_4">
     <path d="M 83.362028 115.430212 
L 81.977636 116.242564 
" style="fill:none;stroke:#000000;stroke-linecap:square;stroke-width:0.8;"/>
    </g>
    <g id="text_3">
     <!-- 4 -->
     <defs>
      <path d="M 37.796875 64.3125 
L 12.890625 25.390625 
L 37.796875 25.390625 
z
M 35.203125 72.90625 
L 47.609375 72.90625 
L 47.609375 25.390625 
L 58.015625 25.390625 
L 58.015625 17.1875 
L 47.609375 17.1875 
L 47.609375 0 
L 37.796875 0 
L 37.796875 17.1875 
L 4.890625 17.1875 
L 4.890625 26.703125 
z
" id="DejaVuSans-52"/>
     </defs>
     <g transform="translate(71.859374 136.157538)scale(0.1 -0.1)">
      <use xlink:href="#DejaVuSans-52"/>
     </g>
    </g>
   </g>
   <g id="xtick_4">
    <g id="line2d_5">
     <path d="M 104.240456 119.728694 
L 102.882217 120.557497 
" style="fill:none;stroke:#000000;stroke-linecap:square;stroke-width:0.8;"/>
    </g>
    <g id="text_4">
     <!-- 6 -->
     <defs>
      <path d="M 33.015625 40.375 
Q 26.375 40.375 22.484375 35.828125 
Q 18.609375 31.296875 18.609375 23.390625 
Q 18.609375 15.53125 22.484375 10.953125 
Q 26.375 6.390625 33.015625 6.390625 
Q 39.65625 6.390625 43.53125 10.953125 
Q 47.40625 15.53125 47.40625 23.390625 
Q 47.40625 31.296875 43.53125 35.828125 
Q 39.65625 40.375 33.015625 40.375 
z
M 52.59375 71.296875 
L 52.59375 62.3125 
Q 48.875 64.0625 45.09375 64.984375 
Q 41.3125 65.921875 37.59375 65.921875 
Q 27.828125 65.921875 22.671875 59.328125 
Q 17.53125 52.734375 16.796875 39.40625 
Q 19.671875 43.65625 24.015625 45.921875 
Q 28.375 48.1875 33.59375 48.1875 
Q 44.578125 48.1875 50.953125 41.515625 
Q 57.328125 34.859375 57.328125 23.390625 
Q 57.328125 12.15625 50.6875 5.359375 
Q 44.046875 -1.421875 33.015625 -1.421875 
Q 20.359375 -1.421875 13.671875 8.265625 
Q 6.984375 17.96875 6.984375 36.375 
Q 6.984375 53.65625 15.1875 63.9375 
Q 23.390625 74.21875 37.203125 74.21875 
Q 40.921875 74.21875 44.703125 73.484375 
Q 48.484375 72.75 52.59375 71.296875 
z
" id="DejaVuSans-54"/>
     </defs>
     <g transform="translate(92.744938 140.607528)scale(0.1 -0.1)">
      <use xlink:href="#DejaVuSans-54"/>
     </g>
    </g>
   </g>
   <g id="xtick_5">
    <g id="line2d_6">
     <path d="M 125.54344 124.114585 
L 124.212712 124.960344 
" style="fill:none;stroke:#000000;stroke-linecap:square;stroke-width:0.8;"/>
    </g>
    <g id="text_5">
     <!-- 8 -->
     <defs>
      <path d="M 31.78125 34.625 
Q 24.75 34.625 20.71875 30.859375 
Q 16.703125 27.09375 16.703125 20.515625 
Q 16.703125 13.921875 20.71875 10.15625 
Q 24.75 6.390625 31.78125 6.390625 
Q 38.8125 6.390625 42.859375 10.171875 
Q 46.921875 13.96875 46.921875 20.515625 
Q 46.921875 27.09375 42.890625 30.859375 
Q 38.875 34.625 31.78125 34.625 
z
M 21.921875 38.8125 
Q 15.578125 40.375 12.03125 44.71875 
Q 8.5 49.078125 8.5 55.328125 
Q 8.5 64.0625 14.71875 69.140625 
Q 20.953125 74.21875 31.78125 74.21875 
Q 42.671875 74.21875 48.875 69.140625 
Q 55.078125 64.0625 55.078125 55.328125 
Q 55.078125 49.078125 51.53125 44.71875 
Q 48 40.375 41.703125 38.8125 
Q 48.828125 37.15625 52.796875 32.3125 
Q 56.78125 27.484375 56.78125 20.515625 
Q 56.78125 9.90625 50.3125 4.234375 
Q 43.84375 -1.421875 31.78125 -1.421875 
Q 19.734375 -1.421875 13.25 4.234375 
Q 6.78125 9.90625 6.78125 20.515625 
Q 6.78125 27.484375 10.78125 32.3125 
Q 14.796875 37.15625 21.921875 38.8125 
z
M 18.3125 54.390625 
Q 18.3125 48.734375 21.84375 45.5625 
Q 25.390625 42.390625 31.78125 42.390625 
Q 38.140625 42.390625 41.71875 45.5625 
Q 45.3125 48.734375 45.3125 54.390625 
Q 45.3125 60.0625 41.71875 63.234375 
Q 38.140625 66.40625 31.78125 66.40625 
Q 25.390625 66.40625 21.84375 63.234375 
Q 18.3125 60.0625 18.3125 54.390625 
z
" id="DejaVuSans-56"/>
     </defs>
     <g transform="translate(114.057078 145.148407)scale(0.1 -0.1)">
      <use xlink:href="#DejaVuSans-56"/>
     </g>
    </g>
   </g>
  </g>
  <g id="axis3d_2">
   <g id="line2d_7">
    <path d="M 182.337831 92.92157 
L 131.398411 125.693886 
" style="fill:none;stroke:#000000;stroke-linecap:square;stroke-width:0.8;"/>
   </g>
   <g id="Line3DCollection_2">
    <path d="M 36.564365 43.917433 
L 40.366648 104.106501 
L 134.88463 123.450997 
" style="fill:none;stroke:#b0b0b0;stroke-width:0.8;"/>
    <path d="M 50.044637 37.729709 
L 53.103467 97.236625 
L 146.570602 115.932726 
" style="fill:none;stroke:#b0b0b0;stroke-width:0.8;"/>
    <path d="M 63.063746 31.753668 
L 65.426198 90.590096 
L 157.859573 108.669869 
" style="fill:none;stroke:#b0b0b0;stroke-width:0.8;"/>
    <path d="M 75.644958 25.978632 
L 77.354713 84.156196 
L 168.771436 101.649627 
" style="fill:none;stroke:#b0b0b0;stroke-width:0.8;"/>
    <path d="M 87.810001 20.394625 
L 88.90763 77.924883 
L 179.324777 94.860044 
" style="fill:none;stroke:#b0b0b0;stroke-width:0.8;"/>
   </g>
   <g id="xtick_6">
    <g id="line2d_8">
     <path d="M 134.093598 123.2891 
L 136.468463 123.775151 
" style="fill:none;stroke:#000000;stroke-linecap:square;stroke-width:0.8;"/>
    </g>
    <g id="text_6">
     <!-- 0 -->
     <g transform="translate(145.296339 142.045096)scale(0.1 -0.1)">
      <use xlink:href="#DejaVuSans-48"/>
     </g>
    </g>
   </g>
   <g id="xtick_7">
    <g id="line2d_9">
     <path d="M 145.78896 115.776375 
L 148.135602 116.245771 
" style="fill:none;stroke:#000000;stroke-linecap:square;stroke-width:0.8;"/>
    </g>
    <g id="text_7">
     <!-- 2 -->
     <g transform="translate(156.736148 134.344417)scale(0.1 -0.1)">
      <use xlink:href="#DejaVuSans-50"/>
     </g>
    </g>
   </g>
   <g id="xtick_8">
    <g id="line2d_10">
     <path d="M 157.087145 108.518784 
L 159.406095 108.972365 
" style="fill:none;stroke:#000000;stroke-linecap:square;stroke-width:0.8;"/>
    </g>
    <g id="text_8">
     <!-- 4 -->
     <g transform="translate(167.787695 126.905095)scale(0.1 -0.1)">
      <use xlink:href="#DejaVuSans-52"/>
     </g>
    </g>
   </g>
   <g id="xtick_9">
    <g id="line2d_11">
     <path d="M 168.008049 101.503546 
L 170.299831 101.9421 
" style="fill:none;stroke:#000000;stroke-linecap:square;stroke-width:0.8;"/>
    </g>
    <g id="text_9">
     <!-- 6 -->
     <g transform="translate(178.470418 119.714046)scale(0.1 -0.1)">
      <use xlink:href="#DejaVuSans-54"/>
     </g>
    </g>
   </g>
   <g id="xtick_10">
    <g id="line2d_12">
     <path d="M 178.570258 94.718722 
L 180.835392 95.142983 
" style="fill:none;stroke:#000000;stroke-linecap:square;stroke-width:0.8;"/>
    </g>
    <g id="text_10">
     <!-- 8 -->
     <g transform="translate(188.802476 112.759047)scale(0.1 -0.1)">
      <use xlink:href="#DejaVuSans-56"/>
     </g>
    </g>
   </g>
  </g>
  <g id="axis3d_3">
   <g id="line2d_13">
    <path d="M 182.337831 92.92157 
L 186.108713 33.848772 
" style="fill:none;stroke:#000000;stroke-linecap:square;stroke-width:0.8;"/>
   </g>
   <g id="Line3DCollection_3">
    <path d="M 182.829807 85.214517 
L 92.087938 68.648573 
L 36.045921 98.286766 
" style="fill:none;stroke:#b0b0b0;stroke-width:0.8;"/>
    <path d="M 183.447819 75.533045 
L 91.935933 59.23872 
L 35.386339 88.399179 
" style="fill:none;stroke:#b0b0b0;stroke-width:0.8;"/>
    <path d="M 184.076502 65.684406 
L 91.781415 49.673286 
L 34.714986 78.335142 
" style="fill:none;stroke:#b0b0b0;stroke-width:0.8;"/>
    <path d="M 184.716134 55.664234 
L 91.62432 39.948379 
L 34.031545 68.089892 
" style="fill:none;stroke:#b0b0b0;stroke-width:0.8;"/>
    <path d="M 185.367005 45.468008 
L 91.464585 30.059978 
L 33.335685 57.658488 
" style="fill:none;stroke:#b0b0b0;stroke-width:0.8;"/>
    <path d="M 186.029413 35.091048 
L 91.302141 20.003926 
L 32.627067 47.03581 
" style="fill:none;stroke:#b0b0b0;stroke-width:0.8;"/>
   </g>
   <g id="xtick_11">
    <g id="line2d_14">
     <path d="M 182.072513 85.076265 
L 184.345979 85.491312 
" style="fill:none;stroke:#000000;stroke-linecap:square;stroke-width:0.8;"/>
    </g>
    <g id="text_11">
     <!-- 0.0 -->
     <defs>
      <path d="M 10.6875 12.40625 
L 21 12.40625 
L 21 0 
L 10.6875 0 
z
" id="DejaVuSans-46"/>
     </defs>
     <g transform="translate(194.598891 91.056678)scale(0.1 -0.1)">
      <use xlink:href="#DejaVuSans-48"/>
      <use x="63.623047" xlink:href="#DejaVuSans-46"/>
      <use x="95.410156" xlink:href="#DejaVuSans-48"/>
     </g>
    </g>
   </g>
   <g id="xtick_12">
    <g id="line2d_15">
     <path d="M 182.683828 75.397011 
L 184.977412 75.805399 
" style="fill:none;stroke:#000000;stroke-linecap:square;stroke-width:0.8;"/>
    </g>
    <g id="text_12">
     <!-- 0.2 -->
     <g transform="translate(195.382188 81.40345)scale(0.1 -0.1)">
      <use xlink:href="#DejaVuSans-48"/>
      <use x="63.623047" xlink:href="#DejaVuSans-46"/>
      <use x="95.410156" xlink:href="#DejaVuSans-50"/>
     </g>
    </g>
   </g>
   <g id="xtick_13">
    <g id="line2d_16">
     <path d="M 183.305695 65.550688 
L 185.619756 65.952126 
" style="fill:none;stroke:#000000;stroke-linecap:square;stroke-width:0.8;"/>
    </g>
    <g id="text_13">
     <!-- 0.4 -->
     <g transform="translate(196.178949 71.584294)scale(0.1 -0.1)">
      <use xlink:href="#DejaVuSans-48"/>
      <use x="63.623047" xlink:href="#DejaVuSans-46"/>
      <use x="95.410156" xlink:href="#DejaVuSans-52"/>
     </g>
    </g>
   </g>
   <g id="xtick_14">
    <g id="line2d_17">
     <path d="M 183.938389 55.532934 
L 186.273295 55.927116 
" style="fill:none;stroke:#000000;stroke-linecap:square;stroke-width:0.8;"/>
    </g>
    <g id="text_14">
     <!-- 0.6 -->
     <g transform="translate(196.989524 61.594894)scale(0.1 -0.1)">
      <use xlink:href="#DejaVuSans-48"/>
      <use x="63.623047" xlink:href="#DejaVuSans-46"/>
      <use x="95.410156" xlink:href="#DejaVuSans-54"/>
     </g>
    </g>
   </g>
   <g id="xtick_15">
    <g id="line2d_18">
     <path d="M 184.582195 45.339232 
L 186.938325 45.725839 
" style="fill:none;stroke:#000000;stroke-linecap:square;stroke-width:0.8;"/>
    </g>
    <g id="text_15">
     <!-- 0.8 -->
     <g transform="translate(197.814275 51.430786)scale(0.1 -0.1)">
      <use xlink:href="#DejaVuSans-48"/>
      <use x="63.623047" xlink:href="#DejaVuSans-46"/>
      <use x="95.410156" xlink:href="#DejaVuSans-56"/>
     </g>
    </g>
   </g>
   <g id="xtick_16">
    <g id="line2d_19">
     <path d="M 185.237409 34.964906 
L 187.615152 35.343607 
" style="fill:none;stroke:#000000;stroke-linecap:square;stroke-width:0.8;"/>
    </g>
    <g id="text_16">
     <!-- 1.0 -->
     <defs>
      <path d="M 12.40625 8.296875 
L 28.515625 8.296875 
L 28.515625 63.921875 
L 10.984375 60.40625 
L 10.984375 69.390625 
L 28.421875 72.90625 
L 38.28125 72.90625 
L 38.28125 8.296875 
L 54.390625 8.296875 
L 54.390625 0 
L 12.40625 0 
z
" id="DejaVuSans-49"/>
     </defs>
     <g transform="translate(198.653578 41.087344)scale(0.1 -0.1)">
      <use xlink:href="#DejaVuSans-49"/>
      <use x="63.623047" xlink:href="#DejaVuSans-46"/>
      <use x="95.410156" xlink:href="#DejaVuSans-48"/>
     </g>
    </g>
   </g>
  </g>
  <g id="axes_1">
   <g id="Poly3DCollection_1">
    <path clip-path="url(#p1d8b62fb21)" d="M 98.299871 81.020153 
L 108.003878 80.243175 
L 113.622188 80.726903 
L 103.976537 79.646977 
z
" style="fill:#fbfbfb;stroke:#000000;"/>
    <path clip-path="url(#p1d8b62fb21)" d="M 88.337367 61.497807 
L 98.299871 81.020153 
L 103.976537 79.646977 
L 94.242514 65.340603 
z
" style="fill:#b4b4b4;stroke:#000000;"/>
    <path clip-path="url(#p1d8b62fb21)" d="M 108.003878 80.243175 
L 117.826479 82.181809 
L 123.360195 82.646007 
L 113.622188 80.726903 
z
" style="fill:#f2f2f2;stroke:#000000;"/>
    <path clip-path="url(#p1d8b62fb21)" d="M 117.826479 82.181809 
L 127.742787 83.928444 
L 133.19108 84.375175 
L 123.360195 82.646007 
z
" style="fill:#f2f2f2;stroke:#000000;"/>
    <path clip-path="url(#p1d8b62fb21)" d="M 127.742787 83.928444 
L 137.810338 83.370667 
L 143.12759 85.704408 
L 133.19108 84.375175 
z
" style="fill:#eaeaea;stroke:#000000;"/>
    <path clip-path="url(#p1d8b62fb21)" d="M 92.212664 63.582168 
L 102.143507 64.28894 
L 108.003878 80.243175 
L 98.299871 81.020153 
z
" style="fill:#858585;stroke:#000000;"/>
    <path clip-path="url(#p1d8b62fb21)" d="M 102.143507 64.28894 
L 112.185595 67.179658 
L 117.826479 82.181809 
L 108.003878 80.243175 
z
" style="fill:#7f7f7f;stroke:#000000;"/>
    <path clip-path="url(#p1d8b62fb21)" d="M 81.54419 28.162039 
L 92.212664 63.582168 
L 98.299871 81.020153 
L 88.337367 61.497807 
z
" style="fill:#0d0d0d;stroke:#000000;"/>
    <path clip-path="url(#p1d8b62fb21)" d="M 80.756264 91.216804 
L 90.627772 93.661232 
L 96.471252 86.670496 
L 86.583191 82.371009 
z
" style="fill:#eaeaea;stroke:#000000;"/>
    <path clip-path="url(#p1d8b62fb21)" d="M 137.810338 83.370667 
L 148.364918 72.269842 
L 153.580238 76.068044 
L 143.12759 85.704408 
z
" style="fill:#a3a3a3;stroke:#000000;"/>
    <path clip-path="url(#p1d8b62fb21)" d="M 70.58143 77.782356 
L 80.756264 91.216804 
L 86.583191 82.371009 
L 76.434939 67.642076 
z
" style="fill:#a3a3a3;stroke:#000000;"/>
    <path clip-path="url(#p1d8b62fb21)" d="M 86.583191 82.371009 
L 96.471252 86.670496 
L 102.143507 64.28894 
L 92.212664 63.582168 
z
" style="fill:#787878;stroke:#000000;"/>
    <path clip-path="url(#p1d8b62fb21)" d="M 112.185595 67.179658 
L 122.327481 67.914009 
L 127.742787 83.928444 
L 117.826479 82.181809 
z
" style="fill:#7f7f7f;stroke:#000000;"/>
    <path clip-path="url(#p1d8b62fb21)" d="M 157.945989 92.230034 
L 168.355698 91.510906 
L 173.441271 91.879108 
L 163.202192 90.708855 
z
" style="fill:#fbfbfb;stroke:#000000;"/>
    <path clip-path="url(#p1d8b62fb21)" d="M 148.364918 72.269842 
L 157.945989 92.230034 
L 163.202192 90.708855 
L 153.580238 76.068044 
z
" style="fill:#b4b4b4;stroke:#000000;"/>
    <path clip-path="url(#p1d8b62fb21)" d="M 90.627772 93.661232 
L 100.58054 95.704507 
L 106.401931 88.671044 
L 96.471252 86.670496 
z
" style="fill:#f2f2f2;stroke:#000000;"/>
    <path clip-path="url(#p1d8b62fb21)" d="M 96.471252 86.670496 
L 106.401931 88.671044 
L 112.185595 67.179658 
L 102.143507 64.28894 
z
" style="fill:#7f7f7f;stroke:#000000;"/>
    <path clip-path="url(#p1d8b62fb21)" d="M 74.680767 93.545662 
L 84.609568 95.704492 
L 90.627772 93.661232 
L 80.756264 91.216804 
z
" style="fill:#fcfcfc;stroke:#000000;"/>
    <path clip-path="url(#p1d8b62fb21)" d="M 76.434939 67.642076 
L 86.583191 82.371009 
L 92.212664 63.582168 
L 81.54419 28.162039 
z
" style="stroke:#000000;"/>
    <path clip-path="url(#p1d8b62fb21)" d="M 64.312663 78.382559 
L 74.680767 93.545662 
L 80.756264 91.216804 
L 70.58143 77.782356 
z
" style="fill:#bababa;stroke:#000000;"/>
    <path clip-path="url(#p1d8b62fb21)" d="M 122.327481 67.914009 
L 132.545217 70.846797 
L 137.810338 83.370667 
L 127.742787 83.928444 
z
" style="fill:#787878;stroke:#000000;"/>
    <path clip-path="url(#p1d8b62fb21)" d="M 100.58054 95.704507 
L 110.627027 97.555191 
L 116.426747 90.478229 
L 106.401931 88.671044 
z
" style="fill:#f2f2f2;stroke:#000000;"/>
    <path clip-path="url(#p1d8b62fb21)" d="M 106.401931 88.671044 
L 116.426747 90.478229 
L 122.327481 67.914009 
L 112.185595 67.179658 
z
" style="fill:#7f7f7f;stroke:#000000;"/>
    <path clip-path="url(#p1d8b62fb21)" d="M 84.609568 95.704492 
L 94.624326 97.457638 
L 100.58054 95.704507 
L 90.627772 93.661232 
z
" style="fill:#fefefe;stroke:#000000;"/>
    <path clip-path="url(#p1d8b62fb21)" d="M 110.627027 97.555191 
L 120.764706 100.273678 
L 126.510664 95.063263 
L 116.426747 90.478229 
z
" style="fill:#fbfbfb;stroke:#000000;"/>
    <path clip-path="url(#p1d8b62fb21)" d="M 116.426747 90.478229 
L 126.510664 95.063263 
L 132.545217 70.846797 
L 122.327481 67.914009 
z
" style="fill:#858585;stroke:#000000;"/>
    <path clip-path="url(#p1d8b62fb21)" d="M 68.616607 99.211609 
L 78.552533 100.453539 
L 84.609568 95.704492 
L 74.680767 93.545662 
z
" style="fill:#ffffff;stroke:#000000;"/>
    <path clip-path="url(#p1d8b62fb21)" d="M 58.155386 84.316366 
L 68.616607 99.211609 
L 74.680767 93.545662 
L 64.312663 78.382559 
z
" style="fill:#bdbdbd;stroke:#000000;"/>
    <path clip-path="url(#p1d8b62fb21)" d="M 94.624326 97.457638 
L 104.742344 99.655633 
L 110.627027 97.555191 
L 100.58054 95.704507 
z
" style="fill:#fefefe;stroke:#000000;"/>
    <path clip-path="url(#p1d8b62fb21)" d="M 78.552533 100.453539 
L 88.615352 102.563584 
L 94.624326 97.457638 
L 84.609568 95.704492 
z
" style="fill:#fefefe;stroke:#000000;"/>
    <path clip-path="url(#p1d8b62fb21)" d="M 104.742344 99.655633 
L 114.95674 101.44589 
L 120.764706 100.273678 
L 110.627027 97.555191 
z
" style="fill:#ffffff;stroke:#000000;"/>
    <path clip-path="url(#p1d8b62fb21)" d="M 153.302872 74.58563 
L 163.886189 75.378009 
L 168.355698 91.510906 
L 157.945989 92.230034 
z
" style="fill:#858585;stroke:#000000;"/>
    <path clip-path="url(#p1d8b62fb21)" d="M 132.545217 70.846797 
L 143.841611 38.376025 
L 148.364918 72.269842 
L 137.810338 83.370667 
z
" style="stroke:#000000;"/>
    <path clip-path="url(#p1d8b62fb21)" d="M 62.298042 100.850673 
L 72.232629 100.179078 
L 78.552533 100.453539 
L 68.616607 99.211609 
z
" style="fill:#fbfbfb;stroke:#000000;"/>
    <path clip-path="url(#p1d8b62fb21)" d="M 120.764706 100.273678 
L 131.238954 89.24033 
L 137.130516 78.777079 
L 126.510664 95.063263 
z
" style="fill:#b4b4b4;stroke:#000000;"/>
    <path clip-path="url(#p1d8b62fb21)" d="M 88.615352 102.563584 
L 98.772246 104.479754 
L 104.742344 99.655633 
L 94.624326 97.457638 
z
" style="fill:#fefefe;stroke:#000000;"/>
    <path clip-path="url(#p1d8b62fb21)" d="M 51.414095 80.558332 
L 62.298042 100.850673 
L 68.616607 99.211609 
L 58.155386 84.316366 
z
" style="fill:#b4b4b4;stroke:#000000;"/>
    <path clip-path="url(#p1d8b62fb21)" d="M 143.841611 38.376025 
L 153.302872 74.58563 
L 157.945989 92.230034 
L 148.364918 72.269842 
z
" style="fill:#0d0d0d;stroke:#000000;"/>
    <path clip-path="url(#p1d8b62fb21)" d="M 141.371752 103.003671 
L 151.800983 105.571975 
L 157.504655 98.316356 
L 147.16611 93.860556 
z
" style="fill:#eaeaea;stroke:#000000;"/>
    <path clip-path="url(#p1d8b62fb21)" d="M 72.232629 100.179078 
L 82.384853 102.312937 
L 88.615352 102.563584 
L 78.552533 100.453539 
z
" style="fill:#f2f2f2;stroke:#000000;"/>
    <path clip-path="url(#p1d8b62fb21)" d="M 98.772246 104.479754 
L 109.030218 105.985305 
L 114.95674 101.44589 
L 104.742344 99.655633 
z
" style="fill:#fcfcfc;stroke:#000000;"/>
    <path clip-path="url(#p1d8b62fb21)" d="M 131.238954 89.24033 
L 141.371752 103.003671 
L 147.16611 93.860556 
L 137.130516 78.777079 
z
" style="fill:#a3a3a3;stroke:#000000;"/>
    <path clip-path="url(#p1d8b62fb21)" d="M 126.510664 95.063263 
L 137.130516 78.777079 
L 143.841611 38.376025 
L 132.545217 70.846797 
z
" style="fill:#0d0d0d;stroke:#000000;"/>
    <path clip-path="url(#p1d8b62fb21)" d="M 147.16611 93.860556 
L 157.504655 98.316356 
L 163.886189 75.378009 
L 153.302872 74.58563 
z
" style="fill:#787878;stroke:#000000;"/>
    <path clip-path="url(#p1d8b62fb21)" d="M 114.95674 101.44589 
L 125.449807 89.984209 
L 131.238954 89.24033 
L 120.764706 100.273678 
z
" style="fill:#bdbdbd;stroke:#000000;"/>
    <path clip-path="url(#p1d8b62fb21)" d="M 82.384853 102.312937 
L 92.631948 104.250786 
L 98.772246 104.479754 
L 88.615352 102.563584 
z
" style="fill:#f2f2f2;stroke:#000000;"/>
    <path clip-path="url(#p1d8b62fb21)" d="M 135.689492 105.512668 
L 146.202771 107.792414 
L 151.800983 105.571975 
L 141.371752 103.003671 
z
" style="fill:#fcfcfc;stroke:#000000;"/>
    <path clip-path="url(#p1d8b62fb21)" d="M 137.130516 78.777079 
L 147.16611 93.860556 
L 153.302872 74.58563 
L 143.841611 38.376025 
z
" style="stroke:#000000;"/>
    <path clip-path="url(#p1d8b62fb21)" d="M 125.449807 89.984209 
L 135.689492 105.512668 
L 141.371752 103.003671 
L 131.238954 89.24033 
z
" style="fill:#bababa;stroke:#000000;"/>
    <path clip-path="url(#p1d8b62fb21)" d="M 92.631948 104.250786 
L 102.966371 103.811214 
L 109.030218 105.985305 
L 98.772246 104.479754 
z
" style="fill:#eaeaea;stroke:#000000;"/>
    <path clip-path="url(#p1d8b62fb21)" d="M 109.030218 105.985305 
L 119.489197 96.167916 
L 125.449807 89.984209 
L 114.95674 101.44589 
z
" style="fill:#bababa;stroke:#000000;"/>
    <path clip-path="url(#p1d8b62fb21)" d="M 54.893997 83.058837 
L 65.118938 83.919672 
L 72.232629 100.179078 
L 62.298042 100.850673 
z
" style="fill:#858585;stroke:#000000;"/>
    <path clip-path="url(#p1d8b62fb21)" d="M 129.840497 111.424605 
L 140.420586 112.772908 
L 146.202771 107.792414 
L 135.689492 105.512668 
z
" style="fill:#ffffff;stroke:#000000;"/>
    <path clip-path="url(#p1d8b62fb21)" d="M 119.489197 96.167916 
L 129.840497 111.424605 
L 135.689492 105.512668 
L 125.449807 89.984209 
z
" style="fill:#bdbdbd;stroke:#000000;"/>
    <path clip-path="url(#p1d8b62fb21)" d="M 65.118938 83.919672 
L 75.537565 87.041469 
L 82.384853 102.312937 
L 72.232629 100.179078 
z
" style="fill:#7f7f7f;stroke:#000000;"/>
    <path clip-path="url(#p1d8b62fb21)" d="M 42.70324 46.251223 
L 54.893997 83.058837 
L 62.298042 100.850673 
L 51.414095 80.558332 
z
" style="fill:#0d0d0d;stroke:#000000;"/>
    <path clip-path="url(#p1d8b62fb21)" d="M 102.966371 103.811214 
L 113.479095 92.476555 
L 119.489197 96.167916 
L 109.030218 105.985305 
z
" style="fill:#a3a3a3;stroke:#000000;"/>
    <path clip-path="url(#p1d8b62fb21)" d="M 75.537565 87.041469 
L 85.991742 87.935243 
L 92.631948 104.250786 
L 82.384853 102.312937 
z
" style="fill:#7f7f7f;stroke:#000000;"/>
    <path clip-path="url(#p1d8b62fb21)" d="M 123.965665 113.239267 
L 134.665137 112.640618 
L 140.420586 112.772908 
L 129.840497 111.424605 
z
" style="fill:#fbfbfb;stroke:#000000;"/>
    <path clip-path="url(#p1d8b62fb21)" d="M 113.479095 92.476555 
L 123.965665 113.239267 
L 129.840497 111.424605 
L 119.489197 96.167916 
z
" style="fill:#b4b4b4;stroke:#000000;"/>
    <path clip-path="url(#p1d8b62fb21)" d="M 85.991742 87.935243 
L 96.601977 91.105293 
L 102.966371 103.811214 
L 92.631948 104.250786 
z
" style="fill:#787878;stroke:#000000;"/>
    <path clip-path="url(#p1d8b62fb21)" d="M 118.100236 95.252816 
L 129.035049 96.216041 
L 134.665137 112.640618 
L 123.965665 113.239267 
z
" style="fill:#858585;stroke:#000000;"/>
    <path clip-path="url(#p1d8b62fb21)" d="M 96.601977 91.105293 
L 107.190554 57.599782 
L 113.479095 92.476555 
L 102.966371 103.811214 
z
" style="stroke:#000000;"/>
    <path clip-path="url(#p1d8b62fb21)" d="M 107.190554 57.599782 
L 118.100236 95.252816 
L 123.965665 113.239267 
L 113.479095 92.476555 
z
" style="fill:#0d0d0d;stroke:#000000;"/>
   </g>
  </g>
 </g>
 <defs>
  <clipPath id="p1d8b62fb21">
   <rect height="122.4" width="194.4" x="10.8" y="10.8"/>
  </clipPath>
 </defs>
</svg>
