<?xml version="1.0" encoding="utf-8" standalone="no"?>
<!DOCTYPE svg PUBLIC "-//W3C//DTD SVG 1.1//EN"
  "http://www.w3.org/Graphics/SVG/1.1/DTD/svg11.dtd">
<!-- Created with matplotlib (https://matplotlib.org/) -->
<svg height="144pt" version="1.1" viewBox="0 0 216 144" width="216pt" xmlns="http://www.w3.org/2000/svg" xmlns:xlink="http://www.w3.org/1999/xlink">
 <defs>
  <style type="text/css">
*{stroke-linecap:butt;stroke-linejoin:round;}
  </style>
 </defs>
 <g id="figure_1">
  <g id="patch_1">
   <path d="M 0 144 
L 216 144 
L 216 0 
L 0 0 
z
" style="fill:#ffffff;"/>
  </g>
  <g id="patch_2">
   <path d="M 10.8 133.2 
L 205.2 133.2 
L 205.2 10.8 
L 10.8 10.8 
z
" style="fill:#ffffff;"/>
  </g>
  <g id="pane3d_1">
   <g id="patch_3">
    <path d="M 36.570724 106.153914 
L 92.209021 76.144207 
L 91.282702 18.800583 
L 32.542206 45.763687 
" style="fill:#f2f2f2;opacity:0.5;stroke:#f2f2f2;stroke-linejoin:miter;"/>
   </g>
  </g>
  <g id="pane3d_2">
   <g id="patch_4">
    <path d="M 92.209021 76.144207 
L 182.337831 92.92157 
L 186.108713 33.848772 
L 91.282702 18.800583 
" style="fill:#e6e6e6;opacity:0.5;stroke:#e6e6e6;stroke-linejoin:miter;"/>
   </g>
  </g>
  <g id="pane3d_3">
   <g id="patch_5">
    <path d="M 36.570724 106.153914 
L 131.398411 125.693886 
L 182.337831 92.92157 
L 92.209021 76.144207 
" style="fill:#ececec;opacity:0.5;stroke:#ececec;stroke-linejoin:miter;"/>
   </g>
  </g>
  <g id="axis3d_1">
   <g id="line2d_1">
    <path d="M 36.570724 106.153914 
L 131.398411 125.693886 
" style="fill:none;stroke:#000000;stroke-linecap:square;stroke-width:0.8;"/>
   </g>
   <g id="Line3DCollection_1">
    <path d="M 42.352032 107.345197 
L 97.721186 77.170289 
L 97.070293 19.719031 
" style="fill:none;stroke:#b0b0b0;stroke-width:0.8;"/>
    <path d="M 62.426428 111.48168 
L 116.843521 80.729888 
L 117.160059 22.907129 
" style="fill:none;stroke:#b0b0b0;stroke-width:0.8;"/>
    <path d="M 82.901148 115.700653 
L 136.319223 84.355265 
L 137.640158 26.15717 
" style="fill:none;stroke:#b0b0b0;stroke-width:0.8;"/>
    <path d="M 103.788289 120.004609 
L 156.158179 88.048261 
L 158.522077 29.470976 
" style="fill:none;stroke:#b0b0b0;stroke-width:0.8;"/>
    <path d="M 125.100437 124.39614 
L 176.370648 91.810786 
L 179.817758 32.850444 
" style="fill:none;stroke:#b0b0b0;stroke-width:0.8;"/>
   </g>
   <g id="xtick_1">
    <g id="line2d_2">
     <path d="M 42.829066 107.085224 
L 41.396185 107.866111 
" style="fill:none;stroke:#000000;stroke-linecap:square;stroke-width:0.8;"/>
    </g>
    <g id="text_1">
     <!-- 0 -->
     <defs>
      <path d="M 31.78125 66.40625 
Q 24.171875 66.40625 20.328125 58.90625 
Q 16.5 51.421875 16.5 36.375 
Q 16.5 21.390625 20.328125 13.890625 
Q 24.171875 6.390625 31.78125 6.390625 
Q 39.453125 6.390625 43.28125 13.890625 
Q 47.125 21.390625 47.125 36.375 
Q 47.125 51.421875 43.28125 58.90625 
Q 39.453125 66.40625 31.78125 66.40625 
z
M 31.78125 74.21875 
Q 44.046875 74.21875 50.515625 64.515625 
Q 56.984375 54.828125 56.984375 36.375 
Q 56.984375 17.96875 50.515625 8.265625 
Q 44.046875 -1.421875 31.78125 -1.421875 
Q 19.53125 -1.421875 13.0625 8.265625 
Q 6.59375 17.96875 6.59375 36.375 
Q 6.59375 54.828125 13.0625 64.515625 
Q 19.53125 74.21875 31.78125 74.21875 
z
" id="DejaVuSans-48"/>
     </defs>
     <g transform="translate(31.317754 127.519522)scale(0.1 -0.1)">
      <use xlink:href="#DejaVuSans-48"/>
     </g>
    </g>
   </g>
   <g id="xtick_2">
    <g id="line2d_3">
     <path d="M 62.89559 111.21655 
L 61.486337 112.012937 
" style="fill:none;stroke:#000000;stroke-linecap:square;stroke-width:0.8;"/>
    </g>
    <g id="text_2">
     <!-- 2 -->
     <defs>
      <path d="M 19.1875 8.296875 
L 53.609375 8.296875 
L 53.609375 0 
L 7.328125 0 
L 7.328125 8.296875 
Q 12.9375 14.109375 22.625 23.890625 
Q 32.328125 33.6875 34.8125 36.53125 
Q 39.546875 41.84375 41.421875 45.53125 
Q 43.3125 49.21875 43.3125 52.78125 
Q 43.3125 58.59375 39.234375 62.25 
Q 35.15625 65.921875 28.609375 65.921875 
Q 23.96875 65.921875 18.8125 64.3125 
Q 13.671875 62.703125 7.8125 59.421875 
L 7.8125 69.390625 
Q 13.765625 71.78125 18.9375 73 
Q 24.125 74.21875 28.421875 74.21875 
Q 39.75 74.21875 46.484375 68.546875 
Q 53.21875 62.890625 53.21875 53.421875 
Q 53.21875 48.921875 51.53125 44.890625 
Q 49.859375 40.875 45.40625 35.40625 
Q 44.1875 33.984375 37.640625 27.21875 
Q 31.109375 20.453125 19.1875 8.296875 
z
" id="DejaVuSans-50"/>
     </defs>
     <g transform="translate(51.387708 131.795734)scale(0.1 -0.1)">
      <use xlink:href="#DejaVuSans-50"/>
     </g>
    </g>
   </g>
   <g id="xtick_3">
    <g id="line2d_4">
     <path d="M 83.362028 115.430212 
L 81.977636 116.242564 
" style="fill:none;stroke:#000000;stroke-linecap:square;stroke-width:0.8;"/>
    </g>
    <g id="text_3">
     <!-- 4 -->
     <defs>
      <path d="M 37.796875 64.3125 
L 12.890625 25.390625 
L 37.796875 25.390625 
z
M 35.203125 72.90625 
L 47.609375 72.90625 
L 47.609375 25.390625 
L 58.015625 25.390625 
L 58.015625 17.1875 
L 47.609375 17.1875 
L 47.609375 0 
L 37.796875 0 
L 37.796875 17.1875 
L 4.890625 17.1875 
L 4.890625 26.703125 
z
" id="DejaVuSans-52"/>
     </defs>
     <g transform="translate(71.859374 136.157538)scale(0.1 -0.1)">
      <use xlink:href="#DejaVuSans-52"/>
     </g>
    </g>
   </g>
   <g id="xtick_4">
    <g id="line2d_5">
     <path d="M 104.240456 119.728694 
L 102.882217 120.557497 
" style="fill:none;stroke:#000000;stroke-linecap:square;stroke-width:0.8;"/>
    </g>
    <g id="text_4">
     <!-- 6 -->
     <defs>
      <path d="M 33.015625 40.375 
Q 26.375 40.375 22.484375 35.828125 
Q 18.609375 31.296875 18.609375 23.390625 
Q 18.609375 15.53125 22.484375 10.953125 
Q 26.375 6.390625 33.015625 6.390625 
Q 39.65625 6.390625 43.53125 10.953125 
Q 47.40625 15.53125 47.40625 23.390625 
Q 47.40625 31.296875 43.53125 35.828125 
Q 39.65625 40.375 33.015625 40.375 
z
M 52.59375 71.296875 
L 52.59375 62.3125 
Q 48.875 64.0625 45.09375 64.984375 
Q 41.3125 65.921875 37.59375 65.921875 
Q 27.828125 65.921875 22.671875 59.328125 
Q 17.53125 52.734375 16.796875 39.40625 
Q 19.671875 43.65625 24.015625 45.921875 
Q 28.375 48.1875 33.59375 48.1875 
Q 44.578125 48.1875 50.953125 41.515625 
Q 57.328125 34.859375 57.328125 23.390625 
Q 57.328125 12.15625 50.6875 5.359375 
Q 44.046875 -1.421875 33.015625 -1.421875 
Q 20.359375 -1.421875 13.671875 8.265625 
Q 6.984375 17.96875 6.984375 36.375 
Q 6.984375 53.65625 15.1875 63.9375 
Q 23.390625 74.21875 37.203125 74.21875 
Q 40.921875 74.21875 44.703125 73.484375 
Q 48.484375 72.75 52.59375 71.296875 
z
" id="DejaVuSans-54"/>
     </defs>
     <g transform="translate(92.744938 140.607528)scale(0.1 -0.1)">
      <use xlink:href="#DejaVuSans-54"/>
     </g>
    </g>
   </g>
   <g id="xtick_5">
    <g id="line2d_6">
     <path d="M 125.54344 124.114585 
L 124.212712 124.960344 
" style="fill:none;stroke:#000000;stroke-linecap:square;stroke-width:0.8;"/>
    </g>
    <g id="text_5">
     <!-- 8 -->
     <defs>
      <path d="M 31.78125 34.625 
Q 24.75 34.625 20.71875 30.859375 
Q 16.703125 27.09375 16.703125 20.515625 
Q 16.703125 13.921875 20.71875 10.15625 
Q 24.75 6.390625 31.78125 6.390625 
Q 38.8125 6.390625 42.859375 10.171875 
Q 46.921875 13.96875 46.921875 20.515625 
Q 46.921875 27.09375 42.890625 30.859375 
Q 38.875 34.625 31.78125 34.625 
z
M 21.921875 38.8125 
Q 15.578125 40.375 12.03125 44.71875 
Q 8.5 49.078125 8.5 55.328125 
Q 8.5 64.0625 14.71875 69.140625 
Q 20.953125 74.21875 31.78125 74.21875 
Q 42.671875 74.21875 48.875 69.140625 
Q 55.078125 64.0625 55.078125 55.328125 
Q 55.078125 49.078125 51.53125 44.71875 
Q 48 40.375 41.703125 38.8125 
Q 48.828125 37.15625 52.796875 32.3125 
Q 56.78125 27.484375 56.78125 20.515625 
Q 56.78125 9.90625 50.3125 4.234375 
Q 43.84375 -1.421875 31.78125 -1.421875 
Q 19.734375 -1.421875 13.25 4.234375 
Q 6.78125 9.90625 6.78125 20.515625 
Q 6.78125 27.484375 10.78125 32.3125 
Q 14.796875 37.15625 21.921875 38.8125 
z
M 18.3125 54.390625 
Q 18.3125 48.734375 21.84375 45.5625 
Q 25.390625 42.390625 31.78125 42.390625 
Q 38.140625 42.390625 41.71875 45.5625 
Q 45.3125 48.734375 45.3125 54.390625 
Q 45.3125 60.0625 41.71875 63.234375 
Q 38.140625 66.40625 31.78125 66.40625 
Q 25.390625 66.40625 21.84375 63.234375 
Q 18.3125 60.0625 18.3125 54.390625 
z
" id="DejaVuSans-56"/>
     </defs>
     <g transform="translate(114.057078 145.148407)scale(0.1 -0.1)">
      <use xlink:href="#DejaVuSans-56"/>
     </g>
    </g>
   </g>
  </g>
  <g id="axis3d_2">
   <g id="line2d_7">
    <path d="M 182.337831 92.92157 
L 131.398411 125.693886 
" style="fill:none;stroke:#000000;stroke-linecap:square;stroke-width:0.8;"/>
   </g>
   <g id="Line3DCollection_2">
    <path d="M 36.564365 43.917433 
L 40.366648 104.106501 
L 134.88463 123.450997 
" style="fill:none;stroke:#b0b0b0;stroke-width:0.8;"/>
    <path d="M 50.044637 37.729709 
L 53.103467 97.236625 
L 146.570602 115.932726 
" style="fill:none;stroke:#b0b0b0;stroke-width:0.8;"/>
    <path d="M 63.063746 31.753668 
L 65.426198 90.590096 
L 157.859573 108.669869 
" style="fill:none;stroke:#b0b0b0;stroke-width:0.8;"/>
    <path d="M 75.644958 25.978632 
L 77.354713 84.156196 
L 168.771436 101.649627 
" style="fill:none;stroke:#b0b0b0;stroke-width:0.8;"/>
    <path d="M 87.810001 20.394625 
L 88.90763 77.924883 
L 179.324777 94.860044 
" style="fill:none;stroke:#b0b0b0;stroke-width:0.8;"/>
   </g>
   <g id="xtick_6">
    <g id="line2d_8">
     <path d="M 134.093598 123.2891 
L 136.468463 123.775151 
" style="fill:none;stroke:#000000;stroke-linecap:square;stroke-width:0.8;"/>
    </g>
    <g id="text_6">
     <!-- 0 -->
     <g transform="translate(145.296339 142.045096)scale(0.1 -0.1)">
      <use xlink:href="#DejaVuSans-48"/>
     </g>
    </g>
   </g>
   <g id="xtick_7">
    <g id="line2d_9">
     <path d="M 145.78896 115.776375 
L 148.135602 116.245771 
" style="fill:none;stroke:#000000;stroke-linecap:square;stroke-width:0.8;"/>
    </g>
    <g id="text_7">
     <!-- 2 -->
     <g transform="translate(156.736148 134.344417)scale(0.1 -0.1)">
      <use xlink:href="#DejaVuSans-50"/>
     </g>
    </g>
   </g>
   <g id="xtick_8">
    <g id="line2d_10">
     <path d="M 157.087145 108.518784 
L 159.406095 108.972365 
" style="fill:none;stroke:#000000;stroke-linecap:square;stroke-width:0.8;"/>
    </g>
    <g id="text_8">
     <!-- 4 -->
     <g transform="translate(167.787695 126.905095)scale(0.1 -0.1)">
      <use xlink:href="#DejaVuSans-52"/>
     </g>
    </g>
   </g>
   <g id="xtick_9">
    <g id="line2d_11">
     <path d="M 168.008049 101.503546 
L 170.299831 101.9421 
" style="fill:none;stroke:#000000;stroke-linecap:square;stroke-width:0.8;"/>
    </g>
    <g id="text_9">
     <!-- 6 -->
     <g transform="translate(178.470418 119.714046)scale(0.1 -0.1)">
      <use xlink:href="#DejaVuSans-54"/>
     </g>
    </g>
   </g>
   <g id="xtick_10">
    <g id="line2d_12">
     <path d="M 178.570258 94.718722 
L 180.835392 95.142983 
" style="fill:none;stroke:#000000;stroke-linecap:square;stroke-width:0.8;"/>
    </g>
    <g id="text_10">
     <!-- 8 -->
     <g transform="translate(188.802476 112.759047)scale(0.1 -0.1)">
      <use xlink:href="#DejaVuSans-56"/>
     </g>
    </g>
   </g>
  </g>
  <g id="axis3d_3">
   <g id="line2d_13">
    <path d="M 182.337831 92.92157 
L 186.108713 33.848772 
" style="fill:none;stroke:#000000;stroke-linecap:square;stroke-width:0.8;"/>
   </g>
   <g id="Line3DCollection_3">
    <path d="M 183.44409 75.591458 
L 91.93685 59.295474 
L 35.39032 88.458853 
" style="fill:none;stroke:#b0b0b0;stroke-width:0.8;"/>
    <path d="M 184.5692 57.966037 
L 91.660397 42.181719 
L 34.188578 70.443929 
" style="fill:none;stroke:#b0b0b0;stroke-width:0.8;"/>
    <path d="M 185.729624 39.787401 
L 91.375644 24.554092 
L 32.947823 51.844165 
" style="fill:none;stroke:#b0b0b0;stroke-width:0.8;"/>
   </g>
   <g id="xtick_11">
    <g id="line2d_14">
     <path d="M 182.68014 75.455411 
L 184.973603 75.86384 
" style="fill:none;stroke:#000000;stroke-linecap:square;stroke-width:0.8;"/>
    </g>
    <g id="text_11">
     <!-- 0.5 -->
     <defs>
      <path d="M 10.6875 12.40625 
L 21 12.40625 
L 21 0 
L 10.6875 0 
z
" id="DejaVuSans-46"/>
      <path d="M 10.796875 72.90625 
L 49.515625 72.90625 
L 49.515625 64.59375 
L 19.828125 64.59375 
L 19.828125 46.734375 
Q 21.96875 47.46875 24.109375 47.828125 
Q 26.265625 48.1875 28.421875 48.1875 
Q 40.625 48.1875 47.75 41.5 
Q 54.890625 34.8125 54.890625 23.390625 
Q 54.890625 11.625 47.5625 5.09375 
Q 40.234375 -1.421875 26.90625 -1.421875 
Q 22.3125 -1.421875 17.546875 -0.640625 
Q 12.796875 0.140625 7.71875 1.703125 
L 7.71875 11.625 
Q 12.109375 9.234375 16.796875 8.0625 
Q 21.484375 6.890625 26.703125 6.890625 
Q 35.15625 6.890625 40.078125 11.328125 
Q 45.015625 15.765625 45.015625 23.390625 
Q 45.015625 31 40.078125 35.4375 
Q 35.15625 39.890625 26.703125 39.890625 
Q 22.75 39.890625 18.8125 39.015625 
Q 14.890625 38.140625 10.796875 36.28125 
z
" id="DejaVuSans-53"/>
     </defs>
     <g transform="translate(195.377462 81.46169)scale(0.1 -0.1)">
      <use xlink:href="#DejaVuSans-48"/>
      <use x="63.623047" xlink:href="#DejaVuSans-46"/>
      <use x="95.410156" xlink:href="#DejaVuSans-53"/>
     </g>
    </g>
   </g>
   <g id="xtick_12">
    <g id="line2d_15">
     <path d="M 183.793049 57.834177 
L 186.123166 58.230041 
" style="fill:none;stroke:#000000;stroke-linecap:square;stroke-width:0.8;"/>
    </g>
    <g id="text_12">
     <!-- 1.0 -->
     <defs>
      <path d="M 12.40625 8.296875 
L 28.515625 8.296875 
L 28.515625 63.921875 
L 10.984375 60.40625 
L 10.984375 69.390625 
L 28.421875 72.90625 
L 38.28125 72.90625 
L 38.28125 8.296875 
L 54.390625 8.296875 
L 54.390625 0 
L 12.40625 0 
z
" id="DejaVuSans-49"/>
     </defs>
     <g transform="translate(196.803327 63.889559)scale(0.1 -0.1)">
      <use xlink:href="#DejaVuSans-49"/>
      <use x="63.623047" xlink:href="#DejaVuSans-46"/>
      <use x="95.410156" xlink:href="#DejaVuSans-48"/>
     </g>
    </g>
   </g>
   <g id="xtick_13">
    <g id="line2d_16">
     <path d="M 184.940876 39.660059 
L 187.308836 40.042363 
" style="fill:none;stroke:#000000;stroke-linecap:square;stroke-width:0.8;"/>
    </g>
    <g id="text_13">
     <!-- 1.5 -->
     <g transform="translate(198.273739 45.768424)scale(0.1 -0.1)">
      <use xlink:href="#DejaVuSans-49"/>
      <use x="63.623047" xlink:href="#DejaVuSans-46"/>
      <use x="95.410156" xlink:href="#DejaVuSans-53"/>
     </g>
    </g>
   </g>
  </g>
  <g id="axes_1">
   <g id="Poly3DCollection_1">
    <path clip-path="url(#p48ecd1c74f)" d="M 98.266756 77.970373 
L 108.004862 80.669292 
L 113.625067 79.635264 
L 103.911048 68.45409 
z
" style="fill:#dcdcdc;stroke:#000000;"/>
    <path clip-path="url(#p48ecd1c74f)" d="M 108.004862 80.669292 
L 117.819627 83.261273 
L 123.419434 77.371817 
L 113.625067 79.635264 
z
" style="fill:#eaeaea;stroke:#000000;"/>
    <path clip-path="url(#p48ecd1c74f)" d="M 88.511485 70.518773 
L 98.266756 77.970373 
L 103.911048 68.45409 
L 93.843775 37.330332 
z
" style="fill:#7d7d7d;stroke:#000000;"/>
    <path clip-path="url(#p48ecd1c74f)" d="M 82.719973 76.1973 
L 92.443413 78.026903 
L 98.266756 77.970373 
L 88.511485 70.518773 
z
" style="fill:#c8c8c8;stroke:#000000;"/>
    <path clip-path="url(#p48ecd1c74f)" d="M 92.443413 78.026903 
L 102.286208 83.667027 
L 108.004862 80.669292 
L 98.266756 77.970373 
z
" style="fill:#dedede;stroke:#000000;"/>
    <path clip-path="url(#p48ecd1c74f)" d="M 117.819627 83.261273 
L 127.749856 83.460774 
L 133.310905 78.364113 
L 123.419434 77.371817 
z
" style="fill:#dedede;stroke:#000000;"/>
    <path clip-path="url(#p48ecd1c74f)" d="M 102.286208 83.667027 
L 112.155056 89.695475 
L 117.819627 83.261273 
L 108.004862 80.669292 
z
" style="fill:#f2f2f2;stroke:#000000;"/>
    <path clip-path="url(#p48ecd1c74f)" d="M 76.845099 81.421215 
L 86.56517 81.52112 
L 92.443413 78.026903 
L 82.719973 76.1973 
z
" style="fill:#cccccc;stroke:#000000;"/>
    <path clip-path="url(#p48ecd1c74f)" d="M 112.155056 89.695475 
L 122.104092 89.839507 
L 127.749856 83.460774 
L 117.819627 83.261273 
z
" style="fill:#f5f5f5;stroke:#000000;"/>
    <path clip-path="url(#p48ecd1c74f)" d="M 127.749856 83.460774 
L 137.789454 84.241079 
L 143.36395 77.482117 
L 133.310905 78.364113 
z
" style="fill:#d1d1d1;stroke:#000000;"/>
    <path clip-path="url(#p48ecd1c74f)" d="M 86.56517 81.52112 
L 96.48223 87.546523 
L 102.286208 83.667027 
L 92.443413 78.026903 
z
" style="fill:#d9d9d9;stroke:#000000;"/>
    <path clip-path="url(#p48ecd1c74f)" d="M 96.48223 87.546523 
L 106.414061 91.908621 
L 112.155056 89.695475 
L 102.286208 83.667027 
z
" style="fill:#f8f8f8;stroke:#000000;"/>
    <path clip-path="url(#p48ecd1c74f)" d="M 137.789454 84.241079 
L 147.811118 89.05849 
L 153.322517 82.909543 
L 143.36395 77.482117 
z
" style="fill:#d7d7d7;stroke:#000000;"/>
    <path clip-path="url(#p48ecd1c74f)" d="M 122.104092 89.839507 
L 132.14529 91.747298 
L 137.789454 84.241079 
L 127.749856 83.460774 
z
" style="fill:#ececec;stroke:#000000;"/>
    <path clip-path="url(#p48ecd1c74f)" d="M 70.822804 84.644785 
L 80.578286 84.513189 
L 86.56517 81.52112 
L 76.845099 81.421215 
z
" style="fill:#d0d0d0;stroke:#000000;"/>
    <path clip-path="url(#p48ecd1c74f)" d="M 106.414061 91.908621 
L 116.415157 92.727986 
L 122.104092 89.839507 
L 112.155056 89.695475 
z
" style="fill:#ffffff;stroke:#000000;"/>
    <path clip-path="url(#p48ecd1c74f)" d="M 132.14529 91.747298 
L 142.232696 95.43509 
L 147.811118 89.05849 
L 137.789454 84.241079 
z
" style="fill:#f3f3f3;stroke:#000000;"/>
    <path clip-path="url(#p48ecd1c74f)" d="M 147.811118 89.05849 
L 158.182316 86.616002 
L 163.716937 79.688501 
L 153.322517 82.909543 
z
" style="fill:#d1d1d1;stroke:#000000;"/>
    <path clip-path="url(#p48ecd1c74f)" d="M 80.578286 84.513189 
L 90.547884 89.176736 
L 96.48223 87.546523 
L 86.56517 81.52112 
z
" style="fill:#d7d7d7;stroke:#000000;"/>
    <path clip-path="url(#p48ecd1c74f)" d="M 90.547884 89.176736 
L 100.574793 95.06342 
L 106.414061 91.908621 
L 96.48223 87.546523 
z
" style="fill:#f3f3f3;stroke:#000000;"/>
    <path clip-path="url(#p48ecd1c74f)" d="M 116.415157 92.727986 
L 126.532153 93.546352 
L 132.14529 91.747298 
L 122.104092 89.839507 
z
" style="fill:#f7f7f7;stroke:#000000;"/>
    <path clip-path="url(#p48ecd1c74f)" d="M 64.61603 85.836169 
L 74.49546 87.757688 
L 80.578286 84.513189 
L 70.822804 84.644785 
z
" style="fill:#cbcbcb;stroke:#000000;"/>
    <path clip-path="url(#p48ecd1c74f)" d="M 142.232696 95.43509 
L 152.608211 93.170155 
L 158.182316 86.616002 
L 147.811118 89.05849 
z
" style="fill:#ebebeb;stroke:#000000;"/>
    <path clip-path="url(#p48ecd1c74f)" d="M 100.574793 95.06342 
L 110.627027 94.974523 
L 116.415157 92.727986 
L 106.414061 91.908621 
z
" style="fill:#fafafa;stroke:#000000;"/>
    <path clip-path="url(#p48ecd1c74f)" d="M 126.532153 93.546352 
L 136.69324 97.545017 
L 142.232696 95.43509 
L 132.14529 91.747298 
z
" style="fill:#fdfdfd;stroke:#000000;"/>
    <path clip-path="url(#p48ecd1c74f)" d="M 158.182316 86.616002 
L 168.540088 87.918208 
L 174.23742 77.627358 
L 163.716937 79.688501 
z
" style="fill:#b4b4b4;stroke:#000000;"/>
    <path clip-path="url(#p48ecd1c74f)" d="M 74.49546 87.757688 
L 84.5596 93.55229 
L 90.547884 89.176736 
L 80.578286 84.513189 
z
" style="fill:#d5d5d5;stroke:#000000;"/>
    <path clip-path="url(#p48ecd1c74f)" d="M 84.5596 93.55229 
L 94.656999 99.741958 
L 100.574793 95.06342 
L 90.547884 89.176736 
z
" style="fill:#f4f4f4;stroke:#000000;"/>
    <path clip-path="url(#p48ecd1c74f)" d="M 110.627027 94.974523 
L 120.784745 98.067586 
L 126.532153 93.546352 
L 116.415157 92.727986 
z
" style="fill:#f3f3f3;stroke:#000000;"/>
    <path clip-path="url(#p48ecd1c74f)" d="M 136.69324 97.545017 
L 147.111659 95.533217 
L 152.608211 93.170155 
L 142.232696 95.43509 
z
" style="fill:#f4f4f4;stroke:#000000;"/>
    <path clip-path="url(#p48ecd1c74f)" d="M 152.608211 93.170155 
L 163.145259 91.25037 
L 168.540088 87.918208 
L 158.182316 86.616002 
z
" style="fill:#d0d0d0;stroke:#000000;"/>
    <path clip-path="url(#p48ecd1c74f)" d="M 94.656999 99.741958 
L 104.743919 99.954366 
L 110.627027 94.974523 
L 100.574793 95.06342 
z
" style="fill:#fdfdfd;stroke:#000000;"/>
    <path clip-path="url(#p48ecd1c74f)" d="M 58.257436 86.517939 
L 68.312795 91.132967 
L 74.49546 87.757688 
L 64.61603 85.836169 
z
" style="fill:#c1c1c1;stroke:#000000;"/>
    <path clip-path="url(#p48ecd1c74f)" d="M 120.784745 98.067586 
L 131.020712 101.17389 
L 136.69324 97.545017 
L 126.532153 93.546352 
z
" style="fill:#fafafa;stroke:#000000;"/>
    <path clip-path="url(#p48ecd1c74f)" d="M 68.312795 91.132967 
L 78.358717 93.710778 
L 84.5596 93.55229 
L 74.49546 87.757688 
z
" style="fill:#d0d0d0;stroke:#000000;"/>
    <path clip-path="url(#p48ecd1c74f)" d="M 78.358717 93.710778 
L 88.566811 100.107504 
L 94.656999 99.741958 
L 84.5596 93.55229 
z
" style="fill:#ebebeb;stroke:#000000;"/>
    <path clip-path="url(#p48ecd1c74f)" d="M 104.743919 99.954366 
L 114.954744 101.959737 
L 120.784745 98.067586 
L 110.627027 94.974523 
z
" style="fill:#f7f7f7;stroke:#000000;"/>
    <path clip-path="url(#p48ecd1c74f)" d="M 147.111659 95.533217 
L 157.655639 94.71553 
L 163.145259 91.25037 
L 152.608211 93.170155 
z
" style="fill:#d5d5d5;stroke:#000000;"/>
    <path clip-path="url(#p48ecd1c74f)" d="M 131.020712 101.17389 
L 141.435967 100.678371 
L 147.111659 95.533217 
L 136.69324 97.545017 
z
" style="fill:#f3f3f3;stroke:#000000;"/>
    <path clip-path="url(#p48ecd1c74f)" d="M 114.954744 101.959737 
L 125.241999 105.774683 
L 131.020712 101.17389 
L 120.784745 98.067586 
z
" style="fill:#ffffff;stroke:#000000;"/>
    <path clip-path="url(#p48ecd1c74f)" d="M 88.566811 100.107504 
L 98.715168 99.126639 
L 104.743919 99.954366 
L 94.656999 99.741958 
z
" style="fill:#f3f3f3;stroke:#000000;"/>
    <path clip-path="url(#p48ecd1c74f)" d="M 61.716903 87.43769 
L 72.000075 93.418707 
L 78.358717 93.710778 
L 68.312795 91.132967 
z
" style="fill:#b4b4b4;stroke:#000000;"/>
    <path clip-path="url(#p48ecd1c74f)" d="M 98.715168 99.126639 
L 109.024874 102.26934 
L 114.954744 101.959737 
L 104.743919 99.954366 
z
" style="fill:#ececec;stroke:#000000;"/>
    <path clip-path="url(#p48ecd1c74f)" d="M 141.435967 100.678371 
L 152.06521 98.444014 
L 157.655639 94.71553 
L 147.111659 95.533217 
z
" style="fill:#d7d7d7;stroke:#000000;"/>
    <path clip-path="url(#p48ecd1c74f)" d="M 125.241999 105.774683 
L 135.733941 103.542646 
L 141.435967 100.678371 
L 131.020712 101.17389 
z
" style="fill:#f8f8f8;stroke:#000000;"/>
    <path clip-path="url(#p48ecd1c74f)" d="M 72.000075 93.418707 
L 82.342534 100.643697 
L 88.566811 100.107504 
L 78.358717 93.710778 
z
" style="fill:#d1d1d1;stroke:#000000;"/>
    <path clip-path="url(#p48ecd1c74f)" d="M 50.265672 58.530701 
L 61.716903 87.43769 
L 68.312795 91.132967 
L 58.257436 86.517939 
z
" style="fill:#6f6f6f;stroke:#000000;"/>
    <path clip-path="url(#p48ecd1c74f)" d="M 109.024874 102.26934 
L 119.411174 106.02968 
L 125.241999 105.774683 
L 114.954744 101.959737 
z
" style="fill:#f5f5f5;stroke:#000000;"/>
    <path clip-path="url(#p48ecd1c74f)" d="M 82.342534 100.643697 
L 92.546703 98.98286 
L 98.715168 99.126639 
L 88.566811 100.107504 
z
" style="fill:#d7d7d7;stroke:#000000;"/>
    <path clip-path="url(#p48ecd1c74f)" d="M 135.733941 103.542646 
L 146.399527 101.661615 
L 152.06521 98.444014 
L 141.435967 100.678371 
z
" style="fill:#d9d9d9;stroke:#000000;"/>
    <path clip-path="url(#p48ecd1c74f)" d="M 119.411174 106.02968 
L 129.9119 107.318506 
L 135.733941 103.542646 
L 125.241999 105.774683 
z
" style="fill:#f2f2f2;stroke:#000000;"/>
    <path clip-path="url(#p48ecd1c74f)" d="M 55.137613 88.012403 
L 65.751662 99.663891 
L 72.000075 93.418707 
L 61.716903 87.43769 
z
" style="fill:#9d9d9d;stroke:#000000;"/>
    <path clip-path="url(#p48ecd1c74f)" d="M 65.751662 99.663891 
L 76.035753 103.074407 
L 82.342534 100.643697 
L 72.000075 93.418707 
z
" style="fill:#c6c6c6;stroke:#000000;"/>
    <path clip-path="url(#p48ecd1c74f)" d="M 92.546703 98.98286 
L 102.96664 103.850236 
L 109.024874 102.26934 
L 98.715168 99.126639 
z
" style="fill:#d1d1d1;stroke:#000000;"/>
    <path clip-path="url(#p48ecd1c74f)" d="M 102.96664 103.850236 
L 113.442768 106.790759 
L 119.411174 106.02968 
L 109.024874 102.26934 
z
" style="fill:#dedede;stroke:#000000;"/>
    <path clip-path="url(#p48ecd1c74f)" d="M 76.035753 103.074407 
L 86.32227 103.07447 
L 92.546703 98.98286 
L 82.342534 100.643697 
z
" style="fill:#c8c8c8;stroke:#000000;"/>
    <path clip-path="url(#p48ecd1c74f)" d="M 129.9119 107.318506 
L 140.536265 108.488213 
L 146.399527 101.661615 
L 135.733941 103.542646 
z
" style="fill:#dedede;stroke:#000000;"/>
    <path clip-path="url(#p48ecd1c74f)" d="M 113.442768 106.790759 
L 123.966425 113.176427 
L 129.9119 107.318506 
L 119.411174 106.02968 
z
" style="fill:#eaeaea;stroke:#000000;"/>
    <path clip-path="url(#p48ecd1c74f)" d="M 86.32227 103.07447 
L 96.777183 105.161691 
L 102.96664 103.850236 
L 92.546703 98.98286 
z
" style="fill:#c2c2c2;stroke:#000000;"/>
    <path clip-path="url(#p48ecd1c74f)" d="M 42.70324 46.251223 
L 55.137613 88.012403 
L 61.716903 87.43769 
L 50.265672 58.530701 
z
" style="stroke:#000000;"/>
    <path clip-path="url(#p48ecd1c74f)" d="M 123.966425 113.176427 
L 134.823797 105.356027 
L 140.536265 108.488213 
L 129.9119 107.318506 
z
" style="fill:#dcdcdc;stroke:#000000;"/>
    <path clip-path="url(#p48ecd1c74f)" d="M 96.777183 105.161691 
L 107.344051 109.355906 
L 113.442768 106.790759 
L 102.96664 103.850236 
z
" style="fill:#cecece;stroke:#000000;"/>
    <path clip-path="url(#p48ecd1c74f)" d="M 107.344051 109.355906 
L 118.001177 110.112679 
L 123.966425 113.176427 
L 113.442768 106.790759 
z
" style="fill:#d9d9d9;stroke:#000000;"/>
    <path clip-path="url(#p48ecd1c74f)" d="M 118.001177 110.112679 
L 128.932988 102.426236 
L 134.823797 105.356027 
L 123.966425 113.176427 
z
" style="fill:#b8b8b8;stroke:#000000;"/>
   </g>
  </g>
 </g>
 <defs>
  <clipPath id="p48ecd1c74f">
   <rect height="122.4" width="194.4" x="10.8" y="10.8"/>
  </clipPath>
 </defs>
</svg>
