<?xml version="1.0" encoding="utf-8" standalone="no"?>
<!DOCTYPE svg PUBLIC "-//W3C//DTD SVG 1.1//EN"
  "http://www.w3.org/Graphics/SVG/1.1/DTD/svg11.dtd">
<!-- Created with matplotlib (https://matplotlib.org/) -->
<svg height="144pt" version="1.1" viewBox="0 0 216 144" width="216pt" xmlns="http://www.w3.org/2000/svg" xmlns:xlink="http://www.w3.org/1999/xlink">
 <defs>
  <style type="text/css">
*{stroke-linecap:butt;stroke-linejoin:round;}
  </style>
 </defs>
 <g id="figure_1">
  <g id="patch_1">
   <path d="M 0 144 
L 216 144 
L 216 0 
L 0 0 
z
" style="fill:#ffffff;"/>
  </g>
  <g id="patch_2">
   <path d="M 10.8 133.2 
L 205.2 133.2 
L 205.2 10.8 
L 10.8 10.8 
z
" style="fill:#ffffff;"/>
  </g>
  <g id="pane3d_1">
   <g id="patch_3">
    <path d="M 36.570724 106.153914 
L 92.209021 76.144207 
L 91.282702 18.800583 
L 32.542206 45.763687 
" style="fill:#f2f2f2;opacity:0.5;stroke:#f2f2f2;stroke-linejoin:miter;"/>
   </g>
  </g>
  <g id="pane3d_2">
   <g id="patch_4">
    <path d="M 92.209021 76.144207 
L 182.337831 92.92157 
L 186.108713 33.848772 
L 91.282702 18.800583 
" style="fill:#e6e6e6;opacity:0.5;stroke:#e6e6e6;stroke-linejoin:miter;"/>
   </g>
  </g>
  <g id="pane3d_3">
   <g id="patch_5">
    <path d="M 36.570724 106.153914 
L 131.398411 125.693886 
L 182.337831 92.92157 
L 92.209021 76.144207 
" style="fill:#ececec;opacity:0.5;stroke:#ececec;stroke-linejoin:miter;"/>
   </g>
  </g>
  <g id="axis3d_1">
   <g id="line2d_1">
    <path d="M 36.570724 106.153914 
L 131.398411 125.693886 
" style="fill:none;stroke:#000000;stroke-linecap:square;stroke-width:0.8;"/>
   </g>
   <g id="Line3DCollection_1">
    <path d="M 42.352032 107.345197 
L 97.721186 77.170289 
L 97.070293 19.719031 
" style="fill:none;stroke:#b0b0b0;stroke-width:0.8;"/>
    <path d="M 62.426428 111.48168 
L 116.843521 80.729888 
L 117.160059 22.907129 
" style="fill:none;stroke:#b0b0b0;stroke-width:0.8;"/>
    <path d="M 82.901148 115.700653 
L 136.319223 84.355265 
L 137.640158 26.15717 
" style="fill:none;stroke:#b0b0b0;stroke-width:0.8;"/>
    <path d="M 103.788289 120.004609 
L 156.158179 88.048261 
L 158.522077 29.470976 
" style="fill:none;stroke:#b0b0b0;stroke-width:0.8;"/>
    <path d="M 125.100437 124.39614 
L 176.370648 91.810786 
L 179.817758 32.850444 
" style="fill:none;stroke:#b0b0b0;stroke-width:0.8;"/>
   </g>
   <g id="xtick_1">
    <g id="line2d_2">
     <path d="M 42.829066 107.085224 
L 41.396185 107.866111 
" style="fill:none;stroke:#000000;stroke-linecap:square;stroke-width:0.8;"/>
    </g>
    <g id="text_1">
     <!-- 0 -->
     <defs>
      <path d="M 31.78125 66.40625 
Q 24.171875 66.40625 20.328125 58.90625 
Q 16.5 51.421875 16.5 36.375 
Q 16.5 21.390625 20.328125 13.890625 
Q 24.171875 6.390625 31.78125 6.390625 
Q 39.453125 6.390625 43.28125 13.890625 
Q 47.125 21.390625 47.125 36.375 
Q 47.125 51.421875 43.28125 58.90625 
Q 39.453125 66.40625 31.78125 66.40625 
z
M 31.78125 74.21875 
Q 44.046875 74.21875 50.515625 64.515625 
Q 56.984375 54.828125 56.984375 36.375 
Q 56.984375 17.96875 50.515625 8.265625 
Q 44.046875 -1.421875 31.78125 -1.421875 
Q 19.53125 -1.421875 13.0625 8.265625 
Q 6.59375 17.96875 6.59375 36.375 
Q 6.59375 54.828125 13.0625 64.515625 
Q 19.53125 74.21875 31.78125 74.21875 
z
" id="DejaVuSans-48"/>
     </defs>
     <g transform="translate(31.317754 127.519522)scale(0.1 -0.1)">
      <use xlink:href="#DejaVuSans-48"/>
     </g>
    </g>
   </g>
   <g id="xtick_2">
    <g id="line2d_3">
     <path d="M 62.89559 111.21655 
L 61.486337 112.012937 
" style="fill:none;stroke:#000000;stroke-linecap:square;stroke-width:0.8;"/>
    </g>
    <g id="text_2">
     <!-- 2 -->
     <defs>
      <path d="M 19.1875 8.296875 
L 53.609375 8.296875 
L 53.609375 0 
L 7.328125 0 
L 7.328125 8.296875 
Q 12.9375 14.109375 22.625 23.890625 
Q 32.328125 33.6875 34.8125 36.53125 
Q 39.546875 41.84375 41.421875 45.53125 
Q 43.3125 49.21875 43.3125 52.78125 
Q 43.3125 58.59375 39.234375 62.25 
Q 35.15625 65.921875 28.609375 65.921875 
Q 23.96875 65.921875 18.8125 64.3125 
Q 13.671875 62.703125 7.8125 59.421875 
L 7.8125 69.390625 
Q 13.765625 71.78125 18.9375 73 
Q 24.125 74.21875 28.421875 74.21875 
Q 39.75 74.21875 46.484375 68.546875 
Q 53.21875 62.890625 53.21875 53.421875 
Q 53.21875 48.921875 51.53125 44.890625 
Q 49.859375 40.875 45.40625 35.40625 
Q 44.1875 33.984375 37.640625 27.21875 
Q 31.109375 20.453125 19.1875 8.296875 
z
" id="DejaVuSans-50"/>
     </defs>
     <g transform="translate(51.387708 131.795734)scale(0.1 -0.1)">
      <use xlink:href="#DejaVuSans-50"/>
     </g>
    </g>
   </g>
   <g id="xtick_3">
    <g id="line2d_4">
     <path d="M 83.362028 115.430212 
L 81.977636 116.242564 
" style="fill:none;stroke:#000000;stroke-linecap:square;stroke-width:0.8;"/>
    </g>
    <g id="text_3">
     <!-- 4 -->
     <defs>
      <path d="M 37.796875 64.3125 
L 12.890625 25.390625 
L 37.796875 25.390625 
z
M 35.203125 72.90625 
L 47.609375 72.90625 
L 47.609375 25.390625 
L 58.015625 25.390625 
L 58.015625 17.1875 
L 47.609375 17.1875 
L 47.609375 0 
L 37.796875 0 
L 37.796875 17.1875 
L 4.890625 17.1875 
L 4.890625 26.703125 
z
" id="DejaVuSans-52"/>
     </defs>
     <g transform="translate(71.859374 136.157538)scale(0.1 -0.1)">
      <use xlink:href="#DejaVuSans-52"/>
     </g>
    </g>
   </g>
   <g id="xtick_4">
    <g id="line2d_5">
     <path d="M 104.240456 119.728694 
L 102.882217 120.557497 
" style="fill:none;stroke:#000000;stroke-linecap:square;stroke-width:0.8;"/>
    </g>
    <g id="text_4">
     <!-- 6 -->
     <defs>
      <path d="M 33.015625 40.375 
Q 26.375 40.375 22.484375 35.828125 
Q 18.609375 31.296875 18.609375 23.390625 
Q 18.609375 15.53125 22.484375 10.953125 
Q 26.375 6.390625 33.015625 6.390625 
Q 39.65625 6.390625 43.53125 10.953125 
Q 47.40625 15.53125 47.40625 23.390625 
Q 47.40625 31.296875 43.53125 35.828125 
Q 39.65625 40.375 33.015625 40.375 
z
M 52.59375 71.296875 
L 52.59375 62.3125 
Q 48.875 64.0625 45.09375 64.984375 
Q 41.3125 65.921875 37.59375 65.921875 
Q 27.828125 65.921875 22.671875 59.328125 
Q 17.53125 52.734375 16.796875 39.40625 
Q 19.671875 43.65625 24.015625 45.921875 
Q 28.375 48.1875 33.59375 48.1875 
Q 44.578125 48.1875 50.953125 41.515625 
Q 57.328125 34.859375 57.328125 23.390625 
Q 57.328125 12.15625 50.6875 5.359375 
Q 44.046875 -1.421875 33.015625 -1.421875 
Q 20.359375 -1.421875 13.671875 8.265625 
Q 6.984375 17.96875 6.984375 36.375 
Q 6.984375 53.65625 15.1875 63.9375 
Q 23.390625 74.21875 37.203125 74.21875 
Q 40.921875 74.21875 44.703125 73.484375 
Q 48.484375 72.75 52.59375 71.296875 
z
" id="DejaVuSans-54"/>
     </defs>
     <g transform="translate(92.744938 140.607528)scale(0.1 -0.1)">
      <use xlink:href="#DejaVuSans-54"/>
     </g>
    </g>
   </g>
   <g id="xtick_5">
    <g id="line2d_6">
     <path d="M 125.54344 124.114585 
L 124.212712 124.960344 
" style="fill:none;stroke:#000000;stroke-linecap:square;stroke-width:0.8;"/>
    </g>
    <g id="text_5">
     <!-- 8 -->
     <defs>
      <path d="M 31.78125 34.625 
Q 24.75 34.625 20.71875 30.859375 
Q 16.703125 27.09375 16.703125 20.515625 
Q 16.703125 13.921875 20.71875 10.15625 
Q 24.75 6.390625 31.78125 6.390625 
Q 38.8125 6.390625 42.859375 10.171875 
Q 46.921875 13.96875 46.921875 20.515625 
Q 46.921875 27.09375 42.890625 30.859375 
Q 38.875 34.625 31.78125 34.625 
z
M 21.921875 38.8125 
Q 15.578125 40.375 12.03125 44.71875 
Q 8.5 49.078125 8.5 55.328125 
Q 8.5 64.0625 14.71875 69.140625 
Q 20.953125 74.21875 31.78125 74.21875 
Q 42.671875 74.21875 48.875 69.140625 
Q 55.078125 64.0625 55.078125 55.328125 
Q 55.078125 49.078125 51.53125 44.71875 
Q 48 40.375 41.703125 38.8125 
Q 48.828125 37.15625 52.796875 32.3125 
Q 56.78125 27.484375 56.78125 20.515625 
Q 56.78125 9.90625 50.3125 4.234375 
Q 43.84375 -1.421875 31.78125 -1.421875 
Q 19.734375 -1.421875 13.25 4.234375 
Q 6.78125 9.90625 6.78125 20.515625 
Q 6.78125 27.484375 10.78125 32.3125 
Q 14.796875 37.15625 21.921875 38.8125 
z
M 18.3125 54.390625 
Q 18.3125 48.734375 21.84375 45.5625 
Q 25.390625 42.390625 31.78125 42.390625 
Q 38.140625 42.390625 41.71875 45.5625 
Q 45.3125 48.734375 45.3125 54.390625 
Q 45.3125 60.0625 41.71875 63.234375 
Q 38.140625 66.40625 31.78125 66.40625 
Q 25.390625 66.40625 21.84375 63.234375 
Q 18.3125 60.0625 18.3125 54.390625 
z
" id="DejaVuSans-56"/>
     </defs>
     <g transform="translate(114.057078 145.148407)scale(0.1 -0.1)">
      <use xlink:href="#DejaVuSans-56"/>
     </g>
    </g>
   </g>
  </g>
  <g id="axis3d_2">
   <g id="line2d_7">
    <path d="M 182.337831 92.92157 
L 131.398411 125.693886 
" style="fill:none;stroke:#000000;stroke-linecap:square;stroke-width:0.8;"/>
   </g>
   <g id="Line3DCollection_2">
    <path d="M 36.564365 43.917433 
L 40.366648 104.106501 
L 134.88463 123.450997 
" style="fill:none;stroke:#b0b0b0;stroke-width:0.8;"/>
    <path d="M 50.044637 37.729709 
L 53.103467 97.236625 
L 146.570602 115.932726 
" style="fill:none;stroke:#b0b0b0;stroke-width:0.8;"/>
    <path d="M 63.063746 31.753668 
L 65.426198 90.590096 
L 157.859573 108.669869 
" style="fill:none;stroke:#b0b0b0;stroke-width:0.8;"/>
    <path d="M 75.644958 25.978632 
L 77.354713 84.156196 
L 168.771436 101.649627 
" style="fill:none;stroke:#b0b0b0;stroke-width:0.8;"/>
    <path d="M 87.810001 20.394625 
L 88.90763 77.924883 
L 179.324777 94.860044 
" style="fill:none;stroke:#b0b0b0;stroke-width:0.8;"/>
   </g>
   <g id="xtick_6">
    <g id="line2d_8">
     <path d="M 134.093598 123.2891 
L 136.468463 123.775151 
" style="fill:none;stroke:#000000;stroke-linecap:square;stroke-width:0.8;"/>
    </g>
    <g id="text_6">
     <!-- 0 -->
     <g transform="translate(145.296339 142.045096)scale(0.1 -0.1)">
      <use xlink:href="#DejaVuSans-48"/>
     </g>
    </g>
   </g>
   <g id="xtick_7">
    <g id="line2d_9">
     <path d="M 145.78896 115.776375 
L 148.135602 116.245771 
" style="fill:none;stroke:#000000;stroke-linecap:square;stroke-width:0.8;"/>
    </g>
    <g id="text_7">
     <!-- 2 -->
     <g transform="translate(156.736148 134.344417)scale(0.1 -0.1)">
      <use xlink:href="#DejaVuSans-50"/>
     </g>
    </g>
   </g>
   <g id="xtick_8">
    <g id="line2d_10">
     <path d="M 157.087145 108.518784 
L 159.406095 108.972365 
" style="fill:none;stroke:#000000;stroke-linecap:square;stroke-width:0.8;"/>
    </g>
    <g id="text_8">
     <!-- 4 -->
     <g transform="translate(167.787695 126.905095)scale(0.1 -0.1)">
      <use xlink:href="#DejaVuSans-52"/>
     </g>
    </g>
   </g>
   <g id="xtick_9">
    <g id="line2d_11">
     <path d="M 168.008049 101.503546 
L 170.299831 101.9421 
" style="fill:none;stroke:#000000;stroke-linecap:square;stroke-width:0.8;"/>
    </g>
    <g id="text_9">
     <!-- 6 -->
     <g transform="translate(178.470418 119.714046)scale(0.1 -0.1)">
      <use xlink:href="#DejaVuSans-54"/>
     </g>
    </g>
   </g>
   <g id="xtick_10">
    <g id="line2d_12">
     <path d="M 178.570258 94.718722 
L 180.835392 95.142983 
" style="fill:none;stroke:#000000;stroke-linecap:square;stroke-width:0.8;"/>
    </g>
    <g id="text_10">
     <!-- 8 -->
     <g transform="translate(188.802476 112.759047)scale(0.1 -0.1)">
      <use xlink:href="#DejaVuSans-56"/>
     </g>
    </g>
   </g>
  </g>
  <g id="axis3d_3">
   <g id="line2d_13">
    <path d="M 182.337831 92.92157 
L 186.108713 33.848772 
" style="fill:none;stroke:#000000;stroke-linecap:square;stroke-width:0.8;"/>
   </g>
   <g id="Line3DCollection_3">
    <path d="M 182.444725 91.247034 
L 92.182707 74.515245 
L 36.456719 104.444894 
" style="fill:none;stroke:#b0b0b0;stroke-width:0.8;"/>
    <path d="M 183.134133 80.447089 
L 92.013073 64.014058 
L 35.721171 93.418539 
" style="fill:none;stroke:#b0b0b0;stroke-width:0.8;"/>
    <path d="M 183.836907 69.437788 
L 91.840289 53.317917 
L 34.970889 82.171295 
" style="fill:none;stroke:#b0b0b0;stroke-width:0.8;"/>
    <path d="M 184.553436 58.212983 
L 91.664268 42.421343 
L 34.205424 70.69646 
" style="fill:none;stroke:#b0b0b0;stroke-width:0.8;"/>
    <path d="M 185.28413 46.766285 
L 91.484917 31.318647 
L 33.424312 58.987054 
" style="fill:none;stroke:#b0b0b0;stroke-width:0.8;"/>
    <path d="M 186.029413 35.091048 
L 91.302141 20.003926 
L 32.627067 47.03581 
" style="fill:none;stroke:#b0b0b0;stroke-width:0.8;"/>
   </g>
   <g id="xtick_11">
    <g id="line2d_14">
     <path d="M 181.691602 91.107429 
L 183.952538 91.526536 
" style="fill:none;stroke:#000000;stroke-linecap:square;stroke-width:0.8;"/>
    </g>
    <g id="text_11">
     <!-- 0.0 -->
     <defs>
      <path d="M 10.6875 12.40625 
L 21 12.40625 
L 21 0 
L 10.6875 0 
z
" id="DejaVuSans-46"/>
     </defs>
     <g transform="translate(194.11079 97.071965)scale(0.1 -0.1)">
      <use xlink:href="#DejaVuSans-48"/>
      <use x="63.623047" xlink:href="#DejaVuSans-46"/>
      <use x="95.410156" xlink:href="#DejaVuSans-48"/>
     </g>
    </g>
   </g>
   <g id="xtick_12">
    <g id="line2d_15">
     <path d="M 182.373542 80.309922 
L 184.656914 80.721712 
" style="fill:none;stroke:#000000;stroke-linecap:square;stroke-width:0.8;"/>
    </g>
    <g id="text_12">
     <!-- 0.2 -->
     <g transform="translate(194.984616 86.303067)scale(0.1 -0.1)">
      <use xlink:href="#DejaVuSans-48"/>
      <use x="63.623047" xlink:href="#DejaVuSans-46"/>
      <use x="95.410156" xlink:href="#DejaVuSans-50"/>
     </g>
    </g>
   </g>
   <g id="xtick_13">
    <g id="line2d_16">
     <path d="M 183.068698 69.303181 
L 185.374954 69.707289 
" style="fill:none;stroke:#000000;stroke-linecap:square;stroke-width:0.8;"/>
    </g>
    <g id="text_13">
     <!-- 0.4 -->
     <g transform="translate(195.875305 75.32635)scale(0.1 -0.1)">
      <use xlink:href="#DejaVuSans-48"/>
      <use x="63.623047" xlink:href="#DejaVuSans-46"/>
      <use x="95.410156" xlink:href="#DejaVuSans-52"/>
     </g>
    </g>
   </g>
   <g id="xtick_14">
    <g id="line2d_17">
     <path d="M 183.777456 58.081063 
L 186.107059 58.477107 
" style="fill:none;stroke:#000000;stroke-linecap:square;stroke-width:0.8;"/>
    </g>
    <g id="text_14">
     <!-- 0.6 -->
     <g transform="translate(196.783351 64.135742)scale(0.1 -0.1)">
      <use xlink:href="#DejaVuSans-48"/>
      <use x="63.623047" xlink:href="#DejaVuSans-46"/>
      <use x="95.410156" xlink:href="#DejaVuSans-54"/>
     </g>
    </g>
   </g>
   <g id="xtick_15">
    <g id="line2d_18">
     <path d="M 184.50022 46.637184 
L 186.853647 47.024766 
" style="fill:none;stroke:#000000;stroke-linecap:square;stroke-width:0.8;"/>
    </g>
    <g id="text_15">
     <!-- 0.8 -->
     <g transform="translate(197.709264 52.724928)scale(0.1 -0.1)">
      <use xlink:href="#DejaVuSans-48"/>
      <use x="63.623047" xlink:href="#DejaVuSans-46"/>
      <use x="95.410156" xlink:href="#DejaVuSans-56"/>
     </g>
    </g>
   </g>
   <g id="xtick_16">
    <g id="line2d_19">
     <path d="M 185.237409 34.964906 
L 187.615152 35.343607 
" style="fill:none;stroke:#000000;stroke-linecap:square;stroke-width:0.8;"/>
    </g>
    <g id="text_16">
     <!-- 1.0 -->
     <defs>
      <path d="M 12.40625 8.296875 
L 28.515625 8.296875 
L 28.515625 63.921875 
L 10.984375 60.40625 
L 10.984375 69.390625 
L 28.421875 72.90625 
L 38.28125 72.90625 
L 38.28125 8.296875 
L 54.390625 8.296875 
L 54.390625 0 
L 12.40625 0 
z
" id="DejaVuSans-49"/>
     </defs>
     <g transform="translate(198.653578 41.087344)scale(0.1 -0.1)">
      <use xlink:href="#DejaVuSans-49"/>
      <use x="63.623047" xlink:href="#DejaVuSans-46"/>
      <use x="95.410156" xlink:href="#DejaVuSans-48"/>
     </g>
    </g>
   </g>
  </g>
  <g id="axes_1">
   <g id="Poly3DCollection_1">
    <path clip-path="url(#pf5ee0c7d04)" d="M 88.700793 80.326681 
L 98.312835 82.214139 
L 103.973376 79.106826 
L 94.413098 77.323666 
z
" style="fill:#ffffff;stroke:#000000;"/>
    <path clip-path="url(#pf5ee0c7d04)" d="M 98.312835 82.214139 
L 108.012651 84.042811 
L 113.621714 80.906411 
L 103.973376 79.106826 
z
" style="fill:#ffffff;stroke:#000000;"/>
    <path clip-path="url(#pf5ee0c7d04)" d="M 82.902095 83.63769 
L 92.559848 85.315624 
L 98.312835 82.214139 
L 88.700793 80.326681 
z
" style="fill:#ffffff;stroke:#000000;"/>
    <path clip-path="url(#pf5ee0c7d04)" d="M 108.012651 84.042811 
L 117.803194 85.84999 
L 123.359334 82.722648 
L 113.621714 80.906411 
z
" style="fill:#ffffff;stroke:#000000;"/>
    <path clip-path="url(#pf5ee0c7d04)" d="M 92.559848 85.315624 
L 102.312594 87.250227 
L 108.012651 84.042811 
L 98.312835 82.214139 
z
" style="fill:#ffffff;stroke:#000000;"/>
    <path clip-path="url(#pf5ee0c7d04)" d="M 117.803194 85.84999 
L 127.684542 87.781923 
L 133.18748 84.55577 
L 123.359334 82.722648 
z
" style="fill:#ffffff;stroke:#000000;"/>
    <path clip-path="url(#pf5ee0c7d04)" d="M 76.997099 86.527566 
L 86.71758 88.708964 
L 92.559848 85.315624 
L 82.902095 83.63769 
z
" style="fill:#ffffff;stroke:#000000;"/>
    <path clip-path="url(#pf5ee0c7d04)" d="M 102.312594 87.250227 
L 112.155829 89.126072 
L 117.803194 85.84999 
L 108.012651 84.042811 
z
" style="fill:#ffffff;stroke:#000000;"/>
    <path clip-path="url(#pf5ee0c7d04)" d="M 127.684542 87.781923 
L 137.661161 89.588051 
L 143.107422 86.406013 
L 133.18748 84.55577 
z
" style="fill:#ffffff;stroke:#000000;"/>
    <path clip-path="url(#pf5ee0c7d04)" d="M 86.71758 88.708964 
L 96.518404 90.433202 
L 102.312594 87.250227 
L 92.559848 85.315624 
z
" style="fill:#ffffff;stroke:#000000;"/>
    <path clip-path="url(#pf5ee0c7d04)" d="M 112.155829 89.126072 
L 122.092464 90.980769 
L 127.684542 87.781923 
L 117.803194 85.84999 
z
" style="fill:#ffffff;stroke:#000000;"/>
    <path clip-path="url(#pf5ee0c7d04)" d="M 137.661161 89.588051 
L 147.728535 91.562026 
L 153.12045 88.273618 
L 143.107422 86.406013 
z
" style="fill:#ffffff;stroke:#000000;"/>
    <path clip-path="url(#pf5ee0c7d04)" d="M 71.020021 90.251814 
L 80.768542 91.679239 
L 86.71758 88.708964 
L 76.997099 86.527566 
z
" style="fill:#ffffff;stroke:#000000;"/>
    <path clip-path="url(#pf5ee0c7d04)" d="M 96.518404 90.433202 
L 106.415965 92.416772 
L 112.155829 89.126072 
L 102.312594 87.250227 
z
" style="fill:#ffffff;stroke:#000000;"/>
    <path clip-path="url(#pf5ee0c7d04)" d="M 122.092464 90.980769 
L 132.122051 92.961791 
L 137.661161 89.588051 
L 127.684542 87.781923 
z
" style="fill:#ffffff;stroke:#000000;"/>
    <path clip-path="url(#pf5ee0c7d04)" d="M 147.728535 91.562026 
L 157.896031 93.416788 
L 163.227882 90.158832 
L 153.12045 88.273618 
z
" style="fill:#ffffff;stroke:#000000;"/>
    <path clip-path="url(#pf5ee0c7d04)" d="M 80.768542 91.679239 
L 90.632241 93.912054 
L 96.518404 90.433202 
L 86.71758 88.708964 
z
" style="fill:#ffffff;stroke:#000000;"/>
    <path clip-path="url(#pf5ee0c7d04)" d="M 106.415965 92.416772 
L 116.406845 94.341639 
L 122.092464 90.980769 
L 112.155829 89.126072 
z
" style="fill:#ffffff;stroke:#000000;"/>
    <path clip-path="url(#pf5ee0c7d04)" d="M 132.122051 92.961791 
L 142.250138 94.816508 
L 147.728535 91.562026 
L 137.661161 89.588051 
z
" style="fill:#ffffff;stroke:#000000;"/>
    <path clip-path="url(#pf5ee0c7d04)" d="M 64.899671 92.805121 
L 74.743095 95.492444 
L 80.768542 91.679239 
L 71.020021 90.251814 
z
" style="fill:#fefefe;stroke:#000000;"/>
    <path clip-path="url(#pf5ee0c7d04)" d="M 157.896031 93.416788 
L 168.156038 95.401126 
L 173.431059 92.061903 
L 163.227882 90.158832 
z
" style="fill:#ffffff;stroke:#000000;"/>
    <path clip-path="url(#pf5ee0c7d04)" d="M 90.632241 93.912054 
L 100.580361 95.684455 
L 106.415965 92.416772 
L 96.518404 90.433202 
z
" style="fill:#ffffff;stroke:#000000;"/>
    <path clip-path="url(#pf5ee0c7d04)" d="M 116.406845 94.341639 
L 126.493913 96.245735 
L 132.122051 92.961791 
L 122.092464 90.980769 
z
" style="fill:#ffffff;stroke:#000000;"/>
    <path clip-path="url(#pf5ee0c7d04)" d="M 142.250138 94.816508 
L 152.470999 96.841027 
L 157.896031 93.416788 
L 147.728535 91.562026 
z
" style="fill:#ffffff;stroke:#000000;"/>
    <path clip-path="url(#pf5ee0c7d04)" d="M 74.743095 95.492444 
L 84.638856 96.965968 
L 90.632241 93.912054 
L 80.768542 91.679239 
z
" style="fill:#ffffff;stroke:#000000;"/>
    <path clip-path="url(#pf5ee0c7d04)" d="M 100.580361 95.684455 
L 110.627027 97.71891 
L 116.406845 94.341639 
L 106.415965 92.416772 
z
" style="fill:#ffffff;stroke:#000000;"/>
    <path clip-path="url(#pf5ee0c7d04)" d="M 126.493913 96.245735 
L 136.676167 98.277774 
L 142.250138 94.816508 
L 132.122051 92.961791 
z
" style="fill:#ffffff;stroke:#000000;"/>
    <path clip-path="url(#pf5ee0c7d04)" d="M 58.754641 97.244335 
L 68.575804 98.126625 
L 74.743095 95.492444 
L 64.899671 92.805121 
z
" style="fill:#fefefe;stroke:#000000;"/>
    <path clip-path="url(#pf5ee0c7d04)" d="M 152.470999 96.841027 
L 162.793024 98.79605 
L 168.156038 95.401126 
L 157.896031 93.416788 
z
" style="fill:#ffffff;stroke:#000000;"/>
    <path clip-path="url(#pf5ee0c7d04)" d="M 84.638856 96.965968 
L 94.649993 99.252167 
L 100.580361 95.684455 
L 90.632241 93.912054 
z
" style="fill:#ffffff;stroke:#000000;"/>
    <path clip-path="url(#pf5ee0c7d04)" d="M 110.627027 97.71891 
L 120.769964 99.694746 
L 126.493913 96.245735 
L 116.406845 94.341639 
z
" style="fill:#ffffff;stroke:#000000;"/>
    <path clip-path="url(#pf5ee0c7d04)" d="M 136.676167 98.277774 
L 146.960294 100.18303 
L 152.470999 96.841027 
L 142.250138 94.816508 
z
" style="fill:#ffffff;stroke:#000000;"/>
    <path clip-path="url(#pf5ee0c7d04)" d="M 68.575804 98.126625 
L 78.564549 100.871555 
L 84.638856 96.965968 
L 74.743095 95.492444 
z
" style="fill:#fefefe;stroke:#000000;"/>
    <path clip-path="url(#pf5ee0c7d04)" d="M 94.649993 99.252167 
L 104.749823 101.07469 
L 110.627027 97.71891 
L 100.580361 95.684455 
z
" style="fill:#ffffff;stroke:#000000;"/>
    <path clip-path="url(#pf5ee0c7d04)" d="M 120.769964 99.694746 
L 131.012001 101.650222 
L 136.676167 98.277774 
L 126.493913 96.245735 
z
" style="fill:#ffffff;stroke:#000000;"/>
    <path clip-path="url(#pf5ee0c7d04)" d="M 52.368461 98.86381 
L 62.376616 102.664193 
L 68.575804 98.126625 
L 58.754641 97.244335 
z
" style="fill:#fdfdfd;stroke:#000000;"/>
    <path clip-path="url(#pf5ee0c7d04)" d="M 146.960294 100.18303 
L 157.339797 102.24808 
L 162.793024 98.79605 
L 152.470999 96.841027 
z
" style="fill:#ffffff;stroke:#000000;"/>
    <path clip-path="url(#pf5ee0c7d04)" d="M 78.564549 100.871555 
L 88.611983 102.393134 
L 94.649993 99.252167 
L 84.638856 96.965968 
z
" style="fill:#ffffff;stroke:#000000;"/>
    <path clip-path="url(#pf5ee0c7d04)" d="M 104.749823 101.07469 
L 114.950075 103.162051 
L 120.769964 99.694746 
L 110.627027 97.71891 
z
" style="fill:#ffffff;stroke:#000000;"/>
    <path clip-path="url(#pf5ee0c7d04)" d="M 131.012001 101.650222 
L 141.351547 103.735308 
L 146.960294 100.18303 
L 136.676167 98.277774 
z
" style="fill:#ffffff;stroke:#000000;"/>
    <path clip-path="url(#pf5ee0c7d04)" d="M 62.376616 102.664193 
L 72.349965 103.59003 
L 78.564549 100.871555 
L 68.575804 98.126625 
z
" style="fill:#fefefe;stroke:#000000;"/>
    <path clip-path="url(#pf5ee0c7d04)" d="M 88.611983 102.393134 
L 98.774965 104.734787 
L 104.749823 101.07469 
L 94.649993 99.252167 
z
" style="fill:#ffffff;stroke:#000000;"/>
    <path clip-path="url(#pf5ee0c7d04)" d="M 114.950075 103.162051 
L 125.249682 105.190907 
L 131.012001 101.650222 
L 120.769964 99.694746 
z
" style="fill:#ffffff;stroke:#000000;"/>
    <path clip-path="url(#pf5ee0c7d04)" d="M 141.351547 103.735308 
L 151.794063 105.758671 
L 157.339797 102.24808 
L 146.960294 100.18303 
z
" style="fill:#ffffff;stroke:#000000;"/>
    <path clip-path="url(#pf5ee0c7d04)" d="M 72.349965 103.59003 
L 82.488334 106.394708 
L 88.611983 102.393134 
L 78.564549 100.871555 
z
" style="fill:#fefefe;stroke:#000000;"/>
    <path clip-path="url(#pf5ee0c7d04)" d="M 98.774965 104.734787 
L 109.031116 106.609499 
L 114.950075 103.162051 
L 104.749823 101.07469 
z
" style="fill:#ffffff;stroke:#000000;"/>
    <path clip-path="url(#pf5ee0c7d04)" d="M 125.249682 105.190907 
L 135.651425 107.199851 
L 141.351547 103.735308 
L 131.012001 101.650222 
z
" style="fill:#ffffff;stroke:#000000;"/>
    <path clip-path="url(#pf5ee0c7d04)" d="M 55.941596 104.36022 
L 66.0959 108.229664 
L 72.349965 103.59003 
L 62.376616 102.664193 
z
" style="fill:#fdfdfd;stroke:#000000;"/>
    <path clip-path="url(#pf5ee0c7d04)" d="M 82.488334 106.394708 
L 92.692073 107.96641 
L 98.774965 104.734787 
L 88.611983 102.393134 
z
" style="fill:#ffffff;stroke:#000000;"/>
    <path clip-path="url(#pf5ee0c7d04)" d="M 109.031116 106.609499 
L 119.389637 108.751893 
L 125.249682 105.190907 
L 114.950075 103.162051 
z
" style="fill:#ffffff;stroke:#000000;"/>
    <path clip-path="url(#pf5ee0c7d04)" d="M 135.651425 107.199851 
L 146.153446 109.329324 
L 151.794063 105.758671 
L 141.351547 103.735308 
z
" style="fill:#ffffff;stroke:#000000;"/>
    <path clip-path="url(#pf5ee0c7d04)" d="M 66.0959 108.229664 
L 76.226126 109.201091 
L 82.488334 106.394708 
L 72.349965 103.59003 
z
" style="fill:#fefefe;stroke:#000000;"/>
    <path clip-path="url(#pf5ee0c7d04)" d="M 92.692073 107.96641 
L 103.011506 110.365698 
L 109.031116 106.609499 
L 98.774965 104.734787 
z
" style="fill:#ffffff;stroke:#000000;"/>
    <path clip-path="url(#pf5ee0c7d04)" d="M 119.389637 108.751893 
L 129.850734 110.835933 
L 135.651425 107.199851 
L 125.249682 105.190907 
z
" style="fill:#ffffff;stroke:#000000;"/>
    <path clip-path="url(#pf5ee0c7d04)" d="M 42.70324 46.251223 
L 55.941596 104.36022 
L 62.376616 102.664193 
L 52.368461 98.86381 
z
" style="stroke:#000000;"/>
    <path clip-path="url(#pf5ee0c7d04)" d="M 76.226126 109.201091 
L 86.518617 112.067767 
L 92.692073 107.96641 
L 82.488334 106.394708 
z
" style="fill:#fefefe;stroke:#000000;"/>
    <path clip-path="url(#pf5ee0c7d04)" d="M 103.011506 110.365698 
L 113.4288 112.294777 
L 119.389637 108.751893 
L 109.031116 106.609499 
z
" style="fill:#ffffff;stroke:#000000;"/>
    <path clip-path="url(#pf5ee0c7d04)" d="M 129.850734 110.835933 
L 140.415492 112.961595 
L 146.153446 109.329324 
L 135.651425 107.199851 
z
" style="fill:#ffffff;stroke:#000000;"/>
    <path clip-path="url(#pf5ee0c7d04)" d="M 86.518617 112.067767 
L 96.883506 113.691775 
L 103.011506 110.365698 
L 92.692073 107.96641 
z
" style="fill:#ffffff;stroke:#000000;"/>
    <path clip-path="url(#pf5ee0c7d04)" d="M 113.4288 112.294777 
L 123.950487 114.494449 
L 129.850734 110.835933 
L 119.389637 108.751893 
z
" style="fill:#ffffff;stroke:#000000;"/>
    <path clip-path="url(#pf5ee0c7d04)" d="M 96.883506 113.691775 
L 107.364204 116.150997 
L 113.4288 112.294777 
L 103.011506 110.365698 
z
" style="fill:#ffffff;stroke:#000000;"/>
    <path clip-path="url(#pf5ee0c7d04)" d="M 123.950487 114.494449 
L 134.577658 116.657092 
L 140.415492 112.961595 
L 129.850734 110.835933 
z
" style="fill:#ffffff;stroke:#000000;"/>
    <path clip-path="url(#pf5ee0c7d04)" d="M 107.364204 116.150997 
L 117.947687 118.136744 
L 123.950487 114.494449 
L 113.4288 112.294777 
z
" style="fill:#ffffff;stroke:#000000;"/>
    <path clip-path="url(#pf5ee0c7d04)" d="M 117.947687 118.136744 
L 128.637313 120.417481 
L 134.577658 116.657092 
L 123.950487 114.494449 
z
" style="fill:#ffffff;stroke:#000000;"/>
   </g>
  </g>
 </g>
 <defs>
  <clipPath id="pf5ee0c7d04">
   <rect height="122.4" width="194.4" x="10.8" y="10.8"/>
  </clipPath>
 </defs>
</svg>
