<?xml version="1.0" encoding="utf-8" standalone="no"?>
<!DOCTYPE svg PUBLIC "-//W3C//DTD SVG 1.1//EN"
  "http://www.w3.org/Graphics/SVG/1.1/DTD/svg11.dtd">
<!-- Created with matplotlib (https://matplotlib.org/) -->
<svg height="144pt" version="1.1" viewBox="0 0 216 144" width="216pt" xmlns="http://www.w3.org/2000/svg" xmlns:xlink="http://www.w3.org/1999/xlink">
 <defs>
  <style type="text/css">
*{stroke-linecap:butt;stroke-linejoin:round;}
  </style>
 </defs>
 <g id="figure_1">
  <g id="patch_1">
   <path d="M 0 144 
L 216 144 
L 216 0 
L 0 0 
z
" style="fill:#ffffff;"/>
  </g>
  <g id="patch_2">
   <path d="M 10.8 133.2 
L 205.2 133.2 
L 205.2 10.8 
L 10.8 10.8 
z
" style="fill:#ffffff;"/>
  </g>
  <g id="pane3d_1">
   <g id="patch_3">
    <path d="M 36.570724 106.153914 
L 92.209021 76.144207 
L 91.282702 18.800583 
L 32.542206 45.763687 
" style="fill:#f2f2f2;opacity:0.5;stroke:#f2f2f2;stroke-linejoin:miter;"/>
   </g>
  </g>
  <g id="pane3d_2">
   <g id="patch_4">
    <path d="M 92.209021 76.144207 
L 182.337831 92.92157 
L 186.108713 33.848772 
L 91.282702 18.800583 
" style="fill:#e6e6e6;opacity:0.5;stroke:#e6e6e6;stroke-linejoin:miter;"/>
   </g>
  </g>
  <g id="pane3d_3">
   <g id="patch_5">
    <path d="M 36.570724 106.153914 
L 131.398411 125.693886 
L 182.337831 92.92157 
L 92.209021 76.144207 
" style="fill:#ececec;opacity:0.5;stroke:#ececec;stroke-linejoin:miter;"/>
   </g>
  </g>
  <g id="axis3d_1">
   <g id="line2d_1">
    <path d="M 36.570724 106.153914 
L 131.398411 125.693886 
" style="fill:none;stroke:#000000;stroke-linecap:square;stroke-width:0.8;"/>
   </g>
   <g id="Line3DCollection_1">
    <path d="M 42.352032 107.345197 
L 97.721186 77.170289 
L 97.070293 19.719031 
" style="fill:none;stroke:#b0b0b0;stroke-width:0.8;"/>
    <path d="M 62.426428 111.48168 
L 116.843521 80.729888 
L 117.160059 22.907129 
" style="fill:none;stroke:#b0b0b0;stroke-width:0.8;"/>
    <path d="M 82.901148 115.700653 
L 136.319223 84.355265 
L 137.640158 26.15717 
" style="fill:none;stroke:#b0b0b0;stroke-width:0.8;"/>
    <path d="M 103.788289 120.004609 
L 156.158179 88.048261 
L 158.522077 29.470976 
" style="fill:none;stroke:#b0b0b0;stroke-width:0.8;"/>
    <path d="M 125.100437 124.39614 
L 176.370648 91.810786 
L 179.817758 32.850444 
" style="fill:none;stroke:#b0b0b0;stroke-width:0.8;"/>
   </g>
   <g id="xtick_1">
    <g id="line2d_2">
     <path d="M 42.829066 107.085224 
L 41.396185 107.866111 
" style="fill:none;stroke:#000000;stroke-linecap:square;stroke-width:0.8;"/>
    </g>
    <g id="text_1">
     <!-- 0 -->
     <defs>
      <path d="M 31.78125 66.40625 
Q 24.171875 66.40625 20.328125 58.90625 
Q 16.5 51.421875 16.5 36.375 
Q 16.5 21.390625 20.328125 13.890625 
Q 24.171875 6.390625 31.78125 6.390625 
Q 39.453125 6.390625 43.28125 13.890625 
Q 47.125 21.390625 47.125 36.375 
Q 47.125 51.421875 43.28125 58.90625 
Q 39.453125 66.40625 31.78125 66.40625 
z
M 31.78125 74.21875 
Q 44.046875 74.21875 50.515625 64.515625 
Q 56.984375 54.828125 56.984375 36.375 
Q 56.984375 17.96875 50.515625 8.265625 
Q 44.046875 -1.421875 31.78125 -1.421875 
Q 19.53125 -1.421875 13.0625 8.265625 
Q 6.59375 17.96875 6.59375 36.375 
Q 6.59375 54.828125 13.0625 64.515625 
Q 19.53125 74.21875 31.78125 74.21875 
z
" id="DejaVuSans-48"/>
     </defs>
     <g transform="translate(31.317754 127.519522)scale(0.1 -0.1)">
      <use xlink:href="#DejaVuSans-48"/>
     </g>
    </g>
   </g>
   <g id="xtick_2">
    <g id="line2d_3">
     <path d="M 62.89559 111.21655 
L 61.486337 112.012937 
" style="fill:none;stroke:#000000;stroke-linecap:square;stroke-width:0.8;"/>
    </g>
    <g id="text_2">
     <!-- 2 -->
     <defs>
      <path d="M 19.1875 8.296875 
L 53.609375 8.296875 
L 53.609375 0 
L 7.328125 0 
L 7.328125 8.296875 
Q 12.9375 14.109375 22.625 23.890625 
Q 32.328125 33.6875 34.8125 36.53125 
Q 39.546875 41.84375 41.421875 45.53125 
Q 43.3125 49.21875 43.3125 52.78125 
Q 43.3125 58.59375 39.234375 62.25 
Q 35.15625 65.921875 28.609375 65.921875 
Q 23.96875 65.921875 18.8125 64.3125 
Q 13.671875 62.703125 7.8125 59.421875 
L 7.8125 69.390625 
Q 13.765625 71.78125 18.9375 73 
Q 24.125 74.21875 28.421875 74.21875 
Q 39.75 74.21875 46.484375 68.546875 
Q 53.21875 62.890625 53.21875 53.421875 
Q 53.21875 48.921875 51.53125 44.890625 
Q 49.859375 40.875 45.40625 35.40625 
Q 44.1875 33.984375 37.640625 27.21875 
Q 31.109375 20.453125 19.1875 8.296875 
z
" id="DejaVuSans-50"/>
     </defs>
     <g transform="translate(51.387708 131.795734)scale(0.1 -0.1)">
      <use xlink:href="#DejaVuSans-50"/>
     </g>
    </g>
   </g>
   <g id="xtick_3">
    <g id="line2d_4">
     <path d="M 83.362028 115.430212 
L 81.977636 116.242564 
" style="fill:none;stroke:#000000;stroke-linecap:square;stroke-width:0.8;"/>
    </g>
    <g id="text_3">
     <!-- 4 -->
     <defs>
      <path d="M 37.796875 64.3125 
L 12.890625 25.390625 
L 37.796875 25.390625 
z
M 35.203125 72.90625 
L 47.609375 72.90625 
L 47.609375 25.390625 
L 58.015625 25.390625 
L 58.015625 17.1875 
L 47.609375 17.1875 
L 47.609375 0 
L 37.796875 0 
L 37.796875 17.1875 
L 4.890625 17.1875 
L 4.890625 26.703125 
z
" id="DejaVuSans-52"/>
     </defs>
     <g transform="translate(71.859374 136.157538)scale(0.1 -0.1)">
      <use xlink:href="#DejaVuSans-52"/>
     </g>
    </g>
   </g>
   <g id="xtick_4">
    <g id="line2d_5">
     <path d="M 104.240456 119.728694 
L 102.882217 120.557497 
" style="fill:none;stroke:#000000;stroke-linecap:square;stroke-width:0.8;"/>
    </g>
    <g id="text_4">
     <!-- 6 -->
     <defs>
      <path d="M 33.015625 40.375 
Q 26.375 40.375 22.484375 35.828125 
Q 18.609375 31.296875 18.609375 23.390625 
Q 18.609375 15.53125 22.484375 10.953125 
Q 26.375 6.390625 33.015625 6.390625 
Q 39.65625 6.390625 43.53125 10.953125 
Q 47.40625 15.53125 47.40625 23.390625 
Q 47.40625 31.296875 43.53125 35.828125 
Q 39.65625 40.375 33.015625 40.375 
z
M 52.59375 71.296875 
L 52.59375 62.3125 
Q 48.875 64.0625 45.09375 64.984375 
Q 41.3125 65.921875 37.59375 65.921875 
Q 27.828125 65.921875 22.671875 59.328125 
Q 17.53125 52.734375 16.796875 39.40625 
Q 19.671875 43.65625 24.015625 45.921875 
Q 28.375 48.1875 33.59375 48.1875 
Q 44.578125 48.1875 50.953125 41.515625 
Q 57.328125 34.859375 57.328125 23.390625 
Q 57.328125 12.15625 50.6875 5.359375 
Q 44.046875 -1.421875 33.015625 -1.421875 
Q 20.359375 -1.421875 13.671875 8.265625 
Q 6.984375 17.96875 6.984375 36.375 
Q 6.984375 53.65625 15.1875 63.9375 
Q 23.390625 74.21875 37.203125 74.21875 
Q 40.921875 74.21875 44.703125 73.484375 
Q 48.484375 72.75 52.59375 71.296875 
z
" id="DejaVuSans-54"/>
     </defs>
     <g transform="translate(92.744938 140.607528)scale(0.1 -0.1)">
      <use xlink:href="#DejaVuSans-54"/>
     </g>
    </g>
   </g>
   <g id="xtick_5">
    <g id="line2d_6">
     <path d="M 125.54344 124.114585 
L 124.212712 124.960344 
" style="fill:none;stroke:#000000;stroke-linecap:square;stroke-width:0.8;"/>
    </g>
    <g id="text_5">
     <!-- 8 -->
     <defs>
      <path d="M 31.78125 34.625 
Q 24.75 34.625 20.71875 30.859375 
Q 16.703125 27.09375 16.703125 20.515625 
Q 16.703125 13.921875 20.71875 10.15625 
Q 24.75 6.390625 31.78125 6.390625 
Q 38.8125 6.390625 42.859375 10.171875 
Q 46.921875 13.96875 46.921875 20.515625 
Q 46.921875 27.09375 42.890625 30.859375 
Q 38.875 34.625 31.78125 34.625 
z
M 21.921875 38.8125 
Q 15.578125 40.375 12.03125 44.71875 
Q 8.5 49.078125 8.5 55.328125 
Q 8.5 64.0625 14.71875 69.140625 
Q 20.953125 74.21875 31.78125 74.21875 
Q 42.671875 74.21875 48.875 69.140625 
Q 55.078125 64.0625 55.078125 55.328125 
Q 55.078125 49.078125 51.53125 44.71875 
Q 48 40.375 41.703125 38.8125 
Q 48.828125 37.15625 52.796875 32.3125 
Q 56.78125 27.484375 56.78125 20.515625 
Q 56.78125 9.90625 50.3125 4.234375 
Q 43.84375 -1.421875 31.78125 -1.421875 
Q 19.734375 -1.421875 13.25 4.234375 
Q 6.78125 9.90625 6.78125 20.515625 
Q 6.78125 27.484375 10.78125 32.3125 
Q 14.796875 37.15625 21.921875 38.8125 
z
M 18.3125 54.390625 
Q 18.3125 48.734375 21.84375 45.5625 
Q 25.390625 42.390625 31.78125 42.390625 
Q 38.140625 42.390625 41.71875 45.5625 
Q 45.3125 48.734375 45.3125 54.390625 
Q 45.3125 60.0625 41.71875 63.234375 
Q 38.140625 66.40625 31.78125 66.40625 
Q 25.390625 66.40625 21.84375 63.234375 
Q 18.3125 60.0625 18.3125 54.390625 
z
" id="DejaVuSans-56"/>
     </defs>
     <g transform="translate(114.057078 145.148407)scale(0.1 -0.1)">
      <use xlink:href="#DejaVuSans-56"/>
     </g>
    </g>
   </g>
  </g>
  <g id="axis3d_2">
   <g id="line2d_7">
    <path d="M 182.337831 92.92157 
L 131.398411 125.693886 
" style="fill:none;stroke:#000000;stroke-linecap:square;stroke-width:0.8;"/>
   </g>
   <g id="Line3DCollection_2">
    <path d="M 36.564365 43.917433 
L 40.366648 104.106501 
L 134.88463 123.450997 
" style="fill:none;stroke:#b0b0b0;stroke-width:0.8;"/>
    <path d="M 50.044637 37.729709 
L 53.103467 97.236625 
L 146.570602 115.932726 
" style="fill:none;stroke:#b0b0b0;stroke-width:0.8;"/>
    <path d="M 63.063746 31.753668 
L 65.426198 90.590096 
L 157.859573 108.669869 
" style="fill:none;stroke:#b0b0b0;stroke-width:0.8;"/>
    <path d="M 75.644958 25.978632 
L 77.354713 84.156196 
L 168.771436 101.649627 
" style="fill:none;stroke:#b0b0b0;stroke-width:0.8;"/>
    <path d="M 87.810001 20.394625 
L 88.90763 77.924883 
L 179.324777 94.860044 
" style="fill:none;stroke:#b0b0b0;stroke-width:0.8;"/>
   </g>
   <g id="xtick_6">
    <g id="line2d_8">
     <path d="M 134.093598 123.2891 
L 136.468463 123.775151 
" style="fill:none;stroke:#000000;stroke-linecap:square;stroke-width:0.8;"/>
    </g>
    <g id="text_6">
     <!-- 0 -->
     <g transform="translate(145.296339 142.045096)scale(0.1 -0.1)">
      <use xlink:href="#DejaVuSans-48"/>
     </g>
    </g>
   </g>
   <g id="xtick_7">
    <g id="line2d_9">
     <path d="M 145.78896 115.776375 
L 148.135602 116.245771 
" style="fill:none;stroke:#000000;stroke-linecap:square;stroke-width:0.8;"/>
    </g>
    <g id="text_7">
     <!-- 2 -->
     <g transform="translate(156.736148 134.344417)scale(0.1 -0.1)">
      <use xlink:href="#DejaVuSans-50"/>
     </g>
    </g>
   </g>
   <g id="xtick_8">
    <g id="line2d_10">
     <path d="M 157.087145 108.518784 
L 159.406095 108.972365 
" style="fill:none;stroke:#000000;stroke-linecap:square;stroke-width:0.8;"/>
    </g>
    <g id="text_8">
     <!-- 4 -->
     <g transform="translate(167.787695 126.905095)scale(0.1 -0.1)">
      <use xlink:href="#DejaVuSans-52"/>
     </g>
    </g>
   </g>
   <g id="xtick_9">
    <g id="line2d_11">
     <path d="M 168.008049 101.503546 
L 170.299831 101.9421 
" style="fill:none;stroke:#000000;stroke-linecap:square;stroke-width:0.8;"/>
    </g>
    <g id="text_9">
     <!-- 6 -->
     <g transform="translate(178.470418 119.714046)scale(0.1 -0.1)">
      <use xlink:href="#DejaVuSans-54"/>
     </g>
    </g>
   </g>
   <g id="xtick_10">
    <g id="line2d_12">
     <path d="M 178.570258 94.718722 
L 180.835392 95.142983 
" style="fill:none;stroke:#000000;stroke-linecap:square;stroke-width:0.8;"/>
    </g>
    <g id="text_10">
     <!-- 8 -->
     <g transform="translate(188.802476 112.759047)scale(0.1 -0.1)">
      <use xlink:href="#DejaVuSans-56"/>
     </g>
    </g>
   </g>
  </g>
  <g id="axis3d_3">
   <g id="line2d_13">
    <path d="M 182.337831 92.92157 
L 186.108713 33.848772 
" style="fill:none;stroke:#000000;stroke-linecap:square;stroke-width:0.8;"/>
   </g>
   <g id="Line3DCollection_3">
    <path d="M 182.409553 91.798014 
L 92.191365 75.051207 
L 36.494231 105.007238 
" style="fill:none;stroke:#b0b0b0;stroke-width:0.8;"/>
    <path d="M 183.105451 80.896418 
L 92.020128 64.45079 
L 35.751783 93.877425 
" style="fill:none;stroke:#b0b0b0;stroke-width:0.8;"/>
    <path d="M 183.814973 69.781382 
L 91.84568 53.651606 
L 34.994312 82.522424 
" style="fill:none;stroke:#b0b0b0;stroke-width:0.8;"/>
    <path d="M 184.538525 58.446575 
L 91.66793 42.648011 
L 34.221359 70.935331 
" style="fill:none;stroke:#b0b0b0;stroke-width:0.8;"/>
    <path d="M 185.276526 46.885413 
L 91.486783 31.434147 
L 33.432443 59.108956 
" style="fill:none;stroke:#b0b0b0;stroke-width:0.8;"/>
    <path d="M 186.029413 35.091048 
L 91.302141 20.003926 
L 32.627067 47.03581 
" style="fill:none;stroke:#b0b0b0;stroke-width:0.8;"/>
   </g>
   <g id="xtick_11">
    <g id="line2d_14">
     <path d="M 181.656811 91.658286 
L 183.916603 92.077761 
" style="fill:none;stroke:#000000;stroke-linecap:square;stroke-width:0.8;"/>
    </g>
    <g id="text_11">
     <!-- 0.0 -->
     <defs>
      <path d="M 10.6875 12.40625 
L 21 12.40625 
L 21 0 
L 10.6875 0 
z
" id="DejaVuSans-46"/>
     </defs>
     <g transform="translate(194.066208 97.621385)scale(0.1 -0.1)">
      <use xlink:href="#DejaVuSans-48"/>
      <use x="63.623047" xlink:href="#DejaVuSans-46"/>
      <use x="95.410156" xlink:href="#DejaVuSans-48"/>
     </g>
    </g>
   </g>
   <g id="xtick_12">
    <g id="line2d_15">
     <path d="M 182.345171 80.759148 
L 184.627608 81.171247 
" style="fill:none;stroke:#000000;stroke-linecap:square;stroke-width:0.8;"/>
    </g>
    <g id="text_12">
     <!-- 0.2 -->
     <g transform="translate(194.948262 86.751086)scale(0.1 -0.1)">
      <use xlink:href="#DejaVuSans-48"/>
      <use x="63.623047" xlink:href="#DejaVuSans-46"/>
      <use x="95.410156" xlink:href="#DejaVuSans-50"/>
     </g>
    </g>
   </g>
   <g id="xtick_13">
    <g id="line2d_16">
     <path d="M 183.047003 69.646694 
L 185.352544 70.051045 
" style="fill:none;stroke:#000000;stroke-linecap:square;stroke-width:0.8;"/>
    </g>
    <g id="text_13">
     <!-- 0.4 -->
     <g transform="translate(195.847509 75.668913)scale(0.1 -0.1)">
      <use xlink:href="#DejaVuSans-48"/>
      <use x="63.623047" xlink:href="#DejaVuSans-46"/>
      <use x="95.410156" xlink:href="#DejaVuSans-52"/>
     </g>
    </g>
   </g>
   <g id="xtick_14">
    <g id="line2d_17">
     <path d="M 183.762706 58.314597 
L 186.091824 58.710812 
" style="fill:none;stroke:#000000;stroke-linecap:square;stroke-width:0.8;"/>
    </g>
    <g id="text_14">
     <!-- 0.6 -->
     <g transform="translate(196.764455 64.368612)scale(0.1 -0.1)">
      <use xlink:href="#DejaVuSans-48"/>
      <use x="63.623047" xlink:href="#DejaVuSans-46"/>
      <use x="95.410156" xlink:href="#DejaVuSans-54"/>
     </g>
    </g>
   </g>
   <g id="xtick_15">
    <g id="line2d_18">
     <path d="M 184.492698 46.756282 
L 186.845877 47.143954 
" style="fill:none;stroke:#000000;stroke-linecap:square;stroke-width:0.8;"/>
    </g>
    <g id="text_15">
     <!-- 0.8 -->
     <g transform="translate(197.699628 52.843677)scale(0.1 -0.1)">
      <use xlink:href="#DejaVuSans-48"/>
      <use x="63.623047" xlink:href="#DejaVuSans-46"/>
      <use x="95.410156" xlink:href="#DejaVuSans-56"/>
     </g>
    </g>
   </g>
   <g id="xtick_16">
    <g id="line2d_19">
     <path d="M 185.237409 34.964906 
L 187.615152 35.343607 
" style="fill:none;stroke:#000000;stroke-linecap:square;stroke-width:0.8;"/>
    </g>
    <g id="text_16">
     <!-- 1.0 -->
     <defs>
      <path d="M 12.40625 8.296875 
L 28.515625 8.296875 
L 28.515625 63.921875 
L 10.984375 60.40625 
L 10.984375 69.390625 
L 28.421875 72.90625 
L 38.28125 72.90625 
L 38.28125 8.296875 
L 54.390625 8.296875 
L 54.390625 0 
L 12.40625 0 
z
" id="DejaVuSans-49"/>
     </defs>
     <g transform="translate(198.653578 41.087344)scale(0.1 -0.1)">
      <use xlink:href="#DejaVuSans-49"/>
      <use x="63.623047" xlink:href="#DejaVuSans-46"/>
      <use x="95.410156" xlink:href="#DejaVuSans-48"/>
     </g>
    </g>
   </g>
  </g>
  <g id="axes_1">
   <g id="Poly3DCollection_1">
    <path clip-path="url(#p5e18f0aee6)" d="M 88.650097 77.70013 
L 98.202403 72.043716 
L 103.976537 79.646977 
L 94.420764 77.862197 
z
" style="fill:#f0f0f0;stroke:#000000;"/>
    <path clip-path="url(#p5e18f0aee6)" d="M 98.202403 72.043716 
L 107.993016 75.539091 
L 113.620285 81.448189 
L 103.976537 79.646977 
z
" style="fill:#e4e4e4;stroke:#000000;"/>
    <path clip-path="url(#p5e18f0aee6)" d="M 107.993016 75.539091 
L 117.860577 76.810427 
L 123.35323 83.266061 
L 113.620285 81.448189 
z
" style="fill:#e6e6e6;stroke:#000000;"/>
    <path clip-path="url(#p5e18f0aee6)" d="M 82.600869 71.33144 
L 92.481099 80.386022 
L 98.202403 72.043716 
L 88.650097 77.70013 
z
" style="fill:#c9c9c9;stroke:#000000;"/>
    <path clip-path="url(#p5e18f0aee6)" d="M 92.481099 80.386022 
L 102.306337 86.40053 
L 107.993016 75.539091 
L 98.202403 72.043716 
z
" style="fill:#d5d5d5;stroke:#000000;"/>
    <path clip-path="url(#p5e18f0aee6)" d="M 117.860577 76.810427 
L 128.014489 65.95262 
L 133.176615 85.100825 
L 123.35323 83.266061 
z
" style="fill:#cacaca;stroke:#000000;"/>
    <path clip-path="url(#p5e18f0aee6)" d="M 102.306337 86.40053 
L 112.160866 85.412362 
L 117.860577 76.810427 
L 107.993016 75.539091 
z
" style="fill:#dadada;stroke:#000000;"/>
    <path clip-path="url(#p5e18f0aee6)" d="M 128.014489 65.95262 
L 137.730128 86.713639 
L 143.091706 86.952717 
L 133.176615 85.100825 
z
" style="fill:#d8d8d8;stroke:#000000;"/>
    <path clip-path="url(#p5e18f0aee6)" d="M 137.730128 86.713639 
L 147.830285 88.477429 
L 153.099793 88.821979 
L 143.091706 86.952717 
z
" style="fill:#ffffff;stroke:#000000;"/>
    <path clip-path="url(#p5e18f0aee6)" d="M 76.387559 66.050383 
L 86.519073 79.347095 
L 92.481099 80.386022 
L 82.600869 71.33144 
z
" style="fill:#a5a5a5;stroke:#000000;"/>
    <path clip-path="url(#p5e18f0aee6)" d="M 86.519073 79.347095 
L 96.376134 79.079999 
L 102.306337 86.40053 
L 92.481099 80.386022 
z
" style="fill:#d1d1d1;stroke:#000000;"/>
    <path clip-path="url(#p5e18f0aee6)" d="M 96.376134 79.079999 
L 106.411788 91.301907 
L 112.160866 85.412362 
L 102.306337 86.40053 
z
" style="fill:#e5e5e5;stroke:#000000;"/>
    <path clip-path="url(#p5e18f0aee6)" d="M 147.830285 88.477429 
L 158.201047 86.17103 
L 163.202192 90.708855 
L 153.099793 88.821979 
z
" style="fill:#f6f6f6;stroke:#000000;"/>
    <path clip-path="url(#p5e18f0aee6)" d="M 112.160866 85.412362 
L 122.253107 75.213766 
L 128.014489 65.95262 
L 117.860577 76.810427 
z
" style="fill:#9e9e9e;stroke:#000000;"/>
    <path clip-path="url(#p5e18f0aee6)" d="M 158.201047 86.17103 
L 168.127573 95.955728 
L 173.40024 92.613597 
L 163.202192 90.708855 
z
" style="fill:#fefefe;stroke:#000000;"/>
    <path clip-path="url(#p5e18f0aee6)" d="M 132.229585 87.342002 
L 142.299588 93.062798 
L 147.830285 88.477429 
L 137.730128 86.713639 
z
" style="fill:#ededed;stroke:#000000;"/>
    <path clip-path="url(#p5e18f0aee6)" d="M 106.411788 91.301907 
L 116.4436 87.206698 
L 122.253107 75.213766 
L 112.160866 85.412362 
z
" style="fill:#cfcfcf;stroke:#000000;"/>
    <path clip-path="url(#p5e18f0aee6)" d="M 122.253107 75.213766 
L 132.229585 87.342002 
L 137.730128 86.713639 
L 128.014489 65.95262 
z
" style="fill:#a8a8a8;stroke:#000000;"/>
    <path clip-path="url(#p5e18f0aee6)" d="M 70.215239 67.371274 
L 80.43685 79.185986 
L 86.519073 79.347095 
L 76.387559 66.050383 
z
" style="fill:#7f7f7f;stroke:#000000;"/>
    <path clip-path="url(#p5e18f0aee6)" d="M 80.43685 79.185986 
L 90.429886 82.55299 
L 96.376134 79.079999 
L 86.519073 79.347095 
z
" style="fill:#ababab;stroke:#000000;"/>
    <path clip-path="url(#p5e18f0aee6)" d="M 142.299588 93.062798 
L 152.508239 95.844745 
L 158.201047 86.17103 
L 147.830285 88.477429 
z
" style="fill:#eeeeee;stroke:#000000;"/>
    <path clip-path="url(#p5e18f0aee6)" d="M 90.429886 82.55299 
L 100.544935 91.733081 
L 106.411788 91.301907 
L 96.376134 79.079999 
z
" style="fill:#cfcfcf;stroke:#000000;"/>
    <path clip-path="url(#p5e18f0aee6)" d="M 152.508239 95.844745 
L 162.766998 99.353581 
L 168.127573 95.955728 
L 158.201047 86.17103 
z
" style="fill:#fbfbfb;stroke:#000000;"/>
    <path clip-path="url(#p5e18f0aee6)" d="M 116.4436 87.206698 
L 126.597115 88.960597 
L 132.229585 87.342002 
L 122.253107 75.213766 
z
" style="fill:#bebebe;stroke:#000000;"/>
    <path clip-path="url(#p5e18f0aee6)" d="M 100.544935 91.733081 
L 110.627027 87.350512 
L 116.4436 87.206698 
L 106.411788 91.301907 
z
" style="fill:#dadada;stroke:#000000;"/>
    <path clip-path="url(#p5e18f0aee6)" d="M 126.597115 88.960597 
L 136.73137 95.908457 
L 142.299588 93.062798 
L 132.229585 87.342002 
z
" style="fill:#e6e6e6;stroke:#000000;"/>
    <path clip-path="url(#p5e18f0aee6)" d="M 74.297176 81.564404 
L 84.581308 94.487296 
L 90.429886 82.55299 
L 80.43685 79.185986 
z
" style="fill:#b4b4b4;stroke:#000000;"/>
    <path clip-path="url(#p5e18f0aee6)" d="M 64.277756 77.524898 
L 74.297176 81.564404 
L 80.43685 79.185986 
L 70.215239 67.371274 
z
" style="fill:#818181;stroke:#000000;"/>
    <path clip-path="url(#p5e18f0aee6)" d="M 84.581308 94.487296 
L 94.591893 95.190004 
L 100.544935 91.733081 
L 90.429886 82.55299 
z
" style="fill:#dbdbdb;stroke:#000000;"/>
    <path clip-path="url(#p5e18f0aee6)" d="M 136.73137 95.908457 
L 147.16944 93.75825 
L 152.508239 95.844745 
L 142.299588 93.062798 
z
" style="fill:#f1f1f1;stroke:#000000;"/>
    <path clip-path="url(#p5e18f0aee6)" d="M 110.627027 87.350512 
L 120.818735 94.325683 
L 126.597115 88.960597 
L 116.4436 87.206698 
z
" style="fill:#cacaca;stroke:#000000;"/>
    <path clip-path="url(#p5e18f0aee6)" d="M 147.16944 93.75825 
L 157.316296 102.808562 
L 162.766998 99.353581 
L 152.508239 95.844745 
z
" style="fill:#fdfdfd;stroke:#000000;"/>
    <path clip-path="url(#p5e18f0aee6)" d="M 120.818735 94.325683 
L 131.021772 101.115946 
L 136.73137 95.908457 
L 126.597115 88.960597 
z
" style="fill:#e9e9e9;stroke:#000000;"/>
    <path clip-path="url(#p5e18f0aee6)" d="M 58.520894 92.201621 
L 67.865335 79.234583 
L 74.297176 81.564404 
L 64.277756 77.524898 
z
" style="fill:#999999;stroke:#000000;"/>
    <path clip-path="url(#p5e18f0aee6)" d="M 94.591893 95.190004 
L 104.697754 91.194421 
L 110.627027 87.350512 
L 100.544935 91.733081 
z
" style="fill:#cecece;stroke:#000000;"/>
    <path clip-path="url(#p5e18f0aee6)" d="M 78.127655 85.672233 
L 88.486715 96.054855 
L 94.591893 95.190004 
L 84.581308 94.487296 
z
" style="fill:#cfcfcf;stroke:#000000;"/>
    <path clip-path="url(#p5e18f0aee6)" d="M 67.865335 79.234583 
L 78.127655 85.672233 
L 84.581308 94.487296 
L 74.297176 81.564404 
z
" style="fill:#9f9f9f;stroke:#000000;"/>
    <path clip-path="url(#p5e18f0aee6)" d="M 131.021772 101.115946 
L 141.573573 95.695477 
L 147.16944 93.75825 
L 136.73137 95.908457 
z
" style="fill:#e5e5e5;stroke:#000000;"/>
    <path clip-path="url(#p5e18f0aee6)" d="M 104.697754 91.194421 
L 115.001819 89.838411 
L 120.818735 94.325683 
L 110.627027 87.350512 
z
" style="fill:#b8b8b8;stroke:#000000;"/>
    <path clip-path="url(#p5e18f0aee6)" d="M 141.573573 95.695477 
L 151.773176 106.322123 
L 157.316296 102.808562 
L 147.16944 93.75825 
z
" style="fill:#eeeeee;stroke:#000000;"/>
    <path clip-path="url(#p5e18f0aee6)" d="M 115.001819 89.838411 
L 125.278404 103.008381 
L 131.021772 101.115946 
L 120.818735 94.325683 
z
" style="fill:#dddddd;stroke:#000000;"/>
    <path clip-path="url(#p5e18f0aee6)" d="M 88.486715 96.054855 
L 98.701269 97.82307 
L 104.697754 91.194421 
L 94.591893 95.190004 
z
" style="fill:#d0d0d0;stroke:#000000;"/>
    <path clip-path="url(#p5e18f0aee6)" d="M 125.278404 103.008381 
L 135.658768 106.874377 
L 141.573573 95.695477 
L 131.021772 101.115946 
z
" style="fill:#f2f2f2;stroke:#000000;"/>
    <path clip-path="url(#p5e18f0aee6)" d="M 50.513431 63.282911 
L 61.470804 81.757585 
L 67.865335 79.234583 
L 58.520894 92.201621 
z
" style="fill:#626262;stroke:#000000;"/>
    <path clip-path="url(#p5e18f0aee6)" d="M 135.658768 106.874377 
L 146.135267 109.895767 
L 151.773176 106.322123 
L 141.573573 95.695477 
z
" style="fill:#fbfbfb;stroke:#000000;"/>
    <path clip-path="url(#p5e18f0aee6)" d="M 61.470804 81.757585 
L 71.72645 85.464395 
L 78.127655 85.672233 
L 67.865335 79.234583 
z
" style="fill:#717171;stroke:#000000;"/>
    <path clip-path="url(#p5e18f0aee6)" d="M 71.72645 85.464395 
L 82.133741 92.407984 
L 88.486715 96.054855 
L 78.127655 85.672233 
z
" style="fill:#999999;stroke:#000000;"/>
    <path clip-path="url(#p5e18f0aee6)" d="M 98.701269 97.82307 
L 108.994929 81.447381 
L 115.001819 89.838411 
L 104.697754 91.194421 
z
" style="fill:#979797;stroke:#000000;"/>
    <path clip-path="url(#p5e18f0aee6)" d="M 119.44648 101.567124 
L 129.958582 104.634067 
L 135.658768 106.874377 
L 125.278404 103.008381 
z
" style="fill:#e9e9e9;stroke:#000000;"/>
    <path clip-path="url(#p5e18f0aee6)" d="M 82.133741 92.407984 
L 92.406603 90.32498 
L 98.701269 97.82307 
L 88.486715 96.054855 
z
" style="fill:#acacac;stroke:#000000;"/>
    <path clip-path="url(#p5e18f0aee6)" d="M 108.994929 81.447381 
L 119.44648 101.567124 
L 125.278404 103.008381 
L 115.001819 89.838411 
z
" style="fill:#a7a7a7;stroke:#000000;"/>
    <path clip-path="url(#p5e18f0aee6)" d="M 129.958582 104.634067 
L 140.400117 113.531048 
L 146.135267 109.895767 
L 135.658768 106.874377 
z
" style="fill:#ffffff;stroke:#000000;"/>
    <path clip-path="url(#p5e18f0aee6)" d="M 55.219549 89.678452 
L 65.622362 96.446486 
L 71.72645 85.464395 
L 61.470804 81.757585 
z
" style="fill:#808080;stroke:#000000;"/>
    <path clip-path="url(#p5e18f0aee6)" d="M 65.622362 96.446486 
L 75.609523 89.357273 
L 82.133741 92.407984 
L 71.72645 85.464395 
z
" style="fill:#858585;stroke:#000000;"/>
    <path clip-path="url(#p5e18f0aee6)" d="M 113.458195 100.711818 
L 124.044369 106.730649 
L 129.958582 104.634067 
L 119.44648 101.567124 
z
" style="fill:#c6c6c6;stroke:#000000;"/>
    <path clip-path="url(#p5e18f0aee6)" d="M 42.70324 46.251223 
L 55.219549 89.678452 
L 61.470804 81.757585 
L 50.513431 63.282911 
z
" style="stroke:#000000;"/>
    <path clip-path="url(#p5e18f0aee6)" d="M 124.044369 106.730649 
L 134.565189 117.229574 
L 140.400117 113.531048 
L 129.958582 104.634067 
z
" style="fill:#efefef;stroke:#000000;"/>
    <path clip-path="url(#p5e18f0aee6)" d="M 92.406603 90.32498 
L 102.794721 78.88374 
L 108.994929 81.447381 
L 98.701269 97.82307 
z
" style="fill:#636363;stroke:#000000;"/>
    <path clip-path="url(#p5e18f0aee6)" d="M 102.794721 78.88374 
L 113.458195 100.711818 
L 119.44648 101.567124 
L 108.994929 81.447381 
z
" style="fill:#6f6f6f;stroke:#000000;"/>
    <path clip-path="url(#p5e18f0aee6)" d="M 75.609523 89.357273 
L 85.814805 79.83101 
L 92.406603 90.32498 
L 82.133741 92.407984 
z
" style="fill:#5e5e5e;stroke:#000000;"/>
    <path clip-path="url(#p5e18f0aee6)" d="M 117.983031 112.834761 
L 128.627854 120.993012 
L 134.565189 117.229574 
L 124.044369 106.730649 
z
" style="fill:#f1f1f1;stroke:#000000;"/>
    <path clip-path="url(#p5e18f0aee6)" d="M 107.326608 103.474545 
L 117.983031 112.834761 
L 124.044369 106.730649 
L 113.458195 100.711818 
z
" style="fill:#bdbdbd;stroke:#000000;"/>
    <path clip-path="url(#p5e18f0aee6)" d="M 96.539212 86.069784 
L 107.326608 103.474545 
L 113.458195 100.711818 
L 102.794721 78.88374 
z
" style="fill:#5f5f5f;stroke:#000000;"/>
    <path clip-path="url(#p5e18f0aee6)" d="M 85.814805 79.83101 
L 96.539212 86.069784 
L 102.794721 78.88374 
L 92.406603 90.32498 
z
" style="fill:#2c2c2c;stroke:#000000;"/>
   </g>
  </g>
 </g>
 <defs>
  <clipPath id="p5e18f0aee6">
   <rect height="122.4" width="194.4" x="10.8" y="10.8"/>
  </clipPath>
 </defs>
</svg>
